<?xml version="1.0" encoding="UTF-8"?>
<svg id="Layer_1" xmlns="http://www.w3.org/2000/svg" version="1.1" viewBox="0 0 600 148.34">
  <!-- Generator: Adobe Illustrator 30.6.0, SVG Export Plug-In . SVG Version: 2.1.4 Build 109)  -->
  <defs>
    <style>
      .st0 {
        fill: #fff;
      }
    </style>
  </defs>
  <g>
    <path class="st0" d="M401.82,147.7l-6.69-9.61-8.52-.6-.02,9.75-7.17-.06.08-33.88,17.03.22c5.73.07,10.35,4.01,11.52,8.94,1.3,5.48-.95,11.04-6.49,13.69l7.46,10.94-7.2.61ZM396.39,131.28c3.63-.19,5.29-4.28,4.88-6.86-.45-2.86-3.14-5.18-6.37-5.16l-8.38.06.13,12.47,9.74-.51Z"/>
    <path class="st0" d="M172.22,147.36l-6.53-8.96c-1.31-1.71-7.32-.94-8.56.1v8.83s-7.13-.02-7.13-.02l.05-33.9,17.09.09c5.78.03,10.53,4.03,11.49,8.86,1.13,5.66-.82,10.99-6.49,13.87l7.48,10.9-7.39.25ZM166.44,131.42c4.02-.11,5.65-4.23,5.31-7.03s-3.06-5.04-6.24-5.07l-8.47-.07-.02,12.42,9.42-.25Z"/>
    <path class="st0" d="M79.62,130.31c0,9.96-8.08,18.04-18.04,18.04s-18.04-8.08-18.04-18.04,8.08-18.04,18.04-18.04,18.04,8.08,18.04,18.04ZM72.99,130.26c0-6.25-5.07-11.32-11.32-11.32s-11.32,5.07-11.32,11.32,5.07,11.32,11.32,11.32,11.32-5.07,11.32-11.32Z"/>
    <path class="st0" d="M291.76,139.6l4.13,4.05-3.72,4.17-4.41-3.69c-5.22,3.64-11.57,4.65-17.54,2.77-4.13-1.3-6.67-4.69-6.75-8.5-.09-4.19,3.36-7.3,6.84-10.05-1.89-3.17-3.75-7.33-1.74-10.92,1.68-3,5.52-4.75,9.76-4.6,3.64.13,7.38,2.06,8.41,4.89,1.43,3.95-.3,7.2-3.3,9.59l-2.79,2.21,6.61,6.14,2.17-5.79,5.41,1.88-3.09,7.84ZM281.39,121.17c.46-1.72-2.15-3.63-3.52-3.51-1.63.14-4.01,1.7-4.02,3.22-.01,1.18,1.38,3.2,2.76,4.55,1.5-.31,4.3-2.46,4.78-4.26ZM283.18,139.78l-7.88-7.68c-3.36.49-6.71,4.83-4.22,7.88,2.93,3.59,8.96,2.94,12.1-.2Z"/>
    <polygon class="st0" points="548.01 132.7 532.01 132.67 531.99 140.99 550.7 141.25 550.93 147.36 524.9 147.3 524.93 113.44 550.1 113.18 550.15 119.25 531.88 119.3 532.04 127.04 548.08 127.1 548.01 132.7"/>
    <path class="st0" d="M450.77,139.6l-15.9-.11-3.34,7.83-7.44-.14,15.13-33.91,7.06-.11,15,33.95-7.22.17-3.29-7.67ZM448.36,133.81l-5.65-13.29-5.59,13.37,11.25-.08Z"/>
    <path class="st0" d="M122.09,113.45l7.42.15-.67,21.13c-.27,8.43-7.22,13.05-15.06,13.07-8.06.02-14.69-4.87-14.71-13.35l-.04-20.97,6.84-.07.08,20.03c.02,4.77,3.21,8.06,7.42,8.29,3.91.22,8.38-2.54,8.44-7.28l.28-21.01Z"/>
    <path class="st0" d="M218.23,145.76c-7.38,3.45-15.41,2.42-22.45-1.81l2.33-5.8c7.53,5.25,17.46,4.77,18.37.21.24-1.19-1.58-3.56-2.84-3.89l-10.48-2.77c-3.88-1.03-6.71-4.66-6.78-8.16-.07-3.71,2.08-7.59,5.82-9.14,6.46-2.67,13.42-1.97,19.87,1.45l-2.45,5.42c-7.66-4.15-15.84-3.02-16.08,1.46-.05,1.06,1.79,2.82,2.82,3.11l10.41,2.87c3.42.94,6.13,4.35,6.48,7.13.48,3.8-1.03,8.05-5.03,9.92Z"/>
    <polygon class="st0" points="500.88 113.6 508.09 113.46 493.86 147.16 486.54 147.1 472.2 113.5 479.68 113.36 490.35 137.95 500.88 113.6"/>
    <polygon class="st0" points="18.07 147.04 10.88 147.28 10.79 119.35 0 119.2 0 113.4 29.23 113.37 29.24 119.19 18.09 119.29 18.07 147.04"/>
    <polygon class="st0" points="350.99 147.04 344.09 147.27 344.04 119.4 333 119.22 333.08 113.35 362.04 113.41 362 119.18 350.95 119.34 350.99 147.04"/>
    <polygon class="st0" points="594.95 141.21 595.22 147.3 570.76 147.33 570.74 113.45 577.61 113.42 577.69 141.31 594.95 141.21"/>
  </g>
  <g>
    <path class="st0" d="M114.92,53.09c-1.75-3.2-4.32-4.39-8.24-6.19,3.95-1,8-.07,11.38-2.02,5.37-3.08,7.06-9.2,6.54-15.1s-4.57-10.74-10.72-10.79l-8-.06v51.96c0,4.96,3.19,5.94,8.02,7.76l-28.45.27s-.46-.97-.26-1.01l1.39-.33c4.11-.97,5.75-3.26,5.75-7.3l-.03-48.35c0-1.43-.62-4.21-1.72-4.69l-5.59-2.41,22.36-.35,16.04.54c4.68.16,9.26,2.75,12.23,6.41,3.87,4.78,4.34,11.21,2.1,17.04-1.91,4.98-6.36,9.03-12.66,10.56l10.51,11.77c8.76,11.03,18.81,20.64,31.1,27.45,16.37,9.07,34.75,10.92,52.43,4.96l19.18-8.27c-7.46,9.17-17.4,14.37-28.16,17.31-25.79,7.03-50.6-3.38-70.65-20-9.98-8.27-18.31-17.81-24.54-29.19Z"/>
    <path class="st0" d="M600,78.64h-29.35c4.47-1.61,7.91-2.43,7.92-7.12l.07-22.18-30.54-.05.04,22.72c0,6.05,6.91,4.75,7.22,6.84l-28.33-.13,5.6-2.51c1.31-.59,2.08-3.56,2.08-5.34V22.06c-.01-1.58-.91-4.37-2.11-4.88l-5.61-2.4,29.15-.03-5.96,2.42c-1.36.55-2.08,3.66-2.08,5.27l-.04,22.33,30.54-.04.03-22.28c0-1.54-.62-4.58-1.9-5.13l-5.93-2.55,29.19.04c-4.48,1.63-7.76,2.51-7.76,7.17v49.46c-.01,1.63.98,4.37,2.21,4.88l5.58,2.3Z"/>
    <path class="st0" d="M217.76,75.36c-12.97,7.39-28.98,6.8-41.52-.76-10-6.02-15.05-16.37-15.14-27.86-.12-14.76,8.68-27.17,22.76-31.74,8.65-2.81,18.09-2.91,26.81-.34,14.21,4.18,23.27,16.14,23.57,30.88.25,12.35-5.28,23.44-16.48,29.83ZM216.08,64.31c5.66-10.97,5.44-24.23.25-35.22-3.66-7.76-11.02-12.06-19.18-11.84s-14.91,4.61-18.32,12.19c-5.21,11.56-5.08,25.34,1.28,36.26,4.08,7.01,11.02,10.72,18.75,10.43,7.24-.27,13.46-4.51,17.22-11.8Z"/>
    <path class="st0" d="M41.79,69.97c0,4.43,2.24,7.24,6.53,7.52.81.05,1.68.36,2.1,1.35l-31.86-.13,6.48-2.75c1.46-.62,2.45-3.73,2.45-5.7V8.01s-14.51-.06-14.51-.06c-5.94-.69-11.13,3.35-10.92,9.78-.35.48-1.08.96-2.05,1.28L.03.03c4.97.85,9.41,2.04,14.17,2.04h42.33c4.14,0,7.92-1.17,12.6-2.07.15,6.31.36,12.78-.34,19.57-2.12-5.01-2.13-10.29-7.7-11.22l-10.56-.55-8.71.07-.03,62.1Z"/>
    <path class="st0" d="M281.12,19.02l-8.79-.13.03,52.04c0,1.58.59,4.59,1.8,5.11l5.98,2.59-28.68-.14c4.79-1.55,7.58-3.13,7.57-7.73l-.02-48.68c0-1.61-.84-4.39-2.05-4.91l-5.58-2.42,35.51-.03c6.12,0,12.34,2.69,15.77,7.78,5.84,8.66,3.27,20.98-5.48,26.61-7.27,4.68-16.56,3.88-23.52-.95,4.88-.39,9.09.03,12.43-2.81,4.82-4.09,5.92-10.54,4.92-16.66-.82-5.05-4.18-9.58-9.91-9.66Z"/>
    <path class="st0" d="M502.38,59.32c.49-2.22.81-4.23,2.14-6.1.55,5.13,1.14,10.71.35,15.81-2.43,5.43-8.83,8.51-14.42,10.08-10.22,2.87-20.8,1.75-30.31-2.37-13.06-5.65-19.88-17.84-19.18-31.89s9.92-26.44,24.36-30.2c12.57-3.28,25.78-2.08,37.94,3.28-.22,5.82.51,11.17-.66,17.55-2.73-10.4-8.73-16.4-18.64-17.84-11.15-1.62-21.51,3.51-25.64,14.46-3.37,8.93-3.47,19.2-.19,28.23,4,11.01,14.41,17.18,25.87,15.58,9.1-1.27,16.34-7.31,18.37-16.6Z"/>
    <path class="st0" d="M401.85,79.79c-9.58,2.01-18.78.35-27.46-4.13-.69-5.07-.08-13.59,1.9-16.57.16-.24,1.07.16,1.2.25.2,4.58,1.39,8.36,4.29,11.67,5.41,5.14,13.55,6.69,20.27,3.31,3.22-1.62,5.22-4.82,5.41-7.94.23-3.7-1.69-6.9-4.93-8.95l-16.67-10.53c-2.7-1.71-5.56-3.82-7.28-6.6-4.18-6.76-3.28-16.02,2.26-21.73,4.64-4.79,11.39-6.37,17.92-5.65l15.68,1.72-1.49,14.59c-1.91-3.02-1.71-5.97-3.81-7.96-4.81-4.56-12.2-5.23-17.83-2.04-2.54,1.44-3.97,4.16-4.2,6.68-.26,2.85,1.46,5.62,4.04,7.32l17.82,11.72c5.29,3.48,8.85,8.64,8.94,15.05.14,9.8-6.19,17.72-16.06,19.79Z"/>
    <path class="st0" d="M353.56,78.62l-28.91-.08c4-1.69,7.43-2.42,7.43-6.56l-.04-50.88c0-4.42-3.83-4.47-7.69-6.3l29.04.04-5.6,2.38c-1.19.51-2.05,3.26-2.06,4.87l-.06,48.76c0,4.84,2.8,6.1,7.88,7.78Z"/>
  </g>
</svg>