<svg class="logo__svg" id="tropisch-logo" xmlns="http://www.w3.org/2000/svg" version="1.1" viewBox="0 0 600 457.25">
  <!-- Generator: Adobe Illustrator 30.6.0, SVG Export Plug-In . SVG Version: 2.1.4 Build 109)  --><path fill="#000" d="M154.21,445.21c0,6.65-5.39,12.03-12.03,12.03s-12.03-5.39-12.03-12.03,5.39-12.03,12.03-12.03,12.03,5.39,12.03,12.03ZM150.52,445.27c.08-5.74-4.57-9.25-9.46-8.66s-7.92,5-7.18,10.13c.65,4.5,4.49,7.36,8.79,7.12,4.25-.24,7.79-3.65,7.86-8.59Z"/>
  <path fill="#000" d="M299.7,449.24l-1,2.4c-.38.92,2.99,2.55,2.4,3.83-.22.48-1.64,1.52-2.02,1.16l-2.58-2.44c-3.7,3.18-9.07,4.06-13.12,1.15-2.1-1.51-2.84-4.2-2.02-6.69.6-1.83,2.72-3.54,4.92-4.78-1.93-1.99-3.05-4.66-2.17-6.97s3.43-3.57,6.12-3.52c2.87.05,5.41,1.59,5.72,4.43.29,2.59-1.48,4.92-4.74,6.27l5.13,5.46,1.6-3.9c1.2.46,2.36.84,2.33,1.33s-.34,1.72-.57,2.26ZM291.5,441.06c.76-.48,1.58-2.31,1.42-3.12-.13-.71-1.35-1.81-2.16-1.93-1.44-.21-3.15.51-3.52,1.55-.82,2.31,1.94,4.96,2.18,4.81l2.08-1.3ZM294.48,452.04l-6.24-6.42-2.97,2.37c-.92.73-.93,3.33-.34,4.23,1.63,2.49,6.92,2.59,9.55-.18Z"/>
  <path fill="#000" d="M375.05,456.41l-4.42-6.52-6.64-.11-.03,7.04-3.54-.12-.04-23.06,10.73.09c4.04.04,7.16,2.9,7.7,6.32.6,3.79-.88,7.4-4.79,8.91l4.8,7.31c-.11.45-3.27.88-3.78.14ZM371.95,446.22c2.82-.55,3.64-3.66,3.1-6.03-.49-2.12-2.68-3.39-5.23-3.43l-5.84-.1.02,9.95c2.47.08,5.42.12,7.96-.38Z"/>
  <path fill="#000" d="M218.16,456.51l-4.59-6.62-6.66-.06-.08,6.21c-.01,1.03-3.24,1.05-3.52.13l-.03-22.52,10.72.09c4.08.03,7.2,2.88,7.68,6.32.55,3.84-.74,7.45-4.79,8.91l5.08,7.51c-.61.24-3.46.53-3.81.03ZM214.67,446.25c3.02-.13,3.85-3.75,3.29-6.05-.51-2.12-2.72-3.41-5.24-3.45l-5.81-.09v9.93s7.76-.33,7.76-.33Z"/>
  <path fill="#000" d="M407.7,451.12l-11.65.05-2.22,4.96c-.34.77-2.77.81-3.81.39l10.05-22.58c1.1-.36,2.88-.33,3.83.11l9.83,22.37c-1.07.43-3.46.55-3.73-.07l-2.3-5.23ZM406.36,448.05l-4.42-10.37-4.47,10.43,8.9-.06Z"/>
  <path fill="#000" d="M184.26,434.62c0-1.38,3.49-1.33,3.5-.22l.1,12.86c.05,6-4.3,9.93-10.26,9.83-4.68-.07-9.21-3.05-9.27-8.24l-.17-15.07,3.57.06.21,14.57c.05,3.15,2.41,5.14,5.36,5.42,3.51.33,6.84-1.88,6.86-5.66l.09-13.56Z"/>
  <path fill="#000" d="M471.09,446.5l-11.24.02.03,7.28,12.24-.17c.77-.01.86,2.95.11,3.17h-15.96s-.03-23.16-.03-23.16l16.06-.05.04,3.16-12.46-.05v6.75s10.52.03,10.52.03c.32.15.58,1.6.68,3.01Z"/>
  <path fill="#000" d="M248.18,455.85c-4.59,2.17-9.6,1.22-13.92-1.35l1.19-3c3.57,2.29,6.75,3.2,10.83,1.89.86-.28,1.96-2.05,1.91-2.93-.06-1.16-1.35-2.55-2.56-2.87l-6.48-1.74c-2.47-.66-4.38-3.03-4.51-5.24-.15-2.5,1.12-5.09,3.56-6.18,3.96-1.78,8.34-1.35,12.27.79l-.98,2.66c-3.39-1.2-5.87-1.8-9.13-1.06-1.09.25-2.24,2.16-2.15,3.22s1.44,2.45,2.57,2.76l6.48,1.77c2.28.62,4.24,2.76,4.49,4.75.33,2.55-.91,5.27-3.58,6.53Z"/>
  <rect fill="#000" x="527.99" y="444.58" width="66.93" height="2.82"/>
  <path fill="#000" d="M440.66,434.32c.35-.83,3.08-.83,3.81-.33l-9.48,22.4c-.95.22-2.6.32-3.85.26l-9.4-22.68,3.73-.16,7.67,18.25,7.51-17.73Z"/>
  <rect fill="#000" x="46.17" y="416.48" width="2.83" height="59.05" transform="translate(-398.42 493.52) rotate(-89.99)"/>
  <polygon fill="#000" points="501.87 453.8 501.87 456.81 486.57 456.78 486.52 433.74 490.26 433.89 490.28 453.61 501.87 453.8"/>
  <path fill="#000" d="M112.06,455.85c0,1.36-3.54,1.32-3.54.26l-.07-19.41-7.37.06.07-3.14h17.6c.64,0,1.17,2.84.55,2.94l-7.19.12-.04,19.17Z"/>
  <path fill="#000" d="M340.24,455.85c0,1.34-3.55,1.32-3.56.26l-.05-19.46-7.42.12.16-3.16,18,.06c.58.54.13,3.05-.48,3.04l-6.66-.04-.02,19.18Z"/>
  <g>
    <path fill="#000" d="M592.66,392.35c0,1.81.87,4.48,2.02,4.93l5.31,2.09-27.45.02,5.06-1.9c1.28-.48,2.33-3.24,2.33-4.8l.03-23.94-30.99-.02.14,24.76c.02,3.89,3.55,4.69,7.02,5.82l-26.84.04,5.18-2.16c1.15-.48,1.98-3.22,1.98-4.81v-51.36c0-4.42-3.4-5.49-7.43-6.74l27.19-.13c-3.98,1.37-7.18,2.44-7.19,6.86l-.04,23.69,30.97.1-.07-24.6c0-2.9-2.8-5.07-5.37-5.04-.49,0-1.57-.69-1.84-1.12h27.24c-.31.42-1.34,1.04-1.84,1.06-2.99.1-5.41,2.5-5.41,5.68v51.56Z"/>
    <path fill="#000" d="M113.04,370.9c-2.03-3.86-5.9-2.23-5.91-3.04v-1.1c-.02-.46,7.11.76,11.39-2.86s5.66-9.45,4.95-14.97c-.77-6.03-5.62-10.56-11.74-10.6l-7.46-.05v53.53c-.01,1.81.6,4.56,1.83,5.35,1.58,1.01,3.55,1.37,5.78,2.15h-27.42c3.7-1.1,7.1-2.37,7.1-6.43l.03-51.86c0-1.56-.92-4.16-2.06-4.65l-5.24-2.23,30.96-.13c11.68-.05,21.87,5.73,21.78,17.94-.07,8.98-6.11,15.96-15.31,17.16,4.21,2.58,7.32,5.1,9.76,8.82l8.88,13.57c2.68,4.1,6.46,5.96,11.05,7.82l-12.98-.05c-6.81-.02-12.68-4.23-15.81-10.18l-9.56-18.18Z"/>
    <path fill="#000" d="M283.94,338.44l-8.46-.12.02,54.41c0,4.33,3.29,5.44,7.47,6.56l-27.52.08,5.01-1.94c1.27-.49,2.29-3.37,2.29-5.04v-51.36c0-3.35-2.58-6.19-6.14-5.75l-.92-1.23,32.29.12c5.31.02,10.83,1.76,14.65,5.53,7.55,7.43,7.19,20.73-.99,27.65-6.66,5.63-16.71,5.64-23.81.81,7.22.51,13.4-2.29,15.68-8.9,1.5-4.37,1.64-9.03.04-13.44-1.44-3.99-4.98-7.3-9.6-7.37Z"/>
    <path fill="#000" d="M40.47,390.93c0,5.55,3.4,7.28,8.59,8.34l-30.42.09c4.98-1.66,8.31-2.25,8.31-8.13v-62.81s-16.51.19-16.51.19c-4.65.05-8.16,3.45-8.89,7.77-.23,1.33-.63,2.61-1.54,3.81l.1-17.79c4.1,1,7.72,1.77,11.77,1.77l43.85.04c4.08,0,7.7-.65,12.09-1.67l-.39,17.94c-1.47-6.98-4.15-12.04-11.19-12.03l-15.74.02-.03,62.44Z"/>
    <path fill="#000" d="M507,372.32c.73,6.08.66,12.05.17,18.11-9.54,11.55-29.36,12.62-43.16,7.3-16.74-6.46-23.7-23.27-19.54-40.56,2.42-10.07,9.31-17.77,18.91-21.6,12.24-4.89,29.7-3.78,41.38,2.29.22,5.89.71,10.81.16,16.94-2.79-10.57-10.1-17.02-20.45-18.05-11.08-1.1-20.84,4.49-24.41,15.3-5.75,17.39-.83,40.88,17.36,44.43,8.54,1.66,16.72-.83,22.21-7.22,4.14-4.81,5.1-10.33,7.37-16.94Z"/>
    <path fill="#000" d="M420.86,379.34c.75,9.9-5.06,17.88-14.33,20.29-9.07,2.36-18.7,1.06-26.94-3.49-2.17-4.69-.68-12.34,1.91-17.45.12,6.87,2.29,12,7.05,15.29,5.12,3.55,11.79,4.41,17.19,1.37,3.27-1.84,5.1-5.19,5.34-8.45.28-3.87-1.83-6.97-5.03-9.24l-18.54-13.18c-8.89-6.32-9.92-19.42-1.96-26.96,3.95-3.74,9.67-5.4,15.02-4.89l16.05,1.55-.87,14.37c-2.11-3.85-1.76-6.96-4.93-9.19-4.66-3.29-11.28-3.88-16.19-.96-2.82,1.68-4.26,4.69-4.39,7.47-.16,3.42,1.81,5.77,4.69,7.75l18.12,12.41c4.44,3.04,7.37,7.72,7.8,13.33Z"/>
    <path fill="#000" d="M355.67,399.34h-27.41s5.04-1.79,5.04-1.79c1.27-.45,2.38-3.18,2.38-4.81v-52.06c.02-3.12-2.73-5.52-5.46-5.48-.53,0-1.66-.75-1.86-1.14l27.49.11c-4.14,1.52-7.43,2.45-7.43,6.84l.02,51.38c0,1.56.8,4.36,1.97,4.84l5.26,2.12Z"/>
    <path fill="#000" d="M234.51,375.34c-5.18,22.63-30.14,30.03-50.7,23.03-18.09-6.15-25.55-25.24-20.12-43.01,3.05-9.96,10.45-17.39,20.46-20.57,9.62-3.06,20.01-3.07,29.59.09,17.33,5.72,24.74,23.12,20.77,40.46ZM217.14,385.28c5.58-11.17,5.72-24.65.66-35.73-3.6-7.87-10.52-12.83-18.56-12.96s-15.59,4.06-19.38,12c-5.72,11.98-5.33,26.79,1.43,38.26,4.04,6.86,10.98,10.4,18.53,10.14s13.68-4.42,17.33-11.72Z"/>
  </g>
  <g>
    <path fill="#000" d="M276.48,229.81c11.45,5.84,26.13,10.49,38.78,5.61-5.11-3.44-8.89-7.04-12.83-11.6l16.62,1.16c-4.78-5.93-11.19-8.84-18.38-9.96-17.57-2.73-27.32-21.66-21.97-38.36l3.65-11.38c3.06-9.56,2.68-19.52-.13-29.15l-3.65-12.49c-2.09-7.17-.71-14.53,2.86-20.98l5.76-10.4c3.6-6.51,5.07-13.55,4.89-21.05l16.87,2.89,18.52-12.6c1.27-.86,3.52-1.18,4.72-.6,5.53,2.65,2.67,13.82-1.55,20.85l11.9,5.61c12.83,6.05,17.71,7.21,28,18.67l9.32,10.38c1.27,1.41,2.37,3.27,2.76,5.18,1.44,6.97,4.32,12.99,8.75,18.51,6.62,8.24,13.38,15.75,21.08,23.69,5.15-16.32,7.94-33.87,6.21-50.39-5.88-56.14-46.42-100.83-101.79-111.27-58.94-11.11-117.45,21.76-139.1,77.6-8.45,21.8-11.08,45.54-5.3,69.37l5.61-10.11c16.01-25.83,38.87-46.06,66.33-59.71,1.01-12.93,6.53-27.52,17.58-34.07,6.17-3.66,13.53-2.78,18.36,2.67,6.92,7.82,8.09,18.84,4.22,28.57-3.58,9-10.12,15.35-18.38,20.72,6.37.13,10.83-3.04,15.73-6.12-3.28,5.13-7.07,9.64-11.23,14.14-8.7,9.42-12.14,21.69-8.69,34.2,1.55,5.62,2.1,11.13,1.47,16.99-1.12,4.88-3.04,9.43-6.14,13.48-9.47,12.35-11.65,27.34-6.87,42.49-12.56-16.54-21.06-35.56-24.19-55.89-2.51-16.29-.39-32.43,4.43-47.97l7.87-20.39c-20.55,13.86-28.69,40.11-26.97,64.05,1.2,16.81,6.21,32.82,14.52,47.55,14.16,25.12,34.54,45.89,58.97,61.05l24.28,15.07c9.33,5.8,16.57,13.26,23.31,22.35.47-14.75-5.81-27.63-15.67-37.53-12.29-12.35-28.24-18.12-40.53-30.86Z"/>
    <path fill="#000" d="M278.18,267.22c-11.65-7.74-22.76-14.64-33.08-23.56-10.44-8.9-19.61-18.44-27.54-29.65-15.38-21.05-22.67-46.61-20.32-72.57,1.06-8.19,3.19-15.44,5.47-23.76-27.82,27.88-25.51,67.67-4.4,98.8,9.42,13.84,21.52,24.9,35.92,33.48,13.68,7.82,27.8,14.29,43.95,17.26Z"/>
    <path fill="#000" d="M316.48,178.07c7.32-8.3,18.26-7.89,27.98-13.29l-19.4-9.23c-3.31-1.58-5.98-4.84-7.12-8.34l-6.08-18.71c-3.19-9.84-1.44-20.17,3.06-29.46,2.88,4.41,6.56,7.94,11.17,10.56l9.79,3.58c-4.89-5.76-8.76-10.72-10.89-17.53-1.41-6.33,3.18-11.45.88-14.43-4.36-5.66-27.08,11.58-28.19,37.34-.63,14.53,11.31,26.88,2.79,48.3l-2.89,9.78c-1.57,5.31.48,11.39,4.61,15.07,3.6,3.2,8.31,4.3,13.23,4.49-4.32-5.9-3.52-12.94,1.06-18.13Z"/>
    <path fill="#000" d="M308.05,300.39c-11.18-11.89-29.39-16.58-45.3-20.82-12.63-3.18-24.57-6.74-36.54-11.87-19.96-8.61-36.99-21.15-51.43-37.92,5.4,14.79,14.21,27.08,25.12,37.7,10.94,10.01,22.88,17.87,36.6,23.53,14.59,5.82,29.55,9.06,45.26,9.97,8.68.29,16.61.4,26.3-.59Z"/>
    <path fill="#000" d="M340.69,243.66c5.48,7.9,14.4,10.21,24.33,10.02l-2.67-1.37c-8.83-3.05-16.89-10.45-13.7-17.4,1.9-4.14,7.08-4.48,12.31-3.52,13.4,2.47,26.94-.46,38.18-8.05,7.93-5.36,12.49-13.77,12.47-23.24,7.75-3.13,12.61-9.98,14.04-18.04.51-2.86-.82-5.41-3.66-6.26-4.72-1.85-9.67-1.51-14.66-.54-6.72,1.31-8.53-2.62-10.64-1.63-.71.34-1.71,1.92-1.79,2.71-1.09,10.37,11.52,14.27,12.33,22.19.88,8.65-4.88,16.47-12,20.7-9.02,5.35-18.76,6.57-28.87,4.08-6.76-1.66-13.46-2.81-20.41-2.13-12.76,1.24-21.56,11.76-20.59,24.58.35,4.62,1.96,9.23,4.34,13.18.42-7.82,3.65-13.9,11-15.29Z"/>
    <path fill="#000" d="M397.55,199.58l-14.11-1.55c-16.09-1.77-32.23-3.87-46.88.29,3.9-3.25,8.2-5.3,12.75-6.33l19.34-4.35c-9.35-3.36-19.24-1.71-29.1-.33l7.84-8.27c4.59-4.84,8.29-10.4,9.54-17.57-5.51,5.63-11.14,9.88-18.07,13.04-3.86,1.76-7.59,3.86-10.81,6.5-5.61,4.62-6.74,12.15-2.71,18.24,2.1,3.17,5.72,6.43,9.5,7.37,10.69-4.74,21.87-5.36,33.48-4.95l19.08.67c3.51.12,6.83-.61,10.14-2.76Z"/>
    <path fill="#000" d="M373.28,213.65l11.1-.25c4-.75,7.75-1.48,11-4.22-19.01.99-34.22-3.47-53.22-1.43-6.09.65-11.38,3.55-15.06,8.59,15.82-4.17,30.04-3.52,46.17-2.69Z"/>
    <path fill="#000" d="M359.34,125.32c1.76-4.81-.02-8.6-1.68-12.68-2.99-4.74-6.78-8.93-11.9-11.84-2.25,5.55-.93,12.73,4.19,15.44,4.04,2.14,7.56,3.91,9.4,9.08Z"/>
    <path fill="#000" d="M396.3,228.63c-.35,11.25-6.99,19.22-16.83,24.05,6.76.46,12.38-3.81,15.51-8.17,3.97-5.51,4.66-12.09,2.9-18.69-.78.33-1.55,1.63-1.58,2.81Z"/>
    <path fill="#000" d="M364.34,113.76c1.91,6.41,1.85,11.94-.51,18.47,4.25-1.43,6.3-5.12,6.49-8.72s-1.73-7.78-5.98-9.74Z"/>
    <circle fill="#000" cx="383.43" cy="189.37" r="2.87"/>
    <circle fill="#000" cx="391.6" cy="189.84" r="2.8"/>
    <circle fill="#000" cx="375.97" cy="188.84" r="2.74"/>
    <path fill="#000" d="M328.77,127.14l-7.01-8.34,12.87,3.98c4.11,1.27,8.07,1.54,12.4.88,3.74-.56,7.94,1.62,8.59,5.51.31,1.84-.11,4.12-.47,6.39,5.09,1.72,9.4,5.27,11.19,9.45,2.44,5.7,1.73,11.4-1.28,16.1-5.1-14.22-15.25-9.91-24.93-14.1-12.2-5.27-9.33-17.46-11.36-19.88ZM351.7,137.94c-2.42.75-4.59.11-6.18-1.37-1.73-1.62-2.55-3.77-2.52-6.61l-5.5-1.24c1.94,8.97,6.49,11.93,15.86,13.88l-1.66-4.66Z"/>
  </g>
</svg>