<?xml version="1.0" encoding="UTF-8"?>
<svg id="Layer_1" xmlns="http://www.w3.org/2000/svg" version="1.1" viewBox="0 0 600 490.67">
  <!-- Generator: Adobe Illustrator 30.6.0, SVG Export Plug-In . SVG Version: 2.1.4 Build 109)  -->
  <defs>
    <style>
      .st0 {
        fill: #1e3a2f;
      }

      .st1 {
        fill: #d7962e;
      }
    </style>
  </defs>
  <g>
    <path class="st0" d="M367.95,490.23l-4.62-6.64-5.88-.41-.02,6.74-4.95-.04.06-23.4,11.76.15c3.96.05,7.15,2.77,7.96,6.18.9,3.79-.66,7.62-4.48,9.46l5.15,7.55-4.98.42ZM364.2,478.89c2.51-.13,3.65-2.96,3.37-4.74-.31-1.98-2.17-3.58-4.4-3.56l-5.79.04.09,8.61,6.73-.35Z"/>
    <path class="st0" d="M209.38,490l-4.51-6.19c-.91-1.18-5.06-.65-5.91.07v6.1s-4.93-.02-4.93-.02l.03-23.42,11.8.06c4,.02,7.27,2.79,7.93,6.12.78,3.91-.57,7.59-4.49,9.58l5.17,7.53-5.1.17ZM205.38,478.98c2.77-.07,3.9-2.92,3.66-4.86s-2.11-3.48-4.31-3.5l-5.85-.05v8.58s6.5-.18,6.5-.18Z"/>
    <path class="st0" d="M145.42,478.21c0,6.88-5.58,12.46-12.46,12.46s-12.46-5.58-12.46-12.46,5.58-12.46,12.46-12.46,12.46,5.58,12.46,12.46ZM140.84,478.18c0-4.32-3.5-7.82-7.82-7.82s-7.82,3.5-7.82,7.82,3.5,7.82,7.82,7.82,7.82-3.5,7.82-7.82Z"/>
    <path class="st0" d="M291.94,484.63l2.86,2.8-2.57,2.88-3.04-2.55c-3.61,2.52-7.99,3.21-12.12,1.91-2.85-.9-4.61-3.24-4.66-5.87-.06-2.89,2.32-5.04,4.72-6.94-1.3-2.19-2.59-5.06-1.2-7.54,1.16-2.07,3.81-3.28,6.74-3.18,2.52.09,5.1,1.42,5.81,3.38.99,2.73-.21,4.97-2.28,6.62l-1.93,1.53,4.57,4.24,1.5-4,3.74,1.3-2.13,5.42ZM284.77,471.9c.32-1.19-1.49-2.51-2.43-2.43-1.12.1-2.77,1.18-2.78,2.22,0,.82.95,2.21,1.91,3.14,1.04-.22,2.97-1.7,3.3-2.94ZM286.01,484.76l-5.44-5.3c-2.32.34-4.63,3.34-2.91,5.44,2.03,2.48,6.19,2.03,8.36-.14Z"/>
    <polygon class="st0" points="468.93 479.87 457.87 479.85 457.86 485.6 470.78 485.77 470.94 489.99 452.96 489.95 452.98 466.57 470.37 466.39 470.4 470.58 457.78 470.62 457.89 475.96 468.97 476 468.93 479.87"/>
    <rect class="st0" x="528.67" y="477.53" width="64.26" height="4.01"/>
    <path class="st0" d="M401.76,484.63l-10.98-.08-2.3,5.41-5.14-.1,10.45-23.42,4.88-.08,10.36,23.45-4.99.12-2.27-5.3ZM400.1,480.64l-3.9-9.18-3.86,9.24,7.77-.06Z"/>
    <path class="st0" d="M174.75,466.57l5.12.11-.47,14.59c-.19,5.82-4.99,9.01-10.4,9.03s-10.15-3.36-10.16-9.22l-.02-14.48,4.73-.05.06,13.83c.01,3.29,2.21,5.56,5.13,5.73,2.7.15,5.79-1.76,5.83-5.03l.19-14.51Z"/>
    <rect class="st0" x="36.88" y="448.26" width="4.01" height="62.54" transform="translate(-440.65 518.37) rotate(-89.99)"/>
    <path class="st0" d="M241.15,488.89c-5.1,2.38-10.65,1.67-15.51-1.25l1.61-4.01c5.2,3.63,12.06,3.29,12.69.15.17-.82-1.09-2.46-1.96-2.69l-7.24-1.91c-2.68-.71-4.63-3.22-4.68-5.64-.05-2.57,1.44-5.25,4.02-6.31,4.46-1.84,9.27-1.36,13.73,1l-1.7,3.74c-5.29-2.86-10.94-2.09-11.1,1.01-.04.73,1.23,1.95,1.95,2.15l7.19,1.98c2.36.65,4.23,3,4.48,4.93.33,2.62-.71,5.56-3.48,6.85Z"/>
    <polygon class="st0" points="436.37 466.68 441.35 466.58 431.53 489.86 426.47 489.82 416.56 466.61 421.73 466.51 429.1 483.5 436.37 466.68"/>
    <polygon class="st0" points="102.9 489.78 97.94 489.94 97.88 470.65 90.43 470.54 90.43 466.54 110.62 466.52 110.62 470.54 102.92 470.61 102.9 489.78"/>
    <polygon class="st0" points="332.84 489.78 328.08 489.94 328.04 470.68 320.42 470.56 320.48 466.5 340.48 466.54 340.45 470.53 332.82 470.64 332.84 489.78"/>
    <polygon class="st0" points="501.34 485.74 501.53 489.95 484.64 489.97 484.62 466.57 489.37 466.55 489.42 485.81 501.34 485.74"/>
    <g>
      <path class="st0" d="M114.92,401c-1.75-3.2-4.32-4.39-8.24-6.19,3.95-1,8-.07,11.38-2.02,5.37-3.08,7.06-9.2,6.54-15.1s-4.57-10.74-10.72-10.79l-8-.06v51.96c0,4.96,3.19,5.94,8.02,7.76l-28.45.27s-.46-.97-.26-1.01l1.39-.33c4.11-.97,5.75-3.26,5.75-7.3l-.03-48.35c0-1.43-.62-4.21-1.72-4.69l-5.59-2.41,22.36-.35,16.04.54c4.68.16,9.26,2.75,12.23,6.41,3.87,4.78,4.34,11.21,2.1,17.04-1.91,4.98-6.36,9.03-12.66,10.56l10.51,11.77c8.76,11.03,18.81,20.64,31.1,27.45,16.37,9.07,34.75,10.92,52.43,4.96l19.18-8.27c-7.46,9.17-17.4,14.37-28.16,17.31-25.79,7.03-50.6-3.38-70.65-20-9.98-8.27-18.31-17.81-24.54-29.19Z"/>
      <path class="st0" d="M600,426.54h-29.35c4.47-1.61,7.91-2.43,7.92-7.12l.07-22.18-30.54-.05.04,22.72c0,6.05,6.91,4.75,7.22,6.84l-28.33-.13,5.6-2.51c1.31-.59,2.08-3.56,2.08-5.34v-48.8c-.01-1.58-.91-4.37-2.11-4.88l-5.61-2.4,29.15-.03-5.96,2.42c-1.36.55-2.08,3.66-2.08,5.27l-.04,22.33,30.54-.04.03-22.28c0-1.54-.62-4.58-1.9-5.13l-5.93-2.55,29.19.04c-4.48,1.63-7.76,2.51-7.76,7.17v49.46c-.01,1.63.98,4.37,2.21,4.88l5.58,2.3Z"/>
      <path class="st0" d="M217.76,423.27c-12.97,7.39-28.98,6.8-41.52-.76-10-6.02-15.05-16.37-15.14-27.86-.12-14.76,8.68-27.17,22.76-31.74,8.65-2.81,18.09-2.91,26.81-.34,14.21,4.18,23.27,16.14,23.57,30.88.25,12.35-5.28,23.44-16.48,29.83ZM216.08,412.22c5.66-10.97,5.44-24.23.25-35.22-3.66-7.76-11.02-12.06-19.18-11.84s-14.91,4.61-18.32,12.19c-5.21,11.56-5.08,25.34,1.28,36.26,4.08,7.01,11.02,10.72,18.75,10.43,7.24-.27,13.46-4.51,17.22-11.8Z"/>
      <path class="st0" d="M41.79,417.87c0,4.43,2.24,7.24,6.53,7.52.81.05,1.68.36,2.1,1.35l-31.86-.13,6.48-2.75c1.46-.62,2.45-3.73,2.45-5.7v-62.23s-14.51-.06-14.51-.06c-5.94-.69-11.13,3.35-10.92,9.78-.35.48-1.08.96-2.05,1.28l.03-18.98c4.97.85,9.41,2.04,14.17,2.04h42.33c4.14,0,7.92-1.17,12.6-2.07.15,6.31.36,12.78-.34,19.57-2.12-5.01-2.13-10.29-7.7-11.22l-10.56-.55-8.71.07-.03,62.1Z"/>
      <path class="st0" d="M281.12,366.93l-8.79-.13.03,52.04c0,1.58.59,4.59,1.8,5.11l5.98,2.59-28.68-.14c4.79-1.55,7.58-3.13,7.57-7.73l-.02-48.68c0-1.61-.84-4.39-2.05-4.91l-5.58-2.42,35.51-.03c6.12,0,12.34,2.69,15.77,7.78,5.84,8.66,3.27,20.98-5.48,26.61-7.27,4.68-16.56,3.88-23.52-.95,4.88-.39,9.09.03,12.43-2.81,4.82-4.09,5.92-10.54,4.92-16.66-.82-5.05-4.18-9.58-9.91-9.66Z"/>
      <path class="st0" d="M502.38,407.23c.49-2.22.81-4.23,2.14-6.1.55,5.13,1.14,10.71.35,15.81-2.43,5.43-8.83,8.51-14.42,10.08-10.22,2.87-20.8,1.75-30.31-2.37-13.06-5.65-19.88-17.84-19.18-31.89s9.92-26.44,24.36-30.2c12.57-3.28,25.78-2.08,37.94,3.28-.22,5.82.51,11.17-.66,17.55-2.73-10.4-8.73-16.4-18.64-17.84-11.15-1.62-21.51,3.51-25.64,14.46-3.37,8.93-3.47,19.2-.19,28.23,4,11.01,14.41,17.18,25.87,15.58,9.1-1.27,16.34-7.31,18.37-16.6Z"/>
      <path class="st0" d="M401.85,427.7c-9.58,2.01-18.78.35-27.46-4.13-.69-5.07-.08-13.59,1.9-16.57.16-.24,1.07.16,1.2.25.2,4.58,1.39,8.36,4.29,11.67,5.41,5.14,13.55,6.69,20.27,3.31,3.22-1.62,5.22-4.82,5.41-7.94.23-3.7-1.69-6.9-4.93-8.95l-16.67-10.53c-2.7-1.71-5.56-3.82-7.28-6.6-4.18-6.76-3.28-16.02,2.26-21.73,4.64-4.79,11.39-6.37,17.92-5.65l15.68,1.72-1.49,14.59c-1.91-3.02-1.71-5.97-3.81-7.96-4.81-4.56-12.2-5.23-17.83-2.04-2.54,1.44-3.97,4.16-4.2,6.68-.26,2.85,1.46,5.62,4.04,7.32l17.82,11.72c5.29,3.48,8.85,8.64,8.94,15.05.14,9.8-6.19,17.72-16.06,19.79Z"/>
      <path class="st0" d="M353.56,426.53l-28.91-.08c4-1.69,7.43-2.42,7.43-6.56l-.04-50.88c0-4.42-3.83-4.47-7.69-6.3l29.04.04-5.6,2.38c-1.19.51-2.05,3.26-2.06,4.87l-.06,48.76c0,4.84,2.8,6.1,7.88,7.78Z"/>
    </g>
  </g>
  <g>
    <g>
      <path class="st1" d="M296.78,92.31l-8.4-1.86c1.88-7.74.98-16.42-3.72-23.07-5.97-8.45-16.71-9.65-24.61-3.31-10.67,8.9-15.87,24.41-17.92,38.4-33.52,16.56-61.57,37.62-79.52,71.79-6.3-42.32,8.43-84.46,39.17-112.99,22.56-20.94,51.49-33.6,82.1-36.22,34.81-2.91,68.79,7.24,95.99,28.89,40.75,32.43,57.03,84.51,43.6,135l-21.57-21.52c-3.59-3.58-5.18-8.54-6.4-13.27-2.02-8.5-6.06-15.64-12.32-21.57-6.81-6.45-13.88-12.13-22.26-16.39l-24.07-12.22c4.16-7.54,7.63-19.13,1.9-22.22-1.48-.8-4.41-.98-5.94-.01l-9.67,6.11c-4.14,2.62-8.33,5.55-12.99,7.48l-13.39-3.03Z"/>
      <path class="st1" d="M332.3,12.42c-41.03-10.16-83.33-2.6-118.79,19.18-43.2,26.54-70.25,73.57-70.01,124.55.08,17.06,3.58,33.31,8.52,49.3l-2.53,14.86c-11.14-26.2-15.93-54.18-12.69-82.5,3.99-34.89,20.02-67.28,45.12-91.6,17.56-17.02,38.46-29.46,61.43-37.41,54.02-18.72,114.36-7.1,157.47,30.36,29.77,25.86,48.64,61.9,52.37,101.33,1.87,19.77-.94,39.14-6.22,57.63l-6.9-3.37c3.75-14.35,6.25-28.44,5.91-43.41-1.5-66.78-48.68-122.82-113.68-138.92Z"/>
    </g>
    <g>
      <path class="st0" d="M296.78,92.31c-.6,6.8-2.24,13.62-5.44,19.97l-7.72,15.28c-4.78,9.47-5.1,19.15-.91,28.96,4.89,11.47,5.97,23.87,1.83,35.71l-5.05,14.46c-4.31,12.34-.14,26.24,9.99,34.47,10.69,8.69,23.89,8.37,29.5,17.65l-11.71.45c4.44,3.88,8.69,7.19,12.12,11.58-12.62,4-23.92,1.55-36.05-3.05l22.28,17.57c6.37,5.02,12.61,9.81,17.73,16.07,8.94,10.91,14.55,24.04,13.84,38.76-6.04-7.75-11.67-14.77-19.49-20.18l-31.22-21.61c-14.59-10.1-28.29-20.4-40.53-33.25-10.7-11.23-19.79-22.97-26.91-36.79-15.89-30.82-20.88-67.99-1.5-97.84,4.32-6.65,10.51-11.25,17.64-15.13-11.74,23.13-17.85,46.33-12.94,71.8,3.75,19.45,12.16,37.28,24.84,52.63-2.25-16.03-.98-29.31,9.13-41.47,7.63-9.18,9.72-20.54,6.59-31.96-4.53-16.54-.08-27.56,10.17-40.02l8.49-10.32c-5.77,2.49-10.07,5-16.24,5.62l11.71-10.37c5.63-5.94,9.6-13.12,11.47-20.85l8.4,1.86Z"/>
      <path class="st0" d="M278.76,306.54c-16.72-3.98-31.26-10.53-45.95-18.18-26.35-15.73-47.49-34.41-56.69-64.5-6.27-20.48-4.53-42.27,6.17-60.85,3.52-6.11,8.48-10.79,14.21-15.34-4.19,12.9-7.02,25.02-6.47,38.28,1.2,28.95,13.22,55.37,33.07,76.25,10.74,11.29,22.56,20.7,35.24,29.75l20.42,14.58Z"/>
      <path class="st0" d="M352.56,192.81c-10.35,5.79-21.34,4.83-30.15,12.69-6.69,5.98-7.97,14.66-2.9,22.82-4.61-.11-9.03-1.13-12.84-3.69-6.46-4.34-9.16-12.5-6.75-20.01l4.25-13.25c3.33-10.4,3-20.64-1.17-30.65s-4.24-21.76-.06-32.21c3.69-9.24,9.57-17.3,17.89-22.57,4.07-2.58,8.23-3.9,13.01-2.62l-1.24,5.66c-2.99,13.68-.25,18.25,9.57,28.77-9.28-.08-17.35-4.83-21.94-13.03-5.45,7.52-6.19,20.58-3.52,28.9l6.9,21.52c1.27,3.96,4.54,7.25,8.16,8.8l20.78,8.88Z"/>
      <path class="st0" d="M358.47,268.44c-5.87,7.31,3.76,17.67,14.61,22.08-9.85,2.2-19.9-1.63-26.12-10.19-7.79,1.73-11.32,8.35-11.47,16.5-7.31-8.84-7.81-22.3-1.08-31.8,5.02-7.09,13.22-10.63,21.94-11.15,7.16-.43,14.14,1.31,21.14,2.99,11.82,2.85,23.73,1.2,33.54-5.98,9.39-6.87,15.21-19.54,6.89-27.08l-6.7-6.07c-5.14-4.66-5.15-13.14-1.42-14.7,2.77-1.16,5.81,3.55,11.43,2.82l7.53-.98c4.12-.54,8.31-.91,11.98,1.78,5.08,3.72-1.85,21.06-12.75,25.76,0,11.23-5.86,21.36-16,27.3,2.62,8.17,2.16,16.4-3.14,22.93-4.66,5.73-12.22,9.74-20.62,8.32,12.5-5.07,20.38-16.03,20.35-29.27-7.68,3.97-15.43,6.78-23.87,5.89l-18.24-1.93c-3.14-.34-6.22.59-7.98,2.79Z"/>
      <path class="st0" d="M290.65,329.16c7.85,2.44,14.39,6.29,20.61,12.41-49.19,3.05-97.7-4.87-130.72-44.93-8.14-9.87-15.21-20.77-18.39-33.49,15.44,17.53,31.9,31.49,52.33,40.86,12.96,5.94,26.13,9.6,39.74,13.83l36.43,11.32Z"/>
      <path class="st0" d="M410.46,232.33c-4.39,3.02-10.05,3.07-15.6,2.85l-26.1-1.03c-9.86-.39-19.26,1.24-28.25,5.88-6.39-2.08-11.33-7.12-12.95-13.71-1.61-6.56,1.01-12.67,6.33-16.78,8.4-6.5,21.56-8.41,31.46-19.71-.73,8.16-5.19,14.62-10.53,20.42l-5.65,6.13c10.98-1.9,21.21-2.17,31.24,2.56l-16.73,2.75c-5.76.95-11.36,2.3-15.98,6.31l16.03-2.19c15.6,1.59,30.41,3.35,46.72,6.53Z"/>
      <path class="st0" d="M368.36,163.78c9.22,5.96,12.42,16.81,5.79,25.67-1.81-5.95-5.06-11.33-11-13.16l-11.71-1.8c-9.28-1.43-16.13-8.15-16.21-17.55-.06-6.72-6.66-7.42-7.27-13.64l15.81,5.15c6.63,2.16,19.95-3.73,20.71,8.17.2,3.13,1.16,5.4,3.89,7.16ZM359.65,163.16c-2.85.44-4.93.4-6.43-.9-1.35-1.18-2.02-3.24-2.46-5.78l-5.06-.99c1.1,8.13,7.09,11.13,15.36,11.38l-1.4-3.71Z"/>
      <path class="st0" d="M407.37,242.69c-8.12,6.77-23.54,5.69-34.89,4.6-13.63-1.31-26.6-.49-40,3.24,3.47-4.92,8.32-7.34,13.6-8.98,10.58-3.3,21.26-3.37,32.23-1.62l29.06,2.76Z"/>
      <path class="st0" d="M368.39,150.85c-1.76-3.38-3.72-6.06-6.94-8.05-7.51-4.34-9.76-8.04-8.36-17.17,4.76,2.61,8.69,5.49,12.47,8.96,3.17,4.77,4.92,10.16,2.83,16.26Z"/>
      <path class="st0" d="M372.44,158.73c3.13-6.7,2.51-13.24-.26-20.7,5.24.22,8.56,4.82,8.65,9.61.1,5.09-2.8,9.56-8.39,11.09Z"/>
      <circle class="st0" cx="386.9" cy="219.65" r="3.29"/>
      <circle class="st0" cx="395.24" cy="220.07" r="3.26"/>
      <circle class="st0" cx="403.38" cy="220.49" r="3.09"/>
    </g>
  </g>
</svg>