<?xml version="1.0" encoding="UTF-8"?>
<svg id="Layer_1" xmlns="http://www.w3.org/2000/svg" version="1.1" viewBox="0 0 317.96 342.16">
  <!-- Generator: Adobe Illustrator 30.6.0, SVG Export Plug-In . SVG Version: 2.1.4 Build 109)  -->
  <defs>
    <style>
      .st0 {
        fill: #1e3a2f;
      }

      .st1 {
        fill: #d7962e;
      }
    </style>
  </defs>
  <g>
    <path class="st1" d="M160.97,92.31l-8.4-1.86c1.88-7.74.98-16.42-3.72-23.07-5.97-8.45-16.71-9.65-24.61-3.31-10.67,8.9-15.87,24.41-17.92,38.4-33.52,16.56-61.57,37.62-79.52,71.79-6.3-42.32,8.43-84.46,39.17-112.99,22.56-20.94,51.49-33.6,82.1-36.22,34.81-2.91,68.79,7.24,95.99,28.89,40.75,32.43,57.03,84.51,43.6,135l-21.57-21.52c-3.59-3.58-5.18-8.54-6.4-13.27-2.02-8.5-6.06-15.64-12.32-21.57-6.81-6.45-13.88-12.13-22.26-16.39l-24.07-12.22c4.16-7.54,7.63-19.13,1.9-22.22-1.48-.8-4.41-.98-5.94-.01l-9.67,6.11c-4.14,2.62-8.33,5.55-12.99,7.48l-13.39-3.03h.02Z"/>
    <path class="st1" d="M196.49,12.42c-41.03-10.16-83.33-2.6-118.79,19.18C34.5,58.14,7.45,105.17,7.69,156.15c.08,17.06,3.58,33.31,8.52,49.3l-2.53,14.86C2.54,194.11-2.25,166.13.99,137.81c3.99-34.89,20.02-67.28,45.12-91.6,17.56-17.02,38.46-29.46,61.43-37.41,54.02-18.72,114.36-7.1,157.47,30.36,29.77,25.86,48.64,61.9,52.37,101.33,1.87,19.77-.94,39.14-6.22,57.63l-6.9-3.37c3.75-14.35,6.25-28.44,5.91-43.41-1.5-66.78-48.68-122.82-113.68-138.92h0Z"/>
  </g>
  <g>
    <path class="st0" d="M160.97,92.31c-.6,6.8-2.24,13.62-5.44,19.97l-7.72,15.28c-4.78,9.47-5.1,19.15-.91,28.96,4.89,11.47,5.97,23.87,1.83,35.71l-5.05,14.46c-4.31,12.34-.14,26.24,9.99,34.47,10.69,8.69,23.89,8.37,29.5,17.65l-11.71.45c4.44,3.88,8.69,7.19,12.12,11.58-12.62,4-23.92,1.55-36.05-3.05l22.28,17.57c6.37,5.02,12.61,9.81,17.73,16.07,8.94,10.91,14.55,24.04,13.84,38.76-6.04-7.75-11.67-14.77-19.49-20.18l-31.22-21.61c-14.59-10.1-28.29-20.4-40.53-33.25-10.7-11.23-19.79-22.97-26.91-36.79-15.89-30.82-20.88-67.99-1.5-97.84,4.32-6.65,10.51-11.25,17.64-15.13-11.74,23.13-17.85,46.33-12.94,71.8,3.75,19.45,12.16,37.28,24.84,52.63-2.25-16.03-.98-29.31,9.13-41.47,7.63-9.18,9.72-20.54,6.59-31.96-4.53-16.54-.08-27.56,10.17-40.02l8.49-10.32c-5.77,2.49-10.07,5-16.24,5.62l11.71-10.37c5.63-5.94,9.6-13.12,11.47-20.85l8.4,1.86h-.02Z"/>
    <path class="st0" d="M142.95,306.54c-16.72-3.98-31.26-10.53-45.95-18.18-26.35-15.73-47.49-34.41-56.69-64.5-6.27-20.48-4.53-42.27,6.17-60.85,3.52-6.11,8.48-10.79,14.21-15.34-4.19,12.9-7.02,25.02-6.47,38.28,1.2,28.95,13.22,55.37,33.07,76.25,10.74,11.29,22.56,20.7,35.24,29.75l20.42,14.58h0Z"/>
    <path class="st0" d="M216.75,192.81c-10.35,5.79-21.34,4.83-30.15,12.69-6.69,5.98-7.97,14.66-2.9,22.82-4.61-.11-9.03-1.13-12.84-3.69-6.46-4.34-9.16-12.5-6.75-20.01l4.25-13.25c3.33-10.4,3-20.64-1.17-30.65s-4.24-21.76-.06-32.21c3.69-9.24,9.57-17.3,17.89-22.57,4.07-2.58,8.23-3.9,13.01-2.62l-1.24,5.66c-2.99,13.68-.25,18.25,9.57,28.77-9.28-.08-17.35-4.83-21.94-13.03-5.45,7.52-6.19,20.58-3.52,28.9l6.9,21.52c1.27,3.96,4.54,7.25,8.16,8.8l20.78,8.88h0Z"/>
    <path class="st0" d="M222.66,268.44c-5.87,7.31,3.76,17.67,14.61,22.08-9.85,2.2-19.9-1.63-26.12-10.19-7.79,1.73-11.32,8.35-11.47,16.5-7.31-8.84-7.81-22.3-1.08-31.8,5.02-7.09,13.22-10.63,21.94-11.15,7.16-.43,14.14,1.31,21.14,2.99,11.82,2.85,23.73,1.2,33.54-5.98,9.39-6.87,15.21-19.54,6.89-27.08l-6.7-6.07c-5.14-4.66-5.15-13.14-1.42-14.7,2.77-1.16,5.81,3.55,11.43,2.82l7.53-.98c4.12-.54,8.31-.91,11.98,1.78,5.08,3.72-1.85,21.06-12.75,25.76,0,11.23-5.86,21.36-16,27.3,2.62,8.17,2.16,16.4-3.14,22.93-4.66,5.73-12.22,9.74-20.62,8.32,12.5-5.07,20.38-16.03,20.35-29.27-7.68,3.97-15.43,6.78-23.87,5.89l-18.24-1.93c-3.14-.34-6.22.59-7.98,2.79h-.02Z"/>
    <path class="st0" d="M154.84,329.16c7.85,2.44,14.39,6.29,20.61,12.41-49.19,3.05-97.7-4.87-130.72-44.93-8.14-9.87-15.21-20.77-18.39-33.49,15.44,17.53,31.9,31.49,52.33,40.86,12.96,5.94,26.13,9.6,39.74,13.83l36.43,11.32h0Z"/>
    <path class="st0" d="M274.65,232.33c-4.39,3.02-10.05,3.07-15.6,2.85l-26.1-1.03c-9.86-.39-19.26,1.24-28.25,5.88-6.39-2.08-11.33-7.12-12.95-13.71-1.61-6.56,1.01-12.67,6.33-16.78,8.4-6.5,21.56-8.41,31.46-19.71-.73,8.16-5.19,14.62-10.53,20.42l-5.65,6.13c10.98-1.9,21.21-2.17,31.24,2.56l-16.73,2.75c-5.76.95-11.36,2.3-15.98,6.31l16.03-2.19c15.6,1.59,30.41,3.35,46.72,6.53h.01Z"/>
    <path class="st0" d="M232.55,163.78c9.22,5.96,12.42,16.81,5.79,25.67-1.81-5.95-5.06-11.33-11-13.16l-11.71-1.8c-9.28-1.43-16.13-8.15-16.21-17.55-.06-6.72-6.66-7.42-7.27-13.64l15.81,5.15c6.63,2.16,19.95-3.73,20.71,8.17.2,3.13,1.16,5.4,3.89,7.16h-.01ZM223.84,163.16c-2.85.44-4.93.4-6.43-.9-1.35-1.18-2.02-3.24-2.46-5.78l-5.06-.99c1.1,8.13,7.09,11.13,15.36,11.38l-1.4-3.71h-.01Z"/>
    <path class="st0" d="M271.56,242.69c-8.12,6.77-23.54,5.69-34.89,4.6-13.63-1.31-26.6-.49-40,3.24,3.47-4.92,8.32-7.34,13.6-8.98,10.58-3.3,21.26-3.37,32.23-1.62l29.06,2.76h0Z"/>
    <path class="st0" d="M232.58,150.85c-1.76-3.38-3.72-6.06-6.94-8.05-7.51-4.34-9.76-8.04-8.36-17.17,4.76,2.61,8.69,5.49,12.47,8.96,3.17,4.77,4.92,10.16,2.83,16.26Z"/>
    <path class="st0" d="M236.63,158.73c3.13-6.7,2.51-13.24-.26-20.7,5.24.22,8.56,4.82,8.65,9.61.1,5.09-2.8,9.56-8.39,11.09h0Z"/>
    <circle class="st0" cx="251.09" cy="219.65" r="3.29"/>
    <circle class="st0" cx="259.43" cy="220.07" r="3.26"/>
    <circle class="st0" cx="267.57" cy="220.49" r="3.09"/>
  </g>
</svg>