<?xml version="1.0" encoding="UTF-8"?>
<svg id="Layer_1" xmlns="http://www.w3.org/2000/svg" version="1.1" viewBox="0 0 387.3 372.9">
  <!-- Generator: Adobe Illustrator 30.6.0, SVG Export Plug-In . SVG Version: 2.1.4 Build 109)  -->
  <defs>
    <style>
      .st0 {
        fill: #0d1c16;
      }

      .st1 {
        fill: #fcfaf7;
      }

      .st2 {
        fill: #549ba2;
      }

      .st3 {
        fill: #1b1e12;
      }

      .st4 {
        fill: #9cab7f;
      }
    </style>
  </defs>
  <path class="st4" d="M210.85,367.81c-.25.42-.15,1.66.45,1.68l2.3.1,12.15.92c2.37.18,5.01.7,5.79,1.8-1.99.42-5.66.26-7.84-.1l-15.89-2.62c-.21-.8.08-2.01.6-1.97l2.44.18Z"/>
  <path class="st4" d="M102.91,198.79l-1.12.97-24.88,1.97-3.59-.03c-.41,0-.58.88-.48,1.28l-5.25-.17c-.62-.02-2.69-.33-2.74-.9l-.11-2.15,9.55-2.76,4.87.43c4.26-2.68,7.6-4.5,12.83-5.3l-3.46,3.19c5.46-1.25,11.03-2.78,17.79-1.69l-12.05,2.49,8.85.73-.21,1.95Z"/>
  <path class="st1" d="M101.79,199.76l-2.8,2.98-13.29-.47-12.86.71c-.1-.39.07-1.28.48-1.28l3.59.03,24.88-1.97Z"/>
  <path class="st1" d="M41.71,316.53c2.69,12.17,12.08,18.69,13.3,31.41-3.58-3.94-6.03-8.86-9.54-11.91-4.57-3.97-7.13-6.81-8.87-12.58-1.41-4.67-3.98-8.59-3.81-14.23l5.06,8.57,3.87-1.26Z"/>
  <path class="st1" d="M66.71,315.19c-.72,4.08-3.18,7.4-5.35,11.27-2.4,4.27-1.77,9.9-1.69,15.4l-3.21-6.22-4.15-10.95,9.29-14.21,5.11,4.71Z"/>
  <path class="st2" d="M330.5,359.35c-2.1.05-5.5,4.96-8.69.72,6.99-1.9,13.4-3.1,20.72-1.88-3.85,2.37-6.87,1.02-12.03,1.16Z"/>
  <polygon class="st4" points="322.31 359.63 304.52 359.48 306.86 357.48 322.67 357.7 322.31 359.63"/>
  <path class="st4" d="M130.71,365.48l1-1.79c2.53.19,5.36.71,8.14,1.52l-9.15.28Z"/>
  <path class="st4" d="M120.34,121.84c2.54-2.45,5.16-6.02,6.2-9.21.69-.09,2.21-.43,2.46-1.06l.72-1.79,9.28-6.56-6.8,8.88c-2.96,3.86-5.94,6.93-9.96,10.44l-1.9-.71Z"/>
  <path class="st4" d="M170.88,105.96l-1.13-.6c.26-1.9.61-2,1.13.6Z"/>
  <path class="st4" d="M365.55,251.23l-15.64,4.48,5.98-8.76-3.43.46,4.32-10.55c-5.75.57-8.5,4.22-10.61,7.95-1.71-5.31-3.03-8.34-6.5-13.19l-2.31,5.93c-.84,2.15-1.49,6.1-1.55,8.19,0,.17.31.46.66.86l-.62,1.99-.8-1.86c-3.29-3.09-8-4.91-13.34-4.43,3.05,2.88,5.92,5.48,7.05,7.9l-2.17,3.21,5.06,9.77-3.1,6.23-11.33-5.56c.46-12.93-2.83-23.57-6.48-35.59l-.83-11.08c-.36-4.76-4.97-8.88-6.3-13.34-4.41-14.84-12.82-24.33-28.63-22.68-6.48.68-9.18-2.11-14.37-4.45-5.77-2.59-13.41-3.95-19.74-5.09s-12.32,1.25-16.45,6.05l-13.02-.38c-6.43,2.19-13.06,5.87-19.61,6.52l-6.69-1.07c-2.97-.48-7.59-1.58-11.05-3.78-2.98-1.89-7.94.2-11.29.51l-3.58.33c-.81.07-.11-2.47.1-3.44-2.49-5.81-11.05-7.3-16.41-4.73l.44,2.64c.08.49-2.08-.21-2.67-.18l-7.91.36,1.69-3.41c.96-1.94-7.13-12.33-22.55-8.89-5.39,1.2-13.69,5.42-14.85,12.6l-1.01,6.32-7.49-.04-.33-3.29c-5.73-1.66-12.12-.66-17.08,3.32-2.42,1.94-3.62,5.67-3.31,8.1l1.99-.06c.31,0,1.11.88.81,1.01l-2.64,1.16-4.99,2.68c-1.49.8-16.86-9.46-22.54,3.22-2.96-.59-5.23-.05-7.98.98l-8.88,3.33,12.04-1.11,10.49-.79c4.72-.36,3.73,4.48,18.63.17l.11,2.15c.05.58,2.12.88,2.74.9l5.25.17,12.86-.71,13.29.47c-10.89,11.59-17.9,25.35-19.64,41.58l-3.66,34.06c-.51,4.72-3.1,8.84-5.39,12.59-1.84,3.02-3.22,2.95-6.18,4.56l-9.63,5.22,5.66-9.66c.14-4.57,1.61-8.57,5.72-12.09l-1.77-2.31,1.4-10.56c-7.51,3.04-11.44,6.89-14.29,12.58-.24-.86-.68-3.1-1.18-2.9l-2.62,1,3.75-10.1c-.37-1.2-.98-3.5-1.04-4.59l-.36-6.79c-4.12,2.52-5.5,3.78-8.25,6.59l.1-13.48c-5.93,5.05-8.9,12.11-10.25,20.86l-6.17-11.7C.12,200.26,5.11,134.24,39.66,81.57,85.42,11.81,175.74-16.55,254.74,9.6c80.07,26.51,129.09,102.68,123.72,186.1-5.69-4.24-7.39.78-11.54.04.75-3.83-.05-6.49-2.99-8.56-5.83-4.11-14.08-2.36-18.89,3.02l.71,4.2-4.38,4.14c-2.68-2.63-5.09-3.61-7.93-2.82s-4.07,2.98-4.11,6.62l-6.8-.12c-1.91-.04-5.44,1.34-7.96,2.2,9.97,2.39,18.67-3.72,25.74.85,7.85-.17,12.41-10.29,19.39-1.15,3.09.13,7.56-1.37,11.2-2.93,2.26.42,2.49,1.86-.83,1.89l3.91.86-3.94,1.57,7.4.3c-2.13,15.95-6.45,30.92-11.86,45.44ZM127.66,109.26l-1.13,3.36c-3.62.45-5.14,4.63-7.75,6.6l-8.73,6.58c-4.48,3.38-9.77,4.69-13.7,9.67,19.9-5.66,37.4-16.87,53.35-29.05,1.04,1.18,1.58,1.89,1.97,1.7l3.17-1.5-5.36,9.07c-5.48,9.27-16.39,11.47-17.9,17.82,5.43-2.66,11.36-5.84,15.92-10.18l9.03-8.59,2.67.43c1.14.18,1.26-6.52,9.57-8.64-.19.23-.02,1.36-.03,1.67-.01.45,1.19-.3,1.38-.71l.76-1.57,5.84-4.5.14,7.76-2.99,1.21c-.52.21.26,1.98.42,2.52l.67,2.2c.19.62-1.08,1.94-1.68,1.69l-2.03-.86c-.44-.18-.43,1.14-.44,1.88,0,.49,1.49-.02,3.13-.36l-1.56,8.55c-1.27,1.91-3.03,3.49-3.35,6l11.34-13.04c4.12-4.74,3.14-9.62,7.83-16.22.31,3.26,1.7,3.09,2.16.6,1.12-.56,1.89-.95,1.3-.65l2.14,8.58,1.44-10.64,3.88,11.9c.94,2.88,3.95,6.88,5.8,9.64l5.56,8.24c.97-2.7-2.08-6.51-2.32-8.82l-1.15-11.13-.62-11,11.29,17.37c-.71-4.09-1.92-7.5-3.14-10.69l-.9-.58.64-1.67c.7.87,1.19,1.5,1.34,1.59,3.36,2.06,7.84,7.45,11.22,10.7l7.14,6.87.7-1.28-4.7-5.44c-.05-.06-.09-.11-.1-.17l-.19-1.21-1.69-.65c2.03.47,2.75.19.57-1.02l1.73,1.01.79.48.38.26c2.47,1.72,5.86,4.19,7.86,6.65,2.13,2.63,3,3.03,5.85,4.32l15.1,6.85-9.06-7.96-13.47-12.54-4.47-8.65,2.58-.47,2.87,2.49.85,2.49c.24.69,1.74.75,2.62,1.06l3.88,1.38.66-.87-6.23-4.23.93-.84c.37-.33,1.99.16,2.44.48l12.73,9.14,11.35,5.94-13.46-12.2c-.7-.63-1.83-2.62-1.95-2.97l-1.17-.99,1.7-.4.31.44c5.83,3.16,12.17,6.52,18.42,8.41l-.81,1.46.37.69-.38.88-.8-1.18-5.43-.23,10.87,4.36,15.57,6.39,8.64,4.02c-1.39-3.34-3.27-3.47-5.77-4.66l-12.84-6.07c-2.53-1.2-5.32-2.38-6.24-4.2,1.57,1.32,6.54-.13,8.43.67l14.08,5.99,11.71,5.33c.04.38-.19,2.13.4,2.38l3.03,1.27,15.15,6.36c.96.4,4.26-.47,3.67-.63l-3.19-4,17.98,2.98c-26.52-9.94-85.56-36.86-104.4-52l-22.89-18.39c-2.08-1.67-7.34-1.85-10.24-1.44-5.89.82-11.5-.64-17.03-.4l-28.32,1.26c-7.03,3.98-13.46,9.83-20.53,14.42-27.43,17.77-55.47,33.41-84.67,48.14l-30.52,13.36c5.11-.45,10.19-1.69,15.56-3.22l2.59-.74c.43-.12.43,1.19.57,2.56,7.15-1.97,13.31-5.91,20.36-9.34l7.87-3.83-.23,3.11c-.02.28.29.3.53.18.27-.13,1.37-.78,1.65-1.01,2.61-2.1,6.27-3.62,9.42-5.4l11.28-6.37,14.38-6.07c-4.23,8.84-22.73,12.54-19.43,15.53,1.22,1.1,4.68.17,5.94-.75,5.37-3.9,10.79-5.81,16.66-8.63l12.83-6.15ZM264.51,113.82c-1.25-4.07-4.41-5.26-7.62-4.42l7.62,4.42ZM247.64,110.9l-1.06.45,1.06-.45Z"/>
  <path class="st4" d="M168.78,106.56l.98-1.2-.98,1.2Z"/>
  <path class="st4" d="M205.53,368.8l-1.05-1.08,1.05,1.08Z"/>
  <path class="st4" d="M198.5,369.37l-15.47-.21c4.47-2.84,9.72-2.29,15.47.21Z"/>
  <path class="st1" d="M185.11,182.76l-3.35,2.5-28.98-2.73c-14.76-3.49-29.02.24-40.81,9.3l-9.06,6.96.21-1.95-8.85-.73,12.05-2.49c-6.76-1.09-12.33.44-17.79,1.69l3.46-3.19c-5.24.79-8.57,2.62-12.83,5.3l-4.87-.43-9.55,2.76c-14.91,4.31-13.92-.53-18.63-.17l-10.49.79-12.04,1.11,8.88-3.33c2.75-1.03,5.02-1.57,7.98-.98,5.68-12.67,21.05-2.42,22.54-3.22l4.99-2.68,2.64-1.16c.3-.13-.5-1.02-.81-1.01l-1.99.06c-.31-2.43.89-6.16,3.31-8.1,4.96-3.98,11.35-4.98,17.08-3.32l.33,3.29,7.49.04,1.01-6.32c1.15-7.19,9.46-11.4,14.85-12.6,15.41-3.43,23.51,6.95,22.55,8.89l-1.69,3.41,7.91-.36c.59-.03,2.75.67,2.67.18l-.44-2.64c5.36-2.58,13.92-1.09,16.41,4.73-.21.97-.91,3.52-.1,3.44l3.58-.33c3.35-.31,8.31-2.4,11.29-.51,3.46,2.2,8.08,3.31,11.05,3.78Z"/>
  <g>
    <path class="st0" d="M222.59,368.6l-11.74-.79-2.44-.18c-.51-.04-.81,1.18-.6,1.97l-2.29-.8-1.05-1.08c-9.29-1.17-18.22-1.35-28.16-.99-2.61.09-5.3,2.47-7.49,2.93l-11.48,2.43-6.82.81-13.1-.63,17.63-4.04-14.36-.5-25.84.1-7.35-1.06-6.27-.62c6.89-2.51,13.89-1.47,21.47-1.08l8.01.4,9.15-.28c-2.78-.8-5.61-1.33-8.14-1.52l-14.13-1.05-12.86.66c-4.81.25-8.53.83-13.6,2.71l12.67,1.79c.49.07,1.69.08,1.83.43l.23,1.43-19.13.25-41.35.5,31.31-6.53-13.02-.65-37.97.04-25.71-.36c7.8-4.38,29.4-9.68,29.41-9.65l-.26-2.64,7.04-.17-7.94-7.34c3.74-.49,8.45.17,10.46,1.88l1.38-1.28c-7.26-16.52-13.11-8.77-20.01-16.03l10.63-1.16c-7.04-9.88-21.26-5.21-30.03-17.17,6.27-1.37,11.32-1.68,16.41-.88l.89-.68-9.18-7.5c-.76-.62-1.57-2.41-1.82-3.46l-6.19-4.67,6.93-2.96-5.52-12.14c5.72,1.8,8.96,4.18,12.38,7.31l.37-3.76c.06-.6,2.32.78,2.72,1.32l5.23,6.88.93-.87c-1.3-3.37-2.24-6.69-1.59-10.34-1.84-6.8-.91-13.97,2.91-20.02l6.17,11.7c1.36-8.76,4.33-15.82,10.25-20.86l-.1,13.48c2.76-2.81,4.13-4.07,8.25-6.59l.36,6.79c.06,1.1.67,3.39,1.04,4.59l-3.75,10.1,2.62-1c.51-.19.95,2.05,1.18,2.9,2.86-5.7,6.78-9.54,14.29-12.58l-1.4,10.56,1.77,2.31c-4.11,3.52-5.57,7.52-5.72,12.09l-5.66,9.66,9.63-5.22c2.96-1.61,4.34-1.54,6.18-4.56,2.29-3.75,4.88-7.87,5.39-12.59l3.66-34.06c1.74-16.24,8.76-29.99,19.64-41.58l2.8-2.98,1.12-.97,9.06-6.96c11.79-9.06,26.05-12.79,40.81-9.3l28.98,2.73,3.35-2.5,6.69,1.07c6.55-.64,13.18-4.32,19.61-6.52l13.02.38c4.13-4.81,9.86-7.24,16.45-6.05s13.97,2.5,19.74,5.09c5.19,2.33,7.89,5.12,14.37,4.45,15.82-1.65,24.22,7.84,28.63,22.68,1.32,4.45,5.94,8.57,6.3,13.34l.83,11.08c3.64,12.02,6.93,22.65,6.48,35.59l11.33,5.56,3.1-6.23-5.06-9.77,2.17-3.21c-1.14-2.41-4.01-5.02-7.05-7.9,5.35-.48,10.05,1.34,13.34,4.43l.76-.99c.06-2.08.71-6.03,1.55-8.19l2.31-5.93c3.46,4.85,4.79,7.88,6.5,13.19,2.11-3.73,4.86-7.38,10.61-7.95l-4.32,10.55,3.43-.46-5.98,8.76,15.64-4.48c4.23-1.21,9.21.54,13.45,2.83l-6.57,3.84,5.52,2.62c-5.39,3.19-8.85,3.64-14.9,4.64,6.25,1.37,11.18,6.38,13.87,12.05l-13.36.5c-4.31-1.65-9.05-2.53-13.45-1.89,3.89,6.95,4.33,12.23-.12,17.65l-4.62-6.52-4.88-6.89c-.46-.65-.61-3.79-1.27-3.5-7.76,3.44-12.82,19.36-15.85,28.9l-8.72,27.44c-.7,2.2-.32,5.22.94,6.26l1.28-1.68,2.33-1.22c.51-.27,1.2,1.73,1.51,2.82.42,2.1,1.06,1.76.94-.13l1.58-8.7c.64-3.51.9-7.6,5.4-8.18l2.9,7.54c1.03,1.25,2.06,2.25,1.92,3.18l-.59,4.04c4.82-7.09,8.18-14.39,16.42-19.48l-.75,14.29c-.07,1.34.84,4.43,1.34,6.2l8.01-9.34,3.06,1.92c4.45-2.24,7.03-3.21,12.19-4.48l-4.79,9.3c-1.25,3.56-2.79,6.22-6.01,9.5,4.67-.21,8.47-.24,11.89,2.26l-5.91,4.04,3.23,1.87-2.99,3.29c6.9,1.8,12.53,3.16,18.74,6.18-16.99,1.9-32.17-.06-48.23.72l-14.23.69,22.54,5.67c-5.72.95-10.25.23-15.68.06l-25.55-.8-19.28-.61-5.98-.35,1.69-1.25,32.84-.89-31.3-3.43-8.39.46c-3.39.18-6.47-.23-10.2,1.51l9.23.5,3.73.47-43.96.71,27.31,5.44-15.17-.05-8.66-.03c-.71-.94-3.64-2.06-5-2.12M262.94,247.66c.14,2.15-1.34,5.24-2.3,8.34,3.42-.94,4.14-4.62,4.24-8.01l.35-12.16-.69-23.33-1.02.55-.63,9.22-1.73-4.37c-2.76-4.9-5.84-10.84-4.65-16.65.99-4.84-.38-7.18-3.54-12.44,5.06,3.38,7.82,3.7,11.91.87l3.84-2.67c-4.23-5.89-10.26-7.48-16.84-9.09-8.67-2.12-20.69-3.76-23.47,1.28-.43.78,1.9,1.92,3.56,3.14-2.07,1.16-5.47,1.51-8.33,2.01-6.97,2.5-12.08,9.96-13.81,17.61l9.29.27c-2.61,2.43-3.98,2.66-7.36,2.98l5.75,14.08,4.64-4.05.9.94-3.53,4.18,5.5,8.89c2.63,4.26,7.42,6.74,11.31,4.71l1.45,4.89c.39,1.33,3.11,2.82,4.38.01,1.91,5.71,6.77,10.05,12.45,13.24.41-5.38,1.64-8.74,3.76-12.66l3.58-6.6,1,14.83ZM109.25,295.9c-.05.43-.2,1.77-.73,1.98l-2.37.96,1.41,4.09c5.75,1.15,11.17-3.32,11.29-9.08l10.01-11.24-4.21,12.56c11.6-9.17,17.82-23.55,16.68-37.9l-.9-2.27c-.14-.35,1.17-.37,1.44-.12l1.99,1.85-2.07-11.6-.92-.45c.16-.31.94-1.75.63-1.17l.9.96,4.68,7.76-4.49-15.67,9.35,13.62.92-1.31.32-2.98,5.83,7.6.81-.58.24-3.79,7.4,9.64.66-2.57,4.02,6.19-.24-6.03,6.35,7.58,8.35-5.79-1.7,5.67,7.33-7.08,2.05,2.87,8.34-17.37-1.32,13.23c5.83-6.4,8.23-16.04,6.23-24.17l-.59-.57.48-1.1.89.66c-.06-.17.45,1.39.59,1.75.12.31.54.34.71.08l2-3.06,1.45,8.94c-3.6,1.88-2.98,6.52-2.15,8.86l2-2.86.35,16.74-.59,12.88c-.21,4.65,1.6,8.86,5.02,11.01.12.5.19,1.04.38,1.31l1.13,1.62c.19.27.71-1.29.52-1.56l-1.05-1.45-.42-1.31,3.11,1.28,4.23,7.73,1.15-1.28.39-3.06,2.37,5.21.7-2.98c.08-.33.46-.92.7-.67l2.17,2.24c.61-3.4,1.9-5.79,3.42-9.41l2.67-6.36-1.32-6.3,2.14-5.68,3.25-6.48,1.29,7.06c2.31-9.42-.29-16.06-6.79-20.93l-8.13-6.09c-5.43-1.01-8.02-5.43-9.35-10.29-5.36-2.89-8.32-7.34-8.81-13.21-9.51-11.88-4.01-21.78,6.48-32.31-10.95-1.87-22.93,9.44-39.36,7.41l-27.96-3.45c-10.03-1.24-20.21-.12-28.97,4.88-14.67,8.38-33.1,26.1-35.34,42.99,8.98-8.94,12.63-23.25,23.38-29.58l-3.12,7.52c-6.08,10.71-10.86,22.21-7.1,34.75l2.14-5.22,1.19,9.23,1.82-5.09,6.31,27.69-5.1-5.07,3.23,8.88c.04.1.21.27.45.56-.09.27-.56,1.65-.4,1.18l-.96-.78-2.77-2.25,1.88,10.61,4.59,5.76-7.93-4.08,3.71,9.49,1.64-1.24ZM303.95,240.27l6.29-2.01c-2.88-7.82-3.56-13.2-4.11-20.54-.38-5.12-5.31-9.85-6.95-14.45-5.6-15.64-11.85-19.95-29.88-18.17l16.77,6.04c5.74,2.06,9.01,8.63,9.6,14.08-2.3,2.54-7.32,1.72-9.16,4.94-.7,1.23-1.1,5.65-.79,5.5,3.79-.21,6.12-.39,8.03.22,1.55.49,1.84,4.66,1.64,6.65,3.97,5.06,7.08,11.14,8.55,17.73ZM277.67,226.75c-1.08-.83-1.96-3.57-3.18-5.94l-3.58,7.03-1.38-9.01c-3.6,7.89-1.7,20.69,1.66,20.2,4.71-.69,9.25-.29,13.38-6.97l-6.9-5.31ZM292.47,226.82l-9.45-3.99c1,4.82,8.13,7.62,8.54,6.49.26-.71,1.36-3.73.91-2.5ZM300.5,255.81c-1.5-6.9-4.06-13.58-8.59-19.62-1.02,6.77-.24,13.07,1.12,18.52l7.47,1.1ZM308.77,246.58c1.7-.51,3.52-1.82,3.18-3.35-.26-1.18-2.69-3.09-4.03-2.48l-3.14,1.42c-.3.14,1.11,5.26,1.35,5.19l2.64-.78ZM70.23,317.94c-4.16,8.94-6.29,11.89-4.67,25.02l4.64-7.42-.08,4.62c-.03,1.54,1.72,1.49,3.09,5.51.25.73,3.26.92,3.52.19l5-18.8c1.04-3.92.48-8.52,1.64-12.05,1.54-4.67,11.85-9.49,7.99-38.32l-4.1-30.59-8.82,40.38c1.49,7.83-.25,15.21-3.85,22.09l-4.36,9.37ZM335.85,248.59l.62-1.99-.62,1.99ZM313.49,252.23c-.39-1.54-.69-3.72-1.56-3.71l-5.06.04,1.35,5.64,5.28-1.96ZM153.29,249.33l-1.39,1.14,1.19,2.29,1.24-1.02-1.04-2.41ZM265.35,346.97c.92.68,2.65,1.97,3.77,1.8s3.41-1.58,4.2-2.39l1.39-1.41c.31-.32.74.33,1.95,1.67l.95-5.74c.8-.39,2.32-.6,3.1-.62l-1.3,3.02,10.21-3.54-4.16,7.88,4.43-.17c.85-.03,1.49,2.02,1.87,3.03l6.1-7.43.08,6.08c.28.83,2.59-1.44,3.09-3.2l4.61-16.15,1.11-4.22,4.16-15.25c-7.54,10.56-17.76,19.15-27.76,12.27-3.79-2.61-6.43-6.72-5.14-11.76.74-2.9,4.04-5.42,5.67-4.75,4.74.68,5.9,3.23,4.82,7.85,4.13.73,7.17-1.29,8.33-5.46,1.02-3.67,2.77-9.82,2.09-13.78l-4.18-24.12c-.65-3.73-2.58-7.54-4.43-10.55l-1.34,4.5c-.29.98-3.32-.63-3.78-1.57-1.25-2.57-3.51-7.67-5.94-8.52l-11.67-4.06c-.25,3.41-.94,8.51-4.36,9.82-2.24.85-5.88-1.72-8.23-3.69l-3.63,15.37c-1.61,6.81.77,15.13,3.04,21.72l8.8,25.43c1.4,4.05.87,8.31.39,12.62l-1.25,11.06c-.16,1.4,1.99,3.53,3,4.28ZM154.26,254.53l.04-2.33-.04,2.33ZM159.99,254.9l.52-1.6-.52,1.6ZM295.97,257.18c-.85-.1-2.14,1.22-3.01,2.5,7.45,13.13,21.77,22.31,37.19,18.52-24.4-2.67-29.6-20.47-34.18-21.02ZM314.51,265.35c.11-1.02-2.02-2.06-2.99-1.62-.67.3-2.49,1.71-2.04,2.29l2.08,2.67c.35.45,2.39,1.67,2.45,1.1l.5-4.44ZM340.31,273.03l-2.56.42c-5.74-.35-13.88-3.4-20.06-6.15v4.45c19.33,7.83,25.72.77,22.62,1.28ZM288.87,317.76c-.99.23-4.08-1.04-3.98-2.03l.33-3.47.25-2.73c.04-.45-2.6.01-2.85.39-.99,1.48-1.36,5.44-.42,7.26.81,1.58,3.63,3.61,5.93,4.02,9.45,1.65,17.91-5.12,21.02-14.17,2.83-8.21,3.88-16.53,5.12-25.52l-8.64-4.58.48,10.57c3.74.12,2.3,1.61-.16,1.61-.54,5.64-.5,11.48-3.36,16.27l-6.4,10.71-7.32,1.69ZM164.68,284.15l-15.38-4.88c-5.36-1.7-11.71,1.85-11.79,7.32,3.96-1.13,8.79-3.86,12.34-3.58l14.84,1.14ZM325.42,281.79l-8.37-.85-2.42,24.1c4.83-7.39,7.41-14.8,10.79-23.25ZM156.34,345.26c-.06-.86.27-2.65.78-2.26l2.33,1.78c.35,1.44.8,3.22,1.67,3.06.76-.14,2.91-.53,2.17-.39l-2.99-12.09c6.55,2.72,9.23,7.43,11.86,12.46,3.7-5.59,5.75-10.6,12.34-13.9l-3.87,9.98,3.71-1.04c.2,1.9.2,3.01.66,3.12l2.11.47,4.16,2.02c2.6,1.26,1.51-5.57,4.59-14.6,5.23-15.34,5.7-31.16,4.6-47.15-8.59,2.59-16.95,5.54-26.04,6.4-8.16.77-15.28-1.44-23.88-3.16,1.27,7.35-4.21,10.74-6.29,15.09-5.16,10.78-.62,23.63,1.58,34.92.48,2.44,1.72,5.39,3.37,6.44,1.3.83,4.02.85,5.68.67l1.46-1.82ZM24.7,288.41l-.97,2.21.97-2.21ZM257.11,332.45l3.55-1.29c.25-.09,2.2-7.52-1.42-17.13l-9.29-24.66.54,16.34.94,4.71,4.27,14.8,1.41,7.22ZM227.31,291.57l-.95.85c1.31,1.67,1.42.46.95-.85ZM234.23,344.24c2.37.16,2.8.1,3.07.34l1.02.93,3.19,2.21c.78.54,3.3,1.08,4.32,1.36-1.29-5.16-1.44-8.59-1.54-13.61-.16-8.43-2.63-18.15-7.68-24.62l-10.89-13.96-8.15,30.76c-2.52,9.5-9.63,14.5-3.96,21.29l7.84-1.21c1.48-2.68,3.46-5.04,6.03-5.84l-1.23,6.68c4.15-4.45,4.89-9.53,10.34-8.91l-2.35,4.57ZM61.6,310.49l-9.29,14.21,4.15,10.95,3.21,6.22c-.08-5.5-.71-11.12,1.69-15.4,2.18-3.87,4.63-7.19,5.35-11.27l1.75-9.93c-3.23.54-5.23,2.72-6.87,5.23ZM98.91,340.46l-.73,7.32h7.25s-.73-5.81-.73-5.81c1,.15,3.84.1,4.28-.9l2.33-5.27,4.63,7.78,1.7-1.63c.46-.44,1.58.93,1.86,1.53l1.08,2.28c.19.4,1.46.29,1.92.34l5.13,2.17-1.78-7.64-2.59-19.34-4.35-16.6-12.65,14.71c-4.78,5.55-6.65,13.97-7.36,21.05ZM17.56,309.48l2.12-.84-2.12.84ZM41.71,316.53l-3.87,1.26-5.06-8.57c-.17,5.64,2.41,9.55,3.81,14.23,1.74,5.77,4.3,8.6,8.87,12.58,3.51,3.06,5.96,7.97,9.54,11.91-1.22-12.72-10.6-19.24-13.3-31.41ZM90.8,326.58l-1.68-.24.73-14.11c-5.25,4.12-2.59,14.88-7.95,25.69l.3,5.25-4.42,10.93c4.34,2.85,11.49,1.76,15.4,2.05l2.2.16c.39.03.86.11.82-.18l-.51-3.34,4.65,4.01c-.26-5.86-5.51-9.42-9.97-9.56l-1.24-5.61,5.52-.25-1.94-1.7c-.81-.71,4.12-1.85,2.79-2.55l-2.28-1.2-.92-8.41c-.04-.38.21-1.16.28-1.54s-1.3-1.46-1.39-1.09l-.41,1.71ZM90.82,319.73l.26,2.78c.03.36.97-.71,1.11-1.05l.56-1.39c.13-.33-1.97-.7-1.94-.34ZM216.5,321.26l-4.59.82s-5.11,9.56-.05,12.53c2.8-4.54,3.76-7.69,4.65-13.35ZM140.5,347.48c.39-2.43.41-2.43.38-2.43-.03,0-1.63-.32-2.71-.53l3.85-2.59-4.43.27c1.21-3.16.95-4.07-.37-5.97l-5.4-7.79-.3,4.59-3.74-8.04.88,12.72c.25,3.59,1.29,6.57,3.91,9.14l-1.76,8.66,11.05.94c1.03.09,3.07-1.7,3.47-2.63,1.49,1.22,4.98,1.45,7.22.41-2.8-6.18-7.18-8.16-12.04-6.75ZM316.86,340.2l.72-1.53-.72,1.53ZM259.95,353.08l4.15,2.94c.74-1.06,1.49-2.34,1.91-2.12l2.56,1.38c-.7-5.17-7.33-5.03-8.78-12.52l-3.2,2.33c-.75.55.51,2.14,1.23,3.16-3.97,1.51-6.16,3.45-7.65,7.76l10.32.67-.54-3.6ZM40.41,344.45l-.93,1.2c2.05,1.64,1.83-.03.93-1.2ZM211.24,354.37l1.15,1.88c.3.48,2.4-.43,2.68-.84-5.61-10.43-9.66-5.12-12.87-9.03-.44-.54-2.24-1-2.27-.36l-.11,2.69-3.4,7.21,7.98.59-.65-2.5c-.08-.32,1.23-.03,1.48.19l2.88,2.49c.54.46,2.84-.25,2.08-.73l-.53-1.14.78-1.94.8,1.49ZM155.88,347.67l.92-1.49-.92,1.49ZM322.31,359.63l.36-1.93-15.8-.22-2.34,2,17.78.15Z"/>
    <path class="st4" d="M345.37,286.95l-1.83.44c-6.21,6.99-12.61,13.26-20.16,18.07,3.03-9.54,8.08-25.46,15.85-28.9.65-.29.8,2.85,1.27,3.5l4.88,6.89Z"/>
    <path class="st4" d="M305.64,329.81l.11-5.54-16.58,10.91-8.46,5.11c-.79.02-2.31.23-3.1.62l-12.26,6.06c-1.01-.75-3.16-2.87-3-4.28l1.25-11.06c.49-4.31,1.01-8.56-.39-12.62l-8.8-25.43c-2.28-6.59-4.65-14.91-3.04-21.72l3.63-15.37c2.35,1.97,5.99,4.55,8.23,3.69,3.42-1.31,4.11-6.41,4.36-9.82l11.67,4.06c2.44.85,4.69,5.95,5.94,8.52.46.94,3.48,2.55,3.78,1.57l1.34-4.5c1.84,3.01,3.78,6.82,4.43,10.55l4.18,24.12c.69,3.96-1.07,10.11-2.09,13.78-1.15,4.16-4.2,6.18-8.33,5.46,1.08-4.61-.08-7.17-4.82-7.85-1.63-.67-4.93,1.85-5.67,4.75-1.29,5.04,1.35,9.15,5.14,11.76,10,6.88,20.22-1.71,27.76-12.27l-4.16,15.25-1.11,4.22Z"/>
    <path class="st1" d="M264.87,248l-1.94-.33-1-14.83-3.58,6.6c-2.12,3.91-3.35,7.28-3.76,12.66-5.68-3.19-10.53-7.54-12.45-13.24-1.27,2.81-3.99,1.31-4.38-.01l-1.45-4.89c-3.88,2.03-8.67-.45-11.31-4.71l-5.5-8.89,3.53-4.18-.9-.94-4.64,4.05-5.75-14.08c3.38-.32,4.75-.55,7.36-2.98l-9.29-.27c1.73-7.65,6.84-15.11,13.81-17.61,2.85-.49,6.26-.85,8.33-2.01-1.65-1.22-3.99-2.36-3.56-3.14,2.78-5.04,14.8-3.4,23.47-1.28,6.58,1.61,12.61,3.2,16.84,9.09l-3.84,2.67c-4.09,2.84-6.85,2.51-11.91-.87,3.15,5.26,4.53,7.6,3.54,12.44-1.19,5.81,1.89,11.75,4.65,16.65l1.73,4.37.63-9.22,1.02-.55.69,23.33-.35,12.16Z"/>
    <path class="st4" d="M81.73,327.05l-11.49-9.11,4.36-9.37c3.6-6.88,5.34-14.27,3.85-22.09l8.82-40.38,4.1,30.59c3.86,28.83-6.46,33.65-7.99,38.32-1.16,3.53-.6,8.13-1.64,12.05Z"/>
    <path class="st4" d="M104.7,341.97l-5.79-1.51c.71-7.08,2.58-15.5,7.36-21.05l12.65-14.71,4.35,16.6,2.59,19.34,1.78,7.64-5.13-2.17c-.46-.06-1.73.06-1.92-.34l-1.08-2.28c-.29-.6-1.4-1.97-1.86-1.53l-1.7,1.63-4.63-7.78-2.33,5.27c-.44.99-3.29,1.04-4.28.9Z"/>
    <path class="st1" d="M303.95,240.27c-1.46-6.59-4.57-12.67-8.55-17.73.2-1.99-.09-6.15-1.64-6.65-1.92-.61-4.24-.43-8.03-.22-.31.15.09-4.27.79-5.5,1.83-3.23,6.86-2.4,9.16-4.94-.59-5.45-3.87-12.02-9.6-14.08l-16.77-6.04c18.04-1.78,24.28,2.53,29.88,18.17,1.65,4.6,6.57,9.33,6.95,14.45.55,7.33,1.23,12.71,4.11,20.54l-6.29,2.01Z"/>
    <path class="st1" d="M89.13,326.34l-.22,5.38,1.9-5.14.41-1.71c.09-.37,1.46.72,1.39,1.09s-.32,1.16-.28,1.54l.92,8.41,2.28,1.2c1.33.7-3.61,1.84-2.79,2.55l1.94,1.7-5.52.25,1.24,5.61c4.46.14,9.71,3.7,9.97,9.56l-4.65-4.01.51,3.34c.04.29-.43.21-.82.18l-2.2-.16c-3.92-.29-11.06.8-15.4-2.05l4.42-10.93-.3-5.25c5.36-10.81,2.7-21.56,7.95-25.69l-.73,14.11Z"/>
    <path class="st1" d="M288.87,317.76l7.32-1.69,6.4-10.71c2.86-4.79,2.83-10.63,3.36-16.27,2.47,0,3.9-1.49.16-1.61l-.48-10.57,8.64,4.58c-1.25,9-2.3,17.31-5.12,25.52-3.12,9.05-11.57,15.82-21.02,14.17-2.31-.4-5.12-2.43-5.93-4.02-.93-1.82-.56-5.78.42-7.26.25-.37,2.89-.83,2.85-.39l-.25,2.73-.33,3.47c-.09,1,2.99,2.26,3.98,2.03Z"/>
    <path class="st1" d="M140.5,347.48c4.87-1.41,9.24.57,12.04,6.75-2.24,1.04-5.73.81-7.22-.41-.4.94-2.44,2.72-3.47,2.63l-11.05-.94,1.76-8.66c-2.62-2.57-3.66-5.55-3.91-9.14l-.88-12.72,3.74,8.04.3-4.59,5.4,7.79c1.32,1.9,1.57,2.81.37,5.97l4.43-.27-3.85,2.59c1.07.21,2.68.53,2.71.53.02,0,0,0-.38,2.43Z"/>
    <path class="st1" d="M305.64,329.81l-4.61,16.15c-.5,1.76-2.81,4.02-3.09,3.2l-.08-6.08-6.1,7.43c-.38-1.01-1.02-3.06-1.87-3.03l-4.43.17,4.16-7.88-10.21,3.54,1.3-3.02,8.46-5.11,16.58-10.91-.11,5.54Z"/>
    <path class="st1" d="M81.73,327.05l-5,18.8c-.26.73-3.28.53-3.52-.19-1.37-4.02-3.11-3.96-3.09-5.51l.08-4.62-4.64,7.42c-1.61-13.12.52-16.08,4.67-25.02l11.49,9.11Z"/>
    <path class="st1" d="M257.11,332.45l-1.41-7.22-4.27-14.8-.94-4.71-.54-16.34,9.29,24.66c3.62,9.61,1.67,17.04,1.42,17.13l-3.55,1.29Z"/>
    <path class="st1" d="M277.67,226.75l6.9,5.31c-4.14,6.68-8.67,6.28-13.38,6.97-3.36.49-5.25-12.3-1.66-20.2l1.38,9.01,3.58-7.03c1.22,2.37,2.09,5.11,3.18,5.94Z"/>
    <path class="st1" d="M295.97,257.18c4.58.55,9.78,18.35,34.18,21.02-15.42,3.79-29.74-5.39-37.19-18.52.87-1.28,2.17-2.6,3.01-2.5Z"/>
    <path class="st1" d="M259.95,353.08l.54,3.6-10.32-.67c1.49-4.31,3.69-6.25,7.65-7.76-.72-1.02-1.99-2.62-1.23-3.16l3.2-2.33c1.45,7.49,8.08,7.35,8.78,12.52l-2.56-1.38c-.41-.22-1.17,1.06-1.91,2.12l-4.15-2.94Z"/>
    <path class="st1" d="M210.19,355.96c.76.48-1.55,1.2-2.08.73l-2.88-2.49c-.25-.22-1.57-.51-1.48-.19l.65,2.5-7.98-.59,3.4-7.21.11-2.69c.03-.64,1.83-.17,2.27.36,3.21,3.91,7.26-1.4,12.87,9.03-.28.41-2.38,1.32-2.68.84l-1.15-1.88-1.06,1.59ZM209.66,354.82l.78-1.94-.78,1.94Z"/>
    <path class="st4" d="M325.42,281.79c-3.38,8.45-5.96,15.86-10.79,23.25l2.42-24.1,8.37.85Z"/>
    <path class="st1" d="M300.5,255.81l-7.47-1.1c-1.36-5.45-2.14-11.75-1.12-18.52,4.53,6.04,7.09,12.72,8.59,19.62Z"/>
    <path class="st1" d="M164.68,284.15l-14.84-1.14c-3.55-.27-8.38,2.45-12.34,3.58.08-5.47,6.43-9.02,11.79-7.32l15.38,4.88Z"/>
    <path class="st3" d="M118.85,293.85c-.12,5.77-5.54,10.23-11.29,9.08l-1.41-4.09,2.37-.96c.53-.21.68-1.56.73-1.98,2.77-.16,5.75-1.83,7.32-4.31.42-.28,1.94-.91,1.99-.37l.29,2.63Z"/>
    <path class="st1" d="M340.31,273.03c3.11-.51-3.28,6.55-22.63-1.28v-4.45c6.2,2.75,14.33,5.8,20.07,6.15l2.56-.42Z"/>
    <path class="st3" d="M221.36,284.5l-3.11-1.28c-1.31-4.13-1.57-11.11-1.4-16.66,4.12,5.45,6.3,11.3,4.51,17.94Z"/>
    <path class="st1" d="M216.5,321.26c-.88,5.65-1.85,8.8-4.65,13.35-5.06-2.97.05-12.53.05-12.53l4.59-.82Z"/>
    <polygon class="st3" points="239.98 263.94 237.84 269.62 231.4 272.56 237.65 260.44 239.98 263.94"/>
    <path class="st1" d="M277.61,340.9l-.95,5.74c-1.21-1.34-1.64-1.99-1.95-1.67l-1.39,1.41c-.79.8-3.08,2.21-4.2,2.39s-2.85-1.12-3.77-1.8l12.26-6.06Z"/>
    <polygon class="st1" points="104.7 341.97 105.43 347.77 98.18 347.78 98.91 340.46 104.7 341.97"/>
    <path class="st4" d="M66.71,315.19l-5.11-4.71c1.64-2.51,3.64-4.69,6.87-5.23l-1.75,9.93Z"/>
    <path class="st1" d="M308.77,246.58l-2.64.78c-.24.07-1.65-5.05-1.35-5.19l3.14-1.42c1.34-.61,3.77,1.3,4.03,2.48.34,1.53-1.48,2.84-3.18,3.35Z"/>
    <path class="st1" d="M292.47,226.82c.45-1.24-.65,1.78-.91,2.5-.41,1.13-7.54-1.66-8.54-6.49l9.45,3.99Z"/>
    <path class="st1" d="M314.51,265.35l-.5,4.44c-.06.57-2.1-.65-2.45-1.1l-2.08-2.67c-.46-.58,1.37-1.99,2.04-2.29.97-.44,3.1.6,2.99,1.62Z"/>
    <path class="st1" d="M313.49,252.23l-5.28,1.96-1.35-5.64,5.06-.04c.88,0,1.17,2.18,1.56,3.71Z"/>
    <path class="st1" d="M264.87,248c-.1,3.39-.82,7.07-4.24,8.01.96-3.1,2.45-6.19,2.3-8.34l1.94.33Z"/>
    <polygon class="st3" points="90.8 326.58 88.9 331.72 89.13 326.34 90.8 326.58"/>
    <path class="st3" d="M90.82,319.73c-.03-.36,2.07,0,1.94.34l-.56,1.39c-.14.34-1.08,1.41-1.11,1.05l-.26-2.78Z"/>
    <path class="st3" d="M217.68,284.6l.98-.08,1.05,1.45c.2.27-.33,1.83-.52,1.56l-1.13-1.62c-.19-.27-.27-.81-.38-1.31Z"/>
    <path class="st1" d="M239.98,263.94l-2.33-3.5-6.25,12.12,6.44-2.94,1.32,6.3-2.67,6.36c-1.52,3.62-2.81,6.01-3.42,9.41l-2.17-2.24c-.24-.25-.62.34-.7.67l-.7,2.98-2.37-5.21-.39,3.06.57.62c.47,1.3.36,2.52-.95.85-.33-.07-.75-.14-.78-.19l-4.23-7.73c1.79-6.64-.4-12.49-4.51-17.94-.17,5.55.09,12.53,1.4,16.66l.42,1.31-.98.08c-3.42-2.15-5.23-6.36-5.02-11.01l.59-12.88-.35-16.74-2,2.86c-.84-2.34-1.45-6.98,2.15-8.86l-1.45-8.94-2,3.06c-.17.26-.59.23-.71-.08-.13-.36-.64-1.92-.59-1.75l-.77,1.02c2,8.13-.4,17.77-6.23,24.17l1.32-13.23-8.34,17.37-2.05-2.87-7.33,7.08,1.7-5.67-8.35,5.79-6.35-7.58.24,6.03-4.02-6.19-.66,2.57-7.4-9.64-.24,3.79.69.4-.52,1.6-.98-1.42-5.83-7.6-.32,2.98.43.47,1.04,2.41-.02.45-.04,2.33-1.17-1.77-1.19-2.29.04-.29-9.35-13.62,4.49,15.67-4.68-7.76-.61.65,2.07,11.6-1.99-1.85c-.27-.25-1.58-.23-1.44.12l.9,2.27c1.14,14.35-5.09,28.73-16.68,37.9l4.21-12.56-10.01,11.24-.29-2.63c-.05-.54-1.57.09-1.99.37-1.57,2.47-4.55,4.15-7.32,4.31l-1.64,1.24-3.71-9.49,7.93,4.08-4.59-5.76-1.88-10.61,2.77,2.25.91-.97-3.23-8.88,5.1,5.07-6.31-27.69-1.82,5.09-1.19-9.23-2.14,5.22c-3.76-12.54,1.02-24.05,7.1-34.75l3.12-7.52c-10.74,6.33-14.4,20.63-23.38,29.58,2.25-16.89,20.67-34.62,35.34-42.99,8.76-5,18.94-6.12,28.97-4.88l27.96,3.45c16.43,2.03,28.41-9.28,39.36-7.41-10.49,10.53-15.99,20.43-6.48,32.31.49,5.87,3.45,10.32,8.81,13.21,1.33,4.85,3.91,9.27,9.35,10.29l8.13,6.09c6.5,4.87,9.1,11.51,6.79,20.93l-1.29-7.06-3.25,6.48ZM160.64,194.07l-10.59-1.07c-3.6-.36-6.66-.83-9.72,1.19,3.03,1.33,6.35,2.15,8.69,1.77l11.62-1.89ZM143.62,232.46c-.87-5.23-3.23-9.46-7.17-13.73-.75,6.12,2.51,10.52,7.17,13.73ZM207.42,229.61l-.48,1.1.48-1.1ZM141.5,243.51c.31-.58-.46.86-.63,1.17l.63-1.17ZM152.18,244.58l-.5.5.5.5.5-.5-.5-.5ZM109.49,277.21l-.4,1.18c-.16.46.31-.91.4-1.18Z"/>
    <path class="st4" d="M154.88,347.07c-1.66.18-4.38.16-5.68-.67-1.65-1.05-2.89-4-3.37-6.44-2.2-11.29-6.74-24.14-1.58-34.92,2.09-4.36,7.56-7.74,6.29-15.09,8.6,1.72,15.71,3.93,23.88,3.16,9.1-.86,17.46-3.81,26.04-6.4,1.1,15.99.63,31.81-4.6,47.15-3.08,9.03-1.99,15.86-4.59,14.6l-4.16-2.02-2.11-.47c-.46-.1-.45-1.21-.66-3.12l-3.71,1.04,3.87-9.98c-6.6,3.3-8.64,8.31-12.34,13.9-2.63-5.04-5.31-9.74-11.86-12.46l2.99,12.09c.75-.14-1.4.25-2.17.39-.87.16-1.32-1.62-1.67-3.06l-2.33-1.78c-.51-.39-.84,1.4-.78,2.26l.47.92-.92,1.49-1-.6Z"/>
    <path class="st4" d="M234.23,344.24l2.35-4.57c-5.45-.62-6.18,4.47-10.34,8.91l1.23-6.68c-2.58.8-4.55,3.16-6.03,5.84l-7.84,1.21c-5.67-6.79,1.44-11.79,3.96-21.29l8.15-30.76,10.89,13.96c5.04,6.46,7.51,16.18,7.68,24.62.1,5.02.25,8.45,1.54,13.61-1.01-.28-3.54-.82-4.32-1.36l-3.19-2.21-1.02-.93c-.27-.24-.7-.18-3.07-.34Z"/>
    <path class="st3" d="M160.64,194.07l-11.62,1.89c-2.34.38-5.67-.44-8.69-1.77,3.06-2.02,6.12-1.56,9.72-1.19l10.59,1.07Z"/>
    <path class="st0" d="M143.62,232.46c-4.66-3.21-7.92-7.61-7.17-13.73,3.93,4.27,6.3,8.5,7.17,13.73Z"/>
    <rect class="st0" x="151.82" y="244.72" width=".71" height=".71" transform="translate(-128.72 179.39) rotate(-45)"/>
  </g>
  <g>
    <path class="st0" d="M275.01,114.09c-.41-.82-2.05-1.12-3.2-1.47-6.25-1.89-12.59-5.25-18.42-8.41l-.84.95c.12.35,1.25,2.34,1.95,2.97l13.46,12.2-11.35-5.94-12.73-9.14c-.44-.32-2.07-.81-2.44-.48l-.93.84-1.78.17-2.87-2.49c.1-.42.13-.7.32-.9l1.65-1.81c.45-.67-2.54-1.01-3.9-.48-1.62.64-1.48,2.07-.65,3.67l4.47,8.65,13.47,12.54,9.06,7.96-15.1-6.85c-2.85-1.29-3.71-1.69-5.85-4.32-2-2.47-5.39-4.93-7.86-6.65l-1.49,1.3,4.7,5.44-.7,1.28-7.14-6.87c-3.38-3.25-7.86-8.64-11.22-10.7l-1.08.66c1.22,3.18,2.43,6.59,3.14,10.69l-11.29-17.37.62,11,1.15,11.13c.24,2.31,3.29,6.12,2.32,8.82l-5.56-8.24c-1.86-2.75-4.86-6.76-5.8-9.64l-3.88-11.9-1.44,10.64-2.14-8.58c.59-.3-.18.09-1.3.65-.45,2.49-1.85,2.66-2.16-.6-4.69,6.6-3.71,11.48-7.83,16.22l-11.34,13.04c.32-2.51,2.08-4.09,3.35-6l1.56-8.55c-1.65.34-3.14.85-3.13.36,0-.74,0-2.07.44-1.88l2.03.86c.59.25,1.86-1.07,1.68-1.69l-.67-2.2c-.16-.54-.94-2.31-.42-2.52l2.99-1.21-.14-7.76-5.84,4.5c-.51-2.6-.86-2.5-1.13-.6l-.98,1.2c-8.31,2.12-8.43,8.83-9.57,8.64l-2.67-.43-9.03,8.59c-4.57,4.34-10.49,7.52-15.92,10.18,1.51-6.35,12.42-8.55,17.9-17.82l5.36-9.07-3.17,1.5c-.39.19-.93-.52-1.97-1.7-15.96,12.18-33.46,23.39-53.35,29.05,3.92-4.97,9.22-6.29,13.7-9.67l8.73-6.58,1.56,2.61,1.9.71c4.02-3.52,7-6.58,9.96-10.44l6.8-8.88-9.28,6.56-1.09-.77c-.3-.15-.51.03-.97.25l-12.83,6.15c-5.88,2.82-11.3,4.73-16.66,8.63-1.27.92-4.73,1.85-5.94.75-3.3-2.99,15.2-6.69,19.43-15.53l-14.38,6.07-11.28,6.37c-3.15,1.78-6.8,3.29-9.42,5.4-.28.22-1.38.88-1.65,1.01-.24.12-.55.1-.53-.18l.23-3.11-7.87,3.83c-7.05,3.43-13.21,7.37-20.36,9.34-.14-1.37-.14-2.68-.57-2.56l-2.59.74c-5.37,1.52-10.45,2.77-15.56,3.22l30.52-13.36c29.2-14.73,57.24-30.37,84.67-48.14,7.08-4.58,13.51-10.44,20.53-14.42l28.32-1.26c5.53-.25,11.14,1.22,17.03.4,2.9-.41,8.16-.23,10.24,1.44l22.89,18.39c18.83,15.14,77.87,42.05,104.4,52l-17.98-2.98,3.19,4c.58.16-2.71,1.04-3.67.63l-15.15-6.36-3.03-1.27c-.58-.24-.36-2-.4-2.38l-11.71-5.33-14.08-5.99c-1.89-.8-6.87.65-8.43-.67ZM180.26,98.34l2.03-5.25,2.42,5.79,8.77-26.48,5.47,13.31c1.63,3.97-1.33,9.55,4.89,13.05l-.75-17.16,6.99,9.31c3.73,4.96,6.49,8.42,13.31,7.48,1.1,3.06,3.51,5.38,6.7,5.37l-10.85-16.86c-2.34-3.64-4.22-6.77-5.45-10.89l7.49,5.95c4.45,3.53,7.96,7.85,13.73,10.01-4.77-5.69-9.85-8.84-13.27-14.99,4.28,2.01,7.81,3.64,10.46,6.15l5.52,5.24,7.9,5.49c2.13,1.48,4.91,1.83,7.59,2.46,2.42.56,4.99,2.13,7.66,1.98-15.31-9.72-30.31-18.75-43.73-31.39l-10.69.15-10.68-.78-8.28.09-11.85,1.32-12.37-.51c-12.84,10.35-25.68,18.75-40.15,27.32l9.25-.31,3.6-5.26,8.72-5.25,3.17.28c1.39.12,3.58-6.03,8.05-7.69,2.89-.18,3.84-.47,6.65-2.43.53-.26.34,4.01-.67,4.92l-22.37,20.12c3.69-.02,6.77-1.68,9.56-3.9l8.83-7.03,14.31-14.44c-.45,5.42-3.88,8.76-6.6,12.94l-8.31,12.75c9.3-5.37,13.77-14.1,20.07-22.35l6.55-3.29-1.61,8.88c-.54,2.99-1.53,5.67-3.09,8.63l1.03,7.24ZM158.04,101.99c.02-.29-2.88-.25-2.89.55l-.04,3.58,2.93-4.13ZM213.67,105.62l.64-1.67-.64,1.67ZM251.39,104.17l1.7-.4-1.7.4ZM228.01,114.37c2.03.47,2.75.19.57-1.02l-.57,1.02ZM230.32,114.35l-.62.67.19,1.21,1.22-1.39-.79-.48Z"/>
    <path class="st0" d="M168.78,106.56l.98-1.2,1.13.6-.76,1.57c-.19.4-1.39,1.15-1.38.71,0-.31-.16-1.44.03-1.67Z"/>
    <path class="st3" d="M275.01,114.09c.91,1.82,3.71,3,6.24,4.2l12.84,6.07c2.5,1.18,4.38,1.32,5.77,4.66l-8.64-4.02-15.57-6.39-10.87-4.36,5.43.23.81-.4.81-1.46c1.14.35,2.79.65,3.2,1.47ZM271,115.65l.38-.88-.38.88Z"/>
    <path class="st3" d="M129.72,109.78l-.72,1.79c-.25.63-1.77.97-2.46,1.06l1.13-3.36c.46-.22.67-.4.97-.25l1.09.77Z"/>
    <path class="st3" d="M126.54,112.63c-1.04,3.19-3.65,6.76-6.2,9.21l-1.56-2.61c2.61-1.97,4.13-6.16,7.75-6.6Z"/>
    <path class="st3" d="M240.52,105.62l6.23,4.23.89,1.06-1.06.45-.48-.63-3.88-1.38c-.88-.31-2.38-.37-2.62-1.06l-.85-2.49,1.78-.17Z"/>
    <path class="st3" d="M264.51,113.82l-7.62-4.42c3.21-.84,6.37.35,7.62,4.42Z"/>
    <path class="st3" d="M235.88,103.29l-2.58.47c-.83-1.6-.97-3.03.65-3.67,1.36-.54,4.36-.2,3.9.48l-1.65,1.81c-.18.2-.21.48-.32.9Z"/>
    <path class="st1" d="M180.26,98.34l-1.03-7.24c1.55-2.96,2.54-5.63,3.09-8.63l1.61-8.88-6.55,3.29c-6.3,8.24-10.77,16.97-20.07,22.35l8.31-12.75c2.73-4.18,6.15-7.52,6.6-12.94l-14.31,14.44-8.83,7.03c-2.79,2.22-5.87,3.88-9.56,3.9l22.37-20.12c1.01-.91,1.19-5.18.67-4.92-2.81,1.96-3.76,2.25-6.65,2.43-4.46,1.66-6.65,7.81-8.05,7.69l-3.17-.28-8.72,5.25-3.6,5.26-9.25.31c14.47-8.57,27.31-16.97,40.15-27.32l12.37.51,11.85-1.32,8.28-.09,10.68.78,10.69-.15c13.43,12.64,28.42,21.67,43.73,31.39-2.67.15-5.24-1.42-7.66-1.98-2.68-.63-5.46-.97-7.59-2.46l-7.9-5.49-5.52-5.24c-2.65-2.52-6.18-4.14-10.46-6.15,3.41,6.16,8.5,9.31,13.27,14.99-5.77-2.16-9.28-6.48-13.73-10.01l-7.49-5.95c1.23,4.12,3.11,7.25,5.45,10.89l10.85,16.86c-3.19.02-5.6-2.31-6.7-5.37-6.82.94-9.58-2.52-13.31-7.48l-6.99-9.31.75,17.16c-6.23-3.5-3.26-9.07-4.89-13.05l-5.47-13.31-8.77,26.48-2.42-5.79-2.03,5.25ZM183.18,90.59l-.02.65v.68l.02.65.02-.65v-.68l-.02-.65Z"/>
    <path class="st4" d="M158.04,101.99l-2.93,4.13.04-3.58c0-.8,2.91-.84,2.89-.55Z"/>
    <polygon class="st0" points="183.18 90.59 183.2 91.24 183.2 91.92 183.18 92.57 183.16 91.92 183.16 91.24 183.18 90.59"/>
  </g>
</svg>