<?xml version="1.0" encoding="UTF-8"?>
<svg id="Layer_1" xmlns="http://www.w3.org/2000/svg" version="1.1" viewBox="0 0 356.38 358.66">
  <!-- Generator: Adobe Illustrator 30.6.0, SVG Export Plug-In . SVG Version: 2.1.4 Build 109)  -->
  <defs>
    <style>
      .st0 {
        fill: #191d11;
      }

      .st1 {
        fill: #fdfefd;
      }

      .st2 {
        fill: #0d1c16;
      }

      .st3 {
        fill: #65a8b2;
      }

      .st4 {
        fill: #6babb7;
      }

      .st5 {
        fill: #0d1c15;
      }

      .st6 {
        fill: #6babb6;
      }

      .st7 {
        fill: #fcfaf7;
      }

      .st8 {
        fill: #549ba2;
      }

      .st9 {
        fill: #d0bac8;
      }

      .st10 {
        fill: #eccea0;
      }

      .st11 {
        fill: #ecce9f;
      }
    </style>
  </defs>
  <path class="st1" d="M146.44,242.91l.05,2.79-10.71.16c-.8.01-2.69.44-3.54.7.7.71,1.93,1.49,2.35,1.25l1.04-.6,28.06-.41,6.2.79,6.81-.24c-.3,2.22,2.24,3.92,4.41,3.63,1.39-.19,2.66-2.24,2.61-3.88l13.98-.47,47.09-1.69c-.05.52.18,2.31.91,2.55.91.3,3.4.21,4.34-.14l3.23-1.2c.62-.23-.32-1.96-.5-2.51l3.86,1.03c-1.64,1.54-3.95,4.78-3.98,6.9-1.8.91-2.82,3.21-3.1,5.15l-12.79-.05c.94-.53-1.34-3-2.46-2.91s-2.65,1.72-2.57,2.9h-54.01s-.11-1.26-.11-1.26c-.04-.35-1.38-.92-1.49-.58l-.54,1.84-28.96-.07-.42-1.83c-.18-.48-2.06-1.13-2.63-1.16l-8.89-.43c-.63-.03-2.85.72-2.92,1.3l-.08,2.13-7.98.02c-.42-2.16-1.32-6.73,0-8.38l3.3-4.1c5.57-1.43,13.9-1.74,19.42-1.24ZM127.68,246.3c-.59.12.79,1.92,1.36,1.7l1.59-.6c.38-.14-.16-1.68-.56-1.6l-2.39.49Z"/>
  <path class="st6" d="M346.75,259.37l-1.33,3.84c-.35.82-5.7.43-5.69,1.19v1.2s-7.47-1.19-7.47-1.19l3.37-7.72c3.95-.01,7.84.82,11.11,2.67Z"/>
  <path class="st4" d="M339.73,265.6v-1.2c-.01-.76,5.34-.37,5.69-1.19l1.33-3.84,9.63,5.46-16.64.77Z"/>
  <path class="st6" d="M31.78,285.28l-16.37-.32c5.52-3.72,11.67.19,14.28-3.22l2.09,3.54Z"/>
  <path class="st6" d="M322.99,279.46l.51-1.77c7.01-.05,13.65.21,20.28,2.9l-10.21-.36-10.58-.77Z"/>
  <path class="st9" d="M319.68,314.95l-1.06-.09,1.06.09Z"/>
  <path class="st9" d="M338.71,351.92c-.37.05-1.05-.78-1.13-1.04.37-.02,1.06.68,1.13,1.04Z"/>
  <g>
    <path class="st6" d="M319.68,314.95l-1.06-.09-2.24.38-21.57-3.46.67-1.49s7.22-1.1,13.64.11l24.16,4.57-13.61-.02Z"/>
    <g>
      <path class="st5" d="M72.86,234.03c.15.54-.14,1.85-.69,2.2l-6.23,3.95c2.47,2.2-.54,3.52-2.99,3.69.43.78,1.32,1.54.99,2.05l-2.18,3.36c11.16-2.95,15.41-1.81,21.86,7.4-.18.69-.68,2.16-1.2,1.85s-2.43-1.67-3.04-1.71l-9-.61-8.86,1.17c5,2.7,8.72,6.17,10.15,10.24,1.86,5.29,1.24,11.04-2.4,14.64-.38-3.45-.88-5.51-2.42-6.89l-.5-4.88-2.22,4.58-1.71-9.53-1.31,3.53-2.71-6.62c-.57,11.51.74,22.08,3.47,33.12l3.24,13.1,7.22-1.75-3.07-5.3-.12-.64-2.69-.5c.15-.19,1.28-1,1.72-.85l1.68.57,1.44.47-.72-4.14-.42-.48-.83-1.49-.59-.58.74-1.01.75.79,1.18,1.25.05.25,2.44,2-1.36-14.14c1.24.27,2.99,1.14,3.22,1.86l3.22,10.04c.24-10.11,3.74-19.07,9.93-26.89l-2.41,26.61c3.33-4.74,6.49-8.47,12.12-11.35l-7.63,13.84,5.72-3.66-3.07,7.8c-.47.04,1.99,1.38,2.43.89l2.11-2.34,10.2-2.35-.54-5.22c1-.25,1.74-.25,1.76.25l.19,3.72c1.65,2.18,6.85,3.5,9.76,3.68l2.71,2.01c.64.48-.44,2.77-.12,3.5l1.75,3.96c.47,1.07-1.93,2.98-3.17,3.76,1.96.17,4.47,1,6.09,2.21l4.89,3.65c-3.86-8.92-6.93-16.06-8.54-24.47l2.79,2c.54.47,1.63-1.22,1.7-1.8l12.2-7.75,12.19,3.83c4.47-3,8.65-6.27,13.51-7.23,10.65-2.1,19.85,6.33,21.83,16.38.18.9,1.03,3.22,1.77,2.98l2.76-.87,9.16-2.89c2.49-.79,7.81,2.38,10.2,3.31,10.56-10.24,26.87-13.67,34.22-4.42,3.22,4.05,7.15,9.76,8.66,14.49l3.57,11.24c.59,1.87,1.51,5.01,3.02,5.55,1.35.47,4.61.71,6.06.52,5.56-.74,13.64-4.51,18.69.24l10.27,9.63,8.8,2.33c6.96-4.44,15.63-4.94,22.31-.46l-10.69,2.53,26.62,7.15-4.08.56c-.06-.36-.76-1.06-1.13-1.04l-5.13.26-28.78-6.14-12.84-2.12-17.81-3.25-19.08-3.13-5.12-1.04-16.19-2.69-58.92-6.99-33.3-.34,22.35,7.01c-5.17,1.74-10.03.3-15.47-1.01-11.51-2.78-22.8-4.95-34-4.69l4.62,1.82-12.42,1.24.75,1.11,19.81-.81c-6.84,1.7-13.87,2.27-20.64,1.8l-.46-1.37-13.87,2.26,10.21,2.6-13.74,1.28c-2.08.19-5.71-1.04-7.76-1.66-.31-.38,1.39-2.04,2.04-2.22l7.81-2.04c.9-.23,2.46-1.23,3.12-2.25,3.22.71,7.03-1.03,11.75-3.24l-38.49.17-65.99,1.97c12.81-7.29,25.12-10,39.13-13.64l-6.01-5.78c3.22-.23,4.95.07,9.38.89l-9.11-12.38,7.96,2.3.31-1.32-1.63-8.84,8.04,8.92,2.2-1.54,8.61,9.78-4.77-43.2-4.12,7.77-.59-3.88c-3.4,5.28-5.47,9.88-5.92,16.72-2.62-4.83-3.68-9.21-2.96-15.48,1.74-3.38,4.88-6.7,10.05-10.4-3.22-.89-6.97-1.25-10.9-1.36-7.52-.21-10.2,5.12-10.39,3.85l-.45-2.94c4.36-6.53,11.65-10.2,19.21-7.48l.96-1.43-4.16-3.55-1.97-3.78c-.75-1.43-2.15-2.56-4.9-4.63,2.58-2.59,8.84-1.16,11.65,1.7,2.62,2.68,4.1,5.5,6.25,9.61l2.97-5.36,1.76-3.05c2.25-3.9,7.68-5.18,12.29-4.92ZM48.37,249.88l1.56-.89-1.56.89ZM165.32,299.17l4.71-.69c.65-2.83,1.95-4.19,4-5.37,2.36.08,4.38.67,7.24,1.47-3.78-4.7-10.71-10.52-14.65-8.58l-13.37,6.58c9.96,1.64,7.95,10.01,14.14,11.69l-2.08-5.1ZM149.47,315.09l1.24-3.66c.17-.49,1.8,0,1.99.49.46,1.25,1.91,4.17,3.19,3.96s4.39-1.97,4.63-3.23-2.12-4.06-3.44-3.83l-5.46.95,1.86-2.63c-2.83-.09-4.94-.19-5.29-.31l5.6-8.87c-4.29-4.31-11.77-8.94-17.09-5.13-3.36,2.41-4.09,7.1-10.31,5.53l4.38,13.17,4.32-2.58c.75-.45,2.67,1.47,3.14,1.89l1.7-4.46c.58.13,2.7,2.07,2.36,2.89l-1.87,4.49,4.46-1.69,4.61,3ZM226.6,311.35c-.49,3.8,1.46,2.6,1.68,1.02-.66-2.08-.53-5.26.97-6.21,1.18-.75,3.4-.78,5.4-.77-.07-1.97-.37-5.56.77-6.06l4.29-1.89c-7.94-5.68-18.89.37-26.37,7.96l3.22,6.06c2.28.99,1.57-1.64,5.23-4.28.48-.34,1.55,1.4,1.47,1.98l-.29,2.1,3.62.09ZM74.15,297.87l-.5.5.5.5.5-.5-.5-.5ZM91.15,297.87l-.5.5.5.5.5-.5-.5-.5ZM105.88,307.1l4.17,4.26-1.53-11.29-16.17,7.44,9.51-1.59-2.32,3.65,6.34-2.47ZM198.33,320.72l4.14-6.13,5.12,2.11c-.7-1.98-1.49-3.38-.88-3.87l1.91-1.52-4.91-2.5,6.39-1.24c-2.32-5.12-7.61-5.52-12.82-4.16-4.15,1.09-6.93,3.22-10.3,5.72-4.3,3.19-8.89,5.8-11.52,10.25l3.49,1.46c3.92,2.83,10.29,5.18,15.34.79-2.27-1.73-4.67-1.67-8.53-.41,2.14-4.81,7.48-7.84,12.39-4.86l.16,4.33ZM166.46,316.64c2.36.21,6.1-.75,5.85-3.8-.18-2.17-4.94-4.06-6.48-3.52l.68,4.93-2.59-.16c-.48-.03-.63,2.27-.15,2.31l2.68.24ZM234.2,323.11l1.03-5.67-5.05-2.75-3.48,6.11c-.43.75-3,2.34-3.57,1.72l-2.44-2.69-5.92-7.46-5.86-.05c-.02.49.58,2.62,1.24,2.38l2.89-1.03c.72-.26,2.22,1.82,1.72,2.43l-2.54,3.13c8.09.77,6.61,8.2,15.85,7.42-.85-4.27.43-5.78,4.08-7.2l2.05,3.67ZM243,324.99l.03-1.66-.03,1.66ZM244.3,324.6l-.88,1.65,3.23,2.66c2.54,2.1,5.99,3.72,9.28.95-2.09-2.15-5.59-3.92-8.28-4.8-.69.65-1.71,1.87-2.06,1.38l-1.29-1.84ZM279.35,332.42c.52-1.9-7.29-2.95-14.44,1.07,2.43,3.53,13.71,1.6,14.44-1.07Z"/>
      <path class="st8" d="M335.64,256.7l-3.37,7.72-8.77,13.28-.51,1.77-11.42,12.95c-.59.67-2.24,1.42-2.9,1.62-.13-1.03-1.83-1.88-2.74-2.16-1.09-.33-3.76,1.4-3.42,2.22l-19.14-.48-17.88.52c.83.87,2.85,1.84,4.1,1.81l15.41.08c-12.11,1.72-24.51.52-37.39.86l-2.14,1.29c-7.35-9.25-23.66-5.83-34.22,4.42-2.39-.93-7.71-4.09-10.2-3.31l-9.16,2.89-2.76.87c-.74.23-1.6-2.09-1.77-2.98-1.97-10.05-11.18-18.48-21.83-16.38-4.87.96-9.04,4.23-13.51,7.23l-12.19-3.83-12.2,7.75c-1.2-.44-3.58-2.9-3.88-4.76l-4.99-33.41h4.93s7.98-.03,7.98-.03h14.94s28.96.06,28.96.06h2.14s54.01,0,54.01,0h5.03s12.79.06,12.79.06l2.02,1.04-.88,4.11-.62,3.43c8.24.91,15.39.97,23.32-.82-3.07-2.34-4.34-3.24-5.63-4.89l-.98-2.69,68.86-.21ZM207.06,266.17l34.62-.38-2.07-2.02-34.58.57-48.31.71-22.29-.11c1.92,1.27,3.94,1.82,6.11,1.87l31.09.76,35.44-1.41ZM201.12,273.26c-16.59-1.97-32.76-2.62-48.71.63,16.9,1.73,32.23,1.39,48.71-.63ZM248.28,284.69c4.54-4.2,9.82.25,12.63-3.46l-8.73-.06-27.52.75-21.07-.07-14.03,1.75,33.1.57,25.62.53ZM313.48,286.31l-26.3-2.03-23.53-.33-.02,1.75,23.81.41,6.18.21c7.02.24,13.5.95,19.84-.01Z"/>
      <path class="st8" d="M248.8,335.48l-13.14.42c-2.28.07-4.01.47-5.21,1.65l20.57,1.65-12.42,6.38,17.05,3.76c2.8.62,6.78.71,9.76.66.35,1.21,2.68,1.62,4.22,1.83l8.75,1.23,20.19,4.82-23.96-.22-41.29-.81c5.27-1.58,10.51-2.44,15.86-2.39,2.1.02,4.4,1.46,6.92-.38-10.86-1.86-21.87-2.54-33.47-2.7-14.26,3.72-28.15,7.53-42.94,7.26l-41.01-.76-12.45-.46,11.15-.96,8.63-2.64,16.17-3.73c-3.82-1.52-7.79-.15-11.67.62l-15.58,3.11-.82-1.8c-.18-.36-2.08-.51-2.48-.47l-27.58,2.76-17.37,1.54-15.33.49,20.43-5.06,16.74-3.16c-3.29-1.93-5.65-2.05-8.39-2.08l-5.8-3.9c-2.68-1.43-5.5-3.35-6.8-5.44l13.74-1.28-10.21-2.6,13.87-2.26.53-.74,12.42-1.24-4.62-1.82c11.2-.26,22.5,1.91,34,4.69,5.44,1.32,10.3,2.75,15.47,1.01l-22.35-7.01,33.3.34,58.92,6.99,16.19,2.69ZM105.38,331.93c6.77.47,13.8-.11,20.64-1.8l-19.81.81-.83.99ZM138.31,336.74l21.35.84,25.96.09,19.41.11-8.68-3.69c-3.77-1.61-6.81-.29-10.88.53-10.19,2.06-18.42-1.6-24.81,2.24l-5.15-1.78c-6,.13-11.47.3-17.19,1.66ZM187.4,343.26l-1.4-1.97-28.97.12-.42,1.9,30.79-.06Z"/>
      <path class="st8" d="M41.66,297.51c-.15.07-1.77-1.2-2.16-1.73l-7.71-10.49-2.09-3.54-9.43-16.64-17.95-.2,13.11-7.48c3.29-1.88,9.87-.47,13.38-.51l.45,2.94c.2,1.27,2.87-4.06,10.39-3.85,3.93.11,7.68.47,10.9,1.36-5.17,3.69-8.3,7.02-10.05,10.4-.72,6.27.34,10.65,2.96,15.48.45-6.84,2.53-11.44,5.92-16.72l.59,3.88,4.12-7.77,4.77,43.2-8.61-9.78-2.2,1.54-8.04-8.92,1.63,8.84Z"/>
      <path class="st4" d="M305.39,297.25l-14.92,13.98-.96-.29c.24-.69-1.76-3.34-3.11-3.31l-19.6.48c-4.69.12-7.83.31-11.56,2.73l27.52,1.61-28.62.18c-1.5-4.73-5.44-10.44-8.66-14.49l2.14-1.29c12.88-.34,25.28.87,37.39-.86l19.61-.24.77,1.48Z"/>
      <path class="st4" d="M78.41,334.75c.25-.03,1.14.24,1.35.29,2.05.62,5.68,1.86,7.76,1.66,1.29,2.09,4.12,4.01,6.8,5.44l5.8,3.9-30.48-.34-42.12-1,28.19-6.63,10.54-2.01,12.16-1.32Z"/>
      <path class="st3" d="M289.51,310.95l-5.23,4.58-15.69,11.22c-.8.57-2.13,2.62-1.81,3.2-1.45.19-4.71-.05-6.06-.52-1.51-.53-2.42-3.68-3.02-5.55l-3.57-11.24,28.62-.18-27.52-1.61c3.73-2.43,6.87-2.62,11.56-2.73l19.6-.48c1.35-.03,3.35,2.62,3.11,3.31Z"/>
      <path class="st8" d="M92.73,328.55c-6.18-1.36-12.61-1.99-19.28.9l10.74.94,5.42.41-7.81,2.04c-.65.17-2.35,1.84-2.04,2.22-.22-.06-1.1-.32-1.35-.29.32-.07-2.26-2.15-3.12-2.12l-11.73.33c-5.01.14-9.2-.19-14.64-1.01l21.1-3.48-4.03-2.99,38.49-.17c-4.71,2.21-8.52,3.95-11.75,3.24Z"/>
      <path class="st3" d="M290.85,344.72l12.71,2.4,8.04,1.52,8.77,1.48.2,1.06-17.95-.23-20.78-.29-.24-1.85-.05-1.82,2.17-3.14c2-.24,5.05.47,7.13.87Z"/>
      <path class="st6" d="M290.47,311.23l4.35.55,21.57,3.46c-10.31,1.78-21.26,1.34-32.11.28l5.23-4.58.96.29Z"/>
      <path class="st2" d="M126.21,357.43c-.44.04-1.8-.11-2.76-.23l11.47-3.38,15.58-3.11c3.88-.78,7.85-2.14,11.67-.62l-16.17,3.73-8.63,2.64-11.15.96Z"/>
      <path class="st7" d="M302.51,294.08l4.12.55c.15.48-.71,2.14-1.24,2.62l-.77-1.48-19.61.24-15.41-.08c-1.25.03-3.28-.94-4.1-1.81l17.88-.52,19.14.48Z"/>
      <path class="st2" d="M267.75,259.6l-.78,4.56-7.67-1.7c-.95-2.2-1.45-3.32-1.06-2.35-.93,1.79-1.46,3.04-1.86,2.78l-1.64-1.08c-.38-.25-1.15-1.11-1.56-.88l-1.57.86-.91.11.88-4.11,1.13-.04,14.08-.82.98,2.69Z"/>
      <path class="st2" d="M281.54,346.99l.05,1.82-15.98-.88,6.93,1.78-2.89.2-4.24.08c-2.97.06-6.95-.04-9.76-.66l1.77-1.39,6.56-.28-2.52-1.79,20.09,1.11Z"/>
      <path class="st4" d="M281.6,348.81l.24,1.85-7.1.05c-.46,0-1.74-.87-2.19-.99l-6.93-1.78,15.98.88Z"/>
      <path class="st7" d="M257.59,244.62c-1.31,2.75-2.17,6.26-4.94,6.95.04-2.12,2.35-5.36,3.98-6.9l.96-.05Z"/>
      <path class="st7" d="M252.65,251.57l.05,6.15-1.13.04-2.02-1.04c.28-1.95,1.3-4.24,3.1-5.15Z"/>
      <path class="st4" d="M308.67,294.02l-2.04.61-4.12-.55c-.34-.81,2.33-2.54,3.42-2.22.9.27,2.61,1.13,2.74,2.16Z"/>
      <path class="st4" d="M269.65,349.92l-.02,1.91c-1.54-.22-3.87-.63-4.22-1.83l4.24-.08Z"/>
      <path class="st7" d="M127.01,244.15l-3.3,4.1c-1.33,1.65-.42,6.22,0,8.38h-4.93s-.96-.55-.96-.55l-.99-18.97c3.62,0,7.12,1.23,10.25,3.31l8.7-.21-8.61,2c-.34.08-1.57.83-1.34,1l1.2.94Z"/>
      <path class="st7" d="M183.72,247.11c.04,1.64-1.23,3.69-2.61,3.88-2.17.29-4.71-1.42-4.41-3.63l7.02-.25Z"/>
      <path class="st7" d="M252.77,243.65c.17.56,1.11,2.29.5,2.51l-3.23,1.2c-.94.35-3.43.44-4.34.14-.73-.24-.96-2.03-.91-2.55l5.86-.66,2.13-.63Z"/>
      <path class="st7" d="M135.78,245.87l-.15,1.34-1.04.6c-.42.24-1.65-.54-2.35-1.25.85-.26,2.73-.69,3.54-.7Z"/>
      <path class="st7" d="M169.88,247.59l-6.2-.79,6.2.79Z"/>
      <path class="st7" d="M104.69,232.17v3.89s-16.45.96-16.45.96l8.15,3.39,8.34-.97.17,17.39-21.29-.15c-6.44-9.21-10.69-10.35-21.86-7.4l2.18-3.36c.33-.5-.57-1.27-.99-2.05,2.46-.17,5.46-1.49,2.99-3.69l6.23-3.95c.55-.35.84-1.66.69-2.2l-.5-1.47,32.33-.38Z"/>
      <path class="st8" d="M149.47,315.09l-4.61-3-4.46,1.69,1.87-4.49c.34-.82-1.78-2.76-2.36-2.89l-1.7,4.46c-.47-.43-2.39-2.34-3.14-1.89l-4.32,2.58-4.38-13.17c6.22,1.57,6.94-3.13,10.31-5.53,5.32-3.81,12.81.82,17.09,5.13l-5.6,8.87c.36.11,2.46.21,5.29.31l-1.86,2.63,5.46-.95c1.32-.23,3.69,2.51,3.44,3.83s-3.32,3.02-4.63,3.23-2.73-2.71-3.19-3.96c-.18-.5-1.82-.98-1.99-.49l-1.24,3.66ZM144.94,301.94c.99.48,3.29.4,3.81-.52.57-1.01.44-4.15-.57-3.94l-4.39.92-2.72-1.36c-.62-.31-2.5,1.28-2.69,1.73l6.57,3.17Z"/>
      <path class="st3" d="M198.33,320.72l-.16-4.33c-4.91-2.98-10.26.05-12.39,4.86,3.86-1.26,6.26-1.32,8.53.41-5.05,4.38-11.42,2.04-15.34-.79l-3.49-1.46c2.63-4.45,7.22-7.06,11.52-10.25,3.37-2.5,6.15-4.63,10.3-5.72,5.2-1.37,10.49-.96,12.82,4.16l-6.39,1.24,4.91,2.5-1.91,1.52c-.61.49.18,1.89.88,3.87l-5.12-2.11-4.14,6.13Z"/>
      <path class="st7" d="M290.82,342.89l.03,1.82c-2.08-.39-5.13-1.11-7.13-.87-11.65,1.43-15.74-3.08-24.48-1.16l2.22,3.19,2.52,1.79-6.56.28-1.77,1.39-17.05-3.76,12.42-6.38,2.9-2.69,19.08,3.13,17.81,3.25Z"/>
      <path class="st3" d="M226.6,311.35l-3.62-.09.29-2.1c.08-.58-1-2.32-1.47-1.98-3.67,2.64-2.95,5.27-5.23,4.28l-3.22-6.06c7.48-7.59,18.42-13.65,26.37-7.96l-4.29,1.89c-1.14.5-.85,4.09-.77,6.06-1.99-.02-4.21.01-5.4.77-1.5.95-1.63,4.13-.97,6.21-.22,1.58-2.17,2.78-1.68-1.02ZM229.15,303.92l-6.02-.64c-2.86-.49-5.32.46-6.63,3.78l12.65-3.13Z"/>
      <path class="st8" d="M165.32,299.17l2.08,5.1c-6.19-1.68-4.18-10.05-14.14-11.69l13.37-6.58c3.93-1.94,10.87,3.88,14.65,8.58-2.86-.8-4.88-1.39-7.24-1.47-2.05,1.19-3.35,2.55-4,5.37l-4.71.69Z"/>
      <path class="st8" d="M123.15,294.61c1.61,8.42,4.67,15.55,8.54,24.47l-4.89-3.65c-1.62-1.21-4.13-2.04-6.09-2.21,1.24-.79,3.64-2.69,3.17-3.76l-1.75-3.96c-.32-.73.76-3.02.12-3.5l-2.71-2.01c.54-.42,2.8-1.94,2.22-2.51-.46-.45-2.13-1.76-2.35-2.36l-2.79-7.91,4.16-1.39,2.36,8.79Z"/>
      <path class="st8" d="M234.2,323.11l-2.05-3.67c-3.64,1.43-4.93,2.93-4.08,7.2-9.23.77-7.76-6.65-15.85-7.42l2.54-3.13c.49-.61-1-2.69-1.72-2.43l-2.89,1.03c-.66.23-1.26-1.9-1.24-2.38l5.86.05,5.92,7.46,2.44,2.69c.57.63,3.14-.96,3.57-1.72l3.48-6.11,5.05,2.75-1.03,5.67Z"/>
      <polygon class="st8" points="105.88 307.1 99.55 309.57 101.86 305.92 92.35 307.5 108.53 300.07 110.06 311.36 105.88 307.1"/>
      <path class="st7" d="M58.81,242l-2.97,5.36c-2.15-4.11-3.63-6.94-6.25-9.61l7.95-.65,1.28,4.91Z"/>
      <path class="st2" d="M253.92,336.52l-2.9,2.69-20.57-1.65c1.2-1.18,2.93-1.58,5.21-1.65l13.14-.42,5.12,1.04Z"/>
      <path class="st8" d="M166.46,316.64l-2.68-.24c-.48-.04-.33-2.34.15-2.31l2.59.16-.68-4.93c1.54-.54,6.3,1.35,6.48,3.52.25,3.05-3.5,4.02-5.85,3.8Z"/>
      <path class="st8" d="M243,324.99l.03-1.66,1.26,1.27,1.29,1.84c.34.49,1.37-.73,2.06-1.38,2.7.88,6.2,2.65,8.28,4.8-3.29,2.77-6.73,1.15-9.28-.95l-3.23-2.66-.42-1.26Z"/>
      <path class="st2" d="M92.73,328.55c-.66,1.01-2.22,2.01-3.12,2.25l-5.42-.41-10.74-.94c6.67-2.88,13.1-2.26,19.28-.9Z"/>
      <path class="st8" d="M83.61,256.68l21.29.15.23,5.13,2.71,30.39.54,5.22-10.2,2.35-2.11,2.34c-.45.5-2.9-.85-2.43-.89l3.07-7.8-5.72,3.66,7.63-13.84c-5.63,2.88-8.79,6.61-12.12,11.35l2.41-26.61c-6.2,7.82-9.7,16.78-9.93,26.89l-3.22-10.04c-.23-.72-1.98-1.6-3.22-1.86l1.36,14.14-2.44-2-.88,1.26.72,4.14-2.03.94,3.07,5.3-7.22,1.75-3.24-13.1c-2.73-11.03-4.04-21.61-3.47-33.12l2.71,6.62,1.31-3.53,1.71,9.53,2.22-4.58.5,4.88c1.54,1.38,2.05,3.44,2.42,6.89,3.63-3.6,4.26-9.35,2.4-14.64-1.43-4.08-5.15-7.54-10.15-10.24l8.86-1.17,9,.61c.61.04,2.5,1.39,3.04,1.71s1.03-1.16,1.2-1.85ZM68.72,293.97l.74-1.01-.74,1.01ZM70.21,293.76l-.9.79.83,1.49,1.24-1.03-1.18-1.25ZM69.84,300.18l-1.68-.57c-.44-.15-1.56.66-1.72.85l2.69.5.71-.78Z"/>
      <rect class="st8" x="73.8" y="298.02" width=".71" height=".71" transform="translate(-189.26 139.82) rotate(-45)"/>
      <rect class="st8" x="90.8" y="298.02" width=".71" height=".71" transform="translate(-184.29 151.85) rotate(-45)"/>
      <path class="st7" d="M207.06,266.17l-35.44,1.41-31.09-.76c-2.17-.05-4.18-.6-6.11-1.87l22.29.11,48.31-.71,34.58-.57,2.07,2.02-34.62.38Z"/>
      <path class="st6" d="M248.28,284.69l-25.62-.53-33.1-.57,14.03-1.75,21.07.07,27.52-.75,8.73.06c-2.81,3.7-8.09-.74-12.63,3.46Z"/>
      <path class="st7" d="M201.12,273.26c-16.48,2.01-31.81,2.36-48.71.63,15.95-3.25,32.12-2.59,48.71-.63Z"/>
      <path class="st7" d="M313.48,286.31c-6.35.96-12.82.25-19.84.01l-6.18-.21-23.81-.41.02-1.75,23.53.33,26.3,2.03Z"/>
      <path class="st5" d="M267.75,259.6c1.29,1.65,2.56,2.54,5.63,4.89-7.94,1.79-15.09,1.73-23.32.82l.62-3.43.91-.11,3.13.03,1.64,1.08c.4.26.93-.99,1.86-2.78-.39-.97.11.15,1.06,2.35l7.67,1.7.78-4.56Z"/>
      <path class="st7" d="M146.62,256.59h-14.94s.08-2.12.08-2.12c.06-.58,2.29-1.33,2.92-1.3l8.89.43c.58.03,2.45.68,2.63,1.16l.42,1.83Z"/>
      <path class="st7" d="M236.77,256.67h-5.03c-.08-1.19,1.46-2.83,2.57-2.91s3.39,2.38,2.46,2.91Z"/>
      <path class="st7" d="M177.72,256.66h-2.14s.54-1.85.54-1.85c.11-.34,1.45.23,1.49.58l.11,1.26Z"/>
      <path class="st2" d="M138.31,336.74c5.73-1.36,11.19-1.53,17.19-1.66l5.15,1.78c6.39-3.85,14.62-.18,24.81-2.24,4.07-.82,7.11-2.14,10.88-.53l8.68,3.69-19.41-.11-25.96-.09-21.35-.84Z"/>
      <polygon class="st2" points="187.4 343.26 156.61 343.32 157.03 341.42 186 341.3 187.4 343.26"/>
      <path class="st4" d="M254.73,261.8l-3.13-.03,1.57-.86c.41-.22,1.18.63,1.56.88Z"/>
      <g>
        <path class="st3" d="M347.67,126.89l-5.11-2.83,1.05,6.17c-5.27-1.93-9.73-2.79-14.7-1.13l-.48,4.78-7.17,2.85-2.55-2.57c-.66-.66-3.91-.02-3.79.9l.85,6.67-6.06,4.03-6.87-2.76.5-6.85c-2.83-1.35-4.73-2.83-6.69-5.21-3.39-.68-5.8-2.23-5.49-6.89l-4.31,1.78-3.31-7.45-1.09,12.13-3.78,1.21-.97,6.19,4.8.35c1.22.09,2.17,3.35,2.09,4.24-3.13,1.04-7.73,2.85-8.56,5.15l-2.01,5.52-6.28-7.64c-1.64,2.23-3.02,3.11-5.35,2.21,2.28-3.08,6.51-5.53,7.53-9.57,1.54-6.11,1.67-22.78-1.37-23.48l-1.11-.23,2.73-3.93c3.8-5.03.3-13.42-5.4-15.51-8.12-2.97-1.26-15.69-5.5-25.05l-1.27,23.05c-3.49,1.97-7.15,4.04-8.53,6.42-4.19,7.23.62,12.89-.1,16.24l-.83,3.84c-1.24,5.76-1.24,12.84.31,19.44,1.12,3.32,6.2,6.15,9.13,9.15.11,1.09-2.43,1.89-3.01,1.23l-3.36-3.86-5.68,7.4c-4.86,1.26-6.91,4.72-8.56,10.93l-2.34-3.84c-.58-.95,1.03-2.8,1.84-4.08l-3.41-13.11c-3.43-1.32-4.21-1.93-7.45-4.31l-.34,5.68-7.89,4.68c-.65.38-3.2-1.66-3.52-.98l-1.87,4.05-2.02-3.94-10.95,1.96-3.87-12.09,1.55-.86-4.93-6.76-5.04-6.79c-11.65-12.07-27.8-14.28-43.66-14.85l11.23-1.94-2.91-2.19,7.75.96c.03-.11-.11-1.39-.5-1.48l-1.73-.41-1.59-.68,1.91-.69.73.29,5.7,1.38c1.39.34,2.93-2.97,3.18-4.37l2.92,2.15c.57.42,1.54-1.79,1.67-2.13l.28-.22-3.04-2.59,3.6,1.51c.14.06.32.25.55.46l9.56,3.58-3.28-4.75-.39-.56-1.92-.29-.3-.26s-1.08-.71-1.39-.9c-.28-.19.22-1.54.51-1.38l2.01,1.14.34.2,1.51.92.6.49,11.05,5.47-1.52-5.49,9.1,5.98,1.06-4.16,10.81,4.69c-4.97-8.93-12.7-13.31-20.78-16.97l3.84-1.57c-12.35-6.32-25.27-4.65-37.31.67-2.79-1.48-6.04-3.56-6.46-5.93l1.46-1.48c.22-.22-.09-.36-.49-.46l-2.67-.71,7.19-5.05,3.45-3.13c.28-.25.45-1.85.22-2.14l-1-1.08,5.62-3.04-5.87-1.59,10.48-5.36-8.32.24,13.56-8.17c-5.48-1.15-12.42,1.79-16.93,3.41-.68-.27-1.75-.69-1.72-.68l-6.25,4.39-1.09-2.96-5.77,7.51-1.91.13c-2.18.15-1.69,6.45-6.58,6.67l-3.73,12c-.5-5.83-.54-11.96-2.21-16.83l-3.62-10.56-.88,6.58-4.57-12.34-1.15.69-.14,2.52c-3.47-4.65-7.17-8.26-12.91-11.4l6.17,11.59c.86,1.61,1.49,3.94,1.61,5.78,3.15,5,5.67,10.58,7.71,16.2l.52.48c.74,1.88,1.1,3.32.39,6.12l-1.89-5.04-.04-.54-2.05-1.44c-6.19-13.05-18.34-23.22-33.59-23.01l8.91,4.99-6.91.8c4.06,2.71,8.39,4.84,13.26,5.97-1.05,1.89-.41,5.05.97,6.08l5.83,4.37c-.49,3.17-.14,5.54.99,7.77,2.21,4.34,7.99,2.95,10.94,9.79l-2.95,3.35c-.6.68-.22,2.61-.08,4.72-11.13-11.72-25.8-22.97-42.46-20.58l-12.47,3.12,4.64,1.1c-7.54,2.03-14.54,5.54-20.32,10.88-3.53-.76-6.57,1.12-7.79,4.87l-6.7-.62c.98-3.57,1.62-5.07,3.28-8.09-.03-.84-3.29-2.52-4.76-2.39,13.46-23.28,33.6-41.72,56.78-56.22,57.16-35.75,130.17-35.35,187.57-.1,37.21,22.85,63.88,58.65,75.65,100.32ZM116.77,44.91l.75-.91-.75.91ZM321.23,125.5l-1.43-1.95c-.53-.72-1.72-3.07-2.39-2.51l-2.98,2.47c-3.16,2.62-10.18-11.29-9.5-2.75l.58,7.25-6.27-2.42c.45,3.42,1.44,5.44,3.7,6.62,2.03,1.06,5.2.64,7.16-.02l2.16,2.66c.36.44,1.78-.97,1.82-1.54l.19-2.41.31-3.93c.08-1.03,8.08.48,6.65-1.47ZM197.07,138.72l.5-1.33-.5,1.33Z"/>
        <path class="st3" d="M155.26,50.22l1.72.68c0,.51-.84,1-.88.93l-.84-1.61Z"/>
        <path class="st6" d="M347.67,126.89l.51,1.8-1.55.68c-.36.19.14,1.45.54,1.47l1.63.05c4.5,15.96,7.12,32.64,5.83,49.54-8.39-5.04-15.2-5.88-22.96-2.22-5.67,2.67-11.19,8.89-11,16.31l1.55,2.85c.35.64-1.68,2.33-2.31,1.96l-2.33-1.36c-5.76-3.36-12.78-1.47-15.28,4.75l-2.96-.88c-.62-.19.03-2.04.21-2.84-2.71-7.26-9.63-10.85-16.48-11.41-7-.58-15.12,3.19-17.95,9.49-.52,1.16-.91,4.71-1.86,4.26l-3.42-1.59c-6-2.8-11.48-1.17-16.78,2.05-4.16,2.53-7.97,9.69-6.96,14.02.17.73,2.32,2.31,1.82,2.54l-2.76,1.24-4.16,2.46c-.97.57-3.23-1.67-4.36-2.17-4.49-1.98-10.32-.24-13.69,2.68-3.68,3.2-6.66,6.64-5.33,13.2l-13.03-1.28c-3.59-.35-8,2.2-9.21,5.61-3.14-.25-7.97-.39-11.4.24l-12.46,2.29,20.27.95,13.84-.72,50.07.12,4.96,1.28-5.86.66-47.09,1.69-13.98.47-7.02.25-6.81.24-6.2-.79-28.06.41.15-1.34,10.71-.16,2.61.02c.49,0,.56-1.68.11-1.91-.59-.3-2-.83-2.78-.9-5.53-.5-13.86-.19-19.42,1.24l-1.2-.94c-.22-.18,1-.92,1.34-1l8.61-2-8.7.21c-3.14-2.08-6.63-3.31-10.25-3.31l-.39-12.2,18.91-.25,6.54-.15,9.62-.33,24.92.62c-3.29-4.49-8.51-.66-11.53-1.49-7.7-4.64-14.26.82-26.32-3.12-4.94-5.86-11.49-.78-12.75-2.63l-2.41-3.54-7.04-2.06c-.1-22.71,2.32-45.35,6.71-67.66l3.98,11.51c1.49,4.3,1.53,8.99,1.91,14.43,6.71-12.86,5.15-22.69,1.46-35.66l.67-3.01c.17-.75,2.07,4,2.96,3.82l2.3-.46.99,7.75,2-6.13.47,10.49,1.56-2.61,1.44,7.81,1.64-7.71.68,14.44,2.68-4.91.2,10.09,2.62-7,.51,12.07,3.19-7.82-.56,16.13,3.79-8.1-.56,14.81,3.72-8.91.56,19.01c5.35-8.66,4.56-17.04,4.29-27.01l2.69,5.75c.23-13.56-4.04-25.28-11.2-35.9l8.35-3.82.18-2.32,2.11,3.75,1.2-4.34,3.7,7.73-.88-7.78-.86-.67.73-.95c.67.65.96.91,1.01,1l7.33,13.88-.06-9.08,6.22,14.66-.03-10.92,5.46,16.64,1.33-8.46,7.12,16.09c.38-4.58.64-9.05-.52-12.67l10.95-1.96,2.02,3.94,1.87-4.05c.31-.68,2.87,1.36,3.52.98l7.89-4.68.34-5.68c3.24,2.38,4.02,2.99,7.45,4.31l3.41,13.11c-.8,1.28-2.41,3.13-1.84,4.08l2.34,3.84c1.65-6.21,3.7-9.68,8.56-10.93l1.04,4.29c-2.53,5.73-9.56,10.44-7.05,10.98l3.26.71c.75.16,1.24-2.15,1.45-3.72l7.9-1.52,2.81,1.13,2-7.9c2.71,9.93-2.86,19.47,1.22,21.57.62.32,2.19.06,2.55-.54s.91-2.55.85-3.34l-.93-13.18,3.03,3.58c2.33-1.86,4.29-4.16,3.49-6.32-.56-1.51-2.38-3.32-3.77-4.48.81-.39,2.16-.81,2.39-1.36l.93-2.25,3.27,9.01,3.62-6.35,2.01-5.52c.84-2.3,5.43-4.11,8.56-5.15.08-.88-.87-4.15-2.09-4.24l-4.8-.35.97-6.19,3.78-1.21,1.09-12.13,3.31,7.45,4.31-1.78c-.32,4.66,2.1,6.21,5.49,6.89,1.96,2.37,3.86,3.86,6.69,5.21l-.5,6.85,6.87,2.76,6.06-4.03-.85-6.67c-.12-.92,3.13-1.56,3.79-.9l2.55,2.57,7.17-2.85.48-4.78c4.97-1.67,9.42-.8,14.7,1.13l-1.05-6.17,5.11,2.83ZM215.98,157.24l-2.37-2.95c-.46-.58-2.82-.09-3.08.34l.15,5.47,5.3-2.85Z"/>
        <path class="st4" d="M43.65,89.12c1.77.38,4.75-.11,6.8-.69.9,2.21,1.38,5.24.04,6.61-1.54,1.57-4.04,2.5-6.22,3.32-.87.75-2.32,3.45-3.47,3.31l-5.36-.63,3.77,7.03c-6.6.11-7.4,3.77-8.92,8.68l-1.58,5.13,6.47-1.1c.19,2.72.8,5.99,2.28,6.74,1.32.67,4.17,1.33,5.95,1.71l-1.54,2.38c-.37.57.51,1.87,1.12,2.5-1.6,3.98-3.78,9.39-3.97,14.13l10.57-13.9-1.04,7.78,10.71-15.98c-.81,4.51-1.88,7.12-1.2,9.95,1.21,5.06,5.52,3.9,6.23,8.01.55,3.16,2.34,4.33,5.06,4.38-3.09,5.17-5.35,11.02-7.05,17.54l4.52-5.6c-2.86,9.96-4.74,18.26-2.42,28.07l5.64-19.27,2.21,10.17,3.86-19.03,2.2,11.08,2.79-16.16,2.22,9.5,3.73-14.65,2.06,8.81,4.18-14.67,1.02,8.01,3.96-11.91,1.12,6.17,4.91-10.1.65,3.33,7.33-9.54,1.12,6.33,4.39-1.53c-6.53,25.56-12.18,51.02-12.55,76.9-4.02-.94-9.71-3.57-13.67-1.03l-7.75,4.97-6.8-3.59,1.83-3c.6-.98-1.47-3.52-2.4-4.19l-3.27-2.39c-.71-.52-2.44,1.56-2.64,1.97l-1.72-2.02-1.24,5.82-7.23,16.35c-.85,2.05-1.35,3.96-1.97,7.69l-9.87,1.97,12.93.74-1.39,2.51c-.21.37,0,1.25.46,1.25l-1.76,3.05-1.28-4.91-7.95.65c-2.8-2.86-9.06-4.29-11.65-1.7,2.75,2.07,4.15,3.19,4.9,4.63-6.74-2.74-15.01-3-20.84,3.31l4.97,1.91-14.32,1.62-6.87-22.31,28.91-.33c4.14.05,7.8-.13,10.99-1.58-.08.33.1,1.63.61,1.68l2.24.22,10.65-.22,5.62-15.93,3.68-9.36,1.86,2.46,2.19-6.57-3.88,3.23-10.74.44c-7.49.11-13.92,5.17-14.8,12.46l4.41,2.47-6.8,2.74-5.55,1.77c-2.39-3.34-7.68-5.32-12.02-2.17l-6.86,4.98-10.69,2.46C-5.47,178.14.33,129.24,24.29,88.78l1.97-3.44,1.41-2.45c1.48-.13,4.74,1.55,4.76,2.39-1.66,3.02-2.3,4.52-3.28,8.09l6.7.62c1.22-3.75,4.27-5.63,7.79-4.87Z"/>
        <path class="st11" d="M321.26,223.22l-.93,2.46-.33.93c-3.23-.21-5.83.25-9.33,1.64l4.11,2.09-2.18,2c1.77,1.82,4.66,2.89,5.84,1.88,1.51-1.29,2.82-2.14,4.14-2.21l1.69,4.01.09-3.08c.02-.56-1.52-1.02-1.77-.93l-2.5-4.05c-1.02,1.62-.07.11.29-.94l5.55,5.7,1.13,3.33.77-4.86,1.92,2.75,6.87-3.68c1.17.07,3.43,0,4.71-.29l5.54-1.25-5.01,14.87-74.09-.89-.07-6.7,9.1-.93,4.55-2.75c1.03-.62,3.5,1.5,4.56,2.29l10.35-2.19-2.71,2.48,5.21-.91c3.83.9,7.98.21,11.36-1.66l-4.75-4.32c-3.21-2.92-6.41-2.08-10.95-.3,1.4-2.42,4.15-4.02,6.74-4.09s4.98,1.81,6.97,4.79c3.54-3.27,7.77-5.9,13.1-5.22Z"/>
        <path class="st7" d="M68.63,198.8c-.15.13-.15.68-.17.88l-3.68,9.36-5.62,15.93-10.65.22,2.98-4.54-5.82,2.64c-3.19,1.45-6.85,1.63-10.99,1.58l-28.91.33c-.05-.17-.22-1.32-.2-1.26l10.69-2.46,6.86-4.98c4.34-3.15,9.63-1.17,12.02,2.17l5.55-1.77,6.8-2.74-4.41-2.47c.88-7.29,7.32-12.35,14.8-12.46l10.74-.44ZM58.87,220.7c-.96-1.08-2.58-2.21-3.39-1.74l-3.06,1.76,6.44-.02Z"/>
        <path class="st10" d="M257.59,244.62l-.96.05-3.86-1.03-2.13.63-4.96-1.28-50.07-.12.03-1-.02-.94,15.04-.21,17.57-1.47c4.02-.34,8.06-5.28,12.66-1.01l11.3-6.86c2.99-1.82,5.88-3.46,8.76-.93.85.75,3.35,2.12,3.88,1.32l1.93-2.88c.75-1.12,1.85-2.53,2.61-3.18s3.1.5,4.47,1.56l-5.73,4.47c-2.07,1.62-2.05,6.77-2.92,9.89-1.38,1.78-3.32,4.45-3.96,6.63l-2.31,7.92c-.58-7.83,3.27-12.97,4.76-20.69-2.58,3.02-4.62,6.04-6.1,9.14Z"/>
        <path class="st7" d="M185.38,240.11l10.26.82.02.94h-18s-5.51,0-5.51,0l-.52.79,6.04.23,4.12.71-20.27-.95,12.46-2.29c3.44-.63,8.27-.49,11.4-.24Z"/>
        <path class="st3" d="M348.79,130.88l-1.63-.05c-.41-.02-.9-1.28-.54-1.47l1.55-.68.62,2.19Z"/>
        <path class="st3" d="M24.29,88.78l1.97-3.44-1.97,3.44Z"/>
        <path class="st2" d="M267.44,114.46l-11.87.21-6.18,1c.72-3.34-4.09-9.01.1-16.24,1.38-2.38,5.04-4.44,8.53-6.42l1.27-23.05c4.23,9.37-2.63,22.08,5.5,25.05,5.7,2.09,9.19,10.48,5.4,15.51l-2.73,3.93ZM269.1,106.32c.44-3.51-3.06-7.66-4.78-9.12l-1.6,5.51-.77-5.85c-.12-.92-3.05-1.98-3.58-1.25l-2.18,3.01c-.12,2.68.02,5.21.29,6.59l5.22-1.97c-.01,1.15-.2,3.23-.83,3.33l-3.34.55,2.2,4.34c2.06-.26,8.83-.75,9.38-5.15ZM255.23,103.38l-.44-5.85c-4.6,1.68-6.45,7.71-4.19,11.36.69,1.12,4.18.9,4.57-.22s.2-3.4.06-5.29Z"/>
        <path class="st2" d="M256.77,118.24l-1.21-3.57,1.21,3.57Z"/>
        <path class="st2" d="M274.02,153.17l-3.62,6.35-3.27-9.01-.93,2.25c-.23.55-1.58.97-2.39,1.36,1.39,1.16,3.21,2.97,3.77,4.48.8,2.15-1.16,4.46-3.49,6.32l-3.03-3.58.93,13.18c.06.79-.49,2.74-.85,3.34s-1.93.86-2.55.54c-4.08-2.1,1.49-11.64-1.22-21.57l-2,7.9-2.81-1.13-1.66-6.32,3.75-4.5-1.49-.3-6.16,4.66-1.04-4.29,5.68-7.4,3.36,3.86c.58.66,3.12-.13,3.01-1.23-2.93-3-8.02-5.83-9.13-9.15-1.55-6.6-1.56-13.68-.31-19.44,1.47-.44,5.85.63,6.18,2.28.85,4.25-.76,9.56-2.78,13.04l2.74,4.42,8.53-.58-8.71-1.94c-.43-4.83,3.28-9.91,3.92-9.94l2.63-.11.61-.33.29-3.28.79-2.76,3.59-.33,2.14,6.09.07-11.39c3.05.71,2.91,17.37,1.37,23.48-1.01,4.04-5.25,6.49-7.53,9.57,2.33.9,3.72.02,5.35-2.21l6.28,7.64ZM262.18,126.92l-.49.47,1.38,1.57.39-.61-1.28-1.42ZM259.19,131.58l1.4,3.82c.17.46,1.85-.18,2.52-.51l-3.87-6.69c-2.05,3.33-3.36,5.38-1.53,8.3l1.49-4.92ZM264.19,135.24l-.77,2.23c-.19.55,1.62.9,2.21,1.07l2.53.71c.48.14-.44-1.92-.42-2.44l.36-8.73-2.06,3.11-1.9-2.15-.62.42,1.64,4.66.71.66-1.26.59-.42-.14ZM250.74,137.43c.11.81,1,3.13,1.14,2.61l.55-2.07c.09-.35-1.74-.89-1.69-.54Z"/>
        <path class="st2" d="M262.75,120.32c-.93.54-1.38,1.78-.79,2.76-2.36-.77-4.5-2.81-5.19-4.83l3.11,2.24,3.22-5.42c.07,2.13.02,3.94-.35,5.25Z"/>
        <path class="st4" d="M321.23,125.5c1.43,1.95-6.57.44-6.65,1.47l-.31,3.93-.19,2.41c-.04.57-1.46,1.99-1.82,1.54l-2.16-2.66c-1.95.66-5.13,1.08-7.16.02-2.26-1.18-3.25-3.2-3.7-6.62l6.27,2.42-.58-7.25c-.68-8.53,6.35,5.38,9.5,2.75l2.98-2.47c.67-.56,1.86,1.79,2.39,2.51l1.43,1.95Z"/>
        <path class="st8" d="M261.96,123.08c-.59-.98-.14-2.22.79-2.76l-.79,2.76Z"/>
        <path class="st8" d="M267.44,114.46l1.11.23-.07,11.39-2.14-6.09-3.59.33c.38-1.32.43-3.13.35-5.25l-3.22,5.42-3.11-2.24-1.21-3.57,11.87-.21Z"/>
        <path class="st8" d="M255.56,114.67l1.21,3.57c.68,2.02,2.83,4.06,5.19,4.83l-.29,3.28.51.57,1.28,1.42.68.7,1.9,2.15,2.06-3.11-.36,8.73c-.02.52.9,2.57.42,2.44l-2.53-.71c-.59-.17-2.4-.51-2.21-1.07l.77-2.23.97-1.11-1.64-4.66-.45-.51-1.38-1.57-.62-.71-2.63.11c-.64.03-4.35,5.11-3.92,9.94l8.71,1.94-8.53.58-2.74-4.42c2.03-3.48,3.63-8.79,2.78-13.04-.33-1.65-4.71-2.72-6.18-2.28l.83-3.84,6.18-1ZM265.87,134.79l-1.26.59,1.26-.59Z"/>
        <path class="st7" d="M116.42,224.9l-.06-12.95,7.04,2.06,2.41,3.54c1.26,1.86,7.81-3.23,12.75,2.63,12.07,3.94,18.62-1.52,26.32,3.12,3.02.83,8.24-3,11.53,1.49l-24.92-.62-9.62.33-6.54.15-18.91.25Z"/>
        <path class="st3" d="M252.56,163.61l-7.9,1.52c-.21,1.57-.71,3.88-1.45,3.72l-3.26-.71c-2.5-.54,4.52-5.25,7.05-10.98l6.16-4.66,1.49.3-3.75,4.5,1.66,6.32Z"/>
        <path class="st3" d="M215.98,157.24l-5.3,2.85-.15-5.47c.26-.42,2.62-.91,3.08-.34l2.37,2.95Z"/>
        <polygon class="st11" points="195.65 241.87 195.62 242.87 181.78 243.6 177.67 242.89 177.65 241.87 195.65 241.87"/>
        <path class="st7" d="M146.49,245.7l-.05-2.79c.78.07,2.19.6,2.78.9.44.23.38,1.92-.11,1.91l-2.61-.02Z"/>
        <path class="st3" d="M71.77,90.62l7.07,9.81c.62.82.96,3.81.77,4.39-9.62.67-18.86,5.18-25.08,11.7l-11.05,11.57c1.18,1.7,1.93,2.79,1.49,3.38l-1.98,2.65c-.61-.63-1.48-1.93-1.12-2.5l1.54-2.38c-1.78-.39-4.63-1.05-5.95-1.71-1.48-.75-2.09-4.02-2.28-6.74l-6.47,1.1,1.58-5.13c1.51-4.92,2.32-8.57,8.92-8.68l-3.77-7.03,5.36.63c1.14.14,2.59-2.56,3.47-3.31,2.19-.82,4.68-1.75,6.22-3.32,1.34-1.37.87-4.4-.04-6.61l7.33-2.08-3.87,4.94c7.66-2.35,11.8-4.31,19.28-4.78l-7.76,5.43,6.34-1.32Z"/>
        <path class="st7" d="M105.28,211.9l-.05,3.8-.28,1.42-.13,7.7-10.66-.68c-4.37-.33-8.19-1.75-11.74-.14l4.75,2.03-19.8-.12c0-.32,2.03-1.06,2.53-1.06l10.96-.17c-4.12-2.63-7.94-3.96-13.46-3.63l3.2-16.4c.19-.41,1.93-2.49,2.64-1.97l3.27,2.39c.93.68,2.99,3.22,2.4,4.19l-1.83,3,6.8,3.59,7.75-4.97c3.96-2.54,9.65.09,13.67,1.03Z"/>
        <path class="st0" d="M70.6,204.64l-3.2,16.4c5.52-.32,9.34,1,13.46,3.63l-10.96.17c-.5,0-2.53.74-2.53,1.06l-1.69,4.13.82-6.49,1.14-15.12,1.24-5.82,1.72,2.02Z"/>
        <polygon class="st7" points="65.68 230.04 65.74 230.88 59.4 230.06 60.41 224.79 67.64 208.44 66.5 223.55 65.68 230.04"/>
        <path class="st6" d="M68.46,199.68c.02-.19.02-.75.17-.88l3.88-3.23-2.19,6.57-1.86-2.46Z"/>
        <path class="st0" d="M65.74,230.88c0,.17.25,1.76.84,1.76l2.85-.04,2.93-.04.5,1.47c-4.61-.26-10.04,1.02-12.29,4.92-.45,0-.66-.88-.46-1.25l1.39-2.51-12.93-.74,9.87-1.97c.62-3.73,1.12-5.64,1.97-7.69l-1,5.27,6.34.82Z"/>
        <path class="st7" d="M320.01,226.6l.38.42c-.36,1.05-1.32,2.56-.29.94l2.5,4.05c-1.32.07-2.62.92-4.14,2.21-1.18,1.01-4.07-.07-5.84-1.88l2.18-2-4.11-2.09c3.5-1.39,6.1-1.85,9.33-1.64Z"/>
        <path class="st7" d="M322.59,232.01c.26-.09,1.79.37,1.77.93l-.09,3.08-1.69-4.01Z"/>
        <path class="st1" d="M325.94,232.72l-5.55-5.7-.38-.42.33-.93c2.74,1.08,4.83,2.67,6.88,4.89l-1.28,2.16Z"/>
        <path class="st6" d="M48.51,225.19l-2.24-.22c-.51-.05-.69-1.35-.61-1.68l5.82-2.64-2.98,4.54Z"/>
        <path class="st6" d="M58.87,220.7l-6.44.02,3.06-1.76c.81-.46,2.43.67,3.39,1.74Z"/>
        <polygon class="st10" points="177.65 241.87 177.67 242.89 171.62 242.66 172.14 241.87 177.65 241.87"/>
        <path class="st4" d="M104.82,224.81l-.13,7.36-32.33.38-2.93.04-2.85.04c-.59,0-.84-1.59-.84-1.76l-.07-.84,1.69-4.13,19.8.12-4.75-2.03c3.55-1.6,7.37-.18,11.74.14l10.66.68Z"/>
        <polygon class="st4" points="104.7 236.06 104.73 239.44 96.39 240.41 88.24 237.02 104.7 236.06"/>
        <path class="st8" d="M259.19,131.58l-1.49,4.92c-1.83-2.93-.52-4.98,1.53-8.3l3.87,6.69c-.67.33-2.35.97-2.52.51l-1.4-3.82Z"/>
        <path class="st8" d="M250.74,137.43c-.05-.35,1.78.19,1.69.54l-.55,2.07c-.14.52-1.02-1.8-1.14-2.61Z"/>
        <path class="st8" d="M269.1,106.32c-.54,4.39-7.31,4.89-9.38,5.15l-2.2-4.34,3.34-.55c.63-.1.82-2.18.83-3.33l-5.22,1.97c-.28-1.38-.42-3.92-.29-6.59l2.18-3.01c.53-.73,3.46.33,3.58,1.25l.77,5.85,1.6-5.51c1.72,1.46,5.22,5.61,4.78,9.12Z"/>
        <path class="st8" d="M255.23,103.38c.14,1.89.33,4.16-.06,5.29s-3.88,1.33-4.57.22c-2.26-3.65-.41-9.68,4.19-11.36l.44,5.85Z"/>
      </g>
      <path class="st7" d="M127.68,246.3l2.39-.49c.4-.08.94,1.45.56,1.6l-1.59.6c-.56.21-1.95-1.58-1.36-1.7Z"/>
      <g>
        <path class="st6" d="M106.36,76.74c-1.13-2.23-1.48-4.6-.99-7.77l-5.83-4.37c-1.38-1.03-2.02-4.2-.97-6.08l7.58,1.77,7.47,13.74,2.92,7.95-10.19-5.23Z"/>
        <path class="st8" d="M158.45,65.4l1,1.08c.22.3.05,1.89-.22,2.14l-3.45,3.13c-4.12.21-7.88,1.68-12.91,4.01.61-1.12,3.05-5.1,4.9-5.88l10.68-4.49Z"/>
        <polygon class="st5" points="77.52 123.8 78.85 122.73 79.95 121.85 80.98 122.07 78.14 126.23 77.52 123.8"/>
        <path class="st5" d="M156.99,50.9l-1.72-.68s1.04.41,1.72.68Z"/>
        <path class="st5" d="M155.26,50.22l.84,1.61c.05.07.89-.42.88-.93,4.51-1.63,11.45-4.57,16.93-3.41l-13.56,8.17,8.32-.24-10.48,5.36,5.87,1.59-5.62,3.04-10.68,4.49c-1.85.78-4.29,4.76-4.9,5.88,5.03-2.34,8.79-3.8,12.91-4.01l-7.19,5.05,2.67.71c.39.1.71.24.49.46l-1.46,1.48-9.15,6.11,6.11-1.41-3.56,3.9c-.85,1.54-2.34,3.73-3.63,4.89l-1.64,1.46c-.35.31.33,2.49.74,2.25l2.43-1.39c4.63-2.64,10.16-7.66,15.17-9.88,12.03-5.32,24.95-6.99,37.31-.67l-3.84,1.57c8.08,3.65,15.81,8.04,20.78,16.97l-10.81-4.69-1.06,4.16-9.1-5.98,1.52,5.49-11.05-5.47-.97.67,3.28,4.75-9.56-3.58-1.39.83c-.13.34-1.1,2.55-1.67,2.13l-2.92-2.15c-.24,1.4-1.79,4.71-3.18,4.37l-5.7-1.38-1.05,1.08,1.73.41c.39.09.53,1.37.5,1.48l-7.75-.96,2.91,2.19-11.23,1.94c15.86.57,32.01,2.78,43.66,14.85l5.04,6.79,4.93,6.76.43.44-.5,1.33-1.49-.91,3.87,12.09c1.16,3.62.9,8.08.52,12.67l-7.12-16.09-1.33,8.46-5.46-16.64.03,10.92-6.22-14.66.06,9.08-7.33-13.88-.88.62.88,7.78-3.7-7.73-1.2,4.34-2.11-3.75c-.19-.33-.66-.66-1.08-.55l-1.95.49-3.39-4.96-.67.64c.59,1.96-.02,2.71-1.21,1.24l-3.78-5.4-.72.91.68,3.8-5.29-5.04-.64,1.33-4.32-.57-.31.72c4.6,2.68,10.84,8.64,14.14,13.54,7.16,10.62,11.43,22.34,11.2,35.9l-2.69-5.75c.27,9.97,1.06,18.35-4.29,27.01l-.56-19.01-3.72,8.91.56-14.81-3.79,8.1.56-16.13-3.19,7.82-.51-12.07-2.62,7-.2-10.09-2.68,4.91-.68-14.44-1.64,7.71-1.44-7.81-1.56,2.61-.47-10.49-2,6.13-.99-7.75-2.3.46c-.89.18-2.79-4.57-2.96-3.82l-.67,3.01c3.69,12.97,5.25,22.81-1.46,35.66-.38-5.44-.43-10.13-1.91-14.43l-3.98-11.51c-4.39,22.31-6.81,44.96-6.71,67.66l.06,12.95.39,12.2.99,18.97c.04.72-.74,2.74-1.11,2.78l-.24-2.76-.24-2.03-.6-1.17-.71-11.02c-1.01.42-2.26,1.01-2.14,1.54l.68,2.92.91,9.68.1,1.07-2.37-4.23-4.86,1.31c-1.58.43.08,4.78-2.11,7.79l-.23-5.13-.17-17.39-.03-3.38v-3.89s.12-7.36.12-7.36l.13-7.7.28-1.42.05-3.8c.37-25.88,6.03-51.34,12.55-76.9l-4.39,1.53-1.12-6.33-7.33,9.54-.65-3.33-4.91,10.1-1.12-6.17-3.96,11.91-1.02-8.01-4.18,14.67-2.06-8.81-3.73,14.65-2.22-9.5-2.79,16.16-2.2-11.08-3.86,19.03-2.21-10.17-5.64,19.27c-2.32-9.81-.43-18.11,2.42-28.07l-4.52,5.6c1.7-6.52,3.96-12.36,7.05-17.54,7.29-12.22,18.37-20.64,31.17-27.37l-10.97.45-6.15,3.36,1.44-4.32-3.88,1.47c-.75-.34-1.26-.48-1.03-.22l-1.1.88-1.33,1.07-5.82,4.3,1.02-4.61-7.76,8.08,1.33-6.8-8.24,11.33c-.68-2.84.39-5.45,1.2-9.95l-10.71,15.98,1.04-7.78-10.57,13.9c.18-4.74,2.37-10.15,3.97-14.13l1.98-2.65c.44-.59-.31-1.68-1.49-3.38l11.05-11.57c6.22-6.51,15.47-11.02,25.08-11.7l11.02-.77,3.9.37,13.24,2.35-10.4-5.23,3.86-1.69-11.76-1.53,4.49-1.95-4.64-.74,3.79-2.07-15.7,1.06,6.48-3.56-7.57.7c-2.38-1.21-3.26-1.39-4.55-1.12l-6.34,1.32,7.76-5.43c-7.48.47-11.63,2.43-19.28,4.78l3.87-4.94-7.33,2.08c-2.05.58-5.02,1.07-6.8.69,5.78-5.34,12.79-8.85,20.32-10.88l-4.64-1.1,12.47-3.12c16.66-2.39,31.32,8.86,42.46,20.58-.13-2.11-.52-4.04.08-4.72l2.95-3.35c-2.95-6.84-8.73-5.45-10.94-9.79l10.19,5.23-2.92-7.95-7.47-13.74-7.58-1.77c-4.87-1.14-9.2-3.26-13.26-5.97l6.91-.8-8.91-4.99c15.25-.21,27.4,9.96,33.59,23.01l2.05,1.44,1.01-1.01c-2.05-5.62-4.56-11.2-7.71-16.2-.12-1.84-.75-4.17-1.61-5.78l-6.17-11.59c5.74,3.15,9.44,6.75,12.91,11.4l.14-2.52-.74-.59.75-.91c.78.52,1.09.67,1.14.81l4.57,12.34.88-6.58,3.62,10.56c1.67,4.87,1.71,11,2.21,16.83l3.73-12c4.89-.22,4.4-6.52,6.58-6.67l1.91-.13,5.77-7.51,1.09,2.96,6.25-4.39ZM120.48,70.66l-1.49,1.08,1.89,5.04c.7-2.81.35-4.24-.39-6.12ZM178.07,95.17l-2.01-1.14c-.29-.16-.8,1.19-.51,1.38.3.2,1.44.94,1.39.9l1.14-1.15ZM114.91,95.64l.5-.54-.5.54ZM115.88,96.61l.54-.5-.54.5ZM178.4,95.37l-1.17,1.21,1.92.29.77-.59-1.51-.92ZM187.88,96.63l.54-.5-.54.5ZM172.71,98.15l-3.6-1.51,3.04,2.59.56-1.08ZM188.89,97.65l.5-.54-.5.54ZM117.15,97.87l-.5.5.5.5.5-.5-.5-.5ZM155.76,102.81l1.91-.69-1.91.69ZM102.48,120.48c-2.34-.22-2.16-.2.43.04,1.06.1.67.06-.43-.04ZM147.29,121.1l-.63.89.63-.89ZM140.92,122.46l1.93-.23-1.93.23ZM151.76,122.56l1.14-.66-1.14.66ZM67.15,123.87l-.5.5.5.5.5-.5-.5-.5ZM157.76,126.09l.61-1.3-.61,1.3ZM170.88,129.7l.73-.95-.73.95ZM112.83,200.01l.17,2.89c.02.39,1.63-.17,1.64-.56l.06-1.96c.01-.39-1.88-.75-1.86-.38ZM112.61,235.69c0,1.47.84,3.52,1.85,4.22-.81-12.31,1.09-23.62-1.31-35.58-1.2,4.9-.32,9.41-.42,14.06l-.16,7.4.04,9.89Z"/>
        <path class="st8" d="M165.61,131.02l-.18,2.32-8.35,3.82c-3.3-4.9-9.54-10.86-14.14-13.54l-2.01-1.17,1.93-.23.38.68,4.32.57-.89-1.49.63-.89.9,1.05,5.29,5.04-.68-3.8-1.05-.82,1.14-.66.63.57,3.78,5.4c1.19,1.48,1.8.72,1.21-1.24l-.77-.55.61-1.3.83,1.21,3.39,4.96,1.95-.49c.41-.1.89.22,1.08.55Z"/>
        <path class="st3" d="M69.37,148.48c-2.73-.05-4.51-1.22-5.06-4.38-.71-4.1-5.03-2.95-6.23-8.01l8.24-11.33-1.33,6.8,7.76-8.08-1.02,4.61,5.82-4.3.63,2.43,2.84-4.16,3.88-1.47-1.44,4.32,6.15-3.36,10.97-.45c-12.8,6.73-23.88,15.15-31.17,27.37Z"/>
        <path class="st3" d="M77.52,123.8l1.33-1.07-1.33,1.07Z"/>
        <path class="st3" d="M78.85,122.73l1.1-.88-1.1.88Z"/>
        <path class="st3" d="M80.98,122.07l-1.03-.22c-.23-.26.28-.11,1.03.22Z"/>
        <path class="st2" d="M114.46,257.09c-1.09.29-1.98,4.23-1.29,5.58l4.47,8.76-.95-12.58c.37-.03,1.15-2.05,1.11-2.78l.96.57,4.99,33.41c.31,1.86,2.69,4.32,3.88,4.76-.07.58-1.16,2.27-1.7,1.8l-2.79-2-2.36-8.79-4.16,1.39,2.79,7.91c.21.61,1.89,1.91,2.35,2.36.57.57-1.68,2.08-2.22,2.51-2.91-.18-8.1-1.5-9.76-3.68l-.19-3.72c-.03-.5-.76-.5-1.76-.25l-2.71-30.39c2.19-3.01.52-7.36,2.11-7.79l4.86-1.31,2.37,4.23ZM120.46,283.31l-2.25-10.84-3.29,1.14c1.91,2.95,2.23,4.3.73,7.68l4.8,2.03Z"/>
        <path class="st8" d="M94.53,104.43c-.33-.68-.91-1.85-1.44-1.68l-2.46,1.31-11.02.77c.19-.58-.15-3.57-.77-4.39l-7.07-9.81c1.29-.27,2.17-.09,4.55,1.12l7.57-.7-6.48,3.56,15.7-1.06-3.79,2.07,4.64.74-4.49,1.95,11.76,1.53-3.86,1.69,10.4,5.23-13.24-2.35Z"/>
        <path class="st7" d="M112.61,235.69l-.04-9.89.16-7.4c.1-4.65-.78-9.15.42-14.06,2.4,11.96.5,23.27,1.31,35.58-1.01-.7-1.84-2.76-1.85-4.22Z"/>
        <path class="st3" d="M116.46,256.08l.24,2.76.95,12.58-4.47-8.76c-.69-1.35.21-5.29,1.29-5.58l-.1-1.07,2.1.07Z"/>
        <path class="st7" d="M115.61,252.89l.6,1.17.24,2.03-2.1-.07-.91-9.68-.68-2.92c-.12-.54,1.13-1.13,2.14-1.54l.71,11.02Z"/>
        <path class="st7" d="M112.83,200.01c-.02-.38,1.87-.01,1.86.38l-.06,1.96c-.01.39-1.62.95-1.64.56l-.17-2.89Z"/>
        <path class="st3" d="M94.53,104.43l-3.9-.37,2.46-1.31c.53-.16,1.11,1,1.44,1.68Z"/>
        <path class="st3" d="M102.91,120.53c1.06.1.67.06-.43-.04-2.34-.22-2.16-.2.43.04Z"/>
        <path class="st8" d="M156.75,85.4c-5.01,2.21-10.53,7.23-15.17,9.88l-2.43,1.39c-.41.23-1.09-1.94-.74-2.25l1.64-1.46c1.3-1.15,2.79-3.35,3.63-4.89l3.56-3.9-6.11,1.41,9.15-6.11c.42,2.36,3.68,4.44,6.46,5.93Z"/>
        <path class="st2" d="M116.21,254.05l-.6-1.17.6,1.17Z"/>
        <rect class="st3" x="66.8" y="124.02" width=".71" height=".71" transform="translate(-68.28 83.91) rotate(-45)"/>
        <polygon class="st3" points="114.91 95.64 115.41 95.1 116.42 96.12 115.88 96.61 114.91 95.64"/>
        <polygon class="st3" points="187.88 96.63 188.42 96.14 189.39 97.1 188.89 97.65 187.88 96.63"/>
        <path class="st4" d="M104.95,217.11l.28-1.42-.28,1.42Z"/>
        <rect class="st3" x="116.8" y="98.02" width=".71" height=".71" transform="translate(-35.25 111.65) rotate(-45)"/>
        <path class="st8" d="M120.46,283.31l-4.8-2.03c1.5-3.37,1.18-4.73-.73-7.68l3.29-1.14,2.25,10.84Z"/>
      </g>
      <path class="st2" d="M144.94,301.94l-6.57-3.17c.19-.45,2.07-2.04,2.69-1.73l2.72,1.36,4.39-.92c1.01-.21,1.14,2.92.57,3.94-.52.92-2.82,1-3.81.52Z"/>
      <path class="st2" d="M229.15,303.92l-12.65,3.13c1.31-3.31,3.77-4.27,6.63-3.78l6.02.64Z"/>
    </g>
  </g>
</svg>