<?xml version="1.0" encoding="UTF-8"?>
<svg id="Layer_1" xmlns="http://www.w3.org/2000/svg" version="1.1" viewBox="0 0 359.51 354.67">
  <!-- Generator: Adobe Illustrator 30.6.0, SVG Export Plug-In . SVG Version: 2.1.4 Build 109)  -->
  <defs>
    <style>
      .st0 {
        fill: #162621;
      }

      .st1 {
        fill: #d4b078;
      }

      .st2 {
        fill: #dab882;
      }

      .st3 {
        fill: #73716e;
      }

      .st4 {
        fill: #bb9861;
      }

      .st5 {
        fill: #f8f6f2;
      }
    </style>
  </defs>
  <path class="st2" d="M322.28,293.66l-4.25-4.2-41.62-48.27-1.65-1.66-15.87,17.48-38.42,43.09c-1.29-.95-3.29-2.9-4.07-4.3l.45-39.12-3.16-45.79c.64,1,1.18,2.34,1.74,3.72l1.39,3.42,4.42,9.97c1.23,2.78,2.93,4.57,3.25,8.18,1.52-3.71,2.81-7.93,2.15-11.69l-1.05-6.02c1.74.69,2.22.88,2.14.85.32,2.86,1.08,2.97,2.18,4.36l7.8,9.85c1.18,1.49,1.46,1.98,2.28,5.08,1.35-3.74,2.45-10.68,1.15-13.77l-3.37-8.02c-2.82-4.74-6.68-8-10.96-10.91l4.74-.3c.54-.03,1.73,1.56,2.23,1.36l1.86-.73,3.33,1.92-.22-2.37-.29-.47.45-.74.47.67,3.06,3.58c.26.3,1.28-1.22,1.39-1.6l3.37,3.1.61-1.96-.38-.57.49-1.3.44,1.2,2.18,3.72,1.67-1.71c.29-.29.87,1.34,1.14,1.65l.86.99c.23.27.57-.52.66-.91l-.42-.32.44-.84.45.74,2.98,2.85c-.73-7.9-7.05-14.02-13.43-16.67,1.26-1.95,3.49-6.01,2.29-7.63l-1.65-2.36,5.33-.99c.2-.04,1.31.15,1.51.2.3.07.79-.65.52-.88l-4.98-4.34c-2.29-2-6.96-2.11-10.05-1.92-6.23.38-12.07,3.41-15.99,7.67l.57-4.07c.84-.53,2.76-1.75.83-2.82l3.85-2.5-1.4-1.27,4.37-3.4-3.39-.47,4.55-1.76c0-.27-.41-1.38-.13-1.51l1.75-.81c.21-.1.54-.73.35-.85-.32-.19-1.28-.78-1.24-.76l3.42-2.24-4.7.32c-2.48-.48-4.4.51-6.29,2.15-1.1.26-2.76.97-3.54,2.07l-6.01,8.35-1.84-9.36c-.19-.96-1.35-2.66-1.24-3.54.05-.44.11-1.25.12-1.22,0,0-.68.16-1.34.31l-.85-3.83,33.21.09,24.26-.06,29.36.15,35.44.22h10.39s9.73-.58,9.73-.58l-12.72-2.64-9.69-2.35,1.45-1.97c.36-.49-1.11-1.82-1.6-2.27-3.87-3.48-9.47-1.49-12.79,2.26-.86-1.18-1.71-2.65-2.42-2.59l-3.87.32c.71-1.93,1.55-3.88,1.67-5.16s-2.23-4.08-3.43-3.74l-7.01,2.02c1.46-3.63,2.35-6.8.03-10.18-1.85-2.7-5.44-5.32-9.27-3.97-1.51.53-3.89,2.43-5.18,3.29l-1.97-3.16-6.14-.14,2.85-7.94-4.24-4.79c-3.34.08-7.03.15-10.32.95-9.71,2.36-18.39,13.07-13.89,22.83-2.23-.3-4.18-.58-5.38-.24-1.73.49-1.98,3.47-1.4,5.31-2.16-.92-3.66-1.23-5.86-.81-2.17-5.08-8.23-6.49-13.86-4.07l-.54-5.24c-.94-.32-3.61.14-4.52.75s-1.89,2.68-1.8,4.06c.07,1.03,2.13,2.52,3.21,3.15-2.02,2.99-2.91,6.36.17,9.24l-9.01,2.43c-1.65-2.7-6.43-1.95-7.75-.24-.19.25.5,1.79.19,1.87l-1.57.41-21.38,2.66,24.53.12-.94,3.87c-1.84,5.35-1.59,10.96-.96,16.99-1.21-2.01-2.15-3.61-3.6-5.07l-4.49-4.53c-.92-.93-2.05-1.28-3.38-1.4l-4.04-2.37-7.32.58,4.95,3.18-2.8,1.08,6.25,2.23-3.34.71c1.43,1.57,3.04,2.24,5.85,3.11l-2.63.93,3.3,2.19c.17,3.49,5.47,4.11,4.12,5.01l-1.45.97c-5.32-3.34-10.85-4.41-16.74-3.88l-3.38,1.07c-3.47,1.1-6.84,2.98-8.76,5.74l-4.09,5.88,5.04-2.34-1.03,2.72,3.41-2.62.35,1.51c.08.36,1.33.36,1.65.07l3.97-3.76-1.38,4.18,8.04-3.43-1.84,3.48,5.76-1.44-.85,1.63c2.33-.4,4.55.02,6.48,1.57-4.96,1.46-9.85,1.55-13.58,4.65l-5.19,4.31-3.92,5.06c-1.53,1.97-3.11,7.98-3.11,11.8l3.14-4.27.08,1.83c.02.33.29.43.92.65l2.5-4.42.24,1.73c.03.24.87.43.97.22l.64-1.45.57-1.28c.09-.21.16-.21.31-.07l1.19,1.14,1.23-3.42,1.34,1.78,2.62-4.48.46,1.71c.06.22.44.76.58.58l1.09-1.3.92-1.55c.16-.27.95,1.28.91,1.16l7.19-3.72-6.44,7.86c-5.24,6.4-6.24,16.59-3.36,24.74l1.59-6.37,1.69,1.69.88-4.4c3.2-.49,3.9-3.9,3.59-6.95l.89.76.6.49c.06.05.48-1.35.67-1.69l3.93-6.87-1.04,5.62-.57,4.5c-.52,4.15.98,8.82,2.25,12.84l1.19-5.95c.72,1.54,1.5,1.67,1.14.11l3.29-8.61,4.01-11.95c2.45,24.69,1.71,48.73-.17,72.83l-1.53-.51-14.34-16.52-1.27-.63-.94-2-16.42-19.28-.45-.97-1.43-.03-39.72-47.56-1.08-2.13-29.8-35.12c-.38-.03-.44-.27-.58-.43l-1.39-.85-.11-1.04c-.21-.27-1.22.54-1.51.78l-23.78,28.58-54.61,67.04-3.9,3.71C-9.93,200.42-5.27,128.96,33.72,75.14c20.33-28.06,48.65-49.82,80.83-62.59C145.35.33,178.8-2.97,211.47,2.66c54.97,9.48,105.69,45.94,129.62,96.64,5.33,11.29,9.63,22.42,12.69,34.6,8.65,34.5,7.39,70.54-2.91,104.55-6.42,20.21-15.71,38.89-28.57,55.2ZM45.24,112.84c-5.45,1.17-10.6,1.14-15.87,2.66l68.63.27,28.51-.07,44.28-.03,44.64-.08,6.38.23v-1.02s-4.5-.19-4.5-.19l-18.08-1.93c-.78-2.28-2.18-3.73-4.27-4.14-1.81-.36-3.95.8-5.34,1.69-2.15-1.23-4.15-1.79-7.16-2.12,2.48-2.46,3.14-5.79,1.6-8.72-2.03-3.86-5.89-5.78-9.81-6.02s-7.74,2.02-10.14,5.04l-5.62.69c.49-1.22.43-4.26-.97-5.19-.98-.65-2.85-.68-4.96-.54.95-3.01,1.77-6.51.7-9.81-3.51-10.85-14.83-17.83-25.94-14.87-2.53.68-6.32,4.34-5.39,6.68l2.17,5.5c.13.33-.16,1.69-.51,1.69-2.22,0-4.35-1.92-5.08-.91l-2.31,3.18c-2.17-3.47-5.96-5.09-10.04-3.46-2.85,1.14-5.59,3.71-6.55,5.96-1.52,3.56-.6,6.55.54,10.06l-7.34-2.01-3.21,3.68c-1-2.36-2.94-4.97-5.68-5.08-2.4-.1-5.31,1.6-7.12,3.16-2.95,2.55-3.07,6.28-1.12,9.39-2.96-.34-4.52.15-5.38,1.94l-5,.94c-1.61-1.61-3.75-3.17-5.88-3.27-2.32-.11-5.25,1.16-6.16,2.94.46.56,1.6,1.86,1.17,1.91l-1.84.24-7.38,1.59ZM278.7,71.42c-4.38-2.53-8.26.81-11.65,2.84-3.41-2.2-7.45-5.88-11.78-2.92,5.24-.21,8.54,3.15,11.72,6.8,3.29-3.72,6.77-6.58,11.71-6.72ZM252.81,82.93c-4.18-2.61-8.2.46-11.23,2.63-3.46-2.14-7.44-5.56-11.75-2.62,4.94.13,8.61,2.06,11.39,6.69,3.21-3.9,6.43-6.39,11.59-6.7Z"/>
  <path class="st2" d="M100.98,160.87l1.97,1.28-.81,1.03-1.1,10.66,10.07,2.39c-4.07,1.73-10.85-1.39-9.82-.16.16.19.72,1.13.95,1.19l8.18,2.1-4.19,1.2,2.14.41c.4.08.58.88.61,1.4l-9.17.33-5.18.87,6.36-22.69ZM95.82,182.25l-.42.32.42.32.32-.32-.32-.32Z"/>
  <polygon class="st2" points="276.07 242.24 275.18 242.23 276.41 241.18 276.07 242.24"/>
  <path class="st2" d="M133.84,199.4l.77,1.77-6.89-.72c1.02-1.48,3.92-.15,4.08-1.23l.06-.88,1.98,1.06Z"/>
  <path class="st5" d="M45.24,112.84l7.38-1.59,1.84-.24c.43-.06-.71-1.35-1.17-1.91.91-1.78,3.83-3.05,6.16-2.94,2.14.1,4.28,1.66,5.88,3.27l5-.94c.86-1.79,2.42-2.29,5.38-1.94-1.95-3.11-1.84-6.83,1.12-9.39,1.81-1.57,4.72-3.26,7.12-3.16,2.74.11,4.68,2.72,5.68,5.08l3.21-3.68,7.34,2.01c-1.14-3.51-2.06-6.49-.54-10.06.96-2.25,3.7-4.82,6.55-5.96,4.08-1.63,7.87,0,10.04,3.46l2.31-3.18c.74-1.01,2.87.91,5.08.91.35,0,.64-1.36.51-1.69l-2.17-5.5c-.93-2.35,2.86-6.01,5.39-6.68,11.12-2.96,22.44,4.02,25.94,14.87,1.07,3.3.25,6.8-.7,9.81,2.1-.14,3.98-.11,4.96.54,1.39.93,1.46,3.96.97,5.19l5.62-.69c2.4-3.02,6.11-5.29,10.14-5.04s7.78,2.16,9.81,6.02c1.54,2.93.88,6.26-1.6,8.72,3,.33,5.01.88,7.16,2.12,1.38-.89,3.52-2.05,5.34-1.69,2.08.41,3.49,1.86,4.27,4.14l18.08,1.93,4.51.19v1.02s-6.39-.23-6.39-.23l-44.64.08-44.28.03-28.51.07-68.63-.27c5.27-1.52,10.42-1.49,15.87-2.66Z"/>
  <path class="st0" d="M252.81,82.93c-5.16.31-8.39,2.8-11.59,6.7-2.78-4.63-6.45-6.56-11.39-6.69,4.32-2.94,8.3.49,11.75,2.62,3.03-2.17,7.05-5.24,11.23-2.63Z"/>
  <path class="st0" d="M278.7,71.42c-4.94.14-8.42,3.01-11.71,6.72-3.18-3.65-6.48-7-11.72-6.8,4.33-2.96,8.37.71,11.78,2.92,3.38-2.03,7.27-5.37,11.65-2.84Z"/>
  <g>
    <path class="st5" d="M209.65,159.74l-.48-.93c-.08-.16-.32.06-.38.23l-.24.68-24.53-.12,21.38-2.66,1.57-.41c.31-.08-.38-1.62-.19-1.87,1.32-1.71,6.1-2.46,7.75.24l9.01-2.43c-3.08-2.88-2.19-6.25-.17-9.24-1.08-.63-3.14-2.11-3.21-3.15-.09-1.38.89-3.46,1.8-4.06s3.58-1.07,4.52-.75l.54,5.24c5.63-2.42,11.69-1.01,13.86,4.07,2.21-.42,3.71-.11,5.86.81-.58-1.84-.33-4.82,1.4-5.31,1.2-.34,3.14-.07,5.38.24-4.5-9.76,4.18-20.47,13.89-22.83,3.3-.8,6.99-.87,10.32-.95l4.24,4.79-2.85,7.94,6.14.14,1.97,3.16c1.29-.87,3.67-2.76,5.18-3.29,3.82-1.35,7.42,1.27,9.27,3.97,2.32,3.38,1.43,6.55-.03,10.18l7.01-2.02c1.2-.34,3.55,2.48,3.43,3.74s-.96,3.24-1.67,5.16l3.87-.32c.71-.06,1.57,1.42,2.42,2.59,3.32-3.76,8.92-5.74,12.79-2.26.5.45,1.96,1.78,1.6,2.27l-1.45,1.97,9.69,2.35,12.72,2.64-9.73.58h-10.39s-35.44-.22-35.44-.22l-29.36-.15-24.26.06-33.21-.09ZM225.97,140.14l-.32.32.32.32.32-.32-.32-.32Z"/>
    <rect class="st2" x="225.74" y="140.24" width=".45" height=".45" transform="translate(-33.14 200.92) rotate(-45)"/>
  </g>
  <g>
    <polygon class="st0" points="133.84 199.4 131.86 198.35 131.37 197.49 130.78 196.61 129.62 195.2 113.59 176.21 102.14 163.18 102.95 162.15 132.75 197.27 133.84 199.4"/>
    <path class="st0" d="M102.95,162.15l-1.97-1.28,1.39.85c.13.16.2.4.58.43Z"/>
    <polygon class="st0" points="322.28 293.66 321.38 295.09 294.83 264.23 290.38 259.18 276.07 242.24 276.41 241.18 318.03 289.45 322.28 293.66"/>
    <path class="st0" d="M209.65,159.74l.85,3.83c.65-.16,1.34-.31,1.34-.31,0-.03-.07.78-.12,1.22-.11.88,1.05,2.57,1.24,3.54l1.84,9.36,6.01-8.35c.79-1.1,2.44-1.81,3.54-2.07,1.89-1.64,3.8-2.63,6.29-2.15l4.7-.32-3.42,2.24s.92.56,1.24.76c.19.12-.14.75-.35.85l-1.75.81c-.27.13.13,1.24.13,1.51l-4.55,1.76,3.39.47-4.37,3.4,1.4,1.27-3.85,2.5c1.94,1.07.01,2.29-.83,2.82-1.94,1.23-2.53,2.75-3,4.53l-3.36,5.83,5.8-6.3c3.93-4.26,9.77-7.29,15.99-7.67,3.09-.19,7.77-.07,10.05,1.92l4.98,4.34c.27.23-.22.95-.52.88-.2-.05-1.3-.24-1.51-.2l-5.33.99-.84.2-.58.55c-1.2.16-3-.25-4.61-.73l-.45.4,2.26,1.7-6.4-.91,3.28,2.04-8.9.9,2.5,1.09-6.74,3.2c7.55-.74,13.64-1.04,19.84,1.54,6.38,2.65,12.7,8.77,13.43,16.67l-2.98-2.85-.47.42c-.09.38-.42,1.18-.66.91l-.86-.99c-.27-.31-.85-1.94-1.14-1.65l-1.67,1.71-2.18-3.72-.55.67-.61,1.96-3.37-3.1c-.12.38-1.13,1.9-1.39,1.6l-3.06-3.58-.63.54.22,2.37-3.33-1.92-1.86.73c-.5.2-1.69-1.4-2.23-1.36l-4.74.3c4.28,2.91,8.14,6.17,10.96,10.91l3.37,8.02c1.3,3.1.2,10.04-1.15,13.77-.82-3.1-1.1-3.59-2.28-5.08l-7.8-9.85c-1.1-1.39-1.86-1.5-2.18-4.36.08.03-.4-.16-2.14-.85l1.05,6.02c.66,3.76-.64,7.98-2.15,11.69-.32-3.61-2.02-5.4-3.25-8.18l-4.42-9.97-1.39-3.42c-.56-1.38-1.1-2.72-1.74-3.72l3.16,45.79-.45,39.12c.78,1.4,2.78,3.35,4.07,4.3l38.42-43.09,15.87-17.48,1.65,1.66-1.23,1.05c-.23.21.21.94.45,1.22l-1.16.92-4.08,18.76-8.87,37.15-2.28,8.15,26.29,2.81,19.7,2.32,25.39,4.35-12.77,3.33-12.96,2.79-5.86-.84-25.68-4.32-24.99-4.28c-5.42-.93-10.89-.25-16.12.36l2.64,2.96-6.89,1.67,8.58,1.66c2.88.56,5.46,1.25,6.86,3.8,5.79,1.25,10.64,3.5,15.73,6.18l9.96,3.45c.54.19,1.76.95,1.84,1.18l-1.31.15-18.49-1.8-6.39.45-.15-1.21-21.35-2.72c-11.59-2.03-23.09-2.69-35.02-3.29l-34.05.89c-.1-.02-.85-.13-.94.09l-.42,1.58c-1.2-.21-3.73-.81-4.93-.69l-20.23,1.88-.03-1.36,12.65-1.91-18.47-2.87-32.45-4.03-54.54-2.19c-1.06-.04-2.44-.41-3.91-.98l24.53-5.02c-15.28-14.01-27.88-30.33-36.86-49.06l-1.52-3.8,3.9-3.71,54.61-67.04,23.78-28.58c.29-.24,1.3-1.05,1.51-.78l.11,1.04-6.36,22.69-4.34,16.02-.5,1.53-11.87,41.64-.09.65-2.89,9.68-.56,1.93-2.55,9.13-.43,1.63-4.04,13.53-.59,1.74-.86,4.65-.66,1.72-.53,1.39-1.36,4.34-.58,1.6-5.28,17.75,22.7-1.01,37.36,2.56c26.01,1.78,50.69,3.48,76.45-2.73l-3.01-2.18,5.15.81,2.78.37c.33.04,1.13-.39,1.04-.71l-.5-1.8c-.3.11.36-.13,1.42-.51.03,2.36,5.21,3.34,5.56,1.4l2.07-11.56.21-1.84.94-6.46.28-1.95c1.87-24.1,2.62-48.13.17-72.83l-4.01,11.95-3.29,8.61c.37,1.55-.42,1.43-1.14-.11l-1.19,5.95c-1.27-4.01-2.77-8.68-2.25-12.84l.57-4.5,1.04-5.62-3.93,6.87c-.19.34-.61,1.73-.67,1.69l-.6-.49-.89-.76c.31,3.05-.39,6.47-3.59,6.95l-.88,4.4-1.69-1.69-1.59,6.37c-2.88-8.15-1.88-18.34,3.36-24.74l6.44-7.86-7.19,3.72c.04.12-.75-1.44-.91-1.16l-.92,1.55-1.09,1.3c-.15.17-.52-.37-.58-.58l-.46-1.71-2.62,4.48-1.34-1.78-1.23,3.42-1.19-1.14c-.15-.14-.22-.14-.31.07l-.57,1.28-.64,1.45c-.1.22-.93.02-.97-.22l-.24-1.73-2.5,4.42c-.63-.22-.91-.32-.92-.65l-.08-1.83-3.14,4.27c0-3.82,1.58-9.83,3.11-11.8l3.92-5.06,5.19-4.31c3.73-3.09,8.62-3.19,13.58-4.65-1.94-1.55-4.15-1.97-6.48-1.57l.85-1.63-5.76,1.44,1.84-3.48-8.04,3.43,1.38-4.18-3.97,3.76c-.31.29-1.56.29-1.65-.07l-.35-1.51-3.41,2.62,1.03-2.72-5.04,2.34,4.09-5.88c1.92-2.76,5.29-4.63,8.76-5.74l3.38-1.07c5.89-.53,11.42.54,16.74,3.88l1.45-.97c1.35-.9-3.95-1.52-4.12-5.01l-3.3-2.19,2.63-.93c-2.81-.87-4.41-1.53-5.85-3.11l3.34-.71-6.25-2.23,2.8-1.08-4.95-3.18,7.32-.58,4.04,2.37c1.34.12,2.46.47,3.38,1.4l4.49,4.53c1.45,1.46,2.39,3.06,3.6,5.07-.62-6.03-.88-11.64.96-16.99l.94-3.87.24-.68c.06-.17.3-.39.38-.23l.48.93ZM245.58,185.93l.34-.32-.34.32ZM246.45,186.08l.04.75-.04-.75ZM238.48,187.24l.6-.4-.6.4ZM243.63,187.14l.61-.36-.61.36ZM189.6,193.73l-.32.32.32.32.32-.32-.32-.32ZM238.45,205.29l.45-.74-.45.74ZM247.42,207.76l.49-1.3-.49,1.3ZM251.48,208.41l-.32.32.32.32.32-.32-.32-.32ZM254.43,211.1l.44-.84-.44.84ZM200.45,216.7l-.32.32.32.32.32-.32-.32-.32ZM225.77,307.82l-9.45-10.6-.97,11.45,10.41-.85Z"/>
    <path class="st0" d="M173.56,246.96l-16.91-19.98c-.59-.69-1.84-1.55-2.62-1.5l.3-1.18c0-.24-.53-.7-.61-.75l-15.65-18.61-.99-1.08-2.45-2.68-.77-1.77,39.72,47.56Z"/>
    <path class="st2" d="M97.06,328.29l6.91.4c5.02.43,9.43.73,14.53.52,1.53-.07,3.68.49,5.33.96l-10.73,1.98c-3.27.6-6.39,1.73-9.4,3.11l12.4-2.29,11.58-1.81,20.23-1.88c1.2-.11,3.72.48,4.93.69l12.2,2.17,1.42,3.75,1.51,3.79c.2.51,1.43.24,2.04.3l8.24.75,10.08,1.07-3.29-2.14,8.87,1.54,13.89,1.79c2.2.28,4.23.6,6.47.49-6.19-2.51-12.52-1.65-19.4-4.57l26.59-3.3,23.32-.97,6.39-.45,18.49,1.8-10.56,3.29,10.75,1.98-25.01,3.57-14.46.78,6.43,1.93c-19.91,4.71-39.4,7.5-59.6,7.07-18.99-.41-37.07-3.29-55.2-7.39l5.85-1.64-20.29-1.94c-1.06-1.95-3.63-2.36-6.04-2.25l-2.88.69-8.02-1.67,5.94-1.98c.35-.12,1.31-1.03,1.05-1.18l2.45.61.48-.99c.69-1.42-3.37-1.66-4.12-4.05-.48-1.54-.48-4.32.65-4.55Z"/>
    <path class="st1" d="M294.83,264.23l26.55,30.86-8.01,9.54-4.13-.55c-7.67-.48-14.99.86-22.48-.98,4.18-1.26,7.81-.77,11.28-.85l.56-.71-7.22-.44-19.25.1c-1.05-1.03-2.94-1.83-4.19-1.77l-5.09.25-.57,1.34c-.07.17-.41-.59-.78-.75l8.87-37.15c5.91.78,9.1-2.12,14.49-2.2l6.13,1.57-6.68.31.16.98,10.34.43Z"/>
    <path class="st1" d="M304.88,324.03l-17.22,3.45,14.82,3.59c-10.89,3.06-21.22,3.65-31.53,4.78-.09-.23-1.31-.99-1.84-1.18l-9.96-3.45c-5.09-2.68-9.94-4.93-15.73-6.18-1.41-2.56-3.98-3.25-6.86-3.8l-8.58-1.66,6.89-1.67-2.64-2.96c5.23-.61,10.7-1.29,16.12-.36l24.99,4.28,25.68,4.32,5.86.84ZM290.21,323.53c-5.87-1.38-11.78-1.84-17.11.46,6.13,1.43,11.62.4,17.11-.46Z"/>
    <path class="st1" d="M121.83,325.02c-1.17.69-2.94.61-4.63.73l-17.95,1.3c-.48.04-1.35.21-1.57.48l-.62.76c-1.13.23-1.13,3-.65,4.55.74,2.39,4.81,2.63,4.12,4.05l-.48.99-2.45-.61c-12.47-1.28-24.7-2.26-37.44-5.93l16.29-3.37-6.01-1.33c-12.29-1.77-24.06-4.28-35.6-7.82l54.54,2.19,32.45,4.03Z"/>
    <path class="st4" d="M313.37,304.63l-8.15,8.93-19.7-2.32-26.29-2.81,2.28-8.15c.37.16.7.92.78.75l.57-1.34,5.09-.25c1.25-.06,3.14.74,4.19,1.77l19.25-.1,7.22.44-.56.71c-3.47.08-7.11-.41-11.28.85,7.49,1.84,14.81.5,22.48.98l4.13.55Z"/>
    <path class="st1" d="M107.55,343.65l-8.92-1.56,2.88-.69c2.42-.11,4.99.3,6.04,2.25Z"/>
    <path class="st1" d="M138.05,204.93l15.65,18.61c-.91.69-2.81,1.37-3.82,1.39l-11,.2h-4.48s-10.19-.15-10.19-.15v1.24s21.4-.23,21.4-.23l8.41-.51c.78-.05,2.03.81,2.62,1.5l16.91,19.98,1.43.03.45.97-.82-.03-23.01.12c1.6.42,4.14,1.1,5.75,1.11l17.74-.26,7.25,8.56-.72.63-11.35.27-4.78.13-9.44.79,27.77-.07,5.38,6.17,1.07,2.58-14.86-.02-7.3-.04-10.88-.02c-3.65,0-7.28-.42-10.79,1.01l42,.36c1.4.01,3.4-.49,4.35-.02l1.27.63c-.15.61.54,1.86.94,2.32l14.65,16.64-.94,6.46-22.6.35-18.83.51-30.93.39-8.37.25c-18.97.56-37.47.34-56.2-1.36l-9.02-.69.58-1.6,55.71.12c1.07,0,3.11-.77,3.96-1.22l-39.94-.09.63-.51,6.83-.64-.47-1.01-25.36-.98.53-1.39,15.19-.3,15.79-.47-9.44-.67-20.88-.28.86-4.65,15.47-.4,8.17-.22v-1.02s-5.1.05-5.1.05l-17.95-.13,4.04-13.53,25.36-.19h12.17s36.72.39,36.72.39c-3.24-1.81-6.83-.76-10.36-1.23l-18.67-.25h-7.69s-12.17.01-12.17.01l-9.58.08-6.91-.45h-8.43s2.55-9.13,2.55-9.13l8.43-1.28c-3.22-.72-5.23-.69-7.87-.65l2.89-9.68,24.98-.24,29.74-.37-.35-.51-7.34-.24-5.16.03-33.59.34-5.34.15-2.86.19,11.87-41.64,19.82-.22,15.83,1.46c-.69,2.07-2.61,1.1-3.87,1.21l-9.62.82,17.08.93,9.03-.38ZM144.1,212.95l-28.98-.06c2.63,2.03,5.48,1.27,8.64.8,6.35-.94,13.29,2.14,20.33-.74ZM133.91,253.79l-40.27-.21c-3.15-.02-6.01-1.55-9.41.29,2.06.59,4.15,1.05,6.17,1.05l54.29-.06-10.79-1.07ZM97.48,276.4c-3.75-.29-7.1-.17-10.96.1-5.68.39-11.59-2.13-17.33.76l33.37.05-.36-.54-4.72-.36ZM147.22,277.25l-10.08.11c5.63.94,10.78.58,16.79.5-1.73-2.6-4.55-.64-6.71-.61ZM92.95,278.02v1.83h48.49v-1.83h-48.49ZM203.95,283.39l-6.34-.59-11.54.06-12.68.37.94.98,23.27-.12,6.36-.7ZM147.39,288.27l17.76-.24c-1.4-1.22-2.94-.78-4.6-.78l-16.13-.04-14.47.39v1.11s10.26.12,10.26.12l7.17-.57ZM126.08,287.8l2.58.14-2.58-.14ZM187.85,292.69c-4.99-1.46-9.01-.39-13.46-.18-5.06.25-9.77.22-14.93-.47l10.25-1.82-19.37.11,2.66,1.86-4.76,1.14c10.42,1.03,20.74.52,31.43.04,2.84-.13,5.33-.11,8.17-.68ZM130.35,292.11l17.11-.3.94-.95h-14.59s-10.75.76-10.75.76c2.19,2.22,4.85.53,7.3.49Z"/>
    <path class="st4" d="M192.79,269.23c-.95-.47-2.95.04-4.35.02l-42-.36c3.51-1.43,7.14-1.02,10.79-1.01l10.88.02,7.3.04,14.86.02c.38,0,1.58-.58,1.58-.73l.94,2Z"/>
    <path class="st3" d="M209.93,286.88l-.28,1.95-14.65-16.64c-.4-.46-1.09-1.72-.94-2.32l14.34,16.52,1.53.51Z"/>
    <path class="st0" d="M191.86,267.24c0,.15-1.21.73-1.58.73l-1.07-2.58-5.38-6.17-1.48-1.76-7.25-8.56-.48-.98.82.03,16.42,19.28Z"/>
    <path class="st4" d="M174.98,246.99l-1.43-.03,1.43.03Z"/>
    <path class="st4" d="M208.71,295.28l-.21,1.84-13.52.04-39.84.23-24.34.6-48.04.52-6.42.89c6.3.41,12.9.05,19.27,1.5l7.63,1.74-18.56.98c-4.41.23-8.33.77-12.82.65l-5.71-.14v1.1s11.28.5,11.28.5l44.2,1.21,1.65-.61c.22-.08.09-.86-.14-.86l-1.48-.03c-.44,0-2.31.04-2.22-.4l.53-2.55,16.33.7c7.39.32,14.29.68,21.73-.4,1.65-.24,3.73.56,4.95,1.39l2.42-1.47c.44-.27,1.54.56,2.2.88,2.04,1.01,4.5,1.07,6.97,1.18l2.05.1c.29.01-.24,1.69-.54,1.68-2.47-.09-7.18-.42-10.04.71l9.82.63,13.35-.12c2.62-.02,4.82-.5,7.35.32l1.81.59c.38.12.59,1.08.51,1.61l-2.78-.37-5.15-.81,3.01,2.18c-25.76,6.21-50.44,4.51-76.45,2.73l-37.36-2.56-22.7,1.01,5.28-17.75,9.02.69c18.73,1.69,37.23,1.91,56.2,1.36l8.37-.25,30.93-.39,18.83-.51,22.6-.35ZM71.9,298.36v1.28h3.19v-1.28h-3.19ZM134.42,306.65h-8.61v.64h8.61v-.64Z"/>
    <path class="st1" d="M208.51,297.12l-2.07,11.56c-.35,1.94-5.53.96-5.56-1.4-1.06.38-1.73.62-1.42.51l.5,1.8c.09.32-.72.76-1.04.71.07-.53-.13-1.49-.51-1.61l-1.81-.59c-2.53-.82-4.74-.34-7.35-.32l-13.35.12-9.82-.63c2.86-1.13,7.57-.8,10.04-.71.29.01.83-1.66.54-1.68l-2.05-.1c-2.47-.12-4.93-.18-6.97-1.18-.66-.32-1.76-1.15-2.2-.88l-2.42,1.47c-1.21-.83-3.3-1.63-4.95-1.39-7.45,1.08-14.34.71-21.73.4l-16.33-.7-.53,2.55c-.09.43,1.79.39,2.22.4l1.48.03c.24,0,.37.78.14.86l-1.65.61-44.2-1.21-11.29-.5v-1.1s5.72.14,5.72.14c4.49.11,8.42-.42,12.82-.65l18.56-.98-7.63-1.74c-6.37-1.45-12.97-1.09-19.27-1.5l6.42-.89,48.04-.52,24.34-.6,39.84-.23,13.52-.04ZM190.09,304.97l-12.18-.35-.19,1.94c4.04-.03,8.77,1.35,12.37-1.59Z"/>
    <path class="st1" d="M108.97,182.37c1.28-.05,3.26.85,4.75,1.66l-6.29.5,4.69,1.09,2.04.49c.1.03.12.09.26.3l4.17.7-4.69.19-.27-.62-2.89,1.78c4.55,3.67,9.26.74,13.31,3.06-2.65,3.09-5.71,1.48-8.5,1.8l-4.1.47.03,1.15,18.15.24,1.15,1.42.6.87.49.86-.06.88c-.16,1.07-3.05-.25-4.08,1.23l6.89.72,2.45,2.68c-2.99.52-6.2.4-9.2-.27-.72-1.85-1.82-2.13-3.61-2.39l-7.04-1.03-12.05-.59-7.51-.36c-2.64-.13-5.08-.16-7.38.38l4.34-16.02,5.18-.87,9.17-.33Z"/>
    <path class="st1" d="M223.26,330.72c-2.99,1.19-6.14.39-9.44.37l-22.85,4.6c-6.04,1.22-11.92,2.26-17.99,3.28l-2.97,1.03c-.61-.06-1.83.21-2.04-.3l-1.51-3.79-1.42-3.75,4.76.82.43-.67-13.34-2.86-2.68-1.12,34.05-.89c11.92.59,23.43,1.26,35.02,3.29Z"/>
    <path class="st4" d="M223.26,330.72l21.35,2.72.15,1.21-23.32.97-26.59,3.3c6.87,2.92,13.21,2.06,19.4,4.57-2.24.11-4.27-.2-6.47-.49l-13.89-1.79-8.87-1.54,3.29,2.14-10.08-1.07-8.24-.75,2.97-1.03c6.07-1.03,11.95-2.07,17.99-3.28l22.85-4.6c3.3.02,6.45.82,9.44-.37ZM182.3,339.46c-.39.08.5,1.22.86,1.09l1.03-.39c.24-.09-.13-1.06-.37-1.01l-1.52.31Z"/>
    <path class="st4" d="M127.67,331.17l-11.58,1.81-12.4,2.29c3.01-1.38,6.14-2.5,9.4-3.11l10.73-1.98c-1.65-.48-3.8-1.03-5.33-.96-5.1.22-9.51-.08-14.53-.52l-6.91-.4.62-.76c.22-.27,1.09-.45,1.57-.48l17.95-1.3c1.69-.12,3.46-.03,4.63-.73l18.47,2.87-12.65,1.91.03,1.36Z"/>
    <path class="st2" d="M290.38,259.18l4.45,5.04-10.34-.43-.16-.98,6.68-.31-6.13-1.57c-5.39.08-8.58,2.98-14.49,2.2l4.08-18.76,1.16-.92.55,7.72,4.69,1.46-4.68,1.56c3.32.91,4.42.96,7.12,2.31l-5.48.13,3.76,2.59h3.26s5.53-.05,5.53-.05ZM272.22,258.8v1.28h5.1v-1.28h-5.1Z"/>
    <path class="st4" d="M63.35,293.14l1.36-4.34,25.36.98.47,1.01-6.83.64-.63.51,39.94.09c-.86.45-2.89,1.22-3.96,1.22l-55.71-.12Z"/>
    <path class="st4" d="M71.39,265.77l.43-1.63h8.43s6.91.45,6.91.45l9.58-.08,12.17-.03h7.69s18.67.26,18.67.26c3.52.47,7.11-.58,10.36,1.23l-36.72-.38h-12.17s-25.36.18-25.36.18Z"/>
    <path class="st4" d="M137.06,203.85l.99,1.08-9.03.38-17.08-.93,9.62-.82c1.25-.11,3.18.86,3.87-1.21l-15.83-1.46-19.82.22.5-1.53c2.3-.53,4.74-.5,7.38-.38l7.51.36,12.05.59,7.04,1.03c1.8.26,2.89.54,3.61,2.39,3,.67,6.22.79,9.2.27Z"/>
    <path class="st5" d="M290.38,259.18l-5.53.05h-3.26s-3.76-2.6-3.76-2.6l5.48-.13c-2.7-1.35-3.8-1.4-7.12-2.31l4.68-1.56-4.69-1.46-.55-7.72c-.24-.29-.68-1.02-.45-1.22l.89.02,14.31,16.94Z"/>
    <polygon class="st4" points="77.82 243.4 77.91 242.75 80.77 242.56 86.11 242.41 119.7 242.08 124.86 242.04 132.19 242.28 132.55 242.8 102.8 243.17 77.82 243.4"/>
    <polygon class="st4" points="65.24 287.41 65.9 285.69 86.78 285.97 96.22 286.63 80.43 287.11 65.24 287.41"/>
    <polygon class="st4" points="66.76 281.04 67.35 279.3 85.3 279.43 90.39 279.38 90.4 280.41 82.23 280.63 66.76 281.04"/>
    <path class="st3" d="M154.19,328.32l2.68,1.12,13.34,2.86-.43.67-4.76-.82-12.2-2.17.42-1.58c.09-.23.84-.12.94-.09Z"/>
    <path class="st4" d="M74.37,255.01l.56-1.93c2.64-.04,4.65-.07,7.87.65l-8.43,1.28Z"/>
    <g>
      <path class="st1" d="M245.5,187.19l1.65,2.36c1.21,1.62-1.03,5.68-2.29,7.63-6.2-2.58-12.29-2.28-19.84-1.54l6.74-3.2-2.5-1.09,8.9-.9-3.28-2.04,6.4.91-2.26-1.7-.54-.38.6-.4.39.37c1.61.48,3.41.88,4.61.73l-.45-.81.61-.36.42.62.84-.2Z"/>
      <path class="st4" d="M221.83,186.93l-5.8,6.3,3.36-5.83c.47-1.79,1.06-3.3,3-4.53l-.57,4.07Z"/>
      <polygon class="st4" points="225.77 307.82 215.36 308.66 216.33 297.22 225.77 307.82"/>
      <polygon class="st1" points="245.58 185.93 245.91 185.61 246.45 186.08 246.49 186.83 245.58 185.93"/>
      <rect class="st2" x="189.38" y="193.83" width=".45" height=".45" transform="translate(-81.68 190.91) rotate(-45)"/>
      <rect class="st2" x="251.26" y="208.5" width=".45" height=".45" transform="translate(-73.93 238.96) rotate(-45)"/>
      <rect class="st2" x="200.22" y="216.79" width=".45" height=".45" transform="translate(-94.75 205.3) rotate(-45)"/>
    </g>
    <path class="st4" d="M290.21,323.53c-5.49.86-10.98,1.9-17.11.46,5.33-2.3,11.24-1.84,17.11-.46Z"/>
    <path class="st4" d="M187.85,292.69c-2.84.58-5.33.56-8.17.68-10.69.48-21.01.99-31.43-.04l4.76-1.14-2.66-1.86,19.37-.11-10.25,1.82c5.16.69,9.87.72,14.93.47,4.45-.22,8.47-1.28,13.46.18Z"/>
    <path class="st4" d="M133.91,253.79l10.79,1.07-54.29.06c-2.02,0-4.12-.45-6.17-1.05,3.4-1.84,6.26-.3,9.41-.29l40.27.21Z"/>
    <rect class="st4" x="92.95" y="278.02" width="48.49" height="1.83"/>
    <path class="st4" d="M147.39,288.27l-7.17.57-10.28-.12v-1.11s14.48-.39,14.48-.39l16.13.04c1.66,0,3.2-.44,4.6.78l-17.76.24Z"/>
    <polygon class="st4" points="203.95 283.39 197.59 284.1 174.33 284.22 173.39 283.24 186.07 282.87 197.61 282.8 203.95 283.39"/>
    <path class="st4" d="M154.02,225.48l-8.41.51-21.41.23v-1.24s10.2.15,10.2.15h4.48s11-.2,11-.2c1.01-.02,2.92-.7,3.82-1.39.08.06.62.52.61.75l-.3,1.18Z"/>
    <path class="st4" d="M97.48,276.4l4.72.36.36.54-33.37-.05c5.75-2.88,11.65-.37,17.33-.76,3.86-.26,7.21-.39,10.96-.1Z"/>
    <path class="st4" d="M130.35,292.11c-2.45.04-5.1,1.73-7.3-.49l10.75-.74h14.59s-.94.94-.94.94l-17.11.3Z"/>
    <path class="st4" d="M144.1,212.95c-7.04,2.88-13.98-.2-20.33.74-3.17.47-6.01,1.23-8.64-.8l28.98.06Z"/>
    <polygon class="st4" points="183.83 259.21 156.05 259.28 165.5 258.49 170.28 258.35 181.62 258.09 182.35 257.46 183.83 259.21"/>
    <path class="st4" d="M174.61,247.92l.48.98-17.74.26c-1.61,0-4.15-.69-5.75-1.11l23.01-.12Z"/>
    <path class="st4" d="M147.22,277.25c2.17-.02,4.99-1.99,6.71.61-6.01.08-11.16.43-16.79-.5l10.08-.11Z"/>
    <path class="st4" d="M128.66,287.95l-2.58-.14,2.58.14Z"/>
    <path class="st5" d="M129.62,195.2l-18.15-.24-.03-1.15,4.1-.47c2.8-.32,5.85,1.29,8.5-1.8-4.04-2.32-8.75.6-13.31-3.06l2.89-1.78.53-.57-2.04-.49-4.69-1.09,6.29-.5c-1.49-.81-3.47-1.71-4.75-1.66-.03-.52-.2-1.32-.61-1.4l-2.14-.41,4.19-1.2-8.18-2.1c-.24-.06-.8-1.01-.95-1.19-1.03-1.23,5.75,1.89,9.82.16l-10.07-2.39,1.1-10.66,11.45,13.03,16.03,18.98ZM109.45,180.55c-.35.06.51,1.21.85,1.12.23-.06,1.14-.33,1.09-.33-.07,0-.13-1.09-1.94-.79ZM114.42,186.42l-.52.89,4.69-.19-4.17-.7Z"/>
    <path class="st2" d="M131.37,197.49l-.6-.87.6.87Z"/>
    <rect class="st1" x="125.81" y="306.65" width="8.61" height=".64"/>
    <rect class="st1" x="71.9" y="298.36" width="3.19" height="1.28"/>
    <path class="st4" d="M190.09,304.97c-3.6,2.94-8.32,1.56-12.37,1.59l.19-1.94,12.18.35Z"/>
    <path class="st2" d="M182.3,339.46l1.52-.31c.24-.05.61.92.37,1.01l-1.03.39c-.36.14-1.25-1.01-.86-1.09Z"/>
    <rect class="st1" x="272.22" y="258.8" width="5.1" height="1.28"/>
    <polygon class="st1" points="95.82 182.25 96.14 182.57 95.82 182.89 95.4 182.57 95.82 182.25"/>
    <path class="st2" d="M109.45,180.55c1.81-.3,1.87.8,1.94.79.05,0-.86.27-1.09.33-.35.09-1.21-1.06-.85-1.12Z"/>
  </g>
</svg>