<?xml version="1.0" encoding="UTF-8"?>
<svg id="Layer_1" xmlns="http://www.w3.org/2000/svg" version="1.1" viewBox="0 0 200.76 241.16">
  <!-- Generator: Adobe Illustrator 30.6.0, SVG Export Plug-In . SVG Version: 2.1.4 Build 109)  -->
  <defs>
    <style>
      .st0 {
        fill: #181815;
      }

      .st1 {
        fill: #3e3d3a;
      }

      .st2 {
        fill: #d99d30;
      }
    </style>
  </defs>
  <path class="st0" d="M136.57,192.53l-1.71-.15.02-2.38,3.61-1.99s-2.33-1.03-2.62-.91c1.14-10.3,9.68-8.35,15.97-18.41,1.89-3.01,4.28-6.44,5.03-9.98l6.59-30.96-4.67-1.77c-.66-.25-.24-2.48.14-2.64,1.58-.2,3.92-.48,3.93-1.37l.05-4.06,2.78,4.21,2.84-4.2-.37,6.01,4.31-.78-2.44,3.44c-.77,1.08,2.92,4.51,2.37,9.29l-5.46-2.25-1.79,40.36c3.55,5.86,4.21,12.24,1.23,18.64l-1.82,16.25c-.51,4.6-.42,9.37.81,13.28,2.02.35,4.66.55,4.7-.42l.19-4.28,2.66,3.01.66-7,3.27,6.85,3.71-11.12-6.58,2.09,4.51-5.31-5.78-.97c1.67-2.24,4.46-2.37,7.9-1.54l-2.26-6.38c2.65,1.13,4.16,3.05,5.93,5.61,1.8-2.29,5.67-3.7,8.23-2.21l-6.05,4.14c4.16.97,5.52,1.41,7.28,4.77l-6.61-1.55,2.83,7.05c-4.3-1.53-4.5-1.78-7.62-4.87l-2.73,11.04,7.35-4.65-2.67,5.99,4.04-.17c.84-.04,1.15,2.23,1.34,3.34l11.12,3.56-46.79,1.14,23.21,4.02-43.06.21-16.24.8,20.58,3.91-19.42,1.52.62-3.24-38.17.63,9.11,2.99-36.91-.82,19.69-4.02-46.57-1.07,18.4-4.07-28.61-1.02-13.17-.89,9.75-3.19c.84-.27,2.98-1.46,3.19-2.31s-.03-2.12-.3-4.21l8.33,1.73-7.38-9.84c4.21,1.43,6.41,2.96,10.68,5.92l-2.42-11.76c3.52,3.06,5.85,7.29,7.18,10.89l3.7-7.13.74,8.41,4.23-3.46-.93,6.88,5.74-2.51c1.96-9.81-.66-14.96-8.14-23.36,0,0,1.97-.07,2.85-.1,1.84-.06,2.07,6.61,6.5,7.53-.32-5.14-1.06-7.59-2.41-11.6l2.29-1.99c-4.08-.98-5.74-.65-8.44-.34l-13.7,1.58-14.24-.56,7.23-4.26c1.94-1.14,6.57-1.55,9.22-1.8l-2.01-2.75,9.83-2.77c7.77-4.88,15.55-4.85,23.45-.2,3.48.37,8.27,1.28,11.32,3.15l.03,2.77,9.72,3.18,10.77,1.87-7.55.65c-4.73,1.73-9.32,1.56-14.61,1.84l-9.67.52c-.76-.67-3.84-2.91-4.6-2.01l-2.65,3.14c-2.05,2.43-3.06,5.66-1.79,8.01,2.44-3.04,4.36-5.57,6.81-6.56-.83,5.23-7.36,6.87-7.1,11.41l.8,13.82,5.34-7.06c3.66,7.52,11,9.18,17.78,6.91-.29-1.19-.59-2.3-.16-2.24l1.39.19,1.14-1.19,2.38-1.98-1.32-3.7,8.27,4.64c.73.41,1.72,2.65,2.49,2.49l3.59-.73c-2.09-24.9,3.72-48.41,15.36-70.11,4.13-7.71,7.67-15.2,9.48-23.68,2.65-12.42-1.52-25.57-12.43-32.39-13.47-8.44-30.94-5.02-41.48,6.59-3.08,3.39-6.93,5.64-11.55,6.29-7.13,1-12.6,3.74-18.59,7.65-7.38,4.81-16.55,8.06-25.32,9.44-4.77.75-6.75-4.7-6.07-8.25,1.85-9.64,15.27-.53,33.75-12.03,7.73-4.81,15.97-2.04,18.24-6.27,1.64-3.05-9.64-7.9-20.78-4.27-13.87,4.53-32.85,4.53-30.63-6.25.82-4.01,5.1-6.1,9.24-4.5,8.17,3.16,16.17,4.03,24.59,1.29,7.15-2.33,14.2-.52,20.2,3.67,3.25,2.27,9.64,1.47,9.77-3.5.19-7.34-12.38-13.63-24.75-11.46-9.33,1.63-17.08-.66-25.53-4.6-2.82-1.31-5.72-3.31-5.98-6.31s1.31-6.14,4.37-7.44c7.66-3.24,15.35,15.08,33.56,9.7-.15-4.09-2.01-8.87-5.39-11.37l-13.26-9.81c-2.47-1.83-3.81-5.38-2.84-8.42.62-1.94,3.34-4.26,6.11-4.59,5.27-.63,17.43,16.21,21.88,25.77,3.02,6.49,8.34,9.26,14.44,11.91l7.7,3.35c6.71-10.67-8.64-12.26-13.28-27.92-2.14-7.21-6.04-13.4-11.04-18.95-3.08-3.42-2.85-8.59.7-11.03s8.32-1.58,10.77,2.56c8.34,14.1,4.18,28.07,13.3,28.78,1.79.14,4.18-3.41,4.76-5.19,5.88-17.92-7.9-32.47,2.88-35.53,3.24-.92,7.88,0,8.66,4.26,1.92,10.59,1.62,22.75-3.47,32.42-3.4,6.46-7.77,12.28-4.79,19.99,1.43,3.7,1.76,8.13,1.15,12.2-.74,4.94,4.11,7.24,8.15,6.22,3.47-.88,6.05-4.96,4.11-9.17-3.23-6.99-3.98-15.71,1.68-22.04,7.92-8.86,11.86-19.67,11.41-31.77-.16-4.25,4.09-7.4,7.68-7.17s7.6,3.31,6.94,7.9c-1.23,8.59-4.55,17.36-9.51,24.66-5.13,7.56-10.48,17.61-4.97,21.22,1.07.7,4.11.02,5.2-.87l12.15-9.85c6.85-5.55,10.6-12.72,13.12-20.83,1.26-4.06,6.4-5.75,9.23-4.45,3.29,1.51,5.61,5.73,3.69,9.51-6.14,12.05-13.76,21.7-25.94,27.74-7.05,3.49-12.58,9.59-12.87,17.78-.11,3.15,2.44,6.18,5.38,6.75,2.41.47,5.5-1.65,6.43-4.62,4.57-14.55,23.03-9.43,36.37-30.53,2.13-3.38,6.88-3.99,9.42-2.02,2.37,1.84,4.29,6.61,1.8,9.45-5.32,6.06-12.26,12.61-19.94,15.35-10.01,3.58-17.69,8.48-22.98,17.61-2.52,4.35-2.32,7.2.52,11.66,7.57,11.86,7.33,26.65,3.21,40.1-4.45,14.53-7.7,28.69-6.33,43.83,1.01,11.07,2.98,21.67,9.03,31.97,1.45-2.94-.22-7.3.17-10.32l1.41-11.13c.14-1.11-1.44-3.41-2.48-3.64ZM152.13,191.07c-.16,10.05-7.78,15.02-3.33,29.23l6,.83-.39-17.61-1.46-12.14c-.5-4.14.12-8.15.86-12.48-2.82,2.91-3.52,7.87-1.68,12.17ZM156.95,221.56l5.64.07-1.69-27.97c-4.36,3.93-2.35,8.98-2.73,13.37l-1.23,14.52ZM146.11,219.23l-1.59-12,.67-9.78c-4.08,7.02-5.48,14.43-5.06,22.01l2.38-2.4c-.21.21,4.01,5.25,3.6,2.17ZM76.07,217.25l-1.1.98,1.1-.98ZM23.62,222.05l-.5.5.5.5.5-.5-.5-.5Z"/>
  <circle class="st2" cx="86.74" cy="115.3" r="18.64"/>
  <path class="st0" d="M143.05,100.91c-2.13-.24-3.45-3.6-2.63-5.72,2.59-6.68,8.93-11.48,16.14-12.49,17.01-2.39,20.3-11.91,27.52-9.2,1.98.74,3.43,4.07,3.14,6.94-.5,5.14-14.65,9.92-22.17,9.96-8.67.05-16.16,3.16-22,10.52Z"/>
  <path class="st0" d="M21.21,147.6c-3.73,2.41-8.23-.12-9.45-2.69-2.02-4.27.07-8.37,4.39-9.76,8.94-2.88,16.38-7.33,22.84-14.34,5.78-6.26,12.32-9.24,12.63-7.47l.65,3.74-22.87,25.23-8.18,5.29Z"/>
  <path class="st0" d="M172.26,109.82c-18.77-3.2-24.37,9.57-26.01,6.61-.4-.73-.77-3.11-.44-4.01,3.99-8.33,12.9-12.68,22.18-11.39,10.24,1.09,22.13-7.12,23.4,1.5.55,3.75-1.64,6.55-5.75,6.87s-9.34,1.11-13.37.42Z"/>
  <path class="st0" d="M155.13,127.58c-1.91,2.63-6.05,3.83-9.19,4-.62-4.54,2.68-7,6.22-7.69.99-.19,3.78,2.57,2.97,3.69Z"/>
  <polygon class="st1" points="136.57 192.53 134.41 201.96 132.55 200.83 134.86 192.38 136.57 192.53"/>
  <path class="st1" d="M134.88,190l.99-2.9c.29-.12,2.58.88,2.62.91l-3.61,1.99Z"/>
</svg>