<?xml version="1.0" encoding="UTF-8"?>
<svg id="Layer_1" xmlns="http://www.w3.org/2000/svg" version="1.1" viewBox="0 0 342.38 356.57">
  <!-- Generator: Adobe Illustrator 30.6.0, SVG Export Plug-In . SVG Version: 2.1.4 Build 109)  -->
  <defs>
    <style>
      .st0 {
        fill: #191d11;
      }

      .st1 {
        fill: #d2ac6b;
      }

      .st2 {
        fill: #0d1c16;
      }

      .st3 {
        fill: #fcfaf7;
      }

      .st4 {
        fill: #da9e31;
      }

      .st5 {
        fill: #549ba2;
      }

      .st6 {
        fill: #1b1e12;
      }

      .st7 {
        fill: #cdb7bf;
      }

      .st8 {
        fill: #d0bac8;
      }

      .st9 {
        fill: #9cab7f;
      }

      .st10 {
        fill: #12140f;
      }

      .st11 {
        fill: #eccea0;
      }

      .st12 {
        fill: #d99d30;
      }
    </style>
  </defs>
  <path class="st7" d="M23,88.82c.08-.04.61,1.66.78,2.18.2.62-1.44.67-2.25.53l1.47-2.71Z"/>
  <g>
    <path class="st7" d="M198.78,86.48l1.5,1.28c.39.34,1.22-1.13,1.38-1.47l2.08-.75c3.81-1.37,8.1-1.64,12.3-.64l7.55,2.17,1.55,15.47,1.71,37.08c.74,16.06,1.91,31.66,5.5,46.78l-4.85,1.01c-1.32.17-3.01-2.35-3.78-3.94-1.85-3.84,1.1-7.67-1.02-8.36-1.09-.35-3.26.09-4.65.65l-4.69.24c-1.89,1.61-4.43,2.85-6.34,2.57l-7.33-1.08c-.21-.03-.93.08-1.09.17l-3.42-2.69c-2.37-1.57-5.56-2.06-8.06-1.43l-1.16.22-3.1-2.51,8.95-2.42-5.75-4.89.75-3.56-13.94-4.36.87-2.06c.22-.51-1.03-1.42-1.61-1.57l-7.74-2.1c-4.67-1.27-11.55,1.01-16.93-.55l2.98-3.23-7.39-3.2c-2.54-1.93-4.61-2.59-8.11-3.57-2.7-.75-5.74-2.99-8.91-.72-4.26,3.06-6.14-4.84-12.14-.56-4.57-1.15-9.18-.3-10.68,4.47-5.09-1.18-9.14.68-11.54,4.36l4.29,1.94-6.63.89-20.31,3.28c.28,1.23.83,2.76.35,2.8l-2.74.18c-.94.06-3.2.66-4.35,1.07-1.03.36-1.09,2.52-1.08,3.81-3.16,1.06-5.94,3.06-7.79,5.79l9.57,3.31-5.18,1.14-2.98.45c-.66.1-.42,1.43-.34,2.71-5.16-1.42-9.42-1.09-13.74,1.98l-1.31-7.34,2.78-5.39-7.69.27c-1.43.05-4.5,1.37-5.84,1.92-.17,1.71-.51,3.96-1.42,3.8l-4.01-.7,2.8-2.71-4.97-2.9,3.12-1.77c.62-.35,2.1,1.36,2.9,2.24-.06.05,1.47-1.48,1.75-1.76-1.34-2.81-7.15-3.98-10-3.02-3.09,1.04-1.48-6.83-2.44-6.69l-2.7.4c-1.69.25,1.02,4.01-1.32,8.72l2.09,9.35,1.36,3.77-7.76-2.88-1.48,5.65c-2.29-3.11-4.09-4.79-6.62-4.94.3-26.19,6.59-52.09,18.46-75.21l3.85,2.66-5.02,3.93c3.01,1.04,6.29.51,8.23-1.08-.32-1.47-.82-3.76.03-4.11l3.99-1.63c3.19-1.3,6.74-.81,9.04,1.29l2.99-3.21,1.98-2.13c.42-.45-1.26-1.3-1.85-1.48l9.96-1.05,15.21-.53,8.98.53,15.98-.17c5.08-.06,9.83-1.85,15.42-.05l-26.92,3,37.44.2,37.11.23,2.22.33c.35.05.42-.67.57-1.78l-13.87-2.67,23-.21,15.99.8,18.04-.1-8.16-1.42c-6.99-1.22-13.88.81-20.85-3.94l22-.91c1.46-.06,3.48,1.26,4.93,2.5Z"/>
    <path class="st7" d="M241.88,71.46l-4.11-10.5c3.64-3.16,6.86-7.7,7.05-13.49-5.06-1.26-9.01.9-13.36,4.84-2.01-3.99-.58-7.73,1.71-11.38.68-1.09-1.09-3.85-2.45-3.94s-3.65,1.27-4.62,2.07c-1.07-.49-3.57-1.55-4.76-1.72-3.11-.47-.68,7.94-3.85,11.57-2.76.95-4.63,2.24-5.87,4.41l-4.17,7.24c-2.9,5.03-8.2,9.9-12.43,13.2l-7.46.87-16.99,2.58c1.43,1,3.54.63,6.24.88l16.29,1.57-.19,1.87-53.65,1.09,19.63-3.15c-.58-.74-2.34-1.82-3.05-1.7l-15.34,2.72c-6.77,1.2-13.1,2.52-20.09,1.21,4.62-1.6,8.33-2.91,12.15-5.14l6-3.69-12.05.24,2.27,4.72c-2.29-.91-4.77-2.88-7.66-4.89-10.58-3.53-23.5-.7-22.53,9.13l-9.52,2.98c-.08.16-.38-.28-.22-.68l1.04-2.57c-3.37-.84-7.36.94-10.38,4.04-2.62-1.58-6.3-3.72-9.1-3.54-2.33.15-5.46,2.64-7.51,4.41l.19-7.81,7.57-.15-4.03-4.58-1.74-8.11c3.15-2.05,5.35-5.34,5.29-9.04l3.56-4.32,7.22-6.65-5.69-5.27-3.19,4.59c-.75-3.27-.82-5.17-.77-8.76l-2.94-.46C115.44-1.18,179.46-10.85,235.48,13.01c27.29,11.62,50.69,30,68.8,52.92-2.85.78-5.75,1.91-7.32,1.96l-6.44.18c-.62-3.51-3.86-6.13-6.67-7.31-4.62-1.94-8.25,1.17-11.86,1.32-3.86.15-7.47-.43-10.17,2.42-.61.64-2.49,2.02-1.98,2.48l2.94,2.67-10.74-.79-10.16,2.62ZM150.2,55.05c-.16-1.24-.09-2.04-.5-2.25l-2.43-1.21,5.68-3.85-9.48.7,4.21-3.07c.75-.53,3.42-.94,4.03-.24l2.8,3.24c12.3-3.52,15.79,6.22,23.57,3.44,2.52-.9,3.99-.49,6.87-.49l12.87-.04-11.92-2.15c-4.82-.87-8.71-1.89-14.34-.92-1.08-5-5.26-8.05-10.31-7.58-2.25-4.01-6.74-4.02-9.83-1.13l-6.36-1.1c.03-3.31-1.15-5.75-3.93-7.08-14.39-6.93-25.6,8.02-22.91,9.63l3.1,1.86-8.11,5.3.22-2.94c.08-1.06-7.34-.81-10.08,2.71-1.44,1.86-1.65,4.88-1.8,7.63l-7.6-1.97c-.95,4.62-4.59,2.66-6.91,3.21l-15.32,3.64,15.98-.64,27.99.34,15.26-.13-14.8-2.74,9.15-2.76c1.56-3.2,4.47-4.61,7.5-2.9l8.16,4.63c3.29-.63,5.82-.55,8.83.3l2.39.68c.47.13.63-1.69.15-1.77l-2.15-.34Z"/>
    <path class="st8" d="M316.92,261.43c-2.96-10.57,1.38-21.65-7.38-35.63-3.04-4.84-5.68-11.1-10.57-14.22l-10.46-6.67-12.77-12.6-3.49-13.33c1.5-.17,3.43-2.78,2.75-3.73l-2.46-3.43c-.32-.45-1.93-1.04-2.44-1.26s-.73,1.6-.93,2.22l-8.73-10.92-3.09-9.87-6.51-30.67-2.75-15.95-2.84-17.27c1.66-4.52,9.41-3.94,17.26-2.9.37.5.61-2.4.15-1.48l-17.36-1.37c3.41-.79,6.97-.86,10.41-.62l28.2,1.93c-1.11-1.54-2.38-1.98-3.95-2.04l-15.22-.58-15.06-1.91c2.95-.47,6.27-.6,9.04-.37l20.42,1.69-17.1-4.66,16.68-1.39c4.18,2.59,8.51,2.01,12.75.23,4.04,1.88,8.05,3.06,12.68,1.62l-7.55-1.3c5.54-1.32,10.4-.43,15.6,1.27,23.97,35.48,34.26,77.67,28.7,120.24-2.89,22.17-8.41,43.04-20.84,61.44l-3.14,3.51Z"/>
    <path class="st8" d="M210.26,328.38l-2.26,6.24-8.98,5.08c-1.26-.97-4.89-1.72-5.01-.73l2.76,5.58,6.63,1.09c1.1.18,4.41-.73,4.41.39l-.04,4.34-10.03-.75-8.72-1.13c-2.62-.34-6.22-.88-7.61.94-1.51,1.98-2.51,4.2-2.63,6.98l-14.91.17-1.04-7.58,13.1.09,8.98-6.6,6.87-.09.03-1.48-7.8-1.4c.17-.7,1.72-2.68,2.49-3.1l9.3-5.02c.79-.43,1.95-1.61,2.2-2.36.51-1.48-4.61-2.7-4.78-2.43.05-.08.07.86.25,3.05l-4.91-1.37-.5-2.23c-4.05,1.61-8.23-1.26-8.21-4.53l2.21.63c.49.14,1.63-1.7,1.14-1.82l-1.99-.48-2.31-1.83c-.64-.51-2.06,1.35-2.66,2.58-1.59,1.21-2.62.74-.89-2.14-1.02.22-3.4,1.23-5.4,2.24l-3.93.91-4.05,3-6.81-1.13c-.68-.1-2.11-2.03-2.66-1.7l-2.97,1.8,3.59-6.65-8.82,6.12-.66-.97,2.95-2.56,4.11-10.45c-4.99,3.61-5.9,9.84-11.99,14.15l1.37-6.15-.66-.75-2.49,6.72,1.51-9.84-4.53,7.57c-.69,1.15-3.34,2.67-4.64,2.6-6-.3-5.19-33.92-3.92-47.65l15.97-4.69,6.3-1.61,2.63,1c.61.23.93,1.45,1.33,2.11l2.11,4.46c0,.45-.37.82-.82.82s-.82-.37-.82-.82.37-.82.82-.82.82.37.82.82l4.38-6.49,7.1-2.48,6.85-7.08c.56-.57,1.99-2.05,2.29-1.51l.95,1.75c.21.38-.63,1.33-.98,1.78l-4.38,5.75c-5.04,6.62-12.98,8.52-20.79,11.71l7.98,2.38,18.8-15.1c1.67-1.34,2.49-3.18,4.8-4.35l-.76,7.15c-4.72,1.17-7.19,6.12-4.3,9.86,3.44-.71.4-6.38,4.97-7.59,3.52-.94,3.54,5.09,9.34,6.29l1.38-1.26-1.03-1.28c.72-.99,3.12-2.74,4.08-2.17l4.78,2.8c-.06.08.88-1.1,1.28-1.62.51-.64-.4-3.2-1.04-3.78l-6.86-6.15-.5-8.85,5.35,6.33,5.61,6.64,1.13-.88c1.28-3.71.27-6.66-3.62-9.66,3.01-2.17,7.07-1.43,8.81,1.9,4.26-1.26,6.96-.77,10.49,1.52l-1.22-5.22,16.71,8.86,1.09,14.15c-.44,6.32,0,11.47,1.02,17.64,1.66,10.01.17,20.22-1.89,29.81l-3.97-5.15-1.88,2.08-6.36-7.22-.57,5.46.61.43.52.63.52.62c.67,1.19.79,2.45-.89.85l-.43-.46-.68-.78-.28-.45-3.17-.82c-.64-.17-.89,1.23-.96,1.92l.86.46-.79,1.1-.91-1.18c-.76-.17-3.53-.24-4.61.15s-1.91,1.89-2.28,2.91ZM203.76,270.5l1-.79-1,.79ZM191.16,279.37l.49-1.03c-.11.22-.64,1.33-.49,1.03ZM140.24,313.62l-.06.64v.67s.08.66.08.66l.02-.65v-.67s-.05-.65-.05-.65Z"/>
    <path class="st7" d="M161.77,326.32l26.77,1.97,4.91,1.37c-.18-2.2-.2-3.13-.25-3.05.17-.27,5.29.94,4.78,2.43-.25.75-1.41,1.93-2.2,2.36l-9.3,5.02c-.77.41-2.32,2.4-2.49,3.1l7.8,1.4-.03,1.48-6.87.09-8.98,6.6-13.1-.09,1.04,7.58c-19.33-1.17-37.86-5.41-56.13-13.2-5.11-1.61-11.87.74-16.97.77l-37.07.17,20.43-5.18,9.48-2.51c1.17.09,3.45.77,4.54.26,3.16-1.47,7.22-1.13,10,.15l5.72-.3,16.05-1.03,29.55,1.76,3.98,2.49,9.36,1.11-10.16-4.14.74-1.48c.12-.25-1.31-.41-1.66-.49l-5.32-1.13-16.12-4.28c10.97-2.28,21.29-3.97,31.51-3.22Z"/>
    <path class="st8" d="M62.91,86.7l-1.73,1.5-1.44-1.48c-.27-.23-1.1.74-1.02.69-1.27-.2-3.41-.21-4.9.14l-11.59,2.73-1.96.47c-.34.08-.41.43-.06.53l1.5.45c.59.18,2.27,1.03,1.85,1.48l-1.98,2.13-2.99,3.21c-2.3-2.1-5.85-2.6-9.04-1.29l-3.99,1.63c-.85.35-.35,2.64-.03,4.11-1.94,1.59-5.22,2.12-8.23,1.08l5.02-3.93-3.85-2.66,3.06-5.95c.81.14,2.45.09,2.25-.53-.16-.52-.7-2.22-.78-2.18,11.23-20.65,27.14-38.2,45.36-52.65l2.94.46c-.05,3.58.01,5.49.77,8.76l3.19-4.59,5.69,5.27-7.22,6.65-3.56,4.32c.07,3.7-2.13,6.99-5.29,9.04l1.74,8.11,4.03,4.58-7.57.15-.19,7.81Z"/>
    <path class="st7" d="M236.98,335.76l4.99-.54.63,2.2c.2.69,1.86,1.41,2.6,1.5l11.67,1.42-18.86,1.27c-19.36,8.43-38.84,14.56-59.25,14.79.12-2.78,1.13-5,2.63-6.98,1.38-1.82,4.99-1.28,7.61-.94l8.72,1.13,10.03.75.04-4.34c0-1.12-3.3-.21-4.41-.39l-6.63-1.09-2.76-5.58c.12-.99,3.75-.24,5.01.73l8.98-5.08,2.26-6.24,11.84.45,12.96.63-2.73,7.81,4.65-1.51Z"/>
    <path class="st7" d="M329.05,335.18c-1.46,1.2-4.77.76-7.55.82l-44.04.92c8.41,4.47,16.07,4.5,24.45,7.45l-26.12-.11-24.27.14c5.3-1.87,9.32-2.16,15.83-2.97l-3.73-.98,1.53-4.38,1.71.22,1.57.17c.3-1.16-.65-5.17-1.86-6.48l.83-1.72c.42.6,2.68.89,3.62.73l5.07-.82,10.87,1.77-4.42,2.72,18.95-.94c1.26.82,3.57,2.35,4.79,2.31,3.55-.13,8.09-4.46,8.15-10.64,1.27,2.81,1.45,6.18,1.32,10.01l13.29,1.78Z"/>
    <path class="st7" d="M71.51,335.7l-11.58-.85c0-1.06,1.74-1.72,2.67-1.82l16.31-1.86c-2.74-.47-5.65-.52-7.93-.32l-15.97,1.38,2.35,2.53-11.49.94c-6.15.5-11.72.43-17.05-1.19l26-4.02,22.18-1.46c4.21-.28,8.76,1.17,11.77,2.89l-14.65,1.29c-.72.06-3.01,2.37-2.59,2.49Z"/>
    <path class="st3" d="M257.86,77.58l.86,1.19c-2.77-.23-6.09-.1-9.04.37l15.06,1.91,15.22.58c1.58.06,2.84.49,3.95,2.04l-28.2-1.93c-3.44-.24-7-.16-10.41.62l17.36,1.37c.46-.92.21,1.98-.15,1.48-7.84-1.04-15.6-1.62-17.26,2.9l-1.83-10.37,14.44-.17Z"/>
    <path class="st8" d="M248.72,329.65l-1.63,5.05,11.64-.54.64,2.2c.14.48,1.91-.06,2.06-.54l.47-1.51,3.24,1.74-1.53,4.38-6.74-.11-11.67-1.42c-.74-.09-2.4-.8-2.6-1.5l2.04-.5.22-7.3,3.86.03Z"/>
    <path class="st5" d="M59.93,334.85l-2.58-.1-2.35-2.53,15.97-1.38c2.28-.2,5.2-.15,7.93.32l-16.31,1.86c-.93.11-2.68.76-2.67,1.82Z"/>
    <path class="st7" d="M257.86,77.58l-14.44.17-.2-1.16,11.52-1.26c.69-.08,2.67.33,2.8.88l.33,1.37Z"/>
    <path class="st3" d="M192.9,81.53l.95,2.45-22,.91c6.97,4.75,13.86,2.72,20.85,3.94l8.16,1.42-18.04.1-15.99-.8-23,.21,13.87,2.67c-.15,1.11-.22,1.83-.57,1.78l-2.22-.33-37.11-.23-37.44-.2,26.92-3c-5.59-1.8-10.34,0-15.42.05l-15.98.17-8.98-.53-15.21.53-9.96,1.05-1.5-.45c-.34-.1-.28-.45.06-.53l1.96-.47,11.59-2.73c1.49-.35,3.63-.35,4.9-.14.14.79,1.92,1.27,2.45.8l1.73-1.5c2.04-1.78,5.18-4.26,7.51-4.41,2.8-.18,6.49,1.96,9.1,3.54,3.02-3.09,7.01-4.88,10.38-4.04l-1.04,2.57c-.16.41.14.84.22.68l9.52-2.98c-.97-9.84,11.95-12.66,22.53-9.13,2.89,2.01,5.37,3.99,7.66,4.89l-2.27-4.72,12.05-.24-6,3.69c-3.82,2.24-7.53,3.54-12.15,5.14,6.99,1.31,13.32-.01,20.09-1.21l15.34-2.72c.71-.13,2.47.95,3.05,1.7l-19.63,3.15,53.65-1.09ZM101.44,82.08l-.65.02.65.02h.68l.65-.02-.65-.02h-.68ZM139.71,89.05l4.05.23-4.05-.23ZM113.92,90.29l-1.64-.79-4.76.36.75.82,5.65-.39Z"/>
    <path class="st3" d="M150.2,55.05l2.15.34c.48.08.33,1.91-.15,1.77l-2.39-.68c-3.01-.86-5.54-.93-8.83-.3l-8.16-4.63c-3.03-1.72-5.94-.3-7.5,2.9l-9.15,2.76,14.8,2.74-15.26.13-27.99-.34-15.98.64,15.32-3.64c2.32-.55,5.96,1.41,6.91-3.21l7.6,1.97c.15-2.76.35-5.78,1.8-7.63,2.74-3.52,10.16-3.77,10.08-2.71l-.22,2.94,8.11-5.3-3.1-1.86c-2.69-1.61,8.52-16.57,22.91-9.63,2.78,1.34,3.96,3.77,3.93,7.08l6.36,1.1c3.08-2.9,7.57-2.89,9.83,1.13,5.06-.47,9.23,2.58,10.31,7.58,5.63-.97,9.52.05,14.34.92l11.92,2.15-12.87.04c-2.88,0-4.35-.4-6.87.49-7.78,2.78-11.27-6.96-23.57-3.44l-2.8-3.24c-.6-.7-3.27-.29-4.03.24l-4.21,3.07,9.48-.7-5.68,3.85,2.43,1.21c.41.2.34,1,.5,2.25ZM115.28,57.6l-.5.5.5.5.5-.5-.5-.5Z"/>
    <path class="st3" d="M195.02,73.76l-1.92,5.9-16.29-1.57c-2.7-.25-4.82.12-6.24-.88l16.99-2.58,7.46-.87Z"/>
    <path class="st7" d="M272.25,178.99c-.44-1.67-1.95-4.78-3.08-6.2.2-.62.42-2.44.93-2.22s2.12.81,2.44,1.26l2.46,3.43c.68.95-1.24,3.56-2.75,3.73Z"/>
    <path class="st8" d="M291.8,298.34c-6.41,8.4-14.55,15.78-23.96,20.26-.88-6.87-2.1-14.69-1.05-21.85.92-6.29.77-11.03-.04-17.29-.92-7.16.87-15.01,1.49-21.93l7.51,1c.98,10.02,5.03,18.35,11.1,26,3.27,4.13,4.6,8.88,4.95,13.8Z"/>
    <path class="st3" d="M276.09,328.17l-5.07.82c-.95.15-3.2-.13-3.62-.73,1.29-2.81.88-6.27.45-9.66,9.41-4.48,17.55-11.87,23.96-20.26.62,8.81-.79,17.82-3.48,26.84l-5.01-.91-4.09,1.04c.06.48.47,2.16-.22,2.26l-2.91.61Z"/>
    <path class="st3" d="M204.37,253.46c-1.66-.52-4.03-1.9-6.01-3.33l-3.68-2.66,1.36,10.17-3.04-3.98-.37,1.01c-.11.31-.85.91-.99.62l-1.08-2.25-2.03-4.23-4.27,8.9-4.96-.33,5.11-9.12c-5.84,2.97-9.16,6.55-16.02,6.8l15.36-11.41,12.91-.12,10.95,7.7-1.23,1.41-2,.81ZM204.01,252.22l1.34-.49-1.34.49Z"/>
    <path class="st7" d="M192.54,265.6l6.86,6.15c.64.57,1.55,3.14,1.04,3.78-.41.51-1.34,1.69-1.28,1.62l-4.78-2.8c-.97-.57-3.37,1.18-4.08,2.17-3.41-4.26-7.07-11.92-3.87-17.83l2.54,6.24.2-6.56c1.17,3.08,1.97,5.98,3.37,7.23Z"/>
    <path class="st3" d="M259.62,326.57l-.89,7.59-11.64.54,1.63-5.05,6.89-3.24c.91-.43,3.81-.28,4.01.16Z"/>
    <path class="st0" d="M158.06,270.5l-4.38,6.49-2.11-4.46c-.4-.67-.71-1.88-1.33-2.11l-2.63-1-.02-1-.05-1.89,5.48-2.4.75,2.57c.51,1.74,4.42-3.12,6.86-2.39l-5.02,4.8,2.44,1.39Z"/>
    <circle class="st9" cx="152.86" cy="276.99" r=".82"/>
    <polygon class="st6" points="76.86 254.2 77.02 255.63 74.76 253.62 76.86 254.2"/>
    <path class="st6" d="M74.76,253.62c-.23-.26-.69-.85-.97-1.06l.97,1.06Z"/>
    <path class="st6" d="M73.79,252.56l-.97-.18-5.55-3.29c-10.24-6.06-13.17,5.23-19.65,4.53l6.76-6.53c5.23-1.57,11.28-1.13,16.73.18l2.68,5.29Z"/>
    <path class="st7" d="M25.8,186.86c-.76,1.78-.67,4.53.48,6.32l-2.18,2.57-4.89-3.61-2.37.05c-.65.01-1.01-2.59-.37-2.47l2.94.56c1.28-2.4,3.8-4.06,6.39-3.42Z"/>
    <path class="st7" d="M32.91,178.81l-.18,3.3-5.72,1.91c-.94-5.16,4.81-9.45,5.17-8.43.31.86.77,2.44.73,3.21Z"/>
    <circle class="st7" cx="9.78" cy="181.6" r="1.11"/>
    <path class="st6" d="M188.54,328.29l-26.77-1.97.19-1.7,4.05-3,3.93-.91c2-1.01,4.37-2.02,5.4-2.24-1.73,2.88-.71,3.35.89,2.14.6-1.23,2.02-3.08,2.66-2.58l2.31,1.83,1.99.48c.5.12-.64,1.96-1.14,1.82l-2.21-.63c-.02,3.27,4.16,6.14,8.21,4.53l.5,2.23ZM173.64,322.6c0-.48-.39-.86-.86-.86s-.86.39-.86.86.39.86.86.86.86-.39.86-.86ZM177.44,324.08l-.65.02.65.02h.68l.65-.02-.65-.02h-.68Z"/>
    <polygon class="st2" points="140.24 313.62 140.28 314.27 140.28 314.94 140.26 315.59 140.19 314.93 140.18 314.26 140.24 313.62"/>
    <polygon class="st6" points="152.62 336.92 162.78 341.06 153.43 339.95 149.44 337.46 152.62 336.92"/>
    <path class="st8" d="M74.76,253.62l2.26,2.01c.06.36-.65,2.22-1.1,1.85-1.11-.89-3.1-2.84-3.91-3.83l.82-1.27.97.18c.28.2.74.8.97,1.06Z"/>
    <path class="st8" d="M40.76,176.66c-1.79,1.27-5.27,1.79-7.85,2.15.04-.77-.42-2.36-.73-3.21-.37-1.03-6.12,3.27-5.17,8.43l-1.21,2.84c-2.6-.64-5.11,1.02-6.39,3.42l-2.94-.56c-.64-.12-.28,2.49.37,2.47l2.37-.05,4.89,3.61c-2.02.67-4.3,4.35-2.86,6.24l11.17.34c2.95,1.37,5.63,1.65,9.81.07l.09,2.65c.02.45,2.08.9,2.6.83l8.29-1.05c3.97,3.91,8.73,6.36,13.52,6.73,5.89.45,4,9.55,15,10.95,5.6.71,10.89,2.95,13.73,7.45l7.41,11.78c6.06,9.63,12.91,19.61,11.14,32.34l-14.05-3.99-1.23-.69-1.32,1.94-7.63-2.39c2.95,6.37,11.14,5.76,11.06,5.25l-.1-2.31,13.28,4.82-3.31,39.74c-.18,2.14-1.3,4.04-3.05,6.61l-4-8.8.58,8.88-1.87,1.07-2.27-9.96-2.93-2.93.71,8.88c-3.07-5.23-4.8-9.36-10.35-12.33l4.78,12.01.49.29-.86,1.76-.75-1.2-5.48-5.03-1.26.53,7.25,8.32-11.79,1.52-5.73-4.79c-14.03-10.71-27.93-21.77-36.83-36.48l11.05-3.11c1.97-.51,5.8-2.65,7.49-3.55l3.67-8.68,1.51-.5-1.5,8,5.43,1.43c2.46,2.11,4.72,2.51,7.39,1.08,2.53.45,5.94,2.58,8.98,4.52,2.49,0,6.8-1.69,9.43-2.94,1.13.64,3,1.74,3.69,1.1l3.1-2.88c-6.99.28-11.52-3.94-14.55-9.26l-.67-3.69,11.44,1.02-3.02-3.65c-4.03-4.88-8.84-9.93-13.93-9.44l-2.1-.58-.97-1.06-2.68-5.29c-5.45-1.31-11.5-1.75-16.73-.18l-6.76,6.53-4.93,1.42,2.59,1.19c-.86,2.74-4.63,2.02-6.37,2.88l-14.09,6.41C8.92,237.47-.36,205.06.01,172.69c2.53.15,4.34,1.82,6.62,4.94l1.48-5.65,7.76,2.88-1.36-3.77-2.09-9.35c2.34-4.71-.36-8.47,1.32-8.72l2.7-.4c.96-.14-.65,7.73,2.44,6.69,2.85-.96,8.66.21,10,3.02-.28.28-1.8,1.81-1.75,1.76-.81-.88-2.29-2.59-2.9-2.24l-3.12,1.77,4.97,2.9-2.8,2.71,4.01.7c.91.16,1.25-2.09,1.42-3.8,1.34-.55,4.41-1.87,5.84-1.92l7.69-.27-2.78,5.39,1.31,7.34ZM10.9,181.6c0-.61-.5-1.11-1.11-1.11s-1.11.5-1.11,1.11.5,1.11,1.11,1.11,1.11-.5,1.11-1.11Z"/>
    <path class="st7" d="M61.18,88.2c-.54.47-2.31,0-2.45-.8-.08.06.75-.92,1.02-.69l1.44,1.48Z"/>
    <path class="st7" d="M214.69,194.61l-2.43-2.47,1.58-3.27,1.45-2.73c.67-1.26,6.01,6.33,3.2,7.4l-3.8,1.07Z"/>
    <path class="st8" d="M232.36,186.4c1.07,4.51,1.61,8.57-.14,13.64l-5.74,16.69c1.02,6.35,2.82,12.07,5.14,18.07-.48,8.83.24,16.83,2.45,26.74l-16.83-7.42-21.33-13.18-12.92.7-13.45,9.7c-11.52,8.31-22.13,9.29-21.99,15.17l.05,1.89-8.13-.42-13.99,4.63c.02-4.17.27-7.27,1.22-11.04l3.1-12.39c1.64-6.57,7.37-13.5,12.63-17.77,4.23-3.43,10.22-4.28,13.9-8.33,2.64-2.92,5.16-8.53,8.62-10,4.18-1.77,7.79-2.65,10.46-4.81l7.6-6.15c3.17,3.9,7.21,3.79,11.64,2.87l5.8-.14-.49-3.08c-.09-.54,2.09-.66,2.66-.77l5.96-1.2-.87-.46,1.31-.51.54.66c1.07.44,4.98.63,5.49-.64.44-1.08.47-3.42-.35-4.25l3.8-1.07c2.82-1.07-2.53-8.66-3.2-7.4l-1.45,2.73c-.7-.13-1.76-.27-1.66-.69l.53-2.21c.36-1.49-3.08-3.17-5.21-3.57l-.5-3.83c1.91.28,4.45-.96,6.34-2.57l4.69-.24c1.39-.56,3.56-1,4.65-.65,2.12.69-.83,4.51,1.02,8.36.77,1.59,2.46,4.11,3.78,3.94l4.85-1.01Z"/>
    <polygon class="st7" points="113.92 90.29 108.27 90.68 107.52 89.86 112.28 89.5 113.92 90.29"/>
    <path class="st7" d="M143.76,89.28l-4.05-.23,4.05.23Z"/>
    <polygon class="st7" points="101.44 82.08 102.12 82.08 102.77 82.1 102.12 82.12 101.44 82.12 100.79 82.1 101.44 82.08"/>
    <rect class="st7" x="114.93" y="57.74" width=".71" height=".71" transform="translate(-7.32 98.53) rotate(-45)"/>
    <g>
      <path class="st0" d="M241.88,71.46l1.34,5.14.2,1.16,1.83,10.37,2.84,17.27,2.75,15.95,6.51,30.67,3.09,9.87,8.73,10.92c1.13,1.42,2.64,4.53,3.08,6.2l3.49,13.33,12.77,12.6,10.46,6.67c4.89,3.12,7.53,9.38,10.57,14.22,8.76,13.98,4.42,25.06,7.38,35.63,1.31,4.67,3.86,8.54,3.35,13.6l-1.34,13.23-1.44-1.07-1.17,1.22c-.98,11.47-.89,22.88,2.04,34.65.69,2.77.23,5.33-.43,8.62l5.9-1.53,7.05,3.78c.37.2.17.47-.28.65l-1.55.62-13.29-1.78c.14-3.83-.05-7.21-1.32-10.01-.06,6.18-4.6,10.51-8.15,10.64-1.23.04-3.53-1.49-4.79-2.31l-18.95.94,4.42-2.72-10.87-1.77,2.91-.61c.7-.1.28-1.78.22-2.26l4.09-1.04,5.01.91c2.69-9.02,4.1-18.03,3.48-26.84-.35-4.91-1.67-9.67-4.95-13.8-6.07-7.66-10.12-15.98-11.1-26l-7.51-1c-.62,6.92-2.41,14.78-1.49,21.93.81,6.25.96,11,.04,17.29-1.05,7.16.18,14.98,1.05,21.85.43,3.39.84,6.84-.45,9.66l-.83,1.72-1.46-1.59c1.13-5.52.8-11.17-.94-16.93l-.81,10.35-.71,7.24-.75,5.28-.47,1.51c-.15.48-1.92,1.02-2.06.54l-.64-2.2.89-7.59c.78-9.12,1.63-19.48-1.26-28.66-2.01-6.39-2.83-11.25-2.3-17.99.63-8-1.79-16.34-2.99-24.46-.43-2.91-1.05-5.33-4.46-5.25-.91,5.87-1.61,11.46-.9,17.17-1.39,5.41-2.13,11.38-.2,17.65l-2.01,13.2c-1.04,6.83-1.14,14.28-.47,21.23.37,3.81-.07,6.76-.17,10.15l-.22,7.3-2.04.5-.63-2.2c.59-1.28.25-3.23-.51-5.14-.12-1.08,1.05-3.58,1.65-4.83l-.88-15.93-2.12,10.08-1.02,8.94-2.11,7.43-4.65,1.51,2.73-7.81-12.96-.63-11.84-.45c.37-1.02,1.24-2.53,2.28-2.91s3.85-.32,4.61-.15l.84-.38c.06-.7.32-2.09.96-1.92l3.17.82.62-.83.57-5.46,6.36,7.22,1.88-2.08,3.97,5.15c2.06-9.59,3.55-19.79,1.89-29.81-1.02-6.17-1.46-11.32-1.02-17.64l-1.09-14.15-16.71-8.86,1.22,5.22c-3.52-2.3-6.23-2.78-10.49-1.52-1.74-3.33-5.81-4.07-8.81-1.9,3.88,3,4.9,5.96,3.62,9.66l.62.86-1,.79-.76-.77-5.61-6.64-5.35-6.33.5,8.85c-1.39-1.25-2.2-4.15-3.37-7.23l-.2,6.56-2.54-6.24c-3.21,5.91.45,13.57,3.87,17.83l1.03,1.28.33.54c-.11.22-.64,1.33-.49,1.03l-1.21-.31c-5.8-1.2-5.82-7.22-9.34-6.29-4.57,1.21-1.53,6.88-4.97,7.59-2.9-3.73-.42-8.69,4.3-9.86l.76-7.15c-2.31,1.17-3.13,3-4.8,4.35l-18.8,15.1-7.98-2.38c7.81-3.19,15.75-5.09,20.79-11.71l4.38-5.75c.34-.45,1.18-1.41.98-1.78l-.95-1.75c-.29-.54-1.73.93-2.29,1.51l-6.85,7.08-7.1,2.48-2.44-1.39,5.02-4.8c-2.44-.73-6.35,4.13-6.86,2.39l-.75-2.57-5.48,2.4c-.14-5.88,10.47-6.86,21.99-15.17l13.45-9.7,12.92-.7,21.33,13.18,16.83,7.42c-2.21-9.91-2.93-17.92-2.45-26.74-2.32-6-4.12-11.72-5.14-18.07l5.74-16.69c1.75-5.08,1.21-9.14.14-13.64-3.59-15.13-4.76-30.72-5.5-46.78l-1.71-37.08-1.55-15.47c-.13-1.29-1.03-4.07-1.3-4.46l-10.54-.07c-3.54-.02-6.17.57-8.02,3l-2.08.75-2.88.19c-1.45-1.24-3.48-2.56-4.93-2.5l-.95-2.45.19-1.87,1.92-5.9c4.23-3.3,9.53-8.17,12.43-13.2l4.17-7.24c1.25-2.16,3.11-3.46,5.87-4.41,3.17-3.63.74-12.04,3.85-11.57,1.19.18,3.69,1.24,4.76,1.72.97-.8,3.25-2.17,4.62-2.07s3.13,2.85,2.45,3.94c-2.29,3.65-3.72,7.39-1.71,11.38,4.35-3.94,8.3-6.1,13.36-4.84-.19,5.79-3.41,10.32-7.05,13.49l4.11,10.5ZM235.63,58.92c4.28-1.92,6.28-5.29,6.71-10.25l-9.4,3.87,6.11-.75-3.43,7.14ZM225.7,59.77c0,2.07-1.45,4.52-3.85,5.3-1.7.55-6.24.64-5.28-3.49.6-.07-2.01-.94-2.95-.99-1.09-.06-3.37,1.73-4.12,2.56l-8.74,9.66c-2.05.08-2.76.93.38,1.03.2-.19.67,1.58.41,2.05-.35.62-1.66,1.85-2.36,1.91l-2.15.18c-.61.05-.99,1.7-1.16,2.96l7.69-1.02c1.13-.15,1.56,2.46,2.02,1.14l.76-2.21c1.12-3.24,6.32-2.48,9.07-3.29l7.74-2.27,2.48-7.65,1.15-3.08c.22-.6,1.32-.68,2.18-1.06,1.5-1.05,3.16-1.78,4.72-2.07.37-.32,1.21-1.06,0-.84-.39-.45-1.02-1.08-.85-1.6l1.13-3.46-5.54,2.98c.47-1.16-.73-3.51-1.78-4.4-.96-.82-3.73.47-4.6,1.47l-5.18,5.95,8.83.25ZM235.05,90.41l-2.02,9.11,3.08-.83-.57,1.98-.68,6.25-2.97.17.89,5.46,2.56-1.58c.4-.25,1.09,1.01,1.54.98l-.02.25c-.38-.18-.63.58-.77.98-.17.46.13,1.4.69,1.52-.1,3.02-.64,6.39-1.62,8.99l-4.02-1.88c-1.15-.6-2.73,2.81-1.98,4.41l5.53-1.28,2.88,2.1.1.93-.99,9.14-7.17,1.01,8.1,1.98,1.72,11.47,1.07,5.82,3.01,13.1c.31,1.34.21,4.77-1.01,5.33l-5.61,2.58c2.13,2.04,6.77-1.24,7.34.09l1.67,3.92,3.08,5.4-.07,12.67c0,1.18,2.27,2.76,3.64,4.06,1.27,1.21-.4,5.12-1.77,6.37-1.91,1.75-6.07,3.36-7.33-.96l-4.2,9.09c-2.17-6.64,2.45-12.38-1.9-13.58,1.26,3.54.67,7.63-3.65,8.59-1.11.25-3.01,1.28-3.77,1.94l4.81.24c2.83.14,4.32,9.12-2.16,14.46l2.51,7.41c1.14-2.12,1.31-4.29.37-6.12.19-.13,2.35-1.03,2.48-1.89l.56-3.48,1.73.1.73-.63-.6-3.51.71-4.12c.21-1.24,2.93-1.88,4.09-2.44l6.18-3c3.68,5.98.79,11.83,4.18,20.06,1.48-2.28,3.66-5.05,4.88-4.29,3.72,3.92-.14,10.55-4.05,12.14-1.26.52-1.71,4.08-1.25,4.54l2.47-1.95c.92-.73,3.44,6.21,2.76,13.04,1.33,1.11,3.03,3.38,3.23,5.6.3,3.33-.31,5.79-1.92,6.95l1.59,5.4-.09,1.63c.06.31.46.28.53-.01l.6-1.49,3-22.87.36-10.6c5.28-4.02.29-8.58,2-11.75,1.83-3.38,2.34-8.62-.52-11.09l1.18-3.15,2.1,3.64c.58,2.39,1.51,4.85,2.66,7.5l.95,6.15c.17-.28,4.29-1.06,4.41-.11l1.17,9.42,1.34-5.1.91-3.72c.19-.79,2.94-.28,3.41.22l.4,7.63,4.36-6.39,2.81,4.28c-.03-4.33-.51-8.5,1.74-12.63.94,4.01.97,6.65,1,9.66-.45.64-1.52,2.15-1.7,2.95l-2.37,10.82,3.55,1.93c1.44.78-1.92,5.41-.91,6.14l1.56,1.13,2.92,4.26,2.72,3.97c.46.67-.74,2.82-1.08,3.56l1.74,7c.12.46,1.89,1.23,1.79.75s-.4-2.65-.1-2.84l1.64,1.7c-1.83,3.67-1.55,7.03.35,9.51.67.87,1.77,2.82,2.07,3.97l2.27,8.77,1.21-2.73.61-6.05c.05-.53-.05-1.63-.16-2.13s-1.28-.65-1.77-.77l-1.04-4.11c-.84-2.72-2.2-6.43-2.03-8.93l1.96-28.09.3-4.97c.07-1.25-.7-3.69-1.34-4.78,1.25-1.8,1.29-4.92.04-6.85l-8.03-12.33c-3.12-4.79-10.33-6.83-14.59-10.26l-7.52-5.64c-.14-.81-.83-2.3-1.32-2.84s-2.42-1.03-2.43-.23c-.86-.2-2.45-.3-2.52-1.05l-.28-3.17c-.37-4.24-2.27-9.09-3.9-12.81-2.14-4.85-4.99-9.59-10.05-11.22l-4.03-6.96-1.25-2.87-3.62-13.5-3.27-18.69-2.13-12.78-1.61-12.76-1.27-8.47-.14-2.74-.52-1.31c-.42-1.98-1.62-4.39-2.69-5.25,1.22-1.12,1.55-3.8.9-5.76l-4.97-14.95c-.33,2.94-.02,5.51.41,7.87-2.58,4.25,2.24,9.37-1.78,16.95-.08.02,1.43,1.05,1.97,1.28ZM240.31,227.31l5.85,15.09c.23.6.64,2.09,1.13,1.95l2.09-.58c2.55-.71-5.35-6.77-5.31-11.84,0-.99,2-3.6,1.2-4.13-1.11-.72-2.93-1.61-3.81-1.89l-1.15,1.39ZM275.28,234.65q0-1.22,0,0,0,2.34,0,0ZM236.28,238.6l-.5.5.5.5.5-.5-.5-.5ZM206.37,252.65l1.23-1.41-10.95-7.7-12.91.12-15.36,11.41c6.87-.26,10.18-3.84,16.02-6.8l-5.11,9.12,4.96.33,4.27-8.9,2.03,4.23,1.08,2.25c.14.29.88-.31.99-.62l.37-1.01,3.04,3.98-1.36-10.17,3.68,2.66c1.98,1.43,4.35,2.81,6.01,3.33l-.37-1.25,1.34-.49,1.03.93ZM270.73,253.1c8.66,5.5,20.24-1.93,19.69-4.15l-.82-3.32-9.11,6.8-9.76.67ZM310.94,274.69c-.21,3.94,1.7,8.32,4.03,11.21l1.23-1.28-3.32-10.13c-1.76-5.37,3.06-11.99-.9-19.18l-1.04,19.37ZM294.99,270.36l.56-.47-.56.47ZM296.41,270.55l-.72.58c.67,5.18,1.98,10.45,6.23,14.53l-5.51-15.11ZM261.56,281.58l.16,1.83-.37,1.06,1.84.12-.85,2.03,1.46,9.59c2.9-4.93,2.36-12.71.11-16.37l-1.21-1.98c-.33-.54-1.54,1.19-1.44,1.82l.3,1.9ZM316.48,285.14l-1.15,1.21.85,1.49,1.2-1.03-.91-1.66ZM304.96,324.48l-1.1,4.18c.85-.29,2.57-1.05,3.18-.67l2.67,1.67c2.02-13.89-.59-27.01-6.99-39.75l-5.91,37.81,3.69-2.92c1.16.85,1.75,1.46,2.21,1.16l2.25-1.48ZM313.35,318.31c2.73-3.87.87-6.62.65-9.71l-.66-9.19c-.99,3.02-1.24,6.04-.93,9.18l.95,9.72ZM292.49,329.8c2.89-5.02,3.43-15.48,2.85-21.44l-2.83,12.07c-.78,3.33-2.5,6.51-.03,9.37ZM223.34,323.43l-.95.85.68.78.79-1.01-.52-.63ZM224.38,324.69l-.89.85c1.68,1.6,1.55.35.89-.85ZM218.06,326.5l.79-1.1-.79,1.1Z"/>
      <path class="st8" d="M223.59,87.07l-7.55-2.17c-4.2-.99-8.49-.73-12.3.64,1.85-2.43,4.48-3.03,8.02-3l10.54.07c.27.39,1.17,3.17,1.3,4.46Z"/>
      <path class="st8" d="M201.66,86.29c-.15.34-.98,1.8-1.38,1.47l-1.5-1.28,2.88-.19Z"/>
      <path class="st1" d="M255.01,163.41l4.03,6.96-2.66,6.01c1.47.22,3.14.27,3.22-.37l.44-3.49,4.26,7.73c-.04,1.62,1.43,3.81,1.83-.29l2.95,1.63c1.64,3.72,3.53,8.57,3.9,12.81l.28,3.17c.07.75,1.65.85,2.52,1.05,3.47.8.43,6.7,6.45,11.4l5.29,4.14-2.72,7.14c-.93-3.98-1.92-6.12-5.01-6.95l-4.25-5.38-2.4,5.08-9.89.98,3.08,7.03,2.65-3.73c2.85,2.48,2.35,7.71.52,11.09-1.72,3.17,3.28,7.73-2,11.75l-.36,10.6-3,22.87-1.04-.12-1.59-5.4c1.61-1.16,2.22-3.62,1.92-6.95-.2-2.22-1.9-4.49-3.23-5.6.68-6.83-1.84-13.77-2.76-13.04l-2.47,1.95c-.46-.46,0-4.02,1.25-4.54,3.9-1.6,7.77-8.23,4.05-12.14-1.22-.76-3.41,2-4.88,4.29-3.39-8.23-.51-14.08-4.18-20.06l-6.18,3c-1.16.56-3.88,1.2-4.09,2.44l-.71,4.12c-.58.32-1.63.83-1.68,1.54l-.18,2.49-.56,3.48c-.14.86-2.3,1.76-2.48,1.89.94,1.83.77,4-.37,6.12l-2.51-7.41c6.48-5.34,5-14.31,2.16-14.46l-4.81-.24c.76-.65,2.65-1.69,3.77-1.94,4.32-.96,4.91-5.05,3.65-8.59,4.35,1.2-.27,6.94,1.9,13.58l4.2-9.09c1.27,4.32,5.42,2.71,7.33.96,1.36-1.25,3.03-5.17,1.77-6.37-1.36-1.3-3.65-2.88-3.64-4.06.27.12,1.21-.27,1.45-.52l7.72.57-2.62,1.72c-.23,4.04-1.14,7.72-3.26,11.1l5.81,2.59-1.19-3.56,6.92.21-.69-8.92.61-1.57c.17-.44-1.45-1.07-1.92-1.17l-2.18-.46c-1.99-.42.72-8.07-2.96-11.04-.08,1.72-.1,3.98.16,5.16l-2.23-1.22c1.68-4.58-.32-11.64-3.56-14.91,2.34-6.95.46-13.7,1.9-14.4l2.26-.66ZM265.82,192.9l.6-1.33-.6,1.33ZM267.38,198.68c.47,2.68-1.48,3.77.25,7.61.26.58,2.93.66,2.97.04l.4-6.6c.28-4.63-1.24-8.03-1.69-7.86l-1.95.73-.93.64.95,5.43Z"/>
      <path class="st7" d="M259.62,326.57c-.2-.43-3.1-.58-4.01-.16l-6.89,3.24-3.86-.03c.1-3.4.54-6.34.17-10.15-.67-6.95-.57-14.4.47-21.23l2.01-13.2c-1.93-6.28-1.19-12.24.2-17.65-.71-5.71,0-11.3.9-17.17,3.41-.09,4.02,2.34,4.46,5.25,1.2,8.12,3.62,16.46,2.99,24.46-.53,6.74.29,11.61,2.3,17.99,2.89,9.18,2.04,19.54,1.26,28.66Z"/>
      <path class="st1" d="M253.77,160.53l-4.61-2.12c.95,4.11,1.69,9.34,1.67,14.12l-5.87,1.53,5.72,5.55-1.81,8.2-3.08-5.4-1.67-3.92c-.57-1.33-5.21,1.95-7.34-.09l5.61-2.58c1.22-.56,1.32-3.98,1.01-5.33l-3.01-13.1-1.07-5.82-1.72-11.47-8.1-1.98,7.17-1.01.99-9.14,4.14,2.39,1.42-5.56c.91-3.55.04-7.81-2.17-10.62l-2.97,4.92c-1.06,1.75-.72,5.96-.51,7.94l-2.88-2.1.47-1.24c.98-2.59,1.52-5.97,1.62-8.99l.08-2.5.02-.25,3.36-.24c.87-.06.98-2.78,1.16-3.69l1.74-5.21,1.61,12.76,2.13,12.78,3.27,18.69,3.62,13.5ZM245.32,146.07c.13-2.4-.76-7.34-2.48-8.43-3.01,1.03-3.63,6.59-.51,10.25.42.5,2.94-.98,2.99-1.82Z"/>
      <path class="st1" d="M301.3,226.97c-.1,1.23.71,3.36,1.73,3.95.44,1.87-.05,3.78-.98,4.89l-4.6-.09c-.03-3.01-.06-5.65-1-9.66-2.25,4.13-1.77,8.31-1.74,12.63l-2.81-4.28-4.36,6.39-.4-7.63c-.47-.49-3.22-1.01-3.41-.22l-.91,3.72-1.34,5.1-1.17-9.42c-.12-.95-4.24-.16-4.41.11l-.95-6.15c-1.15-2.65-2.08-5.1-2.66-7.5l6.18-3.4c2.87,2.77,3.74,7.81,3.39,12.07l6.5-6.12-.38-2.33,1.36-1.38,2.65,7.53,1.05-6.47c.72,1.62,2.22,3.38,3.9,4.58l4.35,3.68Z"/>
      <path class="st11" d="M233.7,58.58v.84c-1.56.29-3.22,1.02-4.72,2.07-.86.38-1.95.46-2.18,1.06l-1.15,3.08-2.48,7.65-7.74,2.27c-2.76.81-7.95.04-9.07,3.29l-.76,2.21c-.46,1.32-.89-1.29-2.02-1.14l-7.69,1.02c.17-1.26.55-2.91,1.16-2.96l2.15-.18c.7-.06,2.01-1.28,2.36-1.91.26-.46-.21-2.23-.41-2.05-3.14-.1-2.43-.95-.38-1.03l8.74-9.66c.75-.83,3.02-2.62,4.12-2.56.94.05,3.55.92,2.95.99-.95,4.13,3.58,4.04,5.28,3.49,2.39-.78,3.85-3.23,3.85-5.3,0-1.2,1.62-2.67,2.73-3.27l5.54-2.98-1.13,3.46c-.17.52.46,1.15.85,1.6Z"/>
      <path class="st1" d="M298.59,244.43c-1.1.72-1.97,1.73-2.55,3.33-.37,1.02,1.75,1.89,2.96,1.98,1.14.58,3.34,2.51,3.45,3.83s-.89,3.8-1.42,5.06l-3.46.05-1.56-1.13c-1.01-.73,2.35-5.35.91-6.14l-3.55-1.93,2.37-10.82c1.26.12,2.82.76,2.86,1.69v4.07Z"/>
      <path class="st1" d="M310.98,241.54l-.3,4.97-1.96,28.09-3.15.78c-.3.19,0,2.34.1,2.84s-1.67-.29-1.79-.75l-1.74-7c.33-.73,1.54-2.88,1.08-3.56l-2.72-3.97.54-4.31c.6-.09,2.01-.49,2.68-.79,1.77-.8.57-7.8-.41-8.1l-4.38-1.08-.33-4.24c2.21-1.45,3.57-4.93,3.58-7.45l2.67.17,6.14,4.39Z"/>
      <path class="st11" d="M279.54,201.68c.51,2.93,2.48,7.61,6.39,9.65l1.13-4.01c4.27,3.42,11.47,5.46,14.59,10.26l-.35,9.4-4.35-3.68c-1.68-1.2-3.18-2.96-3.9-4.58l-1.05,6.47-2.65-7.53-1.36,1.38.38,2.33-6.5,6.12c.35-4.26-.52-9.3-3.39-12.07l1.33-1.08c3.09.83,4.08,2.97,5.01,6.95l2.72-7.14-5.29-4.14c-6.01-4.71-2.98-10.6-6.45-11.4,0-.8,1.94-.3,2.43.23s1.18,2.02,1.32,2.84Z"/>
      <path class="st11" d="M241.21,90.28l.52,1.31.14,2.74-3.71-.61,2.45,7.59-5.08-.66.57-1.98c1.77-2.17,1.32-7.27-1.05-8.27-.54-.23-2.05-1.26-1.97-1.28,4.02-7.58-.8-12.69,1.78-16.95-.43-2.37-.74-4.93-.41-7.87l4.97,14.95c.65,1.96.32,4.64-.9,5.76,1.07.87,2.27,3.27,2.69,5.25Z"/>
      <path class="st12" d="M241.87,94.33l1.27,8.47-1.74,5.21c-.18.91-.29,3.63-1.16,3.69l-3.36.24c-.45.03-1.14-1.23-1.54-.98l-2.56,1.58-.89-5.46,2.97-.17.68-6.25,5.08.66-2.45-7.59,3.71.61Z"/>
      <path class="st10" d="M254.41,193.37c-.8,2.19-2.79,5.16-4.16,6.58-.24.25-1.19.64-1.45.52l.07-12.67,1.81-8.2.17-1.15c3.25,3.27,5.24,10.33,3.56,14.91Z"/>
      <path class="st4" d="M309.65,236.76l-2.08-3.55-1.42,2.53-.83-3.17c-.19-.74-1.45-1.16-2.29-1.65-1.02-.59-1.83-2.71-1.73-3.95l.35-9.4,8.03,12.33c1.25,1.93,1.22,5.04-.04,6.85Z"/>
      <path class="st1" d="M241.97,335.22l-4.99.54,2.11-7.43,1.02-8.94,2.12-10.08.88,15.93c-.6,1.25-1.77,3.75-1.65,4.83.76,1.9,1.1,3.86.51,5.14Z"/>
      <polygon class="st3" points="279.8 214.34 278.47 215.42 272.29 218.81 270.18 215.18 269 218.32 266.35 222.05 263.26 215.03 273.15 214.05 275.55 208.96 279.8 214.34"/>
      <path class="st12" d="M237.66,127.97l-.1-.93c-.21-1.98-.54-6.18.51-7.94l2.97-4.92c2.22,2.81,3.08,7.07,2.17,10.62l-1.42,5.56-4.14-2.39Z"/>
      <path class="st11" d="M270.73,253.1l9.76-.67,9.11-6.8.82,3.32c.55,2.22-11.03,9.65-19.69,4.15Z"/>
      <path class="st3" d="M253.77,160.53l1.25,2.87-2.26.66c-1.45.7.43,7.45-1.9,14.4l-.17,1.15-5.72-5.55,5.87-1.53c.02-4.78-.73-10.01-1.67-14.12l4.61,2.12Z"/>
      <path class="st1" d="M228.43,56.5c-1.11.6-2.73,2.07-2.73,3.27l-8.83-.25,5.18-5.95c.87-1,3.64-2.3,4.6-1.47,1.04.89,2.25,3.24,1.78,4.4Z"/>
      <path class="st11" d="M269.09,181.58l-2.95-1.63c-.4,4.1-1.87,1.91-1.83.29l-4.26-7.73-.44,3.49c-.08.64-1.76.59-3.22.37l2.66-6.01c5.06,1.62,7.91,6.36,10.05,11.22Z"/>
      <path class="st4" d="M240.25,222.58l.6,3.51c.37-.1.67-.18.62-.17.88.28,2.7,1.17,3.81,1.89.8.52-1.19,3.14-1.2,4.13-.05,5.07,7.85,11.13,5.31,11.84l-2.09.58c-.5.14-.9-1.35-1.13-1.95l-5.85-15.09-.19-.6-1.73-.1.18-2.49c.05-.71,1.09-1.23,1.68-1.54Z"/>
      <path class="st7" d="M292.49,329.8c-2.47-2.86-.75-6.04.03-9.37l2.83-12.07c.58,5.96.04,16.42-2.85,21.44Z"/>
      <path class="st8" d="M308.72,274.6c-.17,2.5,1.19,6.21,2.03,8.93l1.04,4.11-4.23-1.06c-1.91-2.48-2.19-5.83-.35-9.51l-1.64-1.7,3.15-.78Z"/>
      <path class="st11" d="M262.34,286.62l.85-2.03-1.84-.12.37-1.06-.16-1.83,2.35-1.74c2.24,3.66,2.79,11.44-.11,16.37l-1.46-9.59Z"/>
      <path class="st8" d="M312.88,274.5l-1.94.19,1.04-19.37c3.97,7.19-.86,13.81.9,19.18Z"/>
      <path class="st0" d="M266.57,329.98c1.2,1.31,2.15,5.31,1.86,6.48l-1.57-.17-1.71-.22-3.24-1.74.75-5.28c.03.42.74,1.44,1.01,1.11l1.45-1.76,1.46,1.59Z"/>
      <path class="st11" d="M265.11,328.39l-1.45,1.76c-.27.33-.98-.69-1.01-1.11l.71-7.24.81-10.35c1.74,5.77,2.07,11.41.94,16.93Z"/>
      <path class="st11" d="M309.65,236.76c.64,1.09,1.41,3.53,1.34,4.78l-6.14-4.39-2.67-.17-.13-1.16c.93-1.11,1.41-3.02.98-4.89.84.48,2.1.91,2.29,1.65l.83,3.17,1.42-2.53,2.08,3.55Z"/>
      <path class="st3" d="M302.05,235.81l.13,1.16c-.02,2.52-1.37,6.01-3.58,7.45v-4.07c-.02-.93-1.59-1.57-2.85-1.69.18-.8,1.25-2.32,1.7-2.95l4.6.09Z"/>
      <path class="st3" d="M298.59,244.43l.33,4.24.08,1.08c-1.21-.09-3.33-.96-2.96-1.98.58-1.6,1.45-2.61,2.55-3.33Z"/>
      <path class="st11" d="M311.79,287.65c.49.12,1.66.27,1.77.77s.22,1.6.16,2.13c-1.05,1.64-1.56,4.38-.61,6.05l-1.21,2.73-2.27-8.77c-.3-1.16-1.4-3.1-2.07-3.97l4.23,1.06Z"/>
      <path class="st3" d="M235.63,58.92l3.43-7.14-6.11.75,9.4-3.87c-.43,4.97-2.43,8.34-6.71,10.25Z"/>
      <path class="st8" d="M313.35,318.31l-.95-9.72c-.31-3.13-.06-6.15.93-9.18l.66,9.19c.22,3.09,2.09,5.84-.65,9.71Z"/>
      <path class="st8" d="M294.99,270.36l.56-.47.86.66,5.51,15.11c-4.25-4.07-5.55-9.35-6.23-14.53l-.7-.77Z"/>
      <path class="st4" d="M287.06,207.32l-1.13,4.01c-3.92-2.04-5.88-6.72-6.39-9.65l7.52,5.64Z"/>
      <path class="st3" d="M236.11,98.69l-3.08.83,2.02-9.11c2.37,1,2.83,6.1,1.05,8.27Z"/>
      <path class="st4" d="M235.16,123.69l-.47,1.24-5.53,1.28c-.75-1.6.83-5,1.98-4.41l4.02,1.88Z"/>
      <polygon class="st11" points="301.04 258.63 300.5 262.94 297.58 258.68 301.04 258.63"/>
      <path class="st11" d="M301.04,258.63c.53-1.25,1.54-3.74,1.42-5.06s-2.32-3.25-3.45-3.83l-.08-1.08,4.38,1.08c.99.3,2.18,7.3.41,8.1-.66.3-2.08.7-2.68.79Z"/>
      <path class="st1" d="M263.91,279.83l-2.35,1.74-.3-1.9c-.1-.62,1.11-2.36,1.44-1.82l1.21,1.98Z"/>
      <path class="st1" d="M275.28,234.66q0,2.34,0,0,0-1.22,0,0Z"/>
      <path class="st9" d="M313.12,296.6c-.95-1.67-.44-4.42.61-6.05l-.61,6.05Z"/>
      <path class="st9" d="M236.78,114.7c-.56-.12-.86-1.06-.69-1.52.15-.4.39-1.16.77-.98l-.08,2.5Z"/>
      <path class="st1" d="M262.34,286.62l.85-2.03-.85,2.03Z"/>
      <path class="st11" d="M263.12,274.51l1.04.12-.6,1.49c-.07.3-.47.32-.53.01l.09-1.63Z"/>
      <path class="st1" d="M261.35,284.47l.37-1.06-.37,1.06Z"/>
      <rect class="st1" x="235.93" y="238.74" width=".71" height=".71" transform="translate(-99.86 237.11) rotate(-45)"/>
      <path class="st3" d="M304.96,324.48l-2.25,1.48c-.46.3-1.05-.31-2.21-1.16l-3.69,2.92,5.91-37.81c6.41,12.74,9.01,25.86,6.99,39.75l-2.67-1.67c-.61-.38-2.33.38-3.18.67l1.1-4.18Z"/>
      <path class="st9" d="M241.73,91.59l-.52-1.31.52,1.31Z"/>
      <path class="st8" d="M233.7,59.42v-.84c1.21-.22.37.52,0,.84Z"/>
      <path class="st8" d="M266.85,336.29l1.57.17-1.57-.17Z"/>
      <path class="st3" d="M262.93,203.66c.57-.39-1.83-.85-2.31-.72-2.95.81-4.85,6.64-3.92,9.43l1.19,3.56-5.81-2.59c2.12-3.38,3.02-7.06,3.26-11.1l2.62-1.72-1.32-5.94c-.26-1.18-.24-3.44-.16-5.16,3.68,2.97.97,10.62,2.96,11.04l2.18.46c.48.1,2.1.73,1.92,1.17l-.61,1.57Z"/>
      <path class="st4" d="M262.93,203.66l.69,8.92-6.92-.21c-.93-2.79.97-8.62,3.92-9.43.48-.13,2.88.32,2.31.72Z"/>
      <path class="st6" d="M256.64,194.59l1.32,5.94-7.72-.57c1.38-1.43,3.36-4.39,4.16-6.58l2.23,1.22Z"/>
      <path class="st6" d="M271,199.74l-.4,6.6c-.04.62-2.71.54-2.97-.04-1.73-3.84.22-4.93-.25-7.61.03-.31,1.56-1.2,1.87-.85l1.75,1.9Z"/>
      <path class="st3" d="M271,199.74l-1.75-1.9c-.31-.35-1.84.54-1.87.85l-.95-5.43-.61-.35.6-1.33.95,1.04,1.95-.73c.44-.17,1.97,3.23,1.69,7.86Z"/>
      <path class="st6" d="M245.32,146.07c-.04.84-2.56,2.32-2.99,1.82-3.12-3.66-2.51-9.22.51-10.25,1.72,1.09,2.6,6.03,2.48,8.43Z"/>
    </g>
    <polygon class="st8" points="177.44 324.08 178.12 324.08 178.77 324.1 178.12 324.12 177.44 324.12 176.79 324.1 177.44 324.08"/>
    <circle class="st8" cx="172.78" cy="322.6" r=".86"/>
    <g>
      <path class="st2" d="M111.46,190.85c.31,3.87,1.19,7.77,3.68,10.7l2.7-8.82,3.66-1.64c.41-.18,1.14-.53,1.37-.28l1.14,1.17-4.84,13.39c-.97,3,.41,9.91,3.3,10.35.35.05,1.28-.29,1.28-.64l-.18-1.73,2-2.76,4.63,2.43-5.11,10.04,1.99,15.25c5.36-5.17,8.4-10.5,11.04-17.43,1.27-3.33,3.62-6.29,5.61-9.26l4.48-6.69,2.58-7.1,6.47-.75c.17.94.42,2.56.92,2.43l3.06-.76.2,2.84c-1.19.43-2.7,1.41-4.13,2.43l-7.2,5.14-2.91,4.86c-2.19,3.65-3.64,6.36-4.94,10.88l9.96-4.14c5.14-2.13,8.12-9.02,10.82-13.72l2.58-4.49,2.37,1.11-2.36,5.58,7.86-2.72,1.92,1.78c-2.67,2.16-6.28,3.04-10.46,4.81-3.46,1.46-5.98,7.08-8.62,10-3.67,4.05-9.67,4.9-13.9,8.33-5.26,4.27-10.98,11.21-12.63,17.77l-3.1,12.39c-.94,3.77-1.2,6.87-1.22,11.04l13.99-4.63,8.13.42.02,1-6.3,1.61-15.97,4.69c-1.28,13.74-2.08,47.35,3.92,47.65,1.3.07,3.95-1.45,4.64-2.6l4.53-7.57-1.51,9.84,2.49-6.72.66.75-1.37,6.15c6.09-4.31,7-10.54,11.99-14.15l-4.11,10.45-2.95,2.56.66.97,8.82-6.12-3.59,6.65,2.97-1.8c.55-.33,1.98,1.59,2.66,1.7l6.81,1.13-.19,1.7c-10.22-.75-20.54.94-31.51,3.22l16.12,4.28,5.32,1.13c.35.07,1.79.24,1.66.49l-.74,1.48-3.18.54-29.55-1.76-16.05,1.03-5.72.3c-2.78-1.28-6.84-1.62-10-.15-1.09.51-3.37-.17-4.54-.26l-12.08-.92c-.41-.12,1.87-2.42,2.59-2.49l14.65-1.29c-3.02-1.72-7.56-3.16-11.77-2.89l-22.18,1.46-26,4.02-13.21.83,13.98-3.88,11.49-1.95-2.33-2.72c8.43-2.46,13.41,3.51,21.44.41l-5.14-5.51c-.22-.22,2.74-.42,3.57.05l5.72,3.25c7-7.68,7.06,2.17,15.59,1.07l11.79-1.52-7.25-8.32,1.26-.53,5.48,5.03,1.13-.85-4.78-12.01c5.55,2.97,7.28,7.1,10.35,12.33l-.71-8.88,2.93,2.93,2.27,9.96,1.87-1.07-.58-8.88,4,8.8c1.75-2.57,2.87-4.47,3.05-6.61l3.31-39.74-13.28-4.82c-.32-.12-1.06-1.06-.78-1.8l14.05,3.99c1.76-12.73-5.09-22.71-11.14-32.34l-7.41-11.78c-2.83-4.5-8.12-6.74-13.73-7.45-11-1.4-9.11-10.49-15-10.95l-.1-3.36c-.11-2.34-2.59-5.02-5-5.91.32-.88.99-2.71,1.89-2.66,1.36.07,3.86.1,4.61.79l-2.5.59c.4-.12,3.77,9.42,9.32,12.71l-3.57-10.83c9.08,4,4.82,14.84,14.56,16.44,4.72.77,7.79,2.49,12.64,5.61.43-4.81-1.49-9.2-4.87-13.47-7.04-8.89-15.48-7.55-14.14-12.27l4.32-3,5.38,1.3c1.8,3.68,4.19,7.3,8.16,9.72,1.29-4.75-.28-7.3-1.88-10.54l4.56-3.79,3.56,6.12c-.34,4.43-2.58,10.98-1.54,16.12l3.07,15.03c.94,4.59,3.84,5.95,5.84,9.17l7.26,11.72c3.65-10.59.52-20.1-2.06-30l-3.52-13.5-5.18-8.62,1.39-3.41c.42-1.07.27-2.82.13-4.79l2.37.16ZM91.95,321.91l.86-1.76-.86,1.76Z"/>
      <path class="st2" d="M72,253.65c.81.99,2.8,2.94,3.91,3.83.46.37,1.16-1.49,1.1-1.85l-.15-1.43c5.09-.49,9.89,4.56,13.93,9.44l3.02,3.65-11.44-1.02.67,3.69-1.44-1-.79,1.2,2.88,5.24-3.18,1.29c.52-.71.92-1.79.44-2.19l-1.75-1.49c-.52-.45-2.23-1.99-2.59-1.41l-2.07,3.36-4.85-8.47c-.53-.92-3.07.26-3.37,1.2-.25.79.18,2.83.69,3.51l5.04,6.52.35,1.69c-2.68,1.43-4.94,1.04-7.39-1.08l-5.43-1.43,1.5-8-1.51.5-4.92-1.25.22,2.91c-.52-.64-1.82-2.28-1.45-2.95l2.01-2.95,1.49,2.12c.7.99,1.9-2.58,1.45-2.62l-2.97-.29c-.46-.22-1.16-.54-1.55-.23l-1.81,1.43-2.24.97-3.72,1.61.79-3.75-8.28,5.65,4.14-7.41-3.06,2.55-2.99-.03-2.76,2.01c-.37.27-.89-.44-1.88-1.51l-5.08,3.79c-.73-.14-2.79-.65-2.64-1.39l.54-2.56,14.09-6.41c1.74-.86,5.51-.14,6.37-2.88.7-.21,1.77-.91,2.22-.48l2.67,2.48,6.09-6.76,1.05.62-4.12,5.77,1.16.72,4.95-4.67.85,3.16c.1.35.63.98.85.69l1.52-2.05,3.99,8.13-1.01-10.05,6.93,4.1-5.24-6.62,4.82,2.37ZM81.33,268.63l-4.42-2.04,3.22,3.15,1.2-1.11Z"/>
      <path class="st7" d="M55.37,264.39l.03.79-2.01,2.95c-.36.67.93,2.31,1.45,2.95l-2.72,7.18-8.46,1.39c3.13-3.75,5.57-7.87,5.93-11.98l2.4-2.09,1.81-1.43c.39-.31,1.09,0,1.55.23Z"/>
      <path class="st7" d="M49.77,266.56l-.16,1.12-9.34,8.42-5.93,3.71c-.12-.05-1.94-1.64-2.39-2.35l-5.03-7.98,5.08-3.79c.98,1.08,1.51,1.78,1.88,1.51l2.76-2.01,2.99.03,3.06-2.55-4.14,7.41,8.28-5.65-.79,3.75,3.72-1.61Z"/>
      <polygon class="st6" points="52.01 265.59 49.6 267.68 49.77 266.56 52.01 265.59"/>
      <path class="st6" d="M54.85,271.08l-.22-2.91,4.92,1.25-3.67,8.68c-1.69.9-5.52,3.04-7.49,3.55l-11.05,3.11-3.01-4.97,5.93-3.71,9.34-8.42c-.36,4.11-2.8,8.23-5.93,11.98l8.46-1.39,2.72-7.18Z"/>
      <path class="st4" d="M185.96,173.76l1.16-.22c-.2.68-.07,1.71.42,1.86l2.61.76c.79.23,3.23,1.1,3.22,1.91l-.05,2.47,5.27-2.88c.16-.09.88-.2,1.09-.17l2.63,5.42-6.88,1.77,2.26,2.79-2.67-1.3c-.5-.24-1.47.47-1.87.7l-4.26-1.73,1.75,4.17c-1.86-1.18-4.15-3.08-4.82-4.57l-2.59-5.69c-3.04.87-6.49-1.63-8.52-3.31.84-.9,3.54-2.26,4.97-2.2l6.28.23Z"/>
      <path class="st6" d="M198.6,177.66l-5.27,2.88.05-2.47c.02-.81-2.43-1.68-3.22-1.91l-2.61-.76c-.49-.14-.62-1.18-.42-1.86,2.49-.63,5.69-.14,8.06,1.43l3.42,2.69Z"/>
      <path class="st3" d="M72.82,252.38l-.82,1.27-4.82-2.37,5.24,6.62-6.93-4.1,1.01,10.05-3.99-8.13-1.52,2.05c-.22.29-.75-.34-.85-.69l-.85-3.16-4.95,4.67-1.16-.72,4.12-5.77-1.05-.62-6.09,6.76-2.67-2.48c-.46-.43-1.53.27-2.22.48l-2.59-1.19,4.93-1.42c6.49.7,9.41-10.59,19.65-4.53l5.55,3.29Z"/>
      <path class="st6" d="M83.03,269.97c3.03,5.33,7.56,9.54,14.55,9.26l-3.1,2.88c-.68.63-2.56-.47-3.69-1.1-2.63,1.25-6.95,2.95-9.43,2.94-3.03-1.94-6.45-4.07-8.98-4.52l-.35-1.69,7.31,1.33,1.14-2.37,3.18-1.29-2.88-5.24-.68-.43-3.22-3.15,4.42,2.04.26.34,1.44,1Z"/>
      <path class="st6" d="M99.97,270.08c-.28.74.45,1.68.78,1.8l.1,2.31c.08.51-8.1,1.12-11.06-5.25l7.63,2.39,1.32-1.94,1.23.69Z"/>
      <path class="st7" d="M107.56,198.89l5.18,8.62,3.52,13.5c2.58,9.9,5.71,19.41,2.06,30l-7.26-11.72c-2-3.23-4.9-4.59-5.84-9.17l-3.07-15.03c-1.05-5.13,1.2-11.69,1.54-16.12.54-1.02,1.57-2.55,2.03-2.06l1.85,1.97Z"/>
      <path class="st7" d="M150.78,197.82l-2.58,7.1-4.48,6.69c-1.99,2.97-4.34,5.93-5.61,9.26-2.64,6.93-5.69,12.27-11.04,17.43l-1.99-15.25,5.11-10.04,3.63-4.31,7.65-7.5c2.47-2.43,5.84-4.22,8.76-5.53l.54,2.15Z"/>
      <path class="st7" d="M79.57,199.18c-1.34,4.72,7.1,3.37,14.14,12.27,3.38,4.27,5.3,8.66,4.87,13.47-4.85-3.12-7.92-4.84-12.64-5.61-9.74-1.59-5.48-12.43-14.56-16.44l3.57,10.83c-5.55-3.29-8.92-12.83-9.32-12.71l2.5-.59,1.87,1.71c.54.49,2.2-.64,3.03-.9l6.53-2.03Z"/>
      <path class="st7" d="M161.43,201.58l4.17.96-2.58,4.49c-2.7,4.7-5.68,11.58-10.82,13.72l-9.96,4.14c1.3-4.51,2.75-7.22,4.94-10.88l2.91-4.86,7.2-5.14c1.44-1.03,2.95-2,4.13-2.43Z"/>
      <path class="st7" d="M125.58,210.58l-2,2.76-1.1,2.37c-2.89-.44-4.26-7.35-3.3-10.35l4.84-13.39,4.31-1.25c1.21,6.66,1.33,14.2-2.76,19.85Z"/>
      <path class="st7" d="M95.56,196.66c1.6,3.24,3.17,5.79,1.88,10.54-3.97-2.42-6.36-6.04-8.16-9.72l.17-1.89s4.22-2.75,4.86-1.47l1.25,2.54Z"/>
      <path class="st7" d="M117.84,192.73l-2.7,8.82c-2.49-2.93-3.37-6.82-3.68-10.7l2.12-.78,4.32-1.6-.06,4.26Z"/>
      <path class="st7" d="M173.48,206.5l-7.86,2.72,2.36-5.58c.96-2.27,4.85-1.83,7.94-.26l-2.44,3.12Z"/>
      <path class="st7" d="M61.64,202.28c2.41.89,4.89,3.57,5,5.91-3.42-.04-6.85-1.63-10.02-3.72l5.02-2.2Z"/>
      <path class="st6" d="M113.57,190.07l-2.12.78-2.37-.16c.13,1.97.28,3.71-.13,4.79l-2.27-2.51c-.41-.57,1.28-2.17,2.05-2.91l-1.77-2.13,1.24-3.48,5.16.1.21,5.52Z"/>
      <path class="st10" d="M122.48,215.71l1.1-2.37.18,1.73c0,.35-.93.7-1.28.64Z"/>
      <path class="st7" d="M80.5,276.71l-1.14,2.37-7.31-1.33-5.04-6.52c-.52-.67-.94-2.71-.69-3.51.3-.95,2.84-2.13,3.37-1.2l4.85,8.47,2.07-3.36c.35-.58,2.06.97,2.59,1.41l1.75,1.49c.47.4.07,1.49-.44,2.19Z"/>
      <path class="st6" d="M55.4,265.18l-.03-.79,2.97.29c.45.04-.75,3.61-1.45,2.62l-1.49-2.12Z"/>
      <path class="st4" d="M104.93,166.91l-2.26,3.57,10.15-.34c.65-.02,2.36.01,2.56-.5l.72-1.94.59-1.2,1.08.42c1.04.85,2.65,1.02,4.4.71l6.53-1.15-.43,2.49c-.05.29,1,.51,1.94.73l.24-3.72c2.38,1.01,5.05,1.68,8,2.15l6.5,1.04c3.74.6,7.06,2.46,9.57,5.25l-9.79-.58c-3.99,7.19-7.37-2.45-13.1-.76-1.27.37-3.26.81-3.72.14l-1.55-2.3-2.74,1.2-3.94-1.39c-1.95.84-6.31,2.78-8.42,2.57l-6.12-.63c-3.86-2.92-9.13-.32-16.89-3.13,1.35-2.85,4.78-2.61,7.08-2.37,3.03-2.67,7-3.3,9.59-.25Z"/>
      <path class="st4" d="M162.35,157.97l-11.69,2.4-3.48,1.16c-.9.3-2.62-1.15-3.57-1.51l-10.41-.13c-.48-1.3-1.49-4.03-.8-2.16l-18.21.51-3.39-6.27,8.1.47,5.68.67c2.7-1.53,5.94-2.57,9.12-2.1l4.31.63c1.07.16,1.91,2.65,1.93,3.61l-5.32,3.34,11.16-3.3c2.48-.74,5.29.41,7.13.5l11.98-.78,2.55,6.55c-1.93-.03-3.82-.97-5.1-3.6Z"/>
      <path class="st1" d="M87.88,175.47c13.59,1.43,17.08,8.92,20.33,8.98l-1.24,3.48-5.42-3.76c-2.16-.04-4.53-.17-6.25-.66l-5.31-1.53-7.1.72,1.25-3.52c.46-1.28,2.32-3.26,3.74-3.71Z"/>
      <path class="st1" d="M180.71,183.54l-3.65,3.86.35-3.29c.06-.57-2.1-1.2-2.71-1.11l-9.02,1.36c-.35.05-.48-.22-.27-.42l1.88-1.89-5.4-1.15c-2.59,1.65-5.12,1.92-8.16,1.09l-1.62.74c-.38.17-.68-1.91-.81-2.97l6.37-1.36c6.3-1.35,14.53-.3,20.6,2.42.82.37,1.89,2.19,2.45,2.72Z"/>
      <path class="st3" d="M174.71,175.73c2.03,1.68,5.48,4.18,8.52,3.31l2.59,5.69-1.71,2.04-3.39-3.23c-.56-.53-1.63-2.35-2.45-2.72-6.07-2.71-14.3-3.77-20.6-2.42,4.26-4,13.8-5.37,17.04-2.68Z"/>
      <path class="st3" d="M116.65,164.22l1.12,2.7-1.08-.42-.59,1.2-.72,1.94c-.19.52-1.91.48-2.56.5l-10.15.34,2.26-3.57,2.88.19,1.21.08c.25.02.51-.23.76-.4l1.8-.35,2.22-.98,2.86-1.23Z"/>
      <path class="st11" d="M130.44,165.98l-.24,3.72c-.94-.22-1.99-.43-1.94-.73l.43-2.49-6.53,1.15c-1.76.31-3.36.14-4.4-.71l-1.12-2.7c1.36-.58,4.32-1.5,5.78-1.62l8.02,3.39Z"/>
      <path class="st7" d="M138.57,192.95c.4,4.46-2.03,8.38-5.6,9.52l.76-7.67c.07-.7,1.57-2.3,2.08-2.77s2.7.23,2.76.92Z"/>
      <path class="st3" d="M86.02,174.03c-.9,1.44-2.95,2.05-4.4,2.02l-8.05.34c-.47.04-1-.87-.76-1.27s1.58-1.71,2.04-1.76l8.87-.96c.63-.07,2.44,1.57,2.29,1.63Z"/>
      <path class="st4" d="M109.78,166.78c-.24.17-.51.42-.76.4l-1.21-.08.36-2.52c.08-.39,1.5.13,1.53.52l.07,1.67Z"/>
      <path class="st4" d="M87.88,175.47c-1.42.46-3.28,2.43-3.74,3.71l-1.25,3.52-.48,1.17.57,1.43c-1.22-.12-1.54-.15-.76-.07l-.99-.65-2.82.26,3.99,2.91-3.9.11c-.35,0-.44.28-.34.59l.53,1.57.96.85-1.13.56-.34-.56-11.3-2.55c-1.87.5-4.94,1.18-7.55.84l-3.7,4.03-1.58-3.88-7.04,4.62,1.54-3.8-8.25,4.29c.43-2.03-.04-2.23-.89-.66l-2.13,2.08c-.3.29-1.45-.34-1.5-.75s.39-2.21.75-2.42l11.46-6.74c.47-.71,1.1-2.46,1.82-2.72l3.14-1.11-4.52-1.08c4.38-.67,7.33-1.31,10.75-3.32,1.63-.94,4.78.64,6.88,2.61l6.14-1.72.23,2.39c.04.37,1.51-.04,1.73-.34l1.14-1.61,1.53-2.17c.2-.28-1.15-.64-1.5-.61l-1.79.14,8.05-.34c1.45.03,3.5-.58,4.4-2.02.34.03.91,0,1.11.31l.75,1.13Z"/>
      <path class="st11" d="M113.79,165.44l-2.22.98,2.22-.98Z"/>
      <path class="st10" d="M185.96,173.76l-6.28-.23c-1.44-.05-4.14,1.3-4.97,2.2-3.24-2.69-12.78-1.33-17.04,2.68l-6.37,1.36c.13,1.05.43,3.14.81,2.97l1.62-.74c3.05.83,5.57.56,8.16-1.09l5.4,1.15-1.88,1.89c-.21.21-.08.48.27.42l9.02-1.36c.62-.09,2.77.54,2.71,1.11l-.35,3.29,3.65-3.86,3.39,3.23,1.71-2.04c.68,1.49,2.97,3.39,4.82,4.57l-1.75-4.17,4.26,1.73c.41-.22,1.37-.94,1.87-.7l2.67,1.3-2.26-2.79,6.88-1.77-2.63-5.42,7.33,1.08.5,3.83c2.13.41,5.57,2.08,5.21,3.57l-.53,2.21c-.1.42.96.56,1.66.69l-1.58,3.27,2.43,2.47c.81.83.78,3.16.35,4.25-.51,1.26-4.42,1.08-5.49.64l-.98.32-5.96,1.2c-.56.11-2.74.23-2.66.77l.49,3.08-5.8.14c-4.43.92-8.47,1.03-11.64-2.87l-7.6,6.15-1.92-1.78,2.44-3.12c-3.09-1.56-6.98-2.01-7.94.26l-2.37-1.11-4.17-.96-.2-2.84-3.06.76c-.51.13-.76-1.49-.92-2.43l-6.47.75-.54-2.15c-2.92,1.31-6.28,3.1-8.76,5.53l-7.65,7.5-3.63,4.31-4.63-2.43c4.09-5.65,3.96-13.19,2.76-19.85l-4.31,1.25-1.14-1.17c-.24-.25-.96.1-1.37.28l-3.66,1.64.06-4.26-4.32,1.6-.21-5.52-5.16-.1c-3.24-.06-6.74-7.55-20.33-8.98l-.75-1.13c-.2-.3-.77-.28-1.11-.31.15-.06-1.66-1.7-2.29-1.63l-8.87.96c-.46.05-1.8,1.36-2.04,1.76s.29,1.3.76,1.27l1.79-.14c.35-.03,1.69.33,1.5.61l-1.53,2.17-1.14,1.61c-.21.3-1.69.7-1.73.34l-.23-2.39-6.14,1.72c-2.1-1.97-5.24-3.56-6.88-2.61-3.41,2-6.37,2.65-10.75,3.32l4.52,1.08-3.14,1.11c-.72.26-1.35,2.01-1.82,2.72l-11.46,6.74c-.36.21-.79,2.01-.75,2.42s1.2,1.04,1.5.75l2.13-2.08c.85-1.58,1.32-1.38.89.66l8.25-4.29-1.54,3.8,7.04-4.62,1.58,3.88,3.7-4.03c2.61.33,5.69-.34,7.55-.84l11.3,2.55.5-.85-.53-1.57c-.1-.3,0-.58.34-.59l3.9-.11-3.99-2.91,2.82-.26,1.18-.71.48-1.17,7.1-.72,5.31,1.53c1.72.49,4.09.62,6.25.66l5.42,3.76,1.77,2.13c-.78.74-2.46,2.34-2.05,2.91l2.27,2.51-1.39,3.41-1.85-1.97c-.46-.49-1.49,1.04-2.03,2.06l-3.56-6.12-4.56,3.79-1.25-2.54c-.63-1.28-4.87,1.51-4.86,1.47l-.17,1.89-5.38-1.3-4.32,3-6.53,2.03c-.82.26-2.49,1.39-3.03.9l-1.87-1.71c-.76-.69-3.25-.72-4.61-.79-.9-.04-1.57,1.78-1.89,2.66l-5.02,2.2c3.17,2.09,6.6,3.67,10.02,3.72l.1,3.36c-4.79-.37-9.55-2.81-13.52-6.73l-8.29,1.05c-.52.07-2.59-.38-2.6-.83l-.09-2.65c-4.19,1.59-6.86,1.31-9.81-.07l-11.17-.34c-1.44-1.88.84-5.56,2.86-6.24l2.18-2.57c-1.15-1.79-1.25-4.53-.48-6.32l1.21-2.84,5.72-1.91.18-3.3c2.58-.36,6.07-.88,7.85-2.15,4.31-3.07,8.58-3.4,13.74-1.98-.08-1.28-.32-2.61.34-2.71l2.98-.45,5.18-1.14-9.57-3.31c1.85-2.73,4.63-4.73,7.79-5.79-.01-1.29.05-3.45,1.08-3.81,1.15-.4,3.41-1.01,4.35-1.07l2.74-.18c.48-.03-.08-1.57-.35-2.8l20.31-3.28,6.63-.89-4.29-1.94c2.4-3.69,6.46-5.55,11.54-4.36,1.5-4.77,6.11-5.62,10.68-4.47,6.01-4.28,7.89,3.62,12.14.56,3.17-2.27,6.21-.04,8.91.72,3.49.98,5.57,1.64,8.11,3.57l7.39,3.2-2.98,3.23c5.38,1.56,12.26-.72,16.93.55l7.74,2.1c.58.16,1.83,1.06,1.61,1.57l-.87,2.06,13.94,4.36-.75,3.56,5.75,4.89-8.95,2.42,3.1,2.51ZM162.35,157.97c1.28,2.63,3.18,3.57,5.1,3.6l-2.55-6.55-11.98.78c-1.84-.08-4.65-1.23-7.13-.5l-11.16,3.3,5.32-3.34c-.02-.96-.86-3.45-1.93-3.61l-4.31-.63c-3.18-.47-6.42.56-9.12,2.1l-5.68-.67-8.1-.47,3.39,6.27,18.21-.51c-.69-1.87.32.85.8,2.16l10.41.13c.95.36,2.67,1.81,3.57,1.51l3.48-1.16,11.69-2.4ZM116.65,164.22l-2.86,1.23-2.22.98-1.8.35-.07-1.67c-.03-.39-1.45-.91-1.53-.52l-.36,2.52-2.88-.19c-2.59-3.05-6.56-2.42-9.59.25-2.3-.24-5.74-.48-7.08,2.37,7.76,2.81,13.03.21,16.89,3.13l6.12.63c2.11.22,6.46-1.73,8.42-2.57l3.94,1.39,2.74-1.2,1.55,2.3c.45.68,2.45.24,3.72-.14,5.73-1.69,9.11,7.96,13.1.76l9.79.58c-2.51-2.79-5.84-4.65-9.57-5.25l-6.5-1.04c-2.95-.47-5.62-1.14-8-2.15l-8.02-3.39c-1.45.12-4.42,1.04-5.78,1.62ZM82.97,185.3l-.76-.07c-.78-.08-.47-.05.76.07ZM79.66,190.86l-1.13.56,1.13-.56ZM138.57,192.95c-.06-.69-2.26-1.39-2.76-.92s-2.01,2.07-2.08,2.77l-.76,7.67c3.58-1.14,6-5.06,5.6-9.52ZM207.69,199.35l1.31-.51-1.31.51Z"/>
      <path class="st11" d="M116.09,167.7l.59-1.2-.59,1.2Z"/>
    </g>
  </g>
</svg>