<?xml version="1.0" encoding="UTF-8"?>
<svg id="Layer_1" xmlns="http://www.w3.org/2000/svg" version="1.1" viewBox="0 0 205.33 242.06">
  <!-- Generator: Adobe Illustrator 30.6.0, SVG Export Plug-In . SVG Version: 2.1.4 Build 109)  -->
  <defs>
    <style>
      .st0 {
        fill: #181815;
      }

      .st1 {
        fill: #3e3d3a;
      }

      .st2 {
        fill: #d99d30;
      }
    </style>
  </defs>
  <path class="st0" d="M68.38,214.46l-5.99-6.75c4.19.46,6.62,2.19,10.76,5.41l-2.37-10.69c4.26,2.19,5.68,6.32,5.93,11.67l4.61-7.48-.65,9.57,5.21-4.7.05,4.37,5.15-1.33c-1.29-24.28,4.58-47.31,15.99-68.58,3.46-6.46,6.48-12.59,8.57-19.59,3.65-12.24.47-26.16-9.95-33.92-13.66-10.17-32.37-6.73-43.35,5.84-5.05,5.79-13.91,3.37-28.05,12.98-7.7,5.24-17.14,8.82-26.41,9.76-4.02.41-5.74-4.36-5.57-6.99.75-11.41,17.31-3.26,29.49-11.43s18.78-5.04,22.08-8.82c2.34-2.68-7.63-8.34-19.55-4.61-14.93,4.67-34.61,4.44-31.64-7.16.98-3.84,5.55-5.84,9.74-4.12,8.13,3.32,16.53,4.53,25.02,1.53,12.6-4.45,18.61,6.38,26.23,5,1.58-.29,3.9-3.17,3.61-4.81-1.03-5.85-6.4-9.68-12.06-10.91s-11.68-.77-17.64-.4c-7.96.49-14.75-2.71-21.64-6.23-2.58-1.32-5-3.51-5.31-6.14-.36-3.01,1.49-6.13,4.47-7.44,7.61-3.33,14.3,13.32,31.16,11.74,7.44-.7.27-13.56-11.34-20.1-2.67-1.5-5.7-4.16-7.21-6.58-2.36-3.79.33-7.85,3.08-9.33,3.93-2.11,7.21.1,9.87,3.22,6.22,7.3,11.85,14.59,15.42,23.42,2.63,6.52,8.2,9.44,14.11,12.23l8.02,3.79c3.63-4.4,1.64-9.15-1.84-12.16-12.75-11.06-8.95-22.09-21.63-36.28-2.82-3.15-3.01-7.61-.21-10.45,2.4-2.44,7.24-3.67,10.1-.53,10.1,11.09,5.76,23.83,11.52,31.43.77,1.01,3.68,2.28,4.85,1.98s2.91-2.03,3.63-3.37c9.22-17.09-5.56-32.42,4.51-36.96,3.21-1.45,9.08-.12,9.83,4.5,1.74,10.74.94,23.37-5.08,32.74-4.32,6.73-8.45,12.59-5.42,21.22.97,2.76.43,7.28-.26,10.46-1.12,5.19,3.86,7.23,7.56,6.69,4.48-.66,6.69-4.97,4.92-9.59-2.66-6.94-2.1-14.96,3.65-20.5,18.87-18.17,8.84-37.02,20.84-36.34,4.22.24,8.85,4.61,7.25,10-1.99,6.71-5.53,14.04-9.74,19.77-4.82,6.56-13.37,16.38-8.77,22.56.91,1.22,4.83,1.06,6.19.23l11.96-7.24c6.89-4.17,11.49-9.92,15.11-16.91,1.82-3.51,6.08-5,9.01-3.63,3.24,1.52,5.81,6.46,3.21,10.15-5.1,7.25-12.08,13.93-20,18.47l-11.21,4.86c-5.48,2.38-9.56,7.32-9.83,13.52-.12,2.64,2.59,6,4.73,6.36,2.9.49,5.51-1.2,7.01-3.95,6.21-11.44,20.12-5.2,35.7-20.25,2.66-2.56,7.04-3.18,9.65-.6,2.14,2.12,3.19,7.67-.48,9.98-5.18,3.25-11.47,7.44-17.92,8.51-10.9,1.79-22.48,6.32-26.21,18.15,4.87,10.36,8.29,21.97,5.39,33.68l-4.74,19.14c-3.46,13.97-4,27.99.19,41.67,2.68,8.73,8.51,20.11,17.37,22.09l-3.5-13.41,8.7,8.18-2.7-15.34c5.37,3.17,7.03,8.87,8.35,14.17,2.58-6.22,6.16-10.9,11.74-13.04l-6.38,13.19,11.03-3.86-6.97,8.65,6.27-.23c.52-.02.92,1.6.49,1.87l-2.86,1.76,3.21.83,1.7-.85c.78-1.1,1.31-2.25,2.36-4.96-.76.14.97-.55,1.12-.11l1.26,3.57c1.17-3.35,2.49-5.91,5.8-8.45l-2.45,9.57c2.89-3.02,4.82-4.75,8.4-5.78l-5.71,9.55,3.4-.91c.72-.19,1.53,1.45,1.99,2.39,3.61,1.11,6.99,1.93,11.02,3.93l-53.05.84,23.89,5.47c-9.6,1.77-18.72.65-28.57.9l-25.12.63,22.12,3.46c5.33.83,10.39.11,15.18,1.89l-46.42,1.35,3.87-2.25-13.58-.74-17.86.75,7.34,2.77-34.7-1.38,18.31-4.02,11.92-1.86-30.1.1-32.2-.12,20.51-4.9-46.48-.68c.22.66-.64-.89-.34-1.01l2.32-.91c2.57-1.01,4.08-2.61,4.86-5.13l1.96-1.48-1.84-3.26,9.48,2.47-7.49-11.53c5.01,1.35,7.92,3.79,11.72,7.41l-2.01-12.03c-.03-.16-.96-1.21-1.05-1.3-.6-1.14-.72-2.45.86-.82l.65.43c3.75,2.48,6.28,8.21,7.38,13.77,1.31-3.47,2.49-6.55,5.07-10.66l-.29,13.75c2.59-3.87,4.32-6.79,9.04-8.26l-5.29,7.54,7.17-4.16-1.05,3.24,5.11-.83-3.71,2.66,16.78-1.06,2.37-.25c.38-.04.4-.88.16-1.17l-1.8-2.21,5.91,1.08,1.98-1.02ZM166.09,210.53l-.02.65v.68l.02.65.02-.65v-.68l-.02-.65ZM67.23,216.35l1.53-.04-1.53.04ZM177.28,219.29l.96-.31-.96.31ZM16.09,220.52l-.5.5.5.5.5-.5-.5-.5ZM8.54,222.2l1.67-.08-1.67.08Z"/>
  <circle class="st2" cx="87.64" cy="115.62" r="18.68"/>
  <path class="st0" d="M24.62,147.68c-4.04,2.34-8.39-.07-9.63-2.97-1.55-3.62.24-7.99,4.37-9.41,7.65-2.63,13.6-6.89,19.83-12.32l11.02-9.61c.61-.53,2.84-.55,3.61-.35.96.25,1.22,3.54.48,4.42l-16.33,19.36c-3.7,4.38-8.32,7.97-13.35,10.88Z"/>
  <path class="st0" d="M159.49,100.68c-9.69-.96-15.62,8.06-17.57,5.22-3.23-4.68,4.2-13.24,13.65-13.39,15.56-.24,21.63-6.72,26.33-3.16,1.3.99,1.78,4.24,1.45,6.22-.9,5.31-14.2,6.07-23.86,5.11Z"/>
  <path class="st0" d="M179.78,121.89c-4.77-.05-9.19-.84-13.2-2.42-11.09-4.38-17.69,3.64-21.16,2.6-2.52-.76.69-12.51,17.23-11.44l16.06,1.04c2.82.18,5.14,1.87,5.59,4.48.35,2.03-1.67,5.77-4.52,5.74Z"/>
  <path class="st0" d="M72.48,182.64l-.21,1.67c-1.39-.5-4.51-.72-5.76-.22l-7.25,2.91,3.84,2.62-7.32-.48c-5.19,1.46-9.06,2.52-14.52,2.8l5.79-3.01-7.21-.92c-2.39-.91-5.19-.99-8.16-.72l5.48-2.89-12.01,2.7c-4.66,1.05-9.44,1.27-13.65.23l10-2.61c3.09-.81,6.92-1.84,9.58-3.48,6.31-3.9,12.67-2.79,18.44,1.42,9.62,7.01,15.42-3.54,22.98,0Z"/>
  <path class="st0" d="M170.64,141.38l-6.91-3.04c-5.71-2.52-11.84-2.98-17.01-.19-.64-.14-1.94-.85-1.88-1.36.76-6.39,11.06-9.19,17.77-7.29l10.45,2.96c1.63.46,3.38,3.68,3.11,5.29-.29,1.74-3.81,4.39-5.54,3.62Z"/>
  <path class="st0" d="M159.56,177.37c-.97.6-4.65-.87-3.86-1.42l2.5-1.74c1.34-.93-1.83-7.42-6.91-11.56,6.47-1.88,8.34,4.36,12.01,7.44,2.91,2.43,10.56,1.46,10.74,8.62-4.21-3.6-10.42-3.84-14.48-1.33Z"/>
  <path class="st0" d="M151.3,187.17c-6.06,1.55-11.69,2.15-17.78,1.2l13.86-3.93c1.86-.53,5.51.66,8.04,1.97l-4.11.75Z"/>
  <path class="st1" d="M185.26,190.76l-12.33.08c-3.12.02-6.21.34-9.06-1.63l10.82-.07c3.14-.02,6.84.7,10.57,1.62Z"/>
  <path class="st1" d="M72.27,184.31l.21-1.67c5.77,2.7,10.31,3.63,16.86,4.76-2.7,1.8-5.81.95-8.57-.04l-8.5-3.06Z"/>
</svg>