<?xml version="1.0" encoding="UTF-8"?>
<svg id="Layer_1" xmlns="http://www.w3.org/2000/svg" version="1.1" viewBox="0 0 372 374.58">
  <!-- Generator: Adobe Illustrator 30.6.0, SVG Export Plug-In . SVG Version: 2.1.4 Build 109)  -->
  <defs>
    <style>
      .st0 {
        fill: #d2ac6b;
      }

      .st1 {
        fill: #0d1c16;
      }

      .st2 {
        fill: #0d1c15;
      }

      .st3 {
        fill: #fcfaf7;
      }

      .st4 {
        fill: #da9e31;
      }

      .st5 {
        fill: #1b1e12;
      }

      .st6 {
        fill: #eccea0;
      }
    </style>
  </defs>
  <path class="st4" d="M140.15,287.92l-8,.96.17-2.93-14.21,1.14,6.81-2.9-8.85-2.69c-4.29.98-6.76.78-10.45.58,1.33-2.19,2.58-2.13,5.3-2.47l8.55-1.07c.8-7.18-1.95-13.49-8.2-16.42l-8.6-4.03,7.83-.88-1.74-6.65c-1.34-5.11-8.64-9.28-13.66-9.19l-9.8.18,2.94-3.72c-1.85-3.01-4.65-4.54-7.84-5.85-7.35-3.01-13.22-3.41-20.84-.57-4.44,1.65-8.63,3.82-7.72,10.17-16.62-3.84-25.11,15.76-24.54,16.6s2.81,2.08,3.82,2.18l8.13.86c-5.19,2.85-8.95,3.93-12.36,6.66C10.55,237.07,1.16,198.87,6.07,164.35c6.04,2.52,12.18,3.43,18.59,1.52l.64,4.1,12.65-2.04c.52-.08,2.49-.24,2.44.27l-.28,3.03c5.06.17,10.32-.31,15.78-1.52,5.77,5.21,12.44,8.93,20.39,9.55,10.19.79,5.47,10.64,17.13,14.06l15.66,4.58c4.86,3.91,11.54,9.68,14.05,15.32,3.16,7.08,5.34,12.4,10.43,18.17,13.31,15.09,8.18,38.02,6.61,56.53Z"/>
  <path class="st4" d="M342.86,253.62c-6.78,14.26-14.78,27.77-23.72,40.62l-4.78,6.88c-1.4.76-2.73.07-3.22-1.12-.95-2.29.4-3.71,3.17-4.14,2.02-3.74,2.84-9.09,3.98-13.81.95-3.95,1.04-6.2-.21-10.39-.8-2.69-2.02-6.62-5.22-6.33-3.56.32-6.13.05-9.04-1.44l4.27-4.5,10.6-6.93c12.58,7.28,23.9,1.09,22.05.59l2.11.58Z"/>
  <path class="st4" d="M70.76,323.91c-13.05-10.01-25.12-23.73-33.27-38.05l2.11-.82c.65-.25,1.66,1.94,2.4,2.18l11.72,3.75c3.43,1.1,4.78,3.86,6.76,6.38,6.76,8.57,10.17,13.45,10.28,26.57Z"/>
  <path class="st4" d="M221.8,367.92l-19.43,4.83c-5.29-6.18-13.46-2.03-17.24-5.26,12.75-.31,24.7-.09,36.67.43Z"/>
  <path class="st4" d="M105.77,367.3l-12.01.38c8.17-2.46,16.2-4.41,25.13-5-4.02,2.03-7.68,2.78-12.09,3.34-.32.25-1.35,1.06-1.03,1.29Z"/>
  <path class="st4" d="M108.7,367.18h1.29s-1.29,0-1.29,0Z"/>
  <path class="st0" d="M195.87,241.99l-.6,2.14-1.62.86c-2.31.48-5.28,1.93-7.09,5.26l19.38-.23c3.24,2.17,7.34,1.85,11.16.13l2.14-.3c.43-.06,1.11,1.3.71,1.48l-2.03.89c-.52.23-1.33,1.06-2.41,2.38,6.05.69,11.98.2,17.97,0,7.38,7.06,14.26,1.33,18.51,7.02,2.87,3.85,7.55,4.59,11,7.53,5.84,4.96,8.9,15.09,9.46,22.44l-31.83-.2-.87,1.29,32.3.53-9.29,1.57-22.25.33-39.67-1.24c-1.81-.06-4.79,1.26-5.87.29-3.93-1.72-7.13-1.18-13.72-3.56-8.04-2.91-16.5-4.24-24.23-1.89l-.07-2.66.05-1.48,1.53-22.48c.46-6.74.19-12.61,2.28-18.37,3.01.52,5.59,1.81,8.78,3.59,2.45.46,8.26-.56,10.31-2.06,3.18-5.17,12.22-6.81,15.98-3.24ZM230.92,284.9c.93,1.95,4.59,4.25,7.36,3.49-4.08-8.81-15.38-11.7-22.8-6.12,5.92-.15,12.97-2.53,15.44,2.63ZM224.96,290.95c5.34-.09,10.89,2.75,15.55-1.22l-32.35.26c-.14.42-.38,2.09.03,1.93s2.11-.73,2.61-.73l14.16-.24Z"/>
  <path class="st4" d="M139.98,289.88l-3.34,32.76-8.53-7.3-1.36,7.65c-1.86-5.42-3.93-8.6-7.87-12.87l-2.46,3.63-12.13-7.07,2.73,14.29-3.61,1.04c-.74.21-.16,2.67-.08,3.46l.41,3.93-7.18-3.88c-1.39-5.7-1.34-12.81-.79-20.01-7.46,6.86.68,19.97-5.95,21.97-.62.19-2.08-1.52-2.72-1.45-.8.1-1.78,2.35-1.82,3.19l-.18,3.77c-.04.89-3.01,1.21-3.56.51-2.34-2.97-4.62-19.24-2.65-26.64,1.2-4.53,3.66-9.84,6.1-13.68,2.36-1.8,6.61-3.82,7.71-6.28,7.25-.85,14.53.15,22.13.89l25.14,2.09Z"/>
  <path class="st0" d="M314.36,301.12l-1.61,2.09-9.69,9.85c-.88.89-2.44,2.51-2.38,3.5l-.65-.14c-.19-3.82-1.15-8-3.29-11.76l-.6,12.13-1.11,4.27-10.31,6.65c-.75.53-2.99,1.22-3.33.99l-.08-15.87-.89-7-.3-3.22,1.02-4.68c1.91-8.79,4.11-17.52,9.18-25.42,1.65-2.56,2.7-4.62,5.88-5.27,2.64-.54,6.11-1.77,7.61-3.36,2.91,1.49,5.48,1.76,9.04,1.44,3.2-.29,4.43,3.64,5.22,6.33,1.24,4.19,1.16,6.44.21,10.39-1.14,4.72-1.96,10.08-3.98,13.81-2.77.43-4.12,1.85-3.17,4.14.49,1.19,1.82,1.88,3.22,1.12Z"/>
  <path class="st4" d="M194.98,294.15l-5.17-.34c-.78-.05-2.21.52-3.5,1.23.86.34,2.91.86,3.75.85,3.84-.02,10.65.21,14.78.8l13.16,1.88-12.4.61c-.47,5.21,3.06,9.64,6.75,13l-2,6.34c-3.14-.08-4.78,1.42-7.32,4.73-1.68-1.4-3.02-3.97-3.72-7.49-1.17-.31-4.37-.2-6.85-.01l2.11-4.52c.38-.81-.78-2.74-1.32-3.41l-7.22,3.42c-.85.4-2.58,1.87-3.32,1.34l-3.25-2.32-3.08,10.43c-1.75-1.99-5.69-4.03-7.66-3.2l-8.06,8.38c-3.65-13.29-3.29-24.84-3.62-37.18,7.74-2.36,16.19-1.02,24.23,1.89,6.59,2.38,9.79,1.84,13.72,3.56Z"/>
  <path class="st4" d="M145.7,344.83l1.83-1.28c.34-.24.23-.89-.18-.81l-2.42.47-6.81-.49c-.17.18.91-.96,1.2-1.27s.35-.57-.06-.62c-6.08-.77-11.8,5.02-22.43,4.98l5.29-3.94c-2.66-.22-4.64.23-6.68.17l-6.53-.21-13.7,4.34c-2.23.7-6.47.54-9.52.3l10.12-2.58,9.31-2.83,2.16-4.17,2.43,2.55c.43.45,1.78-.82,2.31-1.21l2.5,1.37c.57.31,2.28-1.27,2.54-1.89l1.15-8.13,2.37,9.26c3.63-.38,4.92-.45,7.03.24,6.16,2.01,13.95-5.08,16.18-12.9l2.28,10.3,3.31-5.25c.68,1.42,3.02,4.83,4.54,6.43,7.93-.13,14.15.55,22.44,1.88l-.57-3.87,2.42,1.01c.51.21,1.45-.93,2.27-1.8.27,2.93,2.12,6.05,5.29,6.89l13.42,3.53c-3.29,4.18-7.61-2.98-11.78,3.6l-5.43-3.18-6.8-.1-7.47,1.33c.99-.88,1.89-1.66,1.97-1.7.07-.03-.52-.76-.76-1.03-1.79-2.01-4.8,5.43-10.24,4.72l4.37-3.08-12.29,1.9,3.44-2.81-8.5-.11Z"/>
  <path class="st3" d="M194.98,294.15c1.08.97,4.06-.35,5.87-.29l39.67,1.24c-.05.37.48,2.38-.08,2.23-.37-.1-2.6-.44-2.98-.38l-9.71,1.58,12.99.62c-.8,9.02-8.23,16.16-16.93,15.92-.66-.72-1.32-2.86-.98-3.91l2.47-7.6-1.6-1.26-7.25,11.7c-.53-.99-1.43-2.99-2-2.74l-2.1.93c-3.68-3.36-7.22-7.8-6.75-13l12.4-.61-13.16-1.88c-4.13-.59-10.94-.82-14.78-.8l-.25-2.08,5.17.34Z"/>
  <path class="st1" d="M274.48,347.2l-2.61-.29-1.39-.64-8.52-1.49-1.56.45c-.3.14-.33.41-.28,1.12-.25.21-1.03.55-1.35.61-2,.36-5.93.74-7.87.09-.03-.81-1.29-2.74-2.18-2.94l.6-3.03c.37-1.5,8.59.88,13.8-7.35l5.67,2,.91-5.79c3.76-.5,7.78,1.65,10.25,4.63-2.63.8-6.37,3.05-6.12,4.98l.66,7.64Z"/>
  <path class="st0" d="M140.15,287.92l-.17,1.96-25.14-2.09c-7.6-.74-14.88-1.73-22.13-.89,1.03-2.29,3-5.34,5.87-5.19l7.03.37c3.69.19,6.16.4,10.45-.58l8.85,2.69-6.81,2.9,14.21-1.14-.17,2.93,8-.96Z"/>
  <path class="st3" d="M281.4,328.71c.33.23,2.58-.46,3.33-.99l10.31-6.65-.69,11.7-2.09-1.86c-.37-.33-1.23,1.7-1.12,2.19l1.74,7.82-11.3-3.72-.17-8.47Z"/>
  <path class="st3" d="M300.68,316.57c-.05-.99,1.51-2.61,2.38-3.5l9.69-9.85-2.63,7.07-8.5,23.86-.95-17.58Z"/>
  <path class="st4" d="M248.72,344.12c.89.2,2.15,2.13,2.18,2.94-5.63-1.89-10.75-3.92-17.45-4.3l7.34,4.27c-.87.67-4.02,1.04-4.79.29-5.77-5.6-13.77.78-16.6.95-.45.03-1-1.54-.56-1.66l1.98-.56,2.67-.76c.41-.12.09-3.06.16-1.17l-3.16-.96,10.36-4.29-3.03,3.71c5.1.79,9.04-1.61,12.87-5.77l-2.66,4.93,10.69,2.38Z"/>
  <path class="st4" d="M270.48,346.27l1.39.64,2.61.29,8.47,2.64-13.55-.91,4.98,4.17-16.33-3.74.72-2.41c.32-.06,1.1-.4,1.35-.61l1.85-1.57,8.52,1.49Z"/>
  <polygon class="st4" points="263.79 357.94 245.87 356.24 255.47 352.46 263.79 357.94"/>
  <g>
    <path class="st4" d="M70.57,302.2c-2.97-3.42-6.84-7.34-7.99-11.64l-2.44-9.11,3.26-5.39c2.51,8.53,9.47,13.31,7.18,26.15Z"/>
    <path class="st4" d="M63.85,255.39l.85-.95c-.48.86-1.22,1.04-.85.95Z"/>
    <path class="st4" d="M64.7,254.45c.84-.94.49-.55-.85.95-2.76-3.01-5.27.86-7.36,1.45l-8.77,2.48c2.13-3.66,5.92-4.38,9.36-6.43,1.45-.86,3.99-3.54,5.62-3.56,1.72-.03,4.3,1.33,6.21,2.51l3.62-1.47,9.45,4.9-10.17-1.37c-1.68-.23-5.05.94-7.12.54Z"/>
    <path class="st4" d="M81.73,288.45c-1.04,3.7-2.52,6.84-5.07,9.78-.52-3.6-1.41-8.77-.4-11.71l4.09-11.87,4.22,3.71-2.84,10.09Z"/>
    <path class="st4" d="M45.78,284.69l5.7-2.93c.65.59,2.32,2.26,2.69,1.77l2.49-3.36,1.94,8.75c-5.5-1.45-8.34-2.33-12.82-4.22Z"/>
    <path class="st4" d="M94.12,281.48l-7.78,6.19c-.45-3.69.13-6.76,1.74-9.65,1.66-.06,3.35,1.11,6.04,3.46Z"/>
    <path class="st4" d="M46.11,267.12l-6.65,1.34c1.48-1.58,4.29-4.33,6.7-5.46,2.06-.97,7.29,1.57,8.87,2.44l-8.92,1.69Z"/>
  </g>
  <path class="st5" d="M300.03,316.42l-3.89.37.6-12.13c2.14,3.77,3.1,7.94,3.29,11.76Z"/>
  <path class="st4" d="M211.44,350.26l-5.58.25-.06-1.32,12.05-1.31c-.29,1.25-1.55,3.01-2.39,3.18-.94.19-2.25-.24-4.02-.79Z"/>
  <path class="st4" d="M211.6,335.78l-1.19,5.78-7.4.35c2.93-3,4.5-5.06,6.84-8.89l-1.85,7.62,3.6-4.86Z"/>
  <path class="st4" d="M188.95,335.89l-1.78,2.94c-.31.51-2.55-.52-2.98-.98l6.49-8.42c-.22,2.32-.96,5.19-1.72,6.46Z"/>
  <path class="st4" d="M272.46,291.57c.67,8.83.26,17.67-1,26.28l-1.77,12.1-.91,5.79-5.67-2-.74-4.39-5.61,3.76c.75-2.1,1.66-4.4,1.76-5.87l.43-6.5-8.56,5.26c.74-6.23,1.95-11.3,4.09-17.56l-9.49,8.66-2.69,8.3-1.41-4.16c-.99-2.91-5.07,4.39-9.46,6.68l-3.81-6.84c-1.05-1.89-2.45-4.53-3.81-6.01,8.69.24,16.13-6.9,16.93-15.92l-12.99-.62,9.71-1.58c.38-.06,2.61.29,2.98.38.56.14.03-1.86.08-2.23l22.25-.33,9.29-1.57-32.3-.53.87-1.29,31.83.2Z"/>
  <path class="st4" d="M352.32,233.66l-5.31-2.9c-5.85-3.2-11.9-5.54-18.91-3.83l9.78,2.35c-1.07.79-2.21,1.68-1.7,1.86l2.71,1c.52.19,2.76-.36,3.06.13l1.68,2.66,7,5.91c-3.36.63-8.87-2.94-12.14-4.9l.14,2.74c.03.53-2.02-.03-2.56-.19l-11.17-3.37-1.35-1.59c-.36-.42-2.11-.43-2.04-.28-.86,1.38-1.72,2.3-2.63,2.69-1.44.62-3.21-.78-3.91-3.09l-10.71,3.45c4.08-3.94,8.98-4.75,15.78-7.92-6.81-2.49-12.81-2.47-20.74-2.4l6.2-3.35c-4.76-.98-8.57.93-12.79,2.1-2.6-.29-7.76-2.25-10.3-1.45-1.41.44-3.05,3.1-4.12,2.76l-4.65-1.48,5.48-3.45-5.52.17,9.38-3.38-5.46-.24c-3.82-.17-8.26-.59-11.55-2.34,8.75.2,15.12.54,23.01-.2l-1.96-2.1c-2.1-2.24,4.67-.17,8.14-2.77l2,2.07c1.28,1.33,4.93-1.03,5.13-.08l.32,1.55c4.74-1.76,9.94-1.48,14.23,2.44l-4.93-.04,1.18,1.66c.25.35-.32,1.27-.74,1.21l-2.18-.3c-.51-.24-1.16-.6-1.36-.31l-.83,1.25c-.28.42,1.23,1.51,1.8,1.55l14.75,1.02,7.57,1.35c3.22.58,6.34.87,9.79.72-1.41-5.01-4.7-4.86-7.57-6.87-6.12-4.29-12.47-6.85-20.48-4.41.39-5.14-3.5-5.03-6.38-6.66-10.43-5.9-15.89-6.63-27.1-2.93-6.97,2.3-14.04,2.34-11.86,8.34-4.8-.75-10.05-1.18-14.79-.12l-14,3.13-2.85,3.14c-4.65.36-8.36,1.96-11.51,6.34l8.85,1.17-10.61,2.26c-2.4.51-5.42,2.09-7.67,2.89-4.06,1.46-7.74,2.39-11.61,4.94l2.65,3.19-11.07,3.21c-3.75-3.56-12.79-1.93-15.98,3.24-2.04,1.5-7.86,2.52-10.31,2.06-3.19-1.78-5.77-3.07-8.78-3.59,1.93-5.32,2.25-12.34,5.35-17.35l7.73-12.49c7.23-11.68,25.05-13.59,30.33-20.42l8.71-11.26c13.57-2.47,19.91-12.64,29.44-14.54,10.28,6.77,25.98,1.63,24.8-.09l-2.31-3.38,8.56.62-.12-2.86c5.64,2.22,10.8,2.65,15.33-.4.34-3.29-2.86-6.95-5.82-8.24l2.79-1.02c-.9.33-.98-5.94-1.41-6.21l-4.01-2.5c-.63-.39-3.08-1.49-2.61-2.05l2.13-2.5c-6.45-8.1-12.36-3.17-16.49-8.53-2.85-3.69-9.04-2.93-12.92-4.07l-11-3.22,12.29-2.31c-1.08-3.98-3.69-7.16-6.97-8.64l2.9-.87c1.59-.48-6.45-7.83-19.8-7.75l2.04-3.01c.86-1.26-9.69-5.82-14.58-5.98-3.87-.13-5.78.36-9.29-.94-2.73-1.01-8.22,1.05-10.88.65l-8.47-1.28,8.59-2.47c-3.04-4.23-11.49-7.72-17.25-8.07-5.11-.31-5.37-8.09-21.11-2.94-2.16-1.53-6.05-4.01-8.04-3.12-8.33,3.73-13.96-2.08-19.84,5.37-8.53-.45-12.86,3.16-19.23,8.83l8.92,3.04c-3.68,1.07-5.77.81-8.85.84l-8.12.08-11.62,1.43c-5.04.62-8.18,1.46-11.4,4.58-3.5.85-7.18,1.87-10.88,3.26l2.55,3.15c-7.48.66-12.61,6.23-14.06,12.28l6.04,2.14,6.06.56.55.5-9.53,1.27c-3.78,2.48-6.61.28-15.46,3.1-6.25,1.99-15.41,4.68-13.57,6.45l2.26,2.17-9.43,1.86c-4.01.79-6.51,3.93-8.2,7.63l-1.97,1.64c-.3.25.03,1.47.42,1.49l3.4.22-7.18,5.56c2.59-12.45,5.16-24.83,8.89-37.6,5.84-20.01,16.81-37.67,30.15-53.57C94.29,8.32,168.95-13.04,236.86,7.95c76.53,23.65,124.98,94.8,124.46,174.94-.11,17.62-4.12,34.28-9,50.77ZM252.5,69.82l-4.15,5.92,12.52-3.12c3.13-.78,6.5-.57,9.97-.11-.82-2.62-3.49-4.56-7.47-4.82,5.05-11.25,15.99-17,28.68-15.96-6.2-2.48-13.83-4.37-20.28-1.71s-9.99,8.79-13.08,14.88c-10.13-.3-15.92-9.97-25.22-4.31-4.51,2.74-8.58,5.98-12.04,10.17,12.26-4.53,18.63-8.28,31.06-.95Z"/>
  <path class="st2" d="M252.5,69.82c-12.43-7.33-18.8-3.58-31.06.95,3.46-4.19,7.53-7.43,12.04-10.17,9.3-5.66,15.09,4.01,25.22,4.31,3.1-6.09,6.69-12.24,13.08-14.88s14.08-.77,20.28,1.71c-12.69-1.03-23.63,4.71-28.68,15.96,3.98.26,6.65,2.19,7.47,4.82-3.47-.46-6.85-.67-9.97.11l-12.52,3.12,4.15-5.92Z"/>
  <g>
    <path class="st1" d="M350.63,240.84l4.22-.79,4.17-.08c.87-.02,1.19,1.35,1.42,2.8,4.21,1.85,8.16,3.22,11.55,7.17l-15.91.29-10.3-.14,2.33,1.95c.25.21.25.82.37,1.69l-5.63-.09-2.11-.58c1.85.51-9.47,6.69-22.05-.59l-10.6,6.93-4.27,4.5c-1.5,1.59-4.97,2.82-7.61,3.36-3.18.65-4.24,2.71-5.88,5.27-5.07,7.9-7.27,16.63-9.18,25.42l-1.02,4.68.3,3.22c-1.1-.32-4.07.48-3.8,1.47,1.03,3.74,4.41,3.53,3.05,11.31l-5.81,1.14c-.6.12-1.99-1.53-2.41-1.9,1.26-8.61,1.67-17.45,1-26.28-.56-7.35-3.62-17.48-9.46-22.44-3.45-2.93-8.13-3.68-11-7.53-4.25-5.69-11.13.04-18.51-7.02-5.99.21-11.93.7-17.97,0,1.08-1.32,1.89-2.15,2.41-2.38l2.03-.89c.39-.17-.29-1.54-.71-1.48l-2.14.3c-3.83,1.72-7.92,2.04-11.16-.13l-19.38.23c1.8-3.33,4.78-4.79,7.09-5.26l1.62-.86.6-2.14,11.07-3.21-2.65-3.19c3.87-2.54,7.55-3.48,11.61-4.94,2.25-.81,5.27-2.38,7.67-2.89l10.61-2.26-8.85-1.17c3.15-4.37,6.86-5.98,11.51-6.34l2.85-3.14,14-3.13c4.74-1.06,9.99-.63,14.79.12-2.18-6,4.89-6.04,11.86-8.34,11.21-3.7,16.67-2.96,27.1,2.93,2.88,1.63,6.77,1.52,6.38,6.66,8.01-2.44,14.36.12,20.48,4.41,2.87,2.01,6.16,1.86,7.57,6.87-3.44.15-6.57-.14-9.79-.72l-7.57-1.35-14.75-1.02c-.57-.04-2.08-1.13-1.8-1.55l.83-1.25c.19-.29.85.07,1.36.31l2.18.3c.42.06.99-.87.74-1.21l-1.18-1.66,4.93.04c-4.29-3.92-9.49-4.2-14.23-2.44l-.32-1.55c-.2-.95-3.85,1.41-5.13.08l-2-2.07c-3.46,2.6-10.23.53-8.14,2.77l1.96,2.1c-7.88.75-14.25.4-23.01.2,3.28,1.74,7.72,2.16,11.55,2.34l5.46.24-9.38,3.38,5.52-.17-5.48,3.45,4.65,1.48c1.07.34,2.72-2.31,4.12-2.76,2.54-.8,7.7,1.16,10.3,1.45,4.23-1.17,8.04-3.08,12.79-2.1l-6.2,3.35c7.93-.07,13.93-.09,20.74,2.4-6.8,3.16-11.7,3.97-15.78,7.92l10.71-3.45c.69,2.31,2.47,3.71,3.91,3.09.91-.39,1.77-1.32,2.63-2.69-.07-.15,1.68-.14,2.04.28l1.35,1.59,11.17,3.37c.54.16,2.59.72,2.56.19l-.14-2.74c3.27,1.96,8.78,5.53,12.14,4.9ZM272.89,219.73l-.55-.87-6.56.25.55.87,6.56-.25ZM298.33,225.92l-.5.5.5.5.5-.5-.5-.5ZM248.22,233.28l-5.33,4.4c5.51-1.45,9.42-2.29,13.6-2.55l8.48-2.35-11.2-4.87c-2.53,3.21-4.85,3.16-8.14,1.25l-8.82,2.12c3.05,1.03,2.17,2.08-.57,2.16l2.26,4.59c2.62-5.01,4.92-6.59,9.73-4.74ZM282.94,234.62c-6.04-4.32-12.94-6.63-16.89-2.47l16.89,2.47ZM285,251.89l.13-9.39c-5.24-1.74-8.07,7.04-8.18,14.53l8.05-5.14ZM268.42,245.89c-.02-1.12-2.74-2.51-3.59-1.62-.8.83-1.97,3.11-2.4,4.15-2.05-.61-4.92-1.12-7.67-1.15l9.57,8.11.71,8.03,7.92,8.5,1.41-9.04c-1.78-5.46-4.49-9.78-8.53-14.46l1.17-1.51,1.41-1.03ZM276.95,244.23l-6.77-.48,4.01,9.41,2.76-8.93ZM268.17,247.74l.55-1.19-.55,1.19ZM317.02,250.67c-2.36-2.87-4.59-3.13-6.2-1.86-2.75,2.18-4.36,4.56-5.21,8.22l11.41-6.36ZM248.2,255.35l-5.06-6.02-6.9,2.85c3.43,2.68,7.74,4.11,11.96,3.17ZM302.96,248.62c-5.18,2.49-8.56,8.51-10.04,14.12,10.76,1.12,13.32-15.7,10.04-14.12ZM256.46,253.18c-.55-.98-1.62-3.06-2.63-3.04l-4.91.11c1.01,6.09,4.66,10.12,11.59,10.13l-4.05-7.2ZM288.85,265.19c1.6-2.49,1.35-8.91,1.45-11.86-10.27,3.36-12.86,15.67-11.05,26.8l9.6-14.94Z"/>
    <path class="st5" d="M352.32,233.66l2.53,6.39-4.22.79-7-5.91-1.68-2.66c-.3-.48-2.54.07-3.06-.13l-2.71-1c-.5-.18.63-1.08,1.7-1.86l-9.78-2.35c7.01-1.7,13.05.63,18.91,3.83l5.31,2.9Z"/>
    <path class="st0" d="M288.85,265.19l-9.6,14.94c-1.81-11.13.77-23.44,11.05-26.8-.1,2.95.15,9.37-1.45,11.86Z"/>
    <path class="st4" d="M248.22,233.28c-4.81-1.85-7.1-.27-9.73,4.74l-2.26-4.59c2.75-.08,3.62-1.13.57-2.16l8.82-2.12c3.29,1.91,5.61,1.96,8.14-1.25l11.2,4.87-8.48,2.35c-4.18.27-8.09,1.11-13.6,2.55l5.33-4.4Z"/>
    <path class="st0" d="M302.96,248.62c3.28-1.58.72,15.24-10.04,14.12,1.48-5.61,4.86-11.63,10.04-14.12Z"/>
    <path class="st4" d="M285,251.89l-8.05,5.14c.11-7.49,2.94-16.27,8.18-14.53l-.13,9.39Z"/>
    <path class="st0" d="M256.46,253.18l4.05,7.2c-6.94,0-10.58-4.04-11.59-10.13l4.91-.11c1-.02,2.07,2.05,2.63,3.04Z"/>
    <path class="st4" d="M317.02,250.67l-11.41,6.36c.85-3.66,2.46-6.05,5.21-8.22,1.61-1.27,3.83-1.01,6.2,1.86Z"/>
    <path class="st0" d="M248.2,255.35c-4.22.94-8.53-.48-11.96-3.17l6.9-2.85,5.06,6.02Z"/>
    <path class="st4" d="M282.94,234.62l-16.89-2.47c3.95-4.15,10.85-1.84,16.89,2.47Z"/>
    <polygon class="st4" points="276.95 244.23 274.2 253.16 270.18 243.75 276.95 244.23"/>
    <polygon class="st4" points="272.89 219.73 266.33 219.98 265.78 219.11 272.34 218.86 272.89 219.73"/>
    <path class="st2" d="M280.13,302.61l1.02-4.68-1.02,4.68Z"/>
    <rect class="st4" x="297.98" y="226.06" width=".71" height=".71" transform="translate(-72.72 277.27) rotate(-45)"/>
    <path class="st4" d="M193.65,244.99l1.62-.86-1.62.86Z"/>
    <path class="st0" d="M267.01,246.92l-1.17,1.51c4.05,4.68,6.75,9,8.53,14.46l-1.41,9.04-7.92-8.5-.71-8.03-9.57-8.11c2.75.03,5.61.54,7.67,1.15.43-1.04,1.6-3.32,2.4-4.15.85-.89,3.57.5,3.59,1.62l.31.66-.55,1.19-1.16-.83Z"/>
  </g>
  <path class="st3" d="M230.92,284.9c-2.47-5.16-9.52-2.78-15.44-2.63,7.42-5.58,18.72-2.69,22.8,6.12-2.77.76-6.43-1.54-7.36-3.49ZM234.33,285.92l-1.1.5,1.1.59.5-.59-.5-.5Z"/>
  <path class="st6" d="M224.96,290.95l-14.16.24c-.5,0-2.2.58-2.61.73s-.18-1.51-.03-1.93l32.35-.26c-4.65,3.97-10.2,1.13-15.55,1.22Z"/>
  <path class="st0" d="M189.8,293.82l.25,2.08c-.84,0-2.89-.51-3.75-.85,1.29-.72,2.72-1.28,3.5-1.23Z"/>
  <path class="st2" d="M261.96,344.78l-1.85,1.57c-.04-.7-.01-.98.28-1.12l1.56-.45Z"/>
  <path class="st2" d="M271.87,346.91l-1.39-.64,1.39.64Z"/>
  <polygon class="st0" points="234.33 285.92 234.83 286.42 234.33 287.01 233.24 286.42 234.33 285.92"/>
  <g>
    <path class="st2" d="M160.8,243.71c-2.09,5.77-1.82,11.64-2.28,18.37l-1.53,22.48-.05,1.48.07,2.66c.33,12.34-.03,23.9,3.62,37.18l8.06-8.38c1.97-.83,5.92,1.21,7.66,3.2l3.08-10.43,3.25,2.32c.74.53,2.47-.94,3.32-1.34l7.22-3.42c.54.68,1.7,2.6,1.32,3.41l-2.11,4.52c2.48-.19,5.69-.29,6.85.01.71,3.52,2.04,6.09,3.72,7.49,2.54-3.32,4.17-4.81,7.32-4.73l2-6.34,2.1-.93c.57-.25,1.47,1.75,2,2.74l7.25-11.7,1.6,1.26-2.47,7.6c-.34,1.05.32,3.18.98,3.91,1.36,1.48,2.76,4.12,3.81,6.01l3.81,6.84c4.38-2.29,8.47-9.6,9.46-6.68l1.41,4.16,2.69-8.3,9.49-8.66c-2.13,6.26-3.35,11.32-4.09,17.56l8.56-5.26-.43,6.5c-.1,1.47-1.01,3.77-1.76,5.87l5.61-3.76.74,4.39c-5.21,8.23-13.43,5.86-13.8,7.35l-.6,3.03-10.69-2.38,2.66-4.93c-3.84,4.17-7.77,6.56-12.87,5.77l3.03-3.71-10.36,4.29,3.16.96c-.08-1.89.25,1.05-.16,1.17l-2.67.76-1.98.56c-.44.12.11,1.69.56,1.66,2.83-.18,10.84-6.55,16.6-.95.76.74,3.92.37,4.79-.29l-7.34-4.27c6.7.38,11.82,2.42,17.45,4.3,1.94.65,5.87.27,7.87-.09l-.72,2.41,16.33,3.74-4.98-4.17,13.55.91-8.47-2.64-.66-7.64c-.25-1.94,3.49-4.18,6.12-4.98-2.47-2.98-6.49-5.13-10.25-4.63l1.77-12.1c.42.36,1.81,2.02,2.41,1.9l5.81-1.14c1.36-7.78-2.02-7.57-3.05-11.31-.27-.99,2.7-1.79,3.8-1.47l.89,7,.08,15.87.17,8.47,11.3,3.72-1.74-7.82c-.11-.48.75-2.52,1.12-2.19l2.09,1.86.69-11.7,1.11-4.27,3.89-.37.65.14.95,17.58,8.5-23.86,2.63-7.07,1.61-2.09,4.78-6.88-4.4,28.77-2.96,16.33c3.84-6.06,7.26-10.79,12.83-15.65,2.36,3.66.18,4.71-.88,7.02l-3.83,8.39,1.69.38,6.21-10.63c2.39-4.09,5.86-7.96,10.29-8.63l-13.93,26.77c1.03.69,3.98,1.69,4.65.93l2.78-3.15c.73-.82,2.79-2.02,3.76-2.16.77-.12,2.24,1.81,2.63,2.18l10.36-2.13,2.87,3.94-5.99,3.88,7.73,1.19-.74,3.52c6.56,1.79,12.1,3.16,18.35,7.19l-62.29.2,12.31,4.57-51.19-3.81c-12.09-.9-23.94-.94-35.66-.29l6.45,1.5,17.83,4.92-36.21-1.58c-11.96-.52-23.92-.74-36.67-.43,3.77,3.23,11.95-.92,17.24,5.26-14.53,3.32-29.53,1.2-44.78.78l-30.96-.85,17-4.6-33.64-.92h-1.29s-2.94.12-2.94.12c-.32-.23.71-1.04,1.03-1.29,4.4-.55,8.07-1.31,12.09-3.34-8.93.6-16.96,2.54-25.13,5l-21.8.34-15.63.35,17.83-5.41-74.16-.59c7.19-3.1,13.25-5.19,20.03-7.11l18.23-5.17-3.47-2.83c-.41-.33.64-1.56,1.15-1.68l2.93-.69-7.01-8.05c6.61-1.58,10.87,1.12,15.44,4.16l.61-.8.37-6.69-2.05-8.55c4.6,1.78,8.87,5.05,11.29,9.04l2.5-6.35,3.38,9.78,1.84-2.85c.65-1.01,2.82,5.42,5.65,4.75l-.13-15.43c-.11-13.11-3.52-17.99-10.28-26.57-1.99-2.52-3.33-5.28-6.76-6.38l-11.72-3.75c-.75-.24-1.76-2.43-2.4-2.18l-2.11.82c-4.69-2.55-11.25-3.4-18.65-2.71,1.64-5.06,3.73-11.83,8.02-15.26,3.41-2.72,7.17-3.8,12.36-6.66l-8.13-.86c-1-.11-3.26-1.36-3.82-2.18s7.92-20.44,24.54-16.6c-.9-6.35,3.29-8.52,7.72-10.17,7.62-2.84,13.49-2.44,20.84.57,3.2,1.31,5.99,2.83,7.84,5.85l-2.94,3.72,9.8-.18c5.02-.09,12.32,4.08,13.66,9.19l1.74,6.65-7.83.88,8.6,4.03c6.26,2.93,9.01,9.24,8.2,16.42l-8.55,1.07c-2.73.34-3.97.28-5.3,2.47l-7.03-.37c-2.87-.15-4.84,2.91-5.87,5.19-1.1,2.46-5.35,4.48-7.71,6.28-2.44,3.84-4.9,9.15-6.1,13.68-1.96,7.4.32,23.67,2.65,26.64.55.7,3.52.38,3.56-.51l.18-3.77c.04-.85,1.02-3.1,1.82-3.19.64-.08,2.1,1.63,2.72,1.45,6.62-2-1.52-15.11,5.95-21.97-.55,7.2-.6,14.31.79,20.01l7.18,3.88-.41-3.93c-.08-.79-.66-3.24.08-3.46l3.61-1.04-2.73-14.29,12.13,7.07,2.46-3.63c3.94,4.27,6.01,7.45,7.87,12.87l1.36-7.65,8.53,7.3,3.34-32.76.17-1.96c1.57-18.51,6.7-41.44-6.61-56.53-5.09-5.77-7.27-11.09-10.43-18.17-2.52-5.64-9.19-11.41-14.05-15.32l-15.66-4.58c-11.66-3.41-6.94-13.26-17.13-14.06-7.95-.62-14.62-4.34-20.39-9.55-5.46,1.21-10.72,1.69-15.78,1.52l.28-3.03c.05-.51-1.92-.35-2.44-.27l-12.65,2.04-.64-4.1c-6.41,1.9-12.54,1-18.59-1.52.16-1.13,1.32-2.8,1.8-4.46l1.71-5.96,7.18-5.56-3.4-.22c-.38-.03-.72-1.24-.42-1.49l1.97-1.64c1.69-3.7,4.19-6.84,8.2-7.63l9.43-1.86-2.26-2.17c-1.84-1.77,7.32-4.46,13.57-6.45,8.85-2.82,11.68-.62,15.46-3.1l9.53-1.27-.55-.5-6.06-.56-6.04-2.14c1.46-6.05,6.59-11.63,14.06-12.28l-2.55-3.15c3.7-1.39,7.38-2.41,10.88-3.26,3.22-3.12,6.36-3.95,11.4-4.58l11.62-1.43,8.12-.08c3.08-.03,5.18.23,8.85-.84l-8.92-3.04c6.37-5.67,10.71-9.29,19.23-8.83,5.89-7.45,11.52-1.64,19.84-5.37,1.99-.89,5.88,1.59,8.04,3.12,15.74-5.15,16,2.63,21.11,2.94,5.76.35,14.21,3.84,17.25,8.07l-8.59,2.47,8.47,1.28c2.66.4,8.15-1.65,10.88-.65,3.51,1.3,5.42.81,9.29.94,4.88.17,15.43,4.72,14.58,5.98l-2.04,3.01c13.34-.07,21.39,7.28,19.8,7.75l-2.9.87c3.28,1.48,5.89,4.66,6.97,8.64l-12.29,2.31,11,3.22c3.88,1.13,10.07.37,12.92,4.07,4.13,5.35,10.04.43,16.49,8.53l-2.13,2.5c-.47.55,1.98,1.66,2.61,2.05l4.01,2.5c.43.27.51,6.54,1.41,6.21l-2.79,1.02c2.96,1.28,6.16,4.94,5.82,8.24-4.53,3.05-9.69,2.62-15.33.4l.12,2.86-8.56-.62,2.31,3.38c1.18,1.72-14.52,6.86-24.8.09-9.52,1.9-15.87,12.07-29.44,14.54l-8.71,11.26c-5.28,6.83-23.1,8.73-30.33,20.42l-7.73,12.49c-3.1,5.01-3.42,12.02-5.35,17.35ZM146.55,119.44c4.75-4.1,10.19-3.32,16.55.73-2.6-7.63-10.97-8.58-17.11-5.19l-9.5,5.23c3.83-.46,6.77-4.69,10.06-.77ZM62.33,118.92l-.5.5.5.5.5-.5-.5-.5ZM112.75,128.99l-7.14-1c-1.92-.27-5.01-2.19-6.7-3.48l-10.23,3.97c11.2-2.01,16.59,4.4,24.07.51ZM215.08,130.25l5.46,1.32-4.91-4.73-8.47,5.49,7.06-.57.86-1.5ZM230.08,134.9l3.11,1.8c.4.23,1.19-.85,1.25-1.2l-9.04-5.01-4.85,2.15,9.53,2.26ZM215.41,131.98l-.83.65c.38.5,1.15,1.43,1.78,1.35l2.67-.33-3.62-1.67ZM136.17,145.1l-.14-1.15.14,1.15ZM137.59,144.73l-.59.78c3.95,5.48-1.27,14.32,6.68,19.98,1.99-6.33,3.07-11.57,3.79-17.35l-5.17-2.03-.8,2.8-3.92-4.17ZM160.93,173.38c3.58-5.37,2.54-12.86,1.03-18.96-.65-2.64-6.02-3.51-9.09-4.03-.7-.35-1.78,2.08-1.73,3.32.03.81,1.31,1.69,2.81,2.74l-3.31,8.15c-2.85,7.02-2.32,14.39,2.18,20.93l8.11-12.15ZM112.82,157.67l-4.09-.9c-2.38-1.22-4.75-.57-8.69,1.63,2.48,3.12,5.62,6.07,9.77,9.2l.65-2.69c.36,1.41,3.4,3.21,4.43,3.1l3.67,4.11c1.67-4.38,3.66-11.33,4.28-15.68.15-1.03-2.09-3.97-2.85-3.5l-3.13,1.95-4.05,2.78ZM178.75,158.91c-.52-1.89-.76-3.11-1.6-3.64-.67-.43-3.77-.3-4.49.15-2.38,1.48-4.23,6.89-2.73,10.83l8.82-7.34ZM140.67,219.31l7.92,13.19c2.84-8.32,3.44-15.78,1.19-23.64l-8.35-29.18c-1.23-4.31-.99-7.76-3.79-11.54-2.96-4-6.26-7.64-10.19-11.17.21,10.21-5.41,17.34-1.72,27.06,5.42,14.27,3.79,28.03,11.29,31.95,1.78.93,2.52,1.46,3.65,3.33ZM161,215.04c7.55-6.33,10.98-13.52,14.17-21.8,2.23-5.79,5.88-10.54,9.72-15.28,4.17-5.16,6.75-11.18,10.14-17.47l-3.17-2.6-8.45,4.6c-3.95,2.15-7.74,5.09-10.5,8.66l-6,7.74c-3.68,4.75-6.49,10.67-9.07,16.05l3.16,20.11ZM202.51,165.83l.98-6.11-3.6-.55c-.54-.08-1.44,1.7-1.62,2.24l-2.52,7.51,6.77-3.08ZM91.99,164.43l-6.58-1.94-5.77,1.04c9.53,11.79,8.84,23.5,22.29,25.36,7.02.97,12.89,3.9,18.61,8.21-1.08-17.01-6.73-19.31-17.7-29.28l-8.73-2.61,2.93-1.29c.55-.1,2.08-.61,1.88-1.12-.14-.36-.48-1.8-.43-1.79.04.01-1.34.48-1.8.64l-4.69,2.78ZM81.99,176.23l-5.44-9.78-8.38-1.48.23,3.51-6.88.7c6.55,3.64,12.61,5.84,20.47,7.05ZM208.05,179.34l8.08-14.1-8.37.75-15.62,11.96c-6.07,4.65-9.23,11.51-10.53,19.47,13.25-4.29,19.56-5.8,26.43-18.08ZM231.66,168.05c-3.06-4.25-6.16.3-11.72-2.28l-4.69,11.14c6.81-2.94,10.43-5.05,16.41-8.86ZM155.06,260.02l5.65-27.42c-3.19,6.03-5.25,11.2-7.65,17.61.28,2.89,1.03,6.84,2,9.81ZM63.85,255.39c-.37.09.37-.09.85-.95,2.07.4,5.44-.77,7.12-.54l10.17,1.37-9.45-4.9-3.62,1.47c-1.9-1.18-4.49-2.54-6.21-2.51s-4.17,2.7-5.62,3.56c-3.43,2.04-7.22,2.76-9.36,6.43l8.77-2.48c2.09-.59,4.6-4.46,7.36-1.45ZM46.11,267.12l8.92-1.69c-1.57-.87-6.81-3.41-8.87-2.44-2.41,1.14-5.22,3.89-6.7,5.46l6.65-1.34ZM81.73,288.45l2.84-10.09-4.22-3.71-4.09,11.87c-1.01,2.94-.12,8.11.4,11.71,2.55-2.94,4.03-6.08,5.07-9.78ZM70.57,302.2c2.29-12.84-4.67-17.62-7.18-26.15l-3.26,5.39,2.44,9.11c1.15,4.3,5.02,8.22,7.99,11.64ZM94.12,281.48c-2.7-2.34-4.39-3.52-6.04-3.46-1.61,2.89-2.19,5.96-1.74,9.65l7.78-6.19ZM45.78,284.69c4.48,1.89,7.32,2.77,12.82,4.22l-1.94-8.75-2.49,3.36c-.36.49-2.03-1.18-2.69-1.77l-5.7,2.93ZM145.7,344.83l8.5.11-3.44,2.81,12.29-1.9-4.37,3.08c5.44.71,8.45-6.73,10.24-4.72.24.27.83,1,.76,1.03-.08.03-.98.82-1.97,1.7l7.47-1.33,6.8.1,5.43,3.18c4.17-6.58,8.49.58,11.78-3.6l-13.42-3.53c-3.17-.83-5.02-3.95-5.29-6.89-.82.87-1.76,2.01-2.27,1.8l-2.42-1.01.57,3.87c-8.29-1.34-14.51-2.01-22.44-1.88-1.52-1.61-3.86-5.02-4.54-6.43l-3.31,5.25-2.28-10.3c-2.23,7.82-10.02,14.91-16.18,12.9-2.1-.69-3.4-.62-7.03-.24l-2.37-9.26-1.15,8.13c-.26.62-1.96,2.21-2.54,1.89l-2.5-1.37c-.53.39-1.88,1.66-2.31,1.21l-2.43-2.55-2.16,4.17-9.31,2.83-10.12,2.58c3.04.24,7.29.4,9.52-.3l13.7-4.34,6.53.21c2.04.06,4.02-.39,6.68-.17l-5.29,3.94c10.64.04,16.35-5.74,22.43-4.98.4.05.34.31.06.62s-1.37,1.45-1.2,1.27l6.81.49,2.42-.47c.41-.08.52.57.18.81l-1.83,1.28ZM188.95,335.89c.77-1.27,1.5-4.14,1.72-6.46l-6.49,8.42c.43.47,2.67,1.49,2.98.98l1.78-2.94ZM211.6,335.78l-3.6,4.86,1.85-7.62c-2.34,3.83-3.9,5.9-6.84,8.89l7.4-.35,1.19-5.78ZM48.01,342.25l.8-1.64-.8,1.64ZM211.44,350.26c1.77.55,3.08.97,4.02.79.84-.17,2.11-1.92,2.39-3.18l-12.05,1.31.06,1.32,5.58-.25ZM263.79,357.94l-8.32-5.48-9.6,3.79,17.92,1.7Z"/>
    <path class="st2" d="M64.7,254.45l-.85.95c1.34-1.49,1.69-1.88.85-.95Z"/>
    <path class="st4" d="M140.67,219.31c-1.12-1.87-1.87-2.4-3.65-3.33-7.49-3.92-5.87-17.68-11.29-31.95-3.69-9.72,1.92-16.85,1.72-27.06,3.93,3.53,7.23,7.17,10.19,11.17,2.79,3.78,2.55,7.23,3.79,11.54l8.35,29.18c2.25,7.87,1.65,15.32-1.19,23.64l-7.92-13.19Z"/>
    <path class="st4" d="M161,215.04l-3.16-20.11c2.58-5.38,5.39-11.3,9.07-16.05l6-7.74c2.76-3.57,6.55-6.51,10.5-8.66l8.45-4.6,3.17,2.6c-3.38,6.29-5.97,12.31-10.14,17.47-3.84,4.75-7.49,9.5-9.72,15.28-3.19,8.28-6.62,15.47-14.17,21.8Z"/>
    <path class="st4" d="M91.99,164.43l2.11.77,8.73,2.61c10.97,9.97,16.63,12.27,17.7,29.28-5.71-4.31-11.58-7.24-18.61-8.21-13.44-1.85-12.76-13.56-22.29-25.36l5.77-1.04,6.58,1.94Z"/>
    <path class="st4" d="M208.05,179.34c-6.88,12.28-13.18,13.79-26.43,18.08,1.3-7.96,4.46-14.82,10.53-19.47l15.62-11.96,8.37-.75-8.08,14.1Z"/>
    <path class="st4" d="M160.93,173.38l-8.11,12.15c-4.5-6.53-5.03-13.91-2.18-20.93l3.31-8.15c-1.5-1.05-2.78-1.93-2.81-2.74-.05-1.24,1.03-3.67,1.73-3.32,3.08.52,8.44,1.39,9.09,4.03,1.51,6.11,2.56,13.6-1.03,18.96Z"/>
    <path class="st4" d="M136.17,145.1l-.14-1.15,1.57.78,3.92,4.17.8-2.8,5.17,2.03c-.72,5.79-1.8,11.03-3.79,17.35-7.94-5.66-2.73-14.5-6.68-19.98-.08-.11-.35-.2-.84-.41Z"/>
    <path class="st4" d="M114.9,168.01l-2.08-10.34,4.05-2.78,3.13-1.95c.76-.48,3,2.46,2.85,3.5-.62,4.35-2.61,11.3-4.28,15.68l-3.67-4.11Z"/>
    <path class="st4" d="M81.99,176.23c-7.85-1.21-13.92-3.41-20.47-7.05l6.88-.7-.23-3.51,8.38,1.48,5.44,9.78Z"/>
    <path class="st4" d="M231.66,168.05c-5.98,3.81-9.59,5.92-16.41,8.86l4.69-11.14c5.56,2.58,8.66-1.97,11.72,2.28Z"/>
    <path class="st4" d="M146.55,119.44c-3.29-3.92-6.23.3-10.06.77l9.5-5.23c6.15-3.39,14.51-2.44,17.11,5.19-6.36-4.05-11.8-4.83-16.55-.73Z"/>
    <path class="st0" d="M155.06,260.02c-.97-2.97-1.72-6.91-2-9.81,2.41-6.4,4.46-11.58,7.65-17.61l-5.65,27.42Z"/>
    <path class="st4" d="M178.75,158.91l-8.82,7.34c-1.5-3.95.35-9.36,2.73-10.83.72-.45,3.82-.57,4.49-.15.84.53,1.08,1.76,1.6,3.64Z"/>
    <path class="st4" d="M108.74,156.77l1.73,8.14-.65,2.69c-4.15-3.13-7.29-6.09-9.77-9.2,3.94-2.2,6.31-2.84,8.69-1.63Z"/>
    <path class="st4" d="M112.75,128.99c-7.48,3.89-12.87-2.52-24.07-.51l10.23-3.97c1.69,1.29,4.78,3.21,6.7,3.48l7.14,1Z"/>
    <path class="st4" d="M202.51,165.83l-6.77,3.08,2.52-7.51c.18-.54,1.08-2.32,1.62-2.24l3.6.55-.98,6.11Z"/>
    <path class="st5" d="M112.82,157.67l2.08,10.34c-1.03.11-4.08-1.69-4.43-3.1l-1.73-8.14,4.09.9Z"/>
    <path class="st4" d="M214.22,131.76l-7.06.57,8.47-5.49,4.91,4.73-5.46-1.32.33,1.73,3.62,1.67-2.67.33c-.63.08-1.41-.85-1.78-1.35l-.36-.87Z"/>
    <path class="st4" d="M230.08,134.9l-9.53-2.26,4.85-2.15,9.04,5.01c-.06.35-.85,1.43-1.25,1.2l-3.11-1.8Z"/>
    <path class="st5" d="M94.1,165.21l-2.11-.77,4.69-2.78c.45-.17,1.84-.63,1.8-.64-.05-.01.29,1.43.43,1.79.2.52-1.33,1.02-1.88,1.12l-2.93,1.29Z"/>
    <rect class="st4" x="61.98" y="119.06" width=".71" height=".71" transform="translate(-66.18 79.05) rotate(-45)"/>
    <path class="st4" d="M156.95,286.05l.05-1.48-.05,1.48Z"/>
  </g>
</svg>