<?xml version="1.0" encoding="UTF-8"?>
<svg id="Layer_1" xmlns="http://www.w3.org/2000/svg" version="1.1" viewBox="0 0 369.64 364.3">
  <!-- Generator: Adobe Illustrator 30.6.0, SVG Export Plug-In . SVG Version: 2.1.4 Build 109)  -->
  <defs>
    <style>
      .st0 {
        fill: #d2ac6b;
      }

      .st1 {
        fill: #fdfefd;
      }

      .st2 {
        fill: #fcfaf7;
      }

      .st3 {
        fill: #da9e31;
      }

      .st4 {
        fill: #1b1e12;
      }

      .st5 {
        fill: #12140f;
      }

      .st6 {
        fill: #eccea0;
      }
    </style>
  </defs>
  <path class="st6" d="M75.88,361.34l-4.05-.23,4.05.23Z"/>
  <g>
    <path class="st6" d="M173.95,346.25l.4,2.4c.14.56,1.91.98,2.53.98l11.25-.09-3.42-1.67c6.34-.52,12.54.04,19.24,1.95l6.83-2.26,2.63-.64c.32-.08.18-.46.07-1.04l45.25.24,6.09.91c3,.45,5.12-.22,7.71,2.11l-12.7-.66c-3.63-.19-7.11.19-10.08,1.78l14.08.79,16.22,3.49-40.06-.16c-9.53,3.77-18.75,5.99-28.28,7.39-2.45-1.86-6.18-2.94-9.72-2.88l-33.3.57c-1.84.03-5.61,1.31-6.72,2.17l-29.48-7.27-26.16-1.07-14.1.19-74.5.61,29.43-8.21c6.43-1.79,11.86-3.83,18.88-4.23,2.59-.15,5.92-1.4,8.99-2.77l-37.19-1.01,13.68-2.78,8.7-1.71-3.69-1.47,11.52-2.04-29.38-.68c.7-.49,3.14-1.22,4.18-1.28l32.71-1.85c5.09,1.64,10.52,1.32,15.88.85,8.35,8.02,17.9,13.84,27.74,19.41,3.21,1.81,3.52.85,6.68.8l48.09-.89ZM108.01,342.65c-6.26-4.02-13.98-4.16-20.49-.05l20.49.05ZM103.85,352.56l2.23-2.53,10.99-1.45c-.76-.65-2.33-1.56-3.08-1.51l-9.33.6,5.73-2.32-21.51.17-17.9.62-12.79.81c2.37,3.73,5.5.72,7.81.79l15.94.48h13.29c.42-.01,1.78.23,2.19.34s.94,1.12.59,1.36l-2.54,1.8,8.39.82Z"/>
    <path class="st6" d="M317.43,343.42l1.83,4.08c3.93-3.78,7.18.04,12.53-1.74.54.13,1.51.8,1.06,1.07l-2.28,1.34,23.26,5.46c1.83.53,3.77,1.29,5.53,2.41l-73.38-1.74-12.3-4.61c5.51-5.68,17.09.76,28.29-1.35-2.93-1.46-5.12-1.17-8.26-1.75l-8.96-1.64-20.62-.6c-.57-.02-2.4-.49-2.42-.95l23.16-13.68c-.13.34,2.22,1.02,2.97,1.25,10.83-.61,21.52-.29,31.86,1.78l19.32,4.45-14.07-.27-24.17,1.05,16.64,5.43Z"/>
    <path class="st6" d="M356.03,328.57l-66.97.11-2.23-1.12c9.78-10.88,23.24-8.4,37.44-3.66l9.2.98,22.56,3.69Z"/>
    <path class="st4" d="M211.72,361.77c-10.8,1.47-22,3.49-33.32,2.01l-16.42-2.15c1.12-.85,4.88-2.13,6.72-2.17l33.3-.57c3.54-.06,7.28,1.02,9.72,2.88Z"/>
    <path class="st6" d="M327.12,363.37c-19.88-2.7-38.25-4.26-58.4-3.06l26.14-3.57c10.92,2.44,21.55,2.46,32.26,6.63Z"/>
    <path class="st6" d="M110.78,358.75c-11.75,1.33-22.44,1.93-34.12,1.56,11.06-2.25,22.3-3.89,34.12-1.56Z"/>
    <path class="st2" d="M85.04,79.38l4.39-2.58c-3.61-4.65-7.96-6.56-13.9-6.46,7.25-5.46,16.12,5.76,16.85,4.63l1.88-2.9c3.74-5.78,9.96-10.98,15.97-6.86-5.15-.16-8.69.51-11.4,4.43l-4.25,6.14,2.67,3.51c-4.8.44-7.11.45-12.2.09Z"/>
    <path class="st2" d="M118.01,101.33l2.86-2.33c.3-.25-4.23-7.14-13.55-4.75,5.69-5.13,11.57-1.18,16.74,3.43,2.62-7.58,9.37-13.21,15.96-9.38-5.46-.31-8.94,1.58-11.52,6.1l-1.71,2.99c-.47.82.96,2.43,2.1,3.98l-5.86.65c-1.11.12-3.79-.49-5.03-.68Z"/>
    <path class="st2" d="M104.1,132.27l-5.44,2.67c-.85-1.65-1.84-4.31-3.09-4.59s-3.71-.14-5.74-.12c.65-.9,3.25-2.69,4.49-2.35,1.41.39,3.2,1.43,5.39,2.75l3.56-5.63c1.75-2.76,5.81-4.93,8.64-2.98-3.45.56-6.51,2.1-8.2,5.35l-1.5,2.89c-.32.61,1.57,1.87,1.88,2.02Z"/>
    <path class="st2" d="M70.47,109.3l1.98,1.3c.69.46,4.23-10.19,12.4-6.52-2.53.27-5.74,1.02-7.32,2.69-2.52,2.67-2.46,4.64-2.97,9.76l-4.89-6.13c-.18-.42-.23-.73-.43-.79l-7.5-2.49c2.81-1.48,6.58-.57,8.71,1.64l.02.54Z"/>
    <path class="st2" d="M294.32,90.94c-3.03-3.04-4.91-3.47-9.25-2.46,1.7-2.26,4.88-3.08,8.11-1.5l4.64-2.7,8.16,3.31-8.6-1.01-3.05,4.36Z"/>
    <path class="st2" d="M285.05,98.37l-9.01.53c-4.18-3.26-7.93-1.81-13.36-1.45,3.96-2.68,8.49-1.71,13.21-1.5l8.82.4.33,2.02Z"/>
    <path class="st1" d="M220.49,57.27l-10.82.14,6.93-2.49c3.44-1.24,6.06-1.76,10.75.22-1.47.54-5.05,2.11-6.86,2.13Z"/>
    <path class="st2" d="M250.24,80.7l-9.46-.5,9.48-1.64,4.07,2.25c1.58.87,3.19-6.91,10.75-5.83l-6.06,3.77-5.36,4.77-3.42-2.83Z"/>
    <rect class="st2" x="60.05" y="107.8" width=".71" height=".71" transform="translate(-58.79 74.39) rotate(-45)"/>
    <rect class="st2" x="74.05" y="70.8" width=".71" height=".71" transform="translate(-28.52 73.45) rotate(-45)"/>
    <rect class="st1" x="301.05" y="57.8" width=".71" height=".71" transform="translate(47.15 230.16) rotate(-45)"/>
    <path class="st6" d="M163.03,335.38c.29,1.18.81,3.37,1.81,3.33l5.08-.23,21.12.25,13.87-1.08,15.98,1.35.94-3.72,49.9-.04-10.95,6.82-111.83.5-2.74.52c-.38.07-.13-1-.17-1.45,1.34-.16,4.48-1.82,4.98-2.28l-2.95-1.41c-.68-.33-1.05-1.64-1.04-2.53l16-.02Z"/>
    <path class="st2" d="M221.84,335.28l-.94,3.72-15.98-1.35-13.87,1.08-21.12-.25-5.08.23c-1,.04-1.52-2.15-1.81-3.33l58.81-.1Z"/>
    <path class="st0" d="M147.04,335.4c-.01.9.36,2.21,1.04,2.53l2.95,1.41c-.5.45-3.64,2.12-4.98,2.28-6.22.74-13.82,1.08-20.92-.78l11.08-1.93c-10.31-2.83-23.1.9-26.39-3.14l37.22-.38Z"/>
    <path class="st2" d="M213.49,345.88c.11.58.24.96-.07,1.04l-2.63.64-6.83,2.26c-6.7-1.91-12.91-2.47-19.24-1.95l3.42,1.67-11.25.09c-.62,0-2.39-.41-2.53-.98l-.4-2.4,39.54-.37Z"/>
    <polygon class="st6" points="201.51 332.89 168.51 332.68 170.79 331.63 200.96 331.65 201.51 332.89"/>
    <path class="st6" d="M357.64,200.58c-10.69-6.79-18.49-4.49-31.14.57l.12-3.19,4.91-5.94c-.42-1,1.88-1.59,3.36-1.67.32-.09,1.08-.98.74-1.13l-3.25-1.41,7.41-1.55-2.18-2.83,6.05-4.1c-10.46-1.72-18.17,2.87-26.56,9.69l4.39-7.93-2.78-1.91,5.68-5.01-4.53-.27,6.45-8.14c-6.24,1.58-9.41,4.38-13.34,8.61-5.42-5.28-4.12-10.25-13.44-10.75.53-.46-.18.15-.72.63-.48,2.61-3.94-2.7-11.38-1.25l5.82,4.24-2.74,2.14,5.58,2.7,1.59.93-1.94.58-.67-.32-1.64-.32c-.51-.1-2,.7-1.59,1.02l2.05,1.65,1.95,1.57c.5.4-1.33,2.03-1.18,1.88,1.37,2.38,1.73,3.63,2.16,6.31.46,2.83,4.37,5.97,1.58,9.6-3.19-5.82-7.62-11.86-14.26-14.43-5.25-2.03-12.08-.08-16.44,2.68l-2.11,3.53-45.81-2.5-2.56-38.56c3.48-3.85,3.84-7.86,1.4-12.24.05-1.48.12-5.24-1.12-5.73l-5.78-2.24c-1.66-7.41-6.18-13.02-10.86-18.83-4.27-5.3-2.16-13.75-2.26-19.94-.06-3.8-3.91-7.67-6.32-9.57l-1.05-.77-1.4-7.07c-.67-4.03,1.36-9.29-1.19-13.36-1.82,7.18.99,14.92-3.77,20.7-2.32,2.82-6.79,5.49-6.44,10.02.29,3.8.54,8.06.09,11.8l-.86,7.16c-5.08,5.29-10.81,10.92-11.73,18.96l-7.43,4.06-1.71,10.09c-.31,1.82,1.6,5.24,2.72,6.99l-2.85,38.86-49.72,1.38c-3.48-2.55-8.59-6.24-12.83-5.71-6.09.76-10.26.49-17.11-1.1l6.22-5.06-2.59-2.08,3.1-2.09c.55-.37-1.82-2.1-2.1-2.3l5.28-4.71-8.32.81c-.23-.09-1.1-.8-1.55-.69l-2.84.71c-2.53.63-4.09,1.4-5.67,3.35l-4.88,5.99-2.15-3.4c-.44-.69-2.32-.33-3.17-.42l-8.34-3.92,5.11,7.83-4.33,1.42,5.44,3.78-3.02.93c-.64.2,1.37,2.47,1.43,2.57l-1.29,6.07c-2.83-2.98-7.14-7.73-11.01-7.72h-14.26s8.24,4.1,8.24,4.1l-3.82,2.22,7.14.34-4.7,2.19,7.29.68-3.3,3.17,6.47,2.16-2.61,1.18c-.36.16.54,1.15.94,1.19l2.96.34-.85,4.73c-9.67-2.52-19.83-1.92-26.51,4.51l-6.02,5.79c-9.16-49.15,1.33-100.05,30.98-140.81C106.69-13.85,229.31-24.9,305.18,49.49c-.54.95-2.14,3.1-2.93,2.78l-3.76-1.54-3.64,1.76-2.2-7.12c-.68-2.2-6.8-4.34-13.53-1.8l-2.83,1.07c-.78.3.06-2.61.03-3.57-.18-6.58-7.17-11.22-13.03-11.67-6.82-.52-14.9,5.07-15.5,10.5-.09.79.89,3.01,1.06,3.56.22.74-1.05,1.84-1.85,2.27-2.84-2.17-5.89-3.29-9.33-1.97-2.31.89-4.18,4.2-4.44,6.76l-3.7-.79c-.96-.2-2,3.17-2.06,4.57,5.3,3.04,10.13-1.69,14.52-.38.55.16,1.15,1.57.82,2.04l-2.11,3.01,7.45-2.86c9.22-1.16,12.41-8.82,18.4-2.93,1.93,1.89,5.13,2.98,7.49,2.91l.7-1.25c2.02-3.38,7.35-1.5,10.25.68l13.58,2.94,2.13-2.67c1.34-1.68,6.68,3.59,13.25,2.87,20.56,23.28,34.17,51.45,41.02,81.93,4.53,20.18,4.39,40.07,2.65,59.98ZM220.49,57.27c1.81-.02,5.39-1.59,6.86-2.13-4.69-1.98-7.31-1.45-10.75-.22l-6.93,2.49,10.82-.14ZM276.87,55.77l-2.29.84,2.29-.84ZM301.4,57.66l-.5.5.5.5.5-.5-.5-.5ZM85.04,79.38c5.09.37,7.4.35,12.2-.09l-2.67-3.51,4.25-6.14c2.71-3.92,6.26-4.59,11.4-4.43-6.01-4.12-12.23,1.08-15.97,6.86l-1.88,2.9c-.73,1.13-9.6-10.09-16.85-4.63,5.94-.1,10.29,1.82,13.9,6.46l-4.39,2.58ZM74.4,70.66l-.5.5.5.5.5-.5-.5-.5ZM250.24,80.7l3.42,2.83,5.36-4.77,6.06-3.77c-7.56-1.09-9.17,6.7-10.75,5.83l-4.07-2.25-9.48,1.64,9.46.5ZM294.32,90.94l3.05-4.36,8.6,1.01-8.16-3.31-4.64,2.7c-3.23-1.58-6.41-.76-8.11,1.5,4.35-1.02,6.22-.59,9.25,2.46ZM118.01,101.33c1.24.19,3.92.8,5.03.68l5.86-.65c-1.14-1.55-2.57-3.15-2.1-3.98l1.71-2.99c2.58-4.53,6.05-6.41,11.52-6.1-6.59-3.83-13.34,1.8-15.96,9.38-5.17-4.61-11.05-8.55-16.74-3.43,9.32-2.38,13.86,4.51,13.55,4.75l-2.86,2.33ZM285.05,98.37l-.33-2.02-8.82-.4c-4.72-.21-9.25-1.18-13.21,1.5,5.43-.37,9.18-1.81,13.36,1.45l9.01-.53ZM69.67,110.41l4.89,6.13c.51-5.12.45-7.09,2.97-9.76,1.58-1.67,4.79-2.42,7.32-2.69-8.17-3.67-11.71,6.97-12.4,6.52l-1.98-1.3-.8,1.11ZM70.46,108.76c-2.13-2.2-5.9-3.12-8.71-1.64l7.5,2.49,1.21-.86ZM60.4,107.66l-.5.5.5.5.5-.5-.5-.5ZM104.1,132.27c-.31-.15-2.2-1.41-1.88-2.02l1.5-2.89c1.69-3.25,4.75-4.79,8.2-5.35-2.84-1.94-6.9.22-8.64,2.98l-3.56,5.63c-2.19-1.32-3.98-2.36-5.39-2.75-1.24-.34-3.84,1.45-4.49,2.35,2.03-.02,4.49-.16,5.74.12s2.23,2.95,3.09,4.59l5.44-2.67ZM299.22,162.74l-1.16.51,1.16-.51Z"/>
    <path class="st2" d="M103.85,352.56l-8.39-.82,2.54-1.8c.35-.25-.19-1.25-.59-1.36s-1.76-.35-2.19-.35h-13.29s-15.94-.47-15.94-.47c-2.3-.07-5.43,2.94-7.81-.79l12.79-.81,17.9-.62,21.51-.17-5.73,2.32,9.33-.6c.76-.05,2.32.86,3.08,1.51l-10.99,1.45-2.23,2.53Z"/>
    <path class="st2" d="M108.01,342.65l-20.49-.05c6.51-4.11,14.23-3.97,20.49.05Z"/>
    <g>
      <path class="st4" d="M188.19,140.11c-.09.11-.6-.13-.74-.15l-3.7-.39c.41-.62,1.97-1.4,2.61-1.02l1.82,1.56Z"/>
      <path class="st4" d="M191.22,76.37c-2.58.93-3.28,4.06-2,7.19l7.22,1.99-4.04-6.89c-.4-.68-.87-1.48-.13-1.51,2.41,1.91,6.26,5.77,6.32,9.57.1,6.19-2.01,14.64,2.26,19.94,4.68,5.8,9.2,11.42,10.86,18.83l5.78,2.24c1.25.48,1.18,4.24,1.12,5.73,2.44,4.38,2.08,8.39-1.4,12.24l2.56,38.56,45.81,2.5,2.11-3.53c4.35-2.77,11.19-4.71,16.44-2.68,6.65,2.57,11.07,8.61,14.26,14.43,2.79-3.63-1.13-6.77-1.58-9.6-.43-2.68-.79-3.93-2.16-6.31-.15.15,1.68-1.48,1.18-1.88l-1.95-1.57-2.05-1.65c-.41-.33,1.08-1.12,1.59-1.02l1.64.32,1.01-1.18-5.58-2.7,2.74-2.14-5.82-4.24c7.45-1.45,10.91,3.86,11.38,1.25l-.74-.99,1.16-.51.31.88c9.32.5,8.02,5.47,13.44,10.75,3.93-4.22,7.1-7.03,13.34-8.61l-6.45,8.14,4.53.27-5.68,5.01,2.78,1.91-4.39,7.93c8.39-6.82,16.11-11.41,26.56-9.69l-6.05,4.1,2.18,2.83-7.41,1.55,3.25,1.41c.34.15-.42,1.04-.74,1.13-1.47.07-3.78.67-3.36,1.67l-4.91,5.94-.12,3.19c12.65-5.06,20.45-7.35,31.14-.57.36.29,1.06.85.79,1.06l-1.12.87c-4.92-1.26-9.81-1.28-14.81-.52l1.42,4.15.48.49.98.27.47.37-.76,1.28-.78-.75-.57-.55h-.55s-7-.21-7-.21l2.88,4.01-8.22-1.26,1.28,3.34c.3.79-4.56.05-4.74.99l-.44,2.28c9.17.03,18.22,2.69,26.07,8.2,9.19,6.46,7.68,9.45,9.97,14.01,1.57,3.13,2,7.21,1.94,11.04l-7.28-5.29-7.15,6.97,6.06,1.94-6.1,5.55c6.77-.88,12.86,1.13,16.57,5.64.17,1.47.63,4.17,1.41,5.31,2.5,3.66.92,10.12-3.18,9.59l-8.54-7.02-1.03.85,1.68,4.89c2.4,6.97.99,13.96-4.86,18.05l-2.61-7.42-4.66-10.77c.28,15.27.29,29.46-5.11,43.3,10.49,1.85,18.83,3.94,27.98,7.71l-12.1-.39-22.56-3.69-9.2-.98c-14.2-4.73-27.66-7.21-37.44,3.66l-1.94,2.16-23.16,13.68-2.98,2.72-45.25-.24-39.54.37-48.09.89c-3.16.06-3.47,1.02-6.68-.8-9.85-5.57-19.4-11.39-27.74-19.41-5.37.46-10.79.79-15.88-.85l-32.71,1.85c-1.05.06-3.48.79-4.18,1.28l-9.87.17-15.91.09c-4.38.02-8.1,1.12-12.88-.19l32.49-8.98c-4.87-12.8-4.72-24.77-4.73-37.77-1.82,1.16-2.31,3.26-2.55,5.94.19.1-2.04-1.28-2.06-.73l-.11,3.67c-.51.39-1.93.68-2.07,1.45l-.71,4.05c-7.28-6.03-6.67-15.84-.29-24.28-3.79.63-7.38,3.64-10.17,6.82l-5.08.05c-1-4.55.25-9.89,3.16-14.15s8.51-5.46,14.38-5.44l-5.34-6.4,5.81-.91-4.81-7.08-4.63,4.27-4.92,2.13c.02-7.67,3.29-15.41,8.73-20.59,6.35-6.05,13.59-10.41,22.2-13.23l-5.59-3.05c3.06-2.27,5.14-5.33,5.08-9.46-3.9,2.47-6.38,5.76-8.03,9.66l-5.76-1.73-5.87,4.11,1.57-3.96-6.63,2.9-3.39,1.06c.85-1.75,1.73-3.98,2.6-4.81l6.02-5.79c6.69-6.43,16.85-7.03,26.51-4.51l.85-4.73-2.96-.34c-.39-.04-1.3-1.03-.94-1.19l2.61-1.18-6.47-2.16,3.3-3.17-7.29-.68,4.7-2.19-7.14-.34,3.82-2.22-8.24-4.09h14.26c3.87-.01,8.18,4.74,11.01,7.71l1.29-6.07c-.07-.1-2.07-2.37-1.43-2.57l3.02-.93-5.44-3.78,4.33-1.42-5.11-7.83,8.34,3.92c.85.1,2.73-.27,3.17.42l2.15,3.4,4.88-5.99c1.58-1.94,3.14-2.72,5.67-3.35l2.84-.71c.45-.11,1.32.6,1.55.69l8.32-.81-5.28,4.71c.28.19,2.65,1.92,2.1,2.3l-3.1,2.09,2.59,2.08-6.22,5.06c6.85,1.59,11.01,1.86,17.11,1.1,4.24-.53,9.36,3.16,12.83,5.71l49.72-1.38,2.85-38.86c-1.12-1.75-3.03-5.17-2.72-6.99l1.71-10.09,7.43-4.06c.92-8.04,6.65-13.67,11.73-18.96l.86-7.16c.45-3.74.2-8-.09-11.8-.34-4.53,4.12-7.2,6.44-10.02,4.76-5.78,1.95-13.52,3.77-20.7,2.55,4.07.53,9.32,1.19,13.36l1.4,7.07ZM196.03,100.2l-.17-12.62-9.14-1.21-.25,12.59,4.92.68c1.05.15,1.77-2.56,1.87-3.18l2.76,3.74ZM201.19,119.53l6.36,4.43c.15-6.66-4.24-10.81-8.74-15.25-2.31-2.28-5.4-4.66-8.02-2.43-.6,2.5.26,4.73,2.04,1.3l3.84,13.83,3.76.39c.62.06.13-2.01-.03-2.34.01.04-.12-.42-.46-1.58l1.26.09v1.56ZM178.98,133.21l17.05-.33c7.06-.14,13.89,2.89,21.29,5.8-1.33-4.57-6.73-6.45-11.14-7.2l-9.76-1.68-16.82-.46c-.46-1.58-.49-3.64-.29-6.41.35-.18-.76.39-1.25.64-2.59,1.34-.46,5.42-1.74,5.96l-3.49,1.48s1.27.93,1.29.92c.02-.02-.23.34-1.23,1.75l6.08-.46ZM183.76,139.57l-3.14,4.78-.92,12.88-2.46-10.08-1.29,15.58-.89,9.7c2.76-1.21,2.55-.49,2.07.62-3.07,3.65-3.5,5.57-1.31,8.98s-.1,10.41-2.2,14.04c2.68.68,3.46.68,4.75,2.83.43,1.91-.66,3.71-2.44,4.2-.37,3.15.83,2.48,1.98.37l-.55,13.09-2.38.43c-.29.05-.17,1.22.13,1.22h2.15s-1.61,2.52-1.61,2.52c-.31.49.71,1.29,1.46,2.06l-2.83,3.7c2.46-1.14,2.98-.54,2.72,1.03l-1.22,4.81,1.34,2.14c.49.79-.92,2.87-1.51,3.53l1.3,1.54c.42.5-1.09,1.94-1.91,2.82l2.67-.29c.78-.08-.25,3.59-.72,3.87l-10.26,2.25,12.62.81-8.79,4.59,6.67-.63-6.97,4.12,6.16-.39-3.47,1.6c-.72.33-1.38,2.17-1.56,2.98l-1.6,7.24-.78-6.14c-1.48-1.8-2.42-4.19-3.58-8.07-2.85,3.01-4.58,7.67-4.9,12.22l-.81,11.88-3.4,38.48,4.57-15.27c.54.32,2.33,1.6,2.53,1.06l1.13-3.16.66,6.67,2.46-8.1.59,10.2,1.07-5.98,2.09,6.05.42-18.78c.19-8.72,4.06-16.97,11.53-21.43,2.23-1.33,5.08-2.93,7.18-5,.55,1.09,2.8,3.38,4.65,4.29,8.47,4.15,12.19,12.99,12.45,22.25l.95,33.49,17.66-.17c.48,0,2.54-2.44,2.19-2.11s1.61,2.16,2.09,2.16l15.31-.04,12.5-.04-.43-26.29,1.86-.14.15,15.64,1.01,1.02-.09-14.47c-.04-6.52-1.4-12.4-.43-18.43,1.36,7.74.58,14.37,3.16,21.59l-.03-29.03.65-8.68.3-29.88-6.22,6.3-.47-5.07c-1.3,3.13-2.28,5.49-3.22,6.47-.9-.73-1.83-1.62-2.01-1.22l-.98,2.22c-.28.62.32,2.6-.34,2.75l-2.99.66,1.62-12.64c2.37-1.23,4.14-3.33,3.79-6.36l7.42-5.61c1.03-.78,3.2-2.38,3.23-3.75l.19-8.54c-.88-.54-4.14-.35-5.37.47l.88,10.59-6.49-.36c-.13-5.01-.25-7.54-2.5-11.3l3.99-6.08c.39-.59,1.57-1.48,2.09-1.92l3.97-2.24,2.58-1.2c.87-.41.73-3.45-.09-3.95s-2.33-.4-3.9-.39l-4.22-.24s-1.55-.37-1.28-.72l1.85-2.44-9.03-.59-14.45-.15-7.13.8-4.72.25.08,1.24,2.78.06-3.22,3.2,3.08,48.91,2.63,41.23-1.74.03-2.81-31.51-6.57-111c-3.52-1.67-6.91-3.04-9.85-3.48l-6.13-.92-8.81-.92c-4.43-.46-9.46.24-13.47,1.94l7.15.79ZM79.4,172.66l-.5.5.5.5.5-.5-.5-.5ZM297.68,173l-1.94.58,1.94-.58ZM277.47,184.01c-.62.23-2.39,1.19-2.37,1.85l.33,10.14c6.38,1.53,10.42,4.11,15.41,7.3l-1.39-2.79c-.25-.5.63-1.1,1.79-2.29l-5.48-.79,4.08-3.32c-3.07.26-5.06.19-7.47-.82l4.92-1.12-3.89-2.27,5.89-.48-5.56-4.97c-1.24-1.11-4.71-1.01-6.25-.44ZM72.88,197.48l10.29-11.69c-5.01.06-7.2,4.39-8.83,8.23l-1.47,3.46ZM117.69,189.85l-10.75.64c-.86.05-2.39,1.41-3.44,2.63l6.61,2.4-11.24-.16,1.69,5.27c2.9,1.33,4.4,1.59,6.33,1.08l3.12,3.12c.71.62,1.93,2.21,2.04,3.14-5.52-3.69-11.51-6.16-18.28-4.31l-8.22,2.25,7.97,7.07-3.85.16c.12,2.21.07,5.83,1.26,6.47l3.81,2.06c.76.41,2.24,1.05,3.09,1.05h1.05s.91,2.98.91,2.98c.12.28.84.76,1.08.96l5.16,10.17-.22,9.67c-.01.57-1.81,1.47-2.31,1.16l.29-5.26c.38-6.99-3-13.58-8.98-17.6l-3.52-2.37c-.79-.53-2.98,1.39-3.12,2.32l-1.19,7.7,2.96-.57-.06,10.81-.13,24.11.82,49.85.3,4.15c.08,1.09,2.89,2.42,4.09,2.41l19.11-.13,10.86-.02,17.68.03,2.48-26.2,2.55-26.79,3.19.4,1.52-31.47,3.48-48.89c-4.91,1.88-8.54-2-18.41-1.43l-19.75,1.14ZM164.2,219.71c2.23-4.11,1.93-8.56,1.58-13.02l-.16-2.04c-.03-.34-1.79,1.32-1.78,1.66l.37,13.4ZM283.39,213.23c.03-.88.09-3.04.07-2.57-.01.31-1.88.73-2.18.67l-6.83-1.36v-2.42c.01-.33-2.33.64-2.35.96l-.39,7.97,12.38-.68c.6-.03,1.75-.86,1.71-1.44s-.15-1.53-.72-1.43l-1.69.3ZM82.38,240.9l.22-12.31-7.94-3.33c.59-1.64-.42,1.16-.56,1.55l3.61,4.94,4.65,9.14ZM274.47,237.69l8.9-9.15-7.29,1.71c-1.79.42-4.46,4.6-1.61,7.45ZM283.49,243.74l-2.16-8.37-.49,8.31-.12,4.88c-1.64-1.89-2.33-5.29-3.66-9.05l.46,9.52c.32,1.13.21,1.89-.84.57l-1.03.72.22,6.52-.36,5.73c-.02.34-.74,1.34-.91,1.05l-1.31-2.29.65,31.67-2.63-10.86c-2.29,13.89-.63,27.2,2.03,41.24l13.59-3.44c3.96-2.56,7.75-2.87,12.5-2.71l5.39.18-1.61-18.76-2.21-29.97c-.59-8.02.52-15.54-2.09-23.37l-1.04,8.32c-3.51-1.03-3.92-3.73-4.99-7.44-3.76,6.73,1.55,19.98-.28,19.33l-2.52-.9-.55-5.02-1.53-7.07c-1.85-8.51,8.63-18.08,7.81-19.39l-1.88-3.03-2.51,5.53-1.36-1.93c-.32-.46-1.47.5-1.62,1.05l-.51,1.95-.53,2c-.19.73-2.69-3.01-2.82-2.15l-.32,2.11-.77,5.05ZM331.05,233.37l7.39,9.67c1.14.11,2.59,0,2.96.72l1.81,3.55,2.56-7.61-3.69-4.87c.23-.22-.78,1.87-1.21,1.37l-2.38-2.74c-.79-.04-2.57.38-2.9-.35l-1.09-2.43-2.85,2.02-.6.67ZM59.69,236.32l-5.48,6.74-3.16,5.62-.27-15.8c-.6-.34-2.37-1.36-1.36-.78l.17,6.51c.04,1.36-2.53,3-3.93,3.53l-1.25,4.77c-1.46,5.6,6.53-1.45,13.54,7.13l1.73-17.72ZM330.14,232.28c-.38.16.68-.29,1-.42l-1,.42ZM313.33,253.57l-5-1.55c-.25-4.92-.86-9.76-2.76-14.85-3.82,12.19-2.47,24.25-1.39,36.5l2.82,31.85c3.22-14.79,2.59-28.85,1.84-43.42l5.49,1.75.57,4,9.48-5.97-1.98-2.7c-.42-.58-2.29.04-3.08-.2l-4.63-.97.12-1.94,2.11-3.75,8.4-1.23-3.79-9.31-3.91-4.96-3.09-3.02-2.21,7.09,1.02,12.67ZM72.82,316.79l4.01.23,2.72.64,1.57-.86.86-61.52c-2.2,3.23-3.06,4.28-4.74,5.63l2.38-17.79-5.6,5.86-.72-2.67c-.11-.39-.7-.47-1.63-.79l-.45-2.82-3.17-8.16c-.95,1.57-2.85,5.75-2.97,8.09l-.71,13.98c-1.4,18.95-1.17,37.52,1.13,56.3.71,1.37,1.59,3.58,2.49,4.13,1.06.64,3.52-.1,4.85-.24ZM31.12,247.99l4.78-9.61-2.85-2.75-7.03,5.71c.22-.12,2.35,1.61,2.04,2.54l-1.04,3.06,4.11,1.06ZM72.4,239.66l-.5.5.5.5.5-.5-.5-.5ZM298.98,240.25c.05.7,1.03,3.11,1.17,2.59l.53-2.09c.09-.35-1.72-.84-1.7-.49ZM276.48,248.9l-1.33-5.59-.09,6.46,1.42-.86ZM161.83,249.11l4.05.23-4.05-.23ZM57.19,266.41l.4-11.49-6.86,5.19-6.26,1.15c5.15,1.51,7.95,2.53,12.72,5.16ZM316.38,302.89l.51,15.58,18.34,1.89c5.21-12,8.28-24.76,6.1-37.46l-1.22-7.11c.07-1.38-.78-2.73-1.31-.91l-3.36,5.11-4.55,6.73c-1.46,2.16-2.14,6.51-5.11,6.33-3.05-8.35-.17-17.1,6.43-23.18l-7.38,1.7-5.33,1.67-3.6,4.58.48,25.08ZM42.11,271.53l1.61-.77-1.61.77ZM44.45,271.6l-1.05.84.82.63.69-.94-.47-.53ZM46.91,296.21l-3.72-4.83-1.75-5.02-9.15-7.17c-2.93,13.82.09,28.14,5.06,40.67l16.69-1.77.67-11.24.32-1.62-.76-.84,1.49-22.78c.2-3.9-1.67-7.1-5.41-7.15-.55-.78-1.65-2.47-2.31-2.32l-2.6.58-.78.82c5.15,5.66,6.51,15.13,2.25,22.68ZM354.25,272.46c1.99.4,2.5.14.46-1.01l-.46,1.01ZM27.29,279.83c-.11-1.1-.14-1.49-.04-.43.24,2.59.26,2.77.04.43ZM87.31,300.48c.25-5.49-.27-9.51-1.41-13.74l-2.27-8.42c-.65,3.65-1.18,8.73-.15,11.56l3.83,10.6ZM168.51,332.68l33,.2,31.24-.81c6.01-.16,11.64-2.13,18.19-1.71,3.38.21,7.02-.5,10.26-1.09l11.83-2.44-58.74-.51-50.96.14-47.54.54,11.72,1.01,1.14,2.57c.21.48,2.2-.57,2.88-.49l21.19,2.53,15.81.06ZM146.05,341.62c.04.46-.21,1.53.17,1.45l2.74-.52,111.83-.5,10.95-6.82-49.9.04-58.81.1-16,.02-37.22.38c3.29,4.04,16.08.31,26.39,3.14l-11.08,1.93c7.1,1.86,14.7,1.52,20.92.78Z"/>
      <path class="st0" d="M192.27,77.15c-.74.03-.27.83.13,1.51l4.04,6.89-7.22-1.99c-1.27-3.12-.58-6.26,2-7.19l1.05.77Z"/>
      <path class="st6" d="M198.89,137.76l2.01,5.36-2.22,3.75.19,40.77,1.62,42.87,1.72,19.95-5.82.18-.54.79,5.96.36.86,17.39c.12,2.53,3.29,6.49,4.87,8.61l1.24-11.01,4-10.68,6.3,9.39c.51-3.96.87-8.19.35-11.22-2.63-4.07-7.46-4.63-11.7-6.38l8.68-.27-.4-31.96-2.44-56.57-.41-12.41-5.24-3.33c-1.83-1.16-2.86-2.73-2.9-4.66,2.94.44,6.34,1.81,9.85,3.48l6.57,111,2.81,31.51,1.74-.03-2.63-41.23,1.03-4.98.96,7.55c3.09-3.52,2.89-7.69,4.91-12.18l4.49-9.98,4.26-.49-4.14-2.14c.06.22,1.6-.76,1.6-1.08l-.17-15.62c-.01-1.12-2.66-3.05-3.68-2.83l.74-3.58,17.39-.26c-5.42-4.61-12.24-3.09-18.1-2.19-4.61.7-3.34-3.71-7.3-5.88l7.13-.8,14.45.15,9.03.59-1.85,2.44c-.27.35,1.31.75,1.28.72-.19,1.04.95,3.54,2.11,4.03l3.52,1.76-3.97,2.24c-.81-1.08-3.46-1.97-4.91-1.74l-15.57,2.41c1.94,2.75,7.2-1.08,8.26.63.33.53.85,2.81.22,2.88l-3.86.43-.8,14.25.05,3.54c.01.83-1.19,1.45-2.01,2.03l-.11,7.51-.28,19.94.77,6.19-3.36.28-.03,16.69,4.21-.3,1.07-16.33c.69.23,2,1.75,2.01,2.52l.16,10.7c.1,6.7-.35,13.92,6.98,16.13l-6.05,25.83-1.49-6.17-.83.92.68,12.09,3.59,1.67-15.31.04c-.48,0-2.44-1.83-2.09-2.16s-1.72,2.11-2.19,2.11l-17.66.17-.95-33.49c-.26-9.26-3.98-18.1-12.45-22.25-1.85-.91-4.1-3.2-4.65-4.29-2.1,2.06-4.94,3.66-7.18,5-.99-.9-.84-3.54-.49-4.75l2.9-10.1,4.34-2.12-4.29-.8c2.88-1.67,4.19-2.52,6-4.24l-10.37-.69c2.54-10.8.75-26.09,2.01-26.73l2.69-1.37,6.71-.37.07-15.8c0-1.05-2.53-3.12-3.37-2.75l-3.36,1.7c-1.01-1.05-1.96-3.13-1.88-4.86l.85-17.17c2.54-1.38,4.98-2.91,6.11-4.14.31-.13,1.99-1.71,1.98-2.41l-.11-12.68c-.01-1.28-1.95-4.44-3.12-4.49s-2.75.51-4.5,1.31c-3.77-4.44-2.14-11.52,1.99-15.69.14.02.65.26.74.15l1.88-3.27,8.81.92ZM232.29,266.05l1.21-8.66c.52-3.74.55-7.84-.35-11.94l-3.26,20.98c-.07.45.28,2.08.63,2.03.38-.06,1.44-.22,1.46-.24.02-.02.17-1.24.3-2.17ZM219.6,296.26l2.86,17.19c.26,1.57,1.56,4.7,2.29,6.06l-2.75-24.84-2.37-14.41-3.86-16.17-4.06,10.39c-2.46,9.3-3.68,29.27,2.61,32.47l.92-7.69,2.94,7.73,1.43-10.73ZM241.22,315.65l-1.37.02.08,6,1.37-.02-.08-6Z"/>
      <path class="st2" d="M205.02,138.69c.04,1.93,1.07,3.49,2.9,4.66l5.24,3.33.41,12.41,2.44,56.57.4,31.96-8.68.27c4.24,1.75,9.07,2.3,11.7,6.38.52,3.02.16,7.26-.35,11.22l-6.3-9.39-4,10.68-1.24,11.01c-1.58-2.12-4.75-6.09-4.87-8.61l-.86-17.39-5.96-.36.54-.79,5.82-.18-1.72-19.95-1.62-42.87-.19-40.77,2.22-3.75-2.01-5.36,6.13.92ZM212.2,175.77c-1.91-7.39,1.92-14.44-3.11-19.33-1.26.5-3.05,2.99-3.02,4.15l.46,13.87,5.67,1.3ZM213.83,246.14c.19-7.43.53-14.42-1.53-20.63l-.71,16.85-.29,3.4c-.05.57,2,.62,2.53.38Z"/>
      <path class="st0" d="M124.95,323.08l-3.16-1.68,1.68-1.52c.51-.46-1.04-2.92-.78-3.56l4.42-11.01.84,7.2,1.49-6.67,2.26-8.06,4.23-8.37c.89-1.77.95-4.98-.04-6.19-1.23-1.5-3.63-2.69-5.6-2.91l.71-6.5.91.05,5.47.51-.06-13.35,1.7-3.37c.64-1.26.97-4.06.9-5.89l-.42-9.99,1.89-5.56,2.1-9.23-4.08-.61,4.9-1.51-8.28-1.38-1.6.93-3.76-1.44,12.52-.83.9-22.36c-.59-.39-2.01-1.28-1.71-1.59l2.17-2.26-8.27-1.31,3.36-4.78-2.18-1.13c9.86-.57,13.5,3.32,18.41,1.43l-3.48,48.89-1.52,31.47-3.19-.4-2.55,26.79-2.48,26.2-17.68-.03Z"/>
      <path class="st6" d="M103.8,242.4l-.29,5.26,1.07,12.07.53,16.58,4.7-.05c-.09,4.52-1.05,10.67.27,15.01l3.17,10.42c1.19-6.49,1.92-11.9,4.5-18.89l1.43,17.89,1.23-.06-.23-15.35c5.42,2.45,3.62,6.91,3.96,11.68l6.13-16.66c1.96.22,4.37,1.41,5.6,2.91.99,1.21.93,4.43.04,6.19l-4.23,8.37-2.26,8.06-1.49,6.67-.84-7.2-4.42,11.01c-.25.63,1.29,3.09.78,3.56l-1.68,1.52,3.16,1.68-10.86.02-.68-3.86-5.69-15.91c1.2-2.65-2.49-2.3-1.89-.24.47,2.31.24,4-1.01,4.85l-1.41-24.07c-.13-2.28-.16-4.53-.63-6.56l-2.76-12.07-10.25,1.57.13-24.11,9.27-3.09,1.09-4.77,1.63,9.1,1.92-1.54Z"/>
      <path class="st2" d="M131,273.82l-.71,6.5-6.13,16.66c-.34-4.77,1.46-9.24-3.96-11.68l.23,15.35-1.23.06-1.43-17.89c-2.58,6.99-3.31,12.4-4.5,18.89l-3.17-10.42c-1.32-4.34-.36-10.48-.27-15.01l.32-15.64c-.71-1.2-4.17-1.68-5.55-.9l-1.07-12.07c.5.31,2.3-.59,2.31-1.16l.22-9.67,1.36-6.9,21.78-.29,1.13,9.44.7,34.74ZM124.29,272.8l-.67-4.05-2.09,3.52-.27-25.56c-.03-3.22-.42-6.61,1.03-9.34.43-.81.89-3.47.12-3.68l-3.77-.99c-1.05-.28-3.68-.34-4.47.4-.63.59-1.76,2.78-1.63,3.68l1.26,8.74c-.41,9.85.92,18.16,4.17,27.27,1.04,2.91.26,8.08,2.01,10.57,1.95.71,2.08-3.11,2.91-3.74l4.77-3.67c.99-.76.89-4.19.03-5.09-.7-.73-3.36,1.41-3.4,1.95Z"/>
      <path class="st0" d="M245.78,322.97l-3.59-1.67-.68-12.09.83-.92,1.49,6.17,6.05-25.83-.06-2.93,1.09-2.37c.12-.5-.68-1.33-.98-1.73l.09-3.24c.13.03,3.18.69,3.19-.2l.07-3.69c1.59-9.5,2.74-19.78,2.33-29.25l-1.07-3.28c.94-.98,1.92-3.35,3.22-6.47l.47,5.07,6.22-6.3-.3,29.88-.65,8.68.03,29.03c-2.58-7.22-1.8-13.85-3.16-21.59-.97,6.03.39,11.91.43,18.43l.09,14.47-1.01-1.02-.15-15.64-1.86.14.43,26.29-12.5.04ZM254.4,278.66l-.5.5.5.5.5-.5-.5-.5Z"/>
      <path class="st0" d="M114.09,323.1l-19.11.13c-1.2,0-4.01-1.33-4.09-2.41l-.3-4.15-.82-49.85,10.25-1.57,2.76,12.07c.47,2.04.5,4.29.63,6.56l1.41,24.07c1.25-.85,1.48-2.54,1.01-4.85-.6-2.06,3.1-2.41,1.89.24l5.69,15.91.68,3.86Z"/>
      <path class="st2" d="M257.06,200.88c-.52.44-1.7,1.33-2.09,1.92l-6.82.21,1.54,23.19-3.06,7.52c-1.36,3.33-1.45,14.51,1.71,18.51l1.66,26.14-.09,3.24-1.01,2.37c-.11.5.61,1.32.9,1.72l.06,2.93c-7.33-2.21-6.88-9.43-6.98-16.13l-.16-10.7c-.01-.77-1.32-2.29-2.01-2.52-.46-.15-1.41-.39-1.89-.34l-.77-6.19.28-19.94.11-7.51c.82-.58,2.02-1.2,2.01-2.03l-.05-3.54.8-14.25,3.86-.43c.62-.07.11-2.34-.22-2.88-1.06-1.72-6.33,2.12-8.26-.63l15.57-2.41c1.45-.22,4.09.66,4.91,1.74Z"/>
      <path class="st0" d="M163.32,326.46l4.85,1.04c2.16.11,5.21,1.65,7.28,2.07,7.81,1.59,17.29,1.87,25,.25l11.45-2.4,2.39-1.1,58.74.51-11.83,2.44c-3.23.58-6.88,1.3-10.26,1.09-6.55-.41-12.18,1.56-18.19,1.71l-31.24.81-.55-1.24-30.17-.02-2.27,1.06-15.81-.06-21.19-2.53c-.68-.08-2.67.97-2.88.49l-1.14-2.57-11.72-1.01,47.54-.54Z"/>
      <path class="st6" d="M137.45,188.71l2.18,1.13-3.36,4.78,8.27,1.31-2.17,2.26c-.3.31,1.12,1.2,1.71,1.59l-.9,22.36-12.52.83,3.76,1.44-14.41-.24c-7.19-.12-13.91-.89-20.2,1.52l-.91-2.99,29.35-.1c-2.05-1.61-6.64-4.43-6.78-6.79l-.68-11.46,5.45-3.41-9.92-.61.44-2.68,13.31-.54c.29-.43.79-1.47.47-1.51l-1.96-.3c-2.45-.37-4.92-.96-7.49-1.97l2.36-2.19-5.75-1.29,19.75-1.14ZM138.27,221.12l-.03-14.71c-.08-2.52-2.31-5.32-4.79-5.22-2.61.1-4.69,2.62-4.67,5.22l.13,15.15,9.35-.44Z"/>
      <path class="st6" d="M139.49,241.79l-.42-4.35-1.66,1.77.73,15.59.87,2.86-1.7,3.37c-.27-.43-3.27-1.68-3.46-.8l-.71,3.34-1.24,10.3-.91-.05-.7-34.74-1.13-9.44-21.78.29-1.36,6.9-5.16-10.17,14.09.59,18.84-.5c.89-.02,2.58-2.5,2.2-3.26l8.28,1.38-4.9,1.51,4.08.61-2.1,9.23-1.89,5.56Z"/>
      <path class="st0" d="M225.37,189.75c3.95,2.16,2.68,6.58,7.3,5.88l.71,2.45-.74,3.58-4.36.93c-.94.2-1.65,2.96-1.64,4.06l.05,14.43,8.19.11,4.14,2.14-4.26.49-4.49,9.98c-2.02,4.49-1.83,8.66-4.91,12.18l-.96-7.55-1.03,4.98-3.08-48.91,3.22-3.2-2.78-.06-.08-1.24,4.72-.25Z"/>
      <path class="st2" d="M116.32,200.33l9.92.61-5.45,3.41.68,11.46c.14,2.36,4.74,5.18,6.78,6.79l-29.35.1h-1.05s.04-1.04.04-1.04l1-.06,2-.95c.25-.09.72-.06.95-.02l1.08.22c1.35.88,4.82,1.12,6.09.03.63-.54.89-2.35.81-3.19-.19-2,.4-4.08,2.76-5.59l-.52-4.15c-.12-.93-1.33-2.52-2.04-3.14l-3.12-3.12c2.78-.92,6.53-1.55,9.42-1.37Z"/>
      <path class="st6" d="M249.84,233.72l-1.62,12.64,2.99-.66c.66-.15.06-2.12.34-2.75l.98-2.22c.18-.4,1.11.49,2.01,1.22l1.07,3.28c.41,9.47-.74,19.74-2.33,29.25l-.07,3.69c-.02.89-3.06.23-3.19.2l-1.66-26.14c-3.16-4-3.07-15.18-1.71-18.51h3.2Z"/>
      <path class="st0" d="M103.8,242.4l-1.92,1.54-1.63-9.1-1.09,4.77-9.27,3.09.06-10.81-2.96.57,1.19-7.7c.14-.93,2.33-2.85,3.12-2.32l3.52,2.37c5.98,4.02,9.36,10.61,8.98,17.6Z"/>
      <path class="st0" d="M121.09,193.34c-1.69-.66-4.48.67-7.93,1.84l3.61,2.48-.44,2.68c-2.88-.18-6.64.46-9.42,1.37-1.93.51-3.43.25-6.33-1.08l-1.69-5.27,11.24.16-6.61-2.4c1.04-1.22,2.58-2.58,3.44-2.63l10.75-.64,5.75,1.29-2.36,2.19Z"/>
      <path class="st2" d="M214.28,326.33l-2.39,1.1-11.45,2.4c-7.71,1.62-17.19,1.34-25-.25-2.07-.42-5.12-1.96-7.28-2.07l-4.85-1.04,50.96-.14Z"/>
      <path class="st0" d="M200.4,119.47c.16.32.65,2.4.03,2.34l-3.76-.39-3.84-13.83c-1.78,3.44-2.64,1.21-2.04-1.3,2.62-2.23,5.71.15,8.02,2.43,4.5,4.44,8.89,8.59,8.74,15.25l-6.36-4.43-.79-.07ZM199.94,117.89l1.26.09-1.26-.09Z"/>
      <path class="st6" d="M196.03,100.2l-2.76-3.74c-.1.62-.82,3.33-1.87,3.18l-4.92-.68.25-12.59,9.14,1.21.17,12.62ZM189.94,88.34c.15-.65-1.86-.87-2-.25l-.46,2c-.1.43,1.81,1.03,1.91.61l.55-2.36Z"/>
      <path class="st2" d="M134.41,224.41l1.6-.93c.37.76-1.31,3.24-2.2,3.26l-18.84.5-14.09-.59c-.24-.2-.96-.69-1.08-.96,6.29-2.41,13-1.63,20.2-1.52l14.41.24Z"/>
      <path class="st2" d="M196.03,132.88l.39-3.08,9.76,1.68c4.41.76,9.81,2.63,11.14,7.2-7.4-2.91-14.23-5.94-21.29-5.8Z"/>
      <polygon class="st0" points="196.42 129.8 196.03 132.88 178.98 133.21 179.6 129.34 196.42 129.8"/>
      <path class="st2" d="M179.6,129.34l-.62,3.87-6.08.46c1-1.41,1.25-1.77,1.23-1.75-.01.01-1.33-.95-1.29-.92l3.49-1.48c1.28-.54-.85-4.62,1.74-5.96.49-.25,1.6-.82,1.25-.64-.2,2.77-.18,4.83.29,6.41Z"/>
      <path class="st0" d="M164.2,219.71l-.37-13.4c0-.34,1.76-1.99,1.78-1.66l.16,2.04c.35,4.46.65,8.91-1.58,13.02Z"/>
      <path class="st0" d="M190.07,136.84l-1.88,3.27-1.82-1.56c-.65-.38-2.21.4-2.61,1.02l-7.15-.79c4.01-1.7,9.04-2.41,13.47-1.94Z"/>
      <path class="st0" d="M187.45,139.96c-4.13,4.18-5.76,11.26-1.99,15.69l-.31,17.46,6.06.81c-1.13,1.23-3.56,2.76-6.11,4.14l-.85,17.17c-.09,1.73.86,3.81,1.88,4.86l-.04,17.22-2.69,1.37c-1.26.64.53,15.93-2.01,26.73l10.37.69c-1.81,1.72-3.12,2.57-6,4.24l4.29.8-4.34,2.12-2.9,10.1c-.35,1.21-.5,3.85.49,4.75-7.47,4.46-11.34,12.71-11.53,21.43l-.42,18.78-2.09-6.05-1.07,5.98-.59-10.2-2.46,8.1-.66-6.67-1.13,3.16c-.19.54-1.98-.74-2.53-1.06l-4.57,15.27,3.4-38.48.81-11.88c.31-4.55,2.05-9.21,4.9-12.22,1.16,3.88,2.1,6.27,3.58,8.07l.78,6.14,1.6-7.24c.18-.81.83-2.64,1.56-2.98l3.47-1.6-6.16.39,6.97-4.12-6.67.63,8.79-4.59-12.62-.81,10.26-2.25c.47-.29,1.5-3.96.72-3.87l-2.67.29c.82-.88,2.33-2.31,1.91-2.82l-1.3-1.54c.59-.66,2-2.75,1.51-3.53l-1.34-2.14,1.22-4.81c.26-1.57-.25-2.17-2.72-1.03l2.83-3.7c-.75-.77-1.77-1.57-1.46-2.06l1.61-2.53h-2.15c-.3,0-.42-1.16-.13-1.22l2.38-.43.55-13.09c-1.14,2.11-2.35,2.78-1.98-.37,1.78-.49,2.86-2.29,2.44-4.2-1.29-2.15-2.07-2.15-4.75-2.83,2.11-3.64,4.49-10.47,2.2-14.04s-1.76-5.33,1.31-8.98c.48-1.11.69-1.82-2.07-.62l.89-9.7,1.29-15.58,2.46,10.08.92-12.88,3.14-4.78,3.7.39Z"/>
      <path class="st0" d="M165.88,249.34l-4.05-.23,4.05.23Z"/>
      <path class="st2" d="M219.6,296.26l-1.43,10.73-2.94-7.73-.92,7.69c-6.29-3.2-5.08-23.17-2.61-32.47l4.06-10.39,3.86,16.17,2.37,14.41,2.75,24.84c-.74-1.36-2.03-4.49-2.29-6.06l-2.86-17.19Z"/>
      <path class="st4" d="M232.64,201.65c1.02-.22,3.67,1.71,3.68,2.83l.17,15.62c0,.32-1.54,1.31-1.6,1.08l-8.19-.11-.05-14.43c0-1.1.71-3.86,1.64-4.06l4.36-.93Z"/>
      <path class="st4" d="M191.21,173.93l-6.06-.81.31-17.46c1.75-.8,3.33-1.35,4.5-1.31s3.11,3.21,3.12,4.49l.11,12.68c0,.7-1.67,2.28-1.98,2.41Z"/>
      <path class="st4" d="M186.08,217.32l.04-17.22,3.36-1.7c.84-.37,3.38,1.7,3.37,2.75l-.07,15.8-6.71.37Z"/>
      <path class="st4" d="M238.84,258.94c.49-.04,1.44.2,1.89.34l-1.07,16.33-4.21.3.03-16.69,3.36-.28Z"/>
      <path class="st2" d="M232.29,266.05c-.13.93-.28,2.15-.3,2.17-.02.02-1.08.19-1.46.24-.35.05-.7-1.58-.63-2.03l3.26-20.98c.9,4.1.87,8.2.35,11.94l-1.21,8.66Z"/>
      <path class="st2" d="M233.38,198.08l-.71-2.45c5.86-.89,12.68-2.42,18.1,2.19l-17.39.26Z"/>
      <rect class="st0" x="239.88" y="315.66" width="1.37" height="6" transform="translate(-3.99 3.06) rotate(-.72)"/>
      <path class="st4" d="M212.2,175.77l-5.67-1.3-.46-13.87c-.04-1.16,1.76-3.66,3.02-4.15,5.03,4.88,1.2,11.93,3.11,19.33Z"/>
      <path class="st6" d="M213.83,246.14c-.53.24-2.58.19-2.53-.38l.29-3.4.71-16.85c2.06,6.21,1.72,13.2,1.53,20.63Z"/>
      <path class="st4" d="M137.32,261.03l.06,13.35-5.47-.51,1.24-10.3.71-3.34c.19-.89,3.18.37,3.46.8Z"/>
      <path class="st2" d="M139.49,241.79l.42,9.99c.08,1.83-.26,4.63-.9,5.89l-.87-2.86-.73-15.59,1.66-1.77.42,4.35Z"/>
      <path class="st4" d="M109.82,276.27l-4.7.05-.53-16.58c1.38-.77,4.84-.3,5.55.9l-.32,15.64Z"/>
      <path class="st6" d="M124.29,272.8c.04-.54,2.71-2.68,3.4-1.95.86.9.96,4.33-.03,5.09l-4.77,3.67c-.83.64-.95,4.45-2.91,3.74-1.75-2.49-.97-7.66-2.01-10.57-3.25-9.12-4.58-17.42-4.17-27.27l-1.26-8.74c-.13-.9,1-3.09,1.63-3.68.78-.74,3.42-.67,4.47-.4l3.77.99c.77.2.31,2.86-.12,3.68-1.45,2.74-1.06,6.12-1.03,9.34l.27,25.56,2.09-3.52.67,4.05Z"/>
      <path class="st6" d="M249.81,285.71c-.28-.41-1.01-1.22-.9-1.72l1.01-2.37c.3.4,1.1,1.23.98,1.73l-1.09,2.37Z"/>
      <rect class="st6" x="254.05" y="278.8" width=".71" height=".71" transform="translate(-122.88 261.65) rotate(-45)"/>
      <g>
        <path class="st6" d="M357.31,202.52l-4.29,22.1c-7.85-5.52-16.91-8.18-26.07-8.2l.44-2.28c.18-.94,5.05-.2,4.74-.99l-1.28-3.34,8.22,1.26-2.88-4.01,7,.21.73-1.12-1.42-4.15c5-.77,9.9-.74,14.81.52ZM344.4,206.65l-.66.62.57.55,1.07-.9-.98-.27ZM345.09,208.57l.76-1.28-.76,1.28Z"/>
        <path class="st0" d="M280.72,248.57c.87,1,2.38,2.47,1.92,3.36l-1.92,3.71c1.38,10.12,2.4,19.78,1.23,29.86-.73,2.31.08,4.32.36,6.45l1.64,12.35c.42,3.14-.51,5.56,2.42,8.21l.57,7.44-13.59,3.44c-2.66-14.03-4.32-27.35-2.03-41.24l2.63,10.86-.65-31.67,1.31,2.29c.17.3.88-.71.91-1.05l.36-5.73-.22-6.52-.59-.57.09-6.46,1.33,5.59.2.71c1.05,1.32,1.16.56.84-.57l-.46-9.52c1.33,3.76,2.02,7.17,3.66,9.05Z"/>
        <path class="st6" d="M290.08,264.64l1.28,9.54c.12.88,1.17,3.09.58,3.6l-2.54,2.19,1.97,25.63,3.05,8.26c1.4-8.04-2.51-16.2,2.78-24.45l2.24,27.85c-4.75-.16-8.54.15-12.5,2.71l-.57-7.44c-2.93-2.65-2-5.07-2.42-8.21l-1.64-12.35c-.28-2.13-1.1-4.14-.36-6.45,1.17-10.08.15-19.74-1.23-29.86l1.92-3.71c.46-.89-1.05-2.36-1.92-3.36l.12-4.88,2.65.06.77-5.05.32-2.11c.13-.86,2.63,2.88,2.82,2.15l.53-2,.51-1.95c.14-.55,1.29-1.51,1.62-1.05l1.36,1.93,2.51-5.53,1.88,3.03c.81,1.31-9.66,10.88-7.81,19.39l1.53,7.07.55,5.02ZM287,266.95c.2-2.76-.37-5.15-3.45-5.65l.15,10.68c.8.17,2.9.49,2.96-.29l.34-4.73Z"/>
        <path class="st2" d="M316.38,302.89l9.39-9.85c2.97.18,3.65-4.17,5.11-6.33l4.55-6.73,3.36-5.11c.53-1.81,1.38-.46,1.31.91l1.22,7.11c2.19,12.7-.89,25.46-6.1,37.46l-18.34-1.89-.51-15.58Z"/>
        <path class="st2" d="M299.44,317.24l-2.24-27.85c-5.28,8.25-1.37,16.41-2.78,24.45l-3.05-8.26-1.97-25.63,2.54-2.19c.59-.51-.46-2.72-.58-3.6l-1.28-9.54,2.52.9c1.84.65-3.47-12.6.28-19.33,1.07,3.7,1.48,6.4,4.99,7.44l1.04-8.32c2.61,7.83,1.5,15.35,2.09,23.37l2.21,29.97,1.61,18.76-5.39-.18Z"/>
        <path class="st0" d="M308.33,252.02l.51,10.08c.74,14.57,1.38,28.63-1.84,43.42l-2.82-31.85c-1.08-12.24-2.44-24.31,1.39-36.5,1.9,5.09,2.51,9.93,2.76,14.85Z"/>
        <path class="st6" d="M325.77,293.05l-9.39,9.85-.48-25.08,3.6-4.58,5.33-1.67,7.38-1.7c-6.6,6.07-9.48,14.82-6.43,23.18Z"/>
        <path class="st0" d="M254.98,202.8l-3.99,6.08c2.25,3.76,2.37,6.28,2.5,11.3l6.49.36,1.07,1.21-7.42,5.61c.35,3.02-1.42,5.13-3.79,6.36h-3.2s3.06-7.52,3.06-7.52l-1.54-23.19,6.82-.21Z"/>
        <polygon class="st0" points="314.8 256.08 313.33 253.57 312.32 240.9 314.52 233.81 317.61 236.84 321.53 241.79 325.31 251.1 316.91 252.33 314.8 256.08"/>
        <path class="st0" d="M277.47,184.01l3.27,4.27,2.66,1.61,3.89,2.27-4.92,1.12c2.41,1.02,4.4,1.08,7.47.82l-4.08,3.32,5.48.79c-1.15,1.19-2.04,1.79-1.79,2.29l1.39,2.79c-5-3.19-9.03-5.76-15.41-7.3l-.33-10.14c-.02-.66,1.74-1.62,2.37-1.85Z"/>
        <path class="st0" d="M331.65,232.7l2.85-2.02,1.09,2.43c.33.72,2.11.3,2.9.35l2.38,2.74c.43.49,1.43-1.59,1.21-1.37l3.69,4.87-2.56,7.61-1.81-3.55c-.37-.72-1.82-.61-2.96-.72l-7.39-9.67-.91-1.09c-.38.16.68-.29,1-.42l.51.85Z"/>
        <path class="st0" d="M283.39,213.23l1.69-.3c.57-.1.68.86.72,1.43s-1.11,1.4-1.71,1.44l-12.38.68.39-7.97c.02-.33,2.36-1.29,2.36-.96v2.42s6.82,1.36,6.82,1.36c.31.06,2.17-.36,2.18-.67.02-.47-.05,1.7-.07,2.57Z"/>
        <path class="st0" d="M314.34,263.86l.35-5.84,4.63.97c.79.23,2.66-.38,3.08.2l1.98,2.7-9.48,5.97-.57-4Z"/>
        <path class="st3" d="M261.04,221.75l-1.07-1.21-.88-10.59c1.23-.83,4.48-1.01,5.37-.47l-.19,8.54c-.03,1.37-2.19,2.96-3.23,3.75Z"/>
        <polygon class="st5" points="313.33 253.57 314.8 256.08 314.69 258.02 314.34 263.86 308.85 262.1 308.33 252.02 313.33 253.57"/>
        <path class="st0" d="M274.47,237.69c-2.85-2.85-.18-7.03,1.61-7.45l7.29-1.71-8.9,9.15Z"/>
        <path class="st0" d="M261.04,198.64l-3.52-1.76c-1.16-.49-2.3-2.98-2.11-4.03l4.22.24c1.58,0,3.08-.12,3.9.39s.96,3.54.09,3.95l-2.58,1.2Z"/>
        <path class="st6" d="M283.4,189.9l-2.66-1.61-3.27-4.27c1.54-.57,5.01-.67,6.25.44l5.56,4.97-5.89.48Z"/>
        <polygon class="st0" points="283.49 243.74 280.84 243.68 281.34 235.38 283.49 243.74"/>
        <path class="st2" d="M298.98,240.25c-.03-.35,1.78.14,1.7.49l-.53,2.09c-.13.52-1.12-1.89-1.17-2.59Z"/>
        <path class="st4" d="M287,266.95l-.34,4.73c-.06.78-2.15.46-2.96.29l-.15-10.68c3.08.5,3.64,2.89,3.45,5.65Z"/>
      </g>
      <path class="st4" d="M138.27,221.12l-9.35.44-.13-15.15c-.02-2.6,2.06-5.12,4.67-5.22,2.48-.1,4.71,2.7,4.79,5.22l.03,14.71Z"/>
      <path class="st2" d="M121.09,193.34c2.57,1.01,5.04,1.6,7.49,1.97l1.96.3c.32.05-.18,1.08-.47,1.51l-13.31.54-3.61-2.48c3.45-1.17,6.24-2.5,7.93-1.84Z"/>
      <g>
        <path class="st6" d="M30.75,215.26c.81.24,2.42-.08,2.95-.2l5.59,3.05c-8.62,2.82-15.85,7.18-22.2,13.23l-3.02-14.75,6.63-2.9-1.57,3.96,5.87-4.11,5.76,1.73Z"/>
        <path class="st6" d="M77.24,260.91c-4.53,3.66,0,11.85-4.78,18.28-2.13,8.95,1.2,13.77,1.05,17.71l-.7,19.9c-1.33.14-3.8.88-4.85.24-.91-.55-1.79-2.76-2.49-4.13-2.3-18.78-2.53-37.35-1.13-56.3l.71-13.98c.12-2.35,2.02-6.53,2.97-8.09l3.17,8.16.45,2.82c.94.32,1.53.4,1.63.79l.72,2.67,5.6-5.86-2.38,17.79ZM70.93,274.68c4.36-2.81,3.58-7.81-.38-10.36l.38,10.36Z"/>
        <path class="st2" d="M46.91,296.21l7.36,8.18.76.84-.32,1.62-.67,11.24-16.69,1.77c-4.97-12.52-7.99-26.84-5.06-40.67l9.15,7.17,1.75,5.02,3.72,4.83Z"/>
        <path class="st2" d="M79.55,317.66l-1.58-14.89c-1.39,5.22-1.1,9.59-1.14,14.25l-4.01-.23.7-19.9c.14-3.94-3.18-8.76-1.05-17.71,4.77-6.43.24-14.62,4.78-18.28,1.68-1.35,2.54-2.4,4.74-5.63l-.86,61.52-1.57.86Z"/>
        <path class="st0" d="M112.07,207.96l.52,4.15c-2.35,1.52-2.95,3.6-2.76,5.59l-1.11-5.73c-.1-.83-1.55-3.74-2.25-3.29l-3.11,1.99-.44,10.19-1.08-.22-.08-9.77c-.02-.91-.81-3.17-1.62-3.12l-2.99.16-.04,12.76-2.36,1-3.81-2.06c-1.18-.64-1.14-4.26-1.26-6.47l3.85-.16-7.97-7.07,8.22-2.25c6.77-1.85,12.76.62,18.28,4.31Z"/>
        <path class="st0" d="M54.27,304.39l-7.36-8.18c4.26-7.55,2.9-17.02-2.25-22.68l-.43-.47-.82-.63-1.3-.91,1.61-.77.73.84.47.53.52.59,2.6-.58c.66-.15,1.76,1.54,2.31,2.32,3.74.05,5.61,3.26,5.41,7.15l-1.49,22.78Z"/>
        <path class="st0" d="M59.69,236.32l-1.73,17.72c-7.01-8.57-15.01-1.52-13.54-7.13l1.25-4.77c1.4-.53,3.97-2.17,3.93-3.53l-.17-6.51c-1.01-.58.75.43,1.36.78l.27,15.8,3.16-5.62,5.48-6.74Z"/>
        <path class="st0" d="M57.19,266.41c-4.76-2.63-7.57-3.65-12.72-5.16l6.26-1.15,6.86-5.19-.4,11.49Z"/>
        <path class="st2" d="M82.38,240.9l-4.65-9.14-3.61-4.94c.14-.39,1.14-3.19.56-1.55l7.94,3.33-.22,12.31Z"/>
        <path class="st0" d="M31.12,247.99l-4.11-1.06,1.04-3.06c.31-.92-1.82-2.66-2.04-2.54l7.03-5.71,2.85,2.75-4.78,9.61Z"/>
        <path class="st2" d="M87.31,300.48l-3.83-10.6c-1.02-2.83-.49-7.91.15-11.56l2.27,8.42c1.14,4.23,1.66,8.25,1.41,13.74Z"/>
        <path class="st0" d="M33.7,215.05c-.53.13-2.14.45-2.95.2,1.65-3.9,4.13-7.19,8.03-9.66.06,4.13-2.02,7.19-5.08,9.46Z"/>
        <path class="st6" d="M79.55,317.66l-2.72-.64c.04-4.66-.25-9.03,1.14-14.25l1.58,14.89Z"/>
        <path class="st2" d="M72.88,197.48l1.47-3.46c1.63-3.84,3.82-8.17,8.83-8.23l-10.29,11.69Z"/>
        <path class="st6" d="M97.12,220.66l.77,1-.04,1.05c-.85,0-2.33-.63-3.09-1.05l2.36-1Z"/>
        <path class="st1" d="M27.25,279.4c.24,2.59.26,2.77.04.43-.11-1.1-.14-1.49-.04-.43Z"/>
        <path class="st0" d="M54.71,306.86l.32-1.62-.32,1.62Z"/>
        <rect class="st6" x="72.05" y="239.8" width=".71" height=".71" transform="translate(-148.61 121.53) rotate(-45)"/>
        <rect class="st6" x="79.05" y="172.8" width=".71" height=".71" transform="translate(-99.19 106.86) rotate(-45)"/>
        <path class="st4" d="M70.93,274.68l-.38-10.36c3.96,2.55,4.74,7.55.38,10.36Z"/>
        <path class="st4" d="M101.85,220.64c-.23-.05-.7-.07-.95.02l-2,.95-1,.06-.77-1,.04-12.76,2.99-.16c.82-.04,1.61,2.21,1.62,3.12l.08,9.77Z"/>
        <path class="st4" d="M109.84,217.7c.08.84-.18,2.65-.81,3.19l-3.87-.32-1.79-9.9,3.11-1.99c.7-.45,2.15,2.47,2.25,3.29l1.11,5.73Z"/>
        <path class="st6" d="M109.03,220.89c-1.28,1.09-4.75.86-6.09-.03l.44-10.19,1.79,9.9,3.87.32Z"/>
        <path class="st6" d="M100.9,220.66l-2,.95,2-.95Z"/>
      </g>
      <path class="st4" d="M189.94,88.34l-.55,2.36c-.1.42-2.01-.18-1.91-.61l.46-2c.14-.63,2.15-.4,2,.25Z"/>
    </g>
  </g>
</svg>