<?xml version="1.0" encoding="UTF-8"?>
<svg id="Layer_1" xmlns="http://www.w3.org/2000/svg" version="1.1" viewBox="0 0 370.96 354.67">
  <!-- Generator: Adobe Illustrator 30.6.0, SVG Export Plug-In . SVG Version: 2.1.4 Build 109)  -->
  <defs>
    <style>
      .st0 {
        fill: #162621;
      }

      .st1 {
        fill: #dab882;
      }

      .st2 {
        fill: #73716e;
      }

      .st3 {
        fill: #88b3b2;
      }

      .st4 {
        fill: #f8f6f2;
      }
    </style>
  </defs>
  <path class="st1" d="M280.44,321.54v-.81c1.1-.09,3.67-.65,4.89-.4l10.85,2.17,11.11,1-9.77,3.24-22.43,3.36c-1.5.22-2.67.83-3.2,2.42l12.23,1.05-25.05,1.57-2.12,1.16c-10.52-1.12-20.25-.88-31.26-.87,2.03-1,4.51-1.35,6.81-1.48l19.19-1.14c7.44-.44,14.44-1.83,21.65-3.61l13.74-3.39c.7-.17,1.8-1.65,1.95-2.32.18-.81-1.58-2.3-2.45-2.25l-6.12.3Z"/>
  <path class="st4" d="M282.08,252.52l-60.2-.06,8.74-2.31c2.06-.54,3.23-.14,4.42-2.5.41-.81,2.57-1.02,3.26-.41.55.49,1.6,1.26,1.78.91l.85-1.62c.3-.58.7-2.53,1.34-2.41l3.32.65c-.17-2.92.22-5.48,3.11-6.65,2.51-1.01,5.39-.91,7.21,1.92l-2.74,1.24c3.08.14,4.29,1.2,5.16,3.47l3.1-1.54c.84-.42,1.76,1.98,2.42,2.59l3.35,3.11,3.68-.74c.87-.17,1.86,1.79,2.41,2.74,2.9.34,6.09.57,8.79,1.62Z"/>
  <g>
    <path class="st3" d="M345.63,283.18l-10.15-.21-5.51-.17-8.26-3.46c-1.47-.59-3.59-3.68-5.31-3.64-2.65.06-4.56-.34-6.12-2.61-1.36-1.98-3.59-2.47-6.1-3.17-4.65-1.29-8.79-9.41-16.22-4.13l-.74.53c-1.75.38-3.77,1.48-5.47,2.59l-4.32.51c-4.12,2.71-8.47,5.38-13.11,7.35l-8.36-3.46-9.96-7.29-6.6-.24c-2.62-4.59-6.81-5.34-11.24-6.95l-8.68-5.54c-4.57-2.91-8.86-1.81-13.64-.39-3.72,1.11-7.51,2.1-10.19,4.28-.57.05-1.97.44-2.48.81-3.12-.73-5.97-.3-8.7,1.28l-13.51,7.82c-4.01.12-7.46,1.14-10.73,3.71h-5.33c-4.75.91-8.69,2.71-12.97,4.69l-5.03-.48-14.85,3.75-13.96,3.29c-1.36-11.92-1.99-23.36-1.15-34.96l51.71-.64-21.63-2.09c-1.02-1.72-3.21-3.8-5.35-3.37l-5.44,1.09c-2.57-1-4.82-1.59-8.2-2.12,2.64-2.04,2.84-5.27.96-7.83-2.49-3.4-6.6-4.83-10.64-4.49l2.08-15.99c3.54-20.48,7.93-40.33,14.94-59.77l.53,7.36,1.68-1.84-.51,8.83,1.71.28c1.05.17-1.46,3.97,1.43,6.39l-.38,3.83,1.78-.42-.12,4.99c1.11,1.06,1.82,2.68,1.67,3.74l-.24,1.71c-.04.31.83.25,1.35.25l.57,8.05c2.05-4.52,3.35-8.17,4.31-12.53l1.09-4.93c.66-2.99-.06-6.31-.16-9.69l3.03,6.41,1.76-5.16c.93,4.74-1.24,8.5,1.72,12.43l1.88-5.4,1.08,8.73,1.34,6.59,2.56-4.75.54,11.71,3.02-4.8.99,11.37c2.73-3.61,2.75-6.95,3.7-10.78,1.17-4.74,1.38-9.42.24-14.27l-1.78-7.54c-1.77-7.53-5.85-14.81-11.06-20.27l-.18-.19-.54-.48-.15-.13-.5-.49-.69-.61.9-.58.54.56.36.38.28.28.41.4c.11.11.2.2.27.23l2.05.92.44-3.97,3.42,5.92c.19.32,1.21,1.4,1.45,1.15l1.3-1.32c.95,2.11,2.06,3.81,3.84,4.76l.52-6.42,3.8,8.21c.44.94,2.15,2.28,3.04,2.96l.56-7.18,4.53,11.46,1.51-4.14,2.74,7.19,1.64-4.63,2.74,7.73,1.29-4.32,3.78,8.5c2.08-12.03-2.36-23.51-11.13-31.52l-6.89-6.29c-6.02-5.49-14.36-6.31-22.42-7.8l9.4-.34-.76-1.52-.73-.48.85-.51.33.44,4.07,1.89c.36.18,2.05-.3,1.81-.6l-1.1-1.37-.68-.52.77-.43.55.52c1.11,1.05,3.88,2.03,6.01,2.34l-.83-3.12c-.02-.08-.11-.15-.25-.28l-.45-.4-.89-.65,1.19-.68.42.52.45.52.29-.06,5.08,3.54,4.49.16-3.56-7.66c4.98,2.69,6.95,8.3,11.77,8.12l-.93-4.4-.32-.39.53-.87.45.7,4.38,3.96c-2.4.09-2.34.96.26,1.28l.39-3.91,6.11,5.92.25-6.14-.21-.31-.63-.94-.29-.43.44-.72.54.61.48.94.17.32,6.68,7.79c.23-2.17-.03-3.41-.39-6.33l8.95,7.56c-.61-6.12-4.61-10.75-9.32-14.63l.11-2.26-11.33-5.79c-1.05-.54-2.8-2.09-3.93-2.27l-8-1.34c-7.32-1.23-15.05-.13-22.23,2.05-7.92,2.41-13.92,7-21.06,11.41l9.03-9.03c-2.28-.23-1.67-1.05-.22-1.33,2.8-.92,4.46-2.17,6-4.17l5.47-3.34-7.37-2.2,10.13-.83c.85-.07,2.36-1.47,2.72-2.08l-6.75-2.75,10.26-.22c1.02-.02,2.57-.82,3.67-1.99l-6.8-3.17c7.01-.89,12.1,2.82,13.59-.7l-5.05-3.48,10.89,1.33-2.74-3.02,8.09-.09c-3.49-3.5-7.76-4.84-12.71-5.17l-.22-2.06-11.52,1.48c-3.02.39-7.14,2.38-9.4,3.97-.54.33-2.32.59-2.95.65-6.96,4.38-12.12,10.33-16.73,17.68l.4-5.34-.02-5.82-.04-7.05-2.35,3.38c.99-4.3,1.8-7.1.96-11.19l-1.32,1.94-.37-7.25-1.59,4.7c-.5-4.08-.41-6.45-2.36-10.1l-1.19,8.86-1.31-3.59-.74,3.61c-.99,2.91-1.14,5.62-.51,8.57l-2.1-.61.88,6.81-1.53.42,1.04,7.1c-.46,1.66-.44,3.25-.37,5.78l-3.94-9.26-2.3-1.73-3.48-6.21-1,2.64c-1.35-3.55-3.48-6.97-6.44-9.03l-.56.66.12,1.21.54.4-.57,1.17-.53-1.08c-2.24-2.85-4.47-6.21-8.05-7.05l.29.94.37.36.5.48-.61.61-.46-.46-.45-.46-.09-.41c-1.97-1.36-3.9-2.52-6.12-3.23l1.82,2.8c-4.11-1.36-7.37-2.74-11.73-1.77l10.18,6.5-6.88,1.03,8.78,4.22-3.98,1.36,7.36,2.64-4.59.6c.34.57,1.75,2.26,2.61,2.61l8.66,3.5-6.11.49c1.34,1.6,2.74,3.92,3.92,4.67l8.59,5.42-5.02-.85,3.87,5.05.15.2-.4.97-.63-.41c-8.63-6.34-19.06-9.82-30.09-9.05-4.26,0-8.13.36-11.89,1.84l4.64,1.16c-6.15,1.42-11.35,2.37-15.8,6.15l2.35.69c-4.72,4.01-8.54,7.52-11.07,12.89l10.32-5.7-2.28,5.54c.7-.13,2.22-.65,2.83-1.19l7.83-7.07-3.43,7.27c3.99.37,5.9-4.42,11.6-5.76l-2.76,5.53,4.47-.58c3.38-2.61,5.9-4.56,10.52-6.25l-4.75,7.22,4.86.7c3.28-2.02,6.18-3.57,10.03-5.15l-4.6,6.2c3.61.53,5.2-.02,8.7-.9l-1.68,2.07c2.67.4,4.92.42,7.29,1.65-11.66.91-22.3,2.28-31.71,8.81l-.96.82c-.22.19.64.64,1.22.96-9.67,4.98-15.22,13.13-19.7,23.32l2.72-1.26c-1.7,4.53-3.13,8.42-2.77,13.61l7.1-10.69.17,6.29c1.23-1.19,3.63-3.02,4.42-4.3l5.24-8.45.13,6.5c1.82-1.46,3.01-2.88,3.86-4.77l3.9-8.64.23,8.72c1.52-1.01,3.18-2.48,3.9-3.85l3.19-5.98-.25,5.77c2.32-.66,4.3-2.24,5.75-4.43l3.08-4.64-.26,4.94c2.9-1.43,3.98-2.92,5.82-5.57l.93,1.53c.65,1.06,4.32-2.89,5.08-.53-4.13,4.58-8.96,8.98-11.03,14.83l-1.79,5.05c-.6,1.7-.97,3.23-1.28,4.92l-2.16,11.63c3.22-.22.77,6.18,3.75,12.62l2.39-10.44,1.68,3.46.46-8.05,1.96,4.26,1.34-8.81,1.98,3.47,1.59-10.48,1.3,4.59c.01.15.66-1.4.74-1.9l.28-1.81c-.12.75,3.27.47,3.35-6.94l1.83,1.81,2.26-7.83,1.33,1.72c.96-2.22,1.24-3.68,3.26-4.2-8.45,25.54-15.19,50.94-17.93,77.22l-5.72.33c.43-1.56.42-4.2-.55-4.83-1.74-1.13-4.1-.75-5.94-.14.06-.21,1.11-2.26.61-2.3l-2.89-.24c.34-2.57.26-5.53-.77-8.07l-2.99-7.43c-1.06-2.64-6.21-3.42-8.82-3.68l-2.1,2.83c-3.56,2.05-5.86,5.11-7.44,9.08-1.41-.66-3.67-1.69-4.64-1.21s-2.28,2.18-3.43,3.53c-.93-1.25-2.84-3.67-4.33-3.84-5.02-.57-9.61,2.23-11.27,6.91-.64,1.81.06,4.12.57,6.65l-5.07-1.15c-1.41-.32-3.78,1.49-4.05,2.92-.36,1.92.37,4.44,1.34,6.62-2.43-1.09-4.97-.84-6.34,1.49l-5.23-3.35c-2.97-1.9-7.93.12-8.73,2.8-.16.55.84,2.78.3,2.82l-3.55.25C-12.49,174.62,5.8,98.58,58.64,49.72c16.41-15.18,34.92-27.51,55.71-35.99C144.29,1.52,176.56-2.46,208.79,1.44c38.14,4.61,74.02,21.41,102.35,47.09,47.93,43.45,67.43,107.48,57.15,171.01l-9.8-1.17c-2.79-.33-5.21-.4-7.03-3.01l-5.57-.39c1.2-2.28,1.81-4.55.8-6.85-.73-1.65-2.95-3.28-5.2-3.85-5.28-1.34-10.14,1.72-13.06,5.99-2.02-2.09-3.47-2.63-6.72-1.76-.05-1.22.31-2.72,1.09-4.18,1.54-2.9-.69-6.97-3.97-7.9-1.08-.31-2.95,2.16-4.04,2.19l-4.66.1c2.11-5.21,2-9.67-.72-14.02-2.24-3.59-6.54-6.73-11.6-6.14-3.27.38-5.82,2.94-8.07,4.93-.57-1.38-1.38-3.48-2.32-3.51-.99-.04-2.59.31-4.61.67l3.61-8.06c.06-3.22-2.93-5.71-4.4-8.28l-1.42-2.48c-.39-.67-2.57.02-3.38.48-10.6-1.34-20.84,3.15-26.51,12.16-3.94,6.13-5.19,12.92-2.74,20.48-3.21-1.01-5.52-1.49-7.51.65-1.53,1.64-1.38,4.35-1.03,7.06l-3.02-1.98c-.69-.45-2.27.37-3.56,1.16-.74-4.06-4.27-6.68-7.56-7.82-4.55-1.58-8.53-.41-12.33,2.08-5.74,3.76-7.64,10.95-3.76,16.7-3.62.76-6.28,1.8-9.13,3.05-1.84-1.18-4.34-2.67-6.43-1.95-2.42.83-4.21,2.56-4.52,5.41l-10.94.71-17.44,2.12c2.76.35,4.95.46,7.52.47l64.21.32,50.83-.36,8.57.93h44.86s30.66.86,30.66.86c-3.99,20.83-11.03,40.95-21.77,58.84ZM103.95,80.37l.54-.64-.54.64ZM244.99,101.43c3.44-5.8,7.71-7.9,13.59-9.08-5.18-2.84-9.95.88-13.82,4.16-4.19-2.74-9.16-7.11-14.63-3.77,6.77.5,10.89,3.48,14.86,8.7ZM284.97,107.49c-4.09-2.44-7.59-.08-10.57,2.33-.4.36-1.48,1.22-1.85.91l-1.31-1.08c-2.88-2.37-6.37-4.53-10.14-2.04,5.22.67,8.62,3.16,11.8,7.81,3.13-4.76,6.71-7.27,12.07-7.93ZM159.6,222.26l-.33.33.33.33.33-.33-.33-.33ZM282.08,252.52c-2.7-1.05-5.89-1.28-8.79-1.62-.55-.94-1.54-2.91-2.41-2.74l-3.68.74-3.35-3.11c-.66-.61-1.58-3.01-2.42-2.59l-3.1,1.54c-.88-2.27-2.08-3.33-5.16-3.47l2.74-1.24c-1.82-2.84-4.7-2.93-7.21-1.92-2.89,1.16-3.28,3.72-3.11,6.65l-3.32-.65c-.64-.12-1.04,1.83-1.34,2.41l-.85,1.62c-.18.35-1.23-.42-1.78-.91-.69-.61-2.85-.39-3.26.41-1.19,2.36-2.36,1.96-4.42,2.5l-8.74,2.31,60.2.06Z"/>
    <path class="st0" d="M244.99,101.43c-3.97-5.22-8.09-8.2-14.86-8.7,5.47-3.34,10.44,1.03,14.63,3.77,3.87-3.28,8.64-6.99,13.82-4.16-5.88,1.19-10.14,3.28-13.59,9.08Z"/>
    <path class="st0" d="M284.97,107.49c-5.37.66-8.94,3.18-12.07,7.93-3.18-4.65-6.58-7.14-11.8-7.81,3.78-2.49,7.26-.34,10.14,2.04l1.31,1.08c.37.31,1.45-.56,1.85-.91,2.98-2.4,6.48-4.77,10.57-2.33Z"/>
    <rect class="st4" x="159.37" y="222.36" width=".47" height=".47" transform="translate(-110.65 178.05) rotate(-45)"/>
  </g>
  <path class="st4" d="M96.97,287.58l-2.39-1.57c-1.67-1.08-5.18-1.38-7.49-1.93.36-.24,1.42-1.01,1.75-1.01l8.01.1.12,4.41Z"/>
  <path class="st3" d="M98.08,246.79c-1.18,11.35-1.35,22.32-1.22,34.4l-7.68,1.37,1.57-2.56c-4.59.29-8.67,1-12.57,3.03-1.21.63-2.33,1.07-3.46,1.35.02-.12.42-1.03.19-1.04l-1.42-.04-8.13-.38.82-4.44-3.39.55c1.39-2.63,2.25-4.77,2.14-8.44l-4.83,3.9,2.57-7.86c.38-1.15-.51-2.36-.7-2.16l-1.31,1.41-1.26-9.31c-3.14,3.94-1.44,7.68-4.87,8.58l.52,6.8-2.86-2.58c-.8,2.92-.42,4.86.35,7.21l.51.28-.54.88-.57-.79-1.39.47c-.26.09-.18,1.21-.17,1.56l.11,4.1-3.95.12c-3.17-7.55-9.21-13.38-16.07-17.76l-.43.93,4.95,10.23,2.94,6.35-11.58.46c-6.97-11.51-12.24-23.24-16.42-36.05l54.3-.55,33.84-.03ZM28.74,264.97l.66-.33-.66.33ZM29.75,264.92l-.52.59.38.4.67-.58-.53-.41Z"/>
  <g>
    <path class="st2" d="M345.63,283.18l-3.21,5.36-66.95,1.02-22.03.26-9.18-.18c.82.82,1.65,1.11,2.65,1.18l8.73.59,9.37,1.03,26.22.61c8.47.2,16.45-.81,25.01,1.33l-21.71.26-6.57-.42-27.73-.15c-4.14-.02-8.34-1.37-12.56-.79l-4.7,1.35,9.36,1.43c3.58.55,7.53-1.49,10.99.89l-22.27,2.25-5.29-.1c-1.13-.02-3.01.74-3.95,1.3-4.13-.21-8.74-1.12-12.99,1.27l14.39.09,11.99.66c-8.66,2.01-17.4,1.45-26.33,1.58l-18.02.27-19.18-.32.37-.47,11.91-.35,12.39-.8c1.26-.28,1.43-.77-.19-1.18,2.32-.22,4.44-.53,6.72-1.31l-13.34-1.16-15.58-1-31.59-.88c10.65-1.66,20.97-.99,31.67-1.07l34.29-.26.36-.52-13.83-.39-10.58-.06-17.88-.11-42.16-1.05c-1.15-.03-3.32,2.17-4.06-.53l9.97-.46,12.55-.64,22.41-.05,8.75-.43c4.81-.24,9.29.13,13.89-.72l-13.64-.6c12.72-1.32,25.37-1.46,38.49-1.62l21.87-.27-10.71-.89-13.82-.59,58.73-2.09,35.7-.14,2.64-1.34,12.99-.16,5.51.17,10.15.21Z"/>
    <path class="st3" d="M38.83,284.83l1.21,2.38-8.92.22c-.77.01-2.68-.27-2.93-.95l-.78-2.18,11.41.53Z"/>
    <path class="st3" d="M219.92,286.54l13.82.59,10.71.89-21.87.27c-13.12.16-25.78.3-38.49,1.62l13.64.6c-4.59.85-9.08.48-13.89.72l-8.75.43-22.41.05-12.55.64-9.97.46c.74,2.7,2.91.51,4.06.53l42.16,1.05,17.88.11,10.58.06,13.83.39-.36.52-34.29.26c-10.7.08-21.01-.59-31.67,1.07l31.59.88,15.58,1,13.34,1.16c-2.29.78-4.4,1.09-6.72,1.31,1.62.41,1.45.9.19,1.18l-12.39.8-11.91.35-.37.47,19.18.32,18.02-.27c8.93-.13,17.67.42,26.33-1.58l-11.99-.66-14.39-.09c4.25-2.39,8.87-1.49,12.99-1.27.94-.57,2.83-1.32,3.95-1.3l5.29.1,22.27-2.25c-3.46-2.38-7.41-.35-10.99-.89l-9.36-1.43,4.7-1.35c4.22-.57,8.42.77,12.56.79l27.73.15,6.57.42,21.71-.26c-8.55-2.14-16.54-1.14-25.01-1.33l-26.22-.61-9.37-1.03-8.73-.59c-1-.07-1.83-.36-2.65-1.18l9.18.18,22.03-.26,66.95-1.02-8.68,12.53-62.33,1.96,31.24,2.15,26.16,1.92c-1.09,2.03-2.82,3.08-4.81,3.37l-15.98,2.39c-1.46-1.79-2.78-1.75-4.93-1.7l-56.66,1.38-25.83.97,9.94,1.08,20.32,2.32,29.6,3.81v.81s-7.81.91-7.81.91c-29.57,3.43-58.98,4.84-88.44,4.22l-4.48-.09c.84-1.95.6-3.98-.87-4.92-4.11-2.65-8.38-1.55-10.79,2.37-1.06-.48-2.89-1.2-3.66-.97s-1.57,1.37-2.38,2.39c-1.55,1.97-4.73,1.15-6.67-.16l-10.41-7.04c-3.4-2.3-9.29,3.6-13.22-.1l4.7-3.35,1.88-.56-1.96-4.92-.63-1.83c-.66-1.92-6.99-1.08-11.44,2.49,1.19-2.59,3.05-5.48,5.13-7.18l4.71-1.61c-1.03-1.09-2.38-2.14-2.08-2.7l1.47-2.76c-6.71-.79-10.1,5.6-13.67,11.92l-.65-6.88c-3.45,3.74-4.15,6.95-5.8,11.5-2.03-8.21-3.72-16.45-4.62-24.75l19.6.29,44,.03,18.59-.53,16.52-.61,12.46-.15ZM180.39,303.42h-6.27v.66h6.27v-.66Z"/>
    <rect class="st2" x="174.12" y="303.42" width="6.27" height=".66"/>
    <g>
      <path class="st3" d="M41.36,289.44c4.39,7.43,7.2,15.59,8.34,24.6l-7.36-12.96c-2.78-4.89-6.79-8.4-11.85-10.66-.12-.26.57-1.43.95-1.4l9.92.42Z"/>
      <path class="st3" d="M87.09,284.09c2.3.55,5.81.84,7.49,1.93l2.39,1.57,2.11,28.59c-3.47,1.05-3.65-7.54-9.52-10.43l1.12,8.39-5.98-9.11c2.18-1.03,4.19-2.3,5.64-4.28l-5.79,2.03c-1,.35-2.94-.63-3.64-1.3l-1.12,2.7c-.25.61-2.33.47-3.14.65-5.08,1.17-9.19,4.98-13.4,8.89l4.85-13.76c2.8-.2,5.92-1.55,6.32-4.6l4.78-3.06-2.36-1.94c1.76.17,5.59-.08,4.38-2.44l5.88-3.83Z"/>
      <path class="st2" d="M149.17,338.19c-2.3.14-4.96,2.25-7.15.88l-6.12-3.83c-2.78-1.74-5.88-2.86-9.13-3.84l-.72-2.97c-.38-1.58-3.33.2-6.13-2.88l-3.12-3.43c4.13.17,8.42.58,12.19,2.31l12.76,5.86c2.07.95,3.55,1.39,6.16,1.94,2.93.61,5.73,3.45,8.31,5.53l-7.05.43Z"/>
      <path class="st3" d="M79.02,314.68l-2.76-.1,2.58,4.47c-4.4.16-7.82.42-12.02,1.47,2.76-6.55,7.29-11.19,14.07-14.33l4.04,7.73-9.69-3.73c1.19,2.27,2.74,3.36,4.17,4.02l.48.22,1.78,1.68.41.47-.52.61-.55-.47-1.87-1.6-.12-.45Z"/>
      <path class="st3" d="M69.59,289.11c-1.77,1.63-3.93,4.34-4.89,6.64l-6.29,15.05-.2-19.75,3.34-.52c.75-.12,1.3-1.66,1.28-2.31l6.75.89Z"/>
      <path class="st3" d="M52.58,289.98l2.97.02c.2.3.66,2.15.59,2.97l-1.51,17.11-5.16-19.91,3.12-.19Z"/>
      <path class="st2" d="M175.25,341.36c-4.46.01-17.12-4.73-18.68-6.05-.62-.53.27-2.98.93-3.39,2.48.42,5.3,1.92,7.29,3.57,3.5,1.93,6.88,2.88,10.46,5.88Z"/>
      <path class="st2" d="M193.17,338.74c-4.91,2.54-9.73.96-13.97-1.08l-5.32-2.55c5.67-2.31,13.84,1.51,19.29,3.63Z"/>
      <path class="st4" d="M65.36,282.92l8.13.38,1.42.04c.24,0-.17.92-.19,1.04l-5.13,4.73-6.75-.89-1.13-1,2.56-.14c.64-.03,1.05-2.09.79-2.69l-.51-1.15c-.11-.25.68-.32.82-.33Z"/>
      <path class="st2" d="M136.33,309.31l1.96,4.92-1.88.56c-2.73-2.34-6.01-1.83-9.67-.83,2.51-3.15,5.8-4.8,9.6-4.65Z"/>
      <path class="st4" d="M50.49,283.08c.04,1.44.87,2.62,2.51,3.51l-.42,3.38-3.12.19-2.92-6.96,3.95-.12Z"/>
      <polygon class="st3" points="55.35 272.41 55.36 272.84 55.36 273.29 55.35 273.72 55.34 273.29 55.34 272.84 55.35 272.41"/>
      <rect class="st3" x="63.04" y="314.07" width=".47" height=".47" transform="translate(-203.72 136.8) rotate(-45)"/>
    </g>
  </g>
  <g>
    <path class="st4" d="M106.93,247.09l1.4-19.45c4.04-.33,8.16,1.1,10.64,4.49,1.88,2.56,1.68,5.79-.96,7.83,3.38.53,5.64,1.12,8.2,2.12l5.44-1.09c2.15-.43,4.33,1.65,5.35,3.37l21.63,2.09-51.71.64Z"/>
    <path class="st2" d="M201.06,258.83l-.37-.11c-5.85.08-9.47,3.37-13.46,6-4.44,2.93-10.22,3.64-14.91,6.21-2.76,1.51-5.16,2.51-8.59,1.97,4.19-3.16,8.23-5.68,13.13-7.4l5.4-1.89c3.65-1.28,7.86-3.45,10.89-5.62.51-.37,1.91-.76,2.48-.81,4.63-.42,8.16-1.49,12.81-3.15-2,2.25-4.91,3.89-7.39,4.81Z"/>
    <path class="st2" d="M200.7,258.72c-1-.31-.02,0,.37.11-.53.13-.99.77-.37-.11Z"/>
    <path class="st2" d="M285.37,268.62c-1.5,1.85-3.83,3.87-7.06,3.55l7.06-3.55Z"/>
    <path class="st2" d="M286.67,267.89l-1.3.72,1.3-.72Z"/>
    <path class="st2" d="M286.67,267.89l.54-1.58.74-.53-.16,1.48c-.05.36-.8.45-1.12.63Z"/>
    <polygon class="st4" points="316.98 282.96 314.35 284.31 278.65 284.44 219.92 286.54 207.46 286.69 190.94 287.29 172.34 287.82 128.34 287.79 108.74 287.5 108.28 283.24 279.24 283.08 316.98 282.96"/>
    <path class="st2" d="M199.19,263.53l-3.05,4.03c-.39-.97-.87-2.62-.69-3.27.36-1.28,5.11-4.81,8.27-4.41l-4.53,3.65Z"/>
    <rect class="st2" x="276.16" y="273.16" width=".47" height=".47" transform="translate(-112.37 275.51) rotate(-45)"/>
    <rect class="st2" x="204.24" y="259.31" width=".47" height=".47" transform="translate(-123.63 220.6) rotate(-45)"/>
    <rect class="st2" x="277.48" y="272.5" width=".47" height=".47" transform="translate(-111.51 276.25) rotate(-45)"/>
  </g>
  <g>
    <path class="st0" d="M201.06,258.83c-.39-.12-1.36-.42-.37-.11l.37.11Z"/>
    <path class="st0" d="M108.33,227.64l-1.4,19.45c-.83,11.59-.21,23.04,1.15,34.96l13.96-3.29,14.85-3.75,5.03.48c4.28-1.98,8.22-3.78,12.97-4.69h5.33c3.26-2.57,6.72-3.59,10.73-3.71l13.51-7.82c2.73-1.58,5.58-2.02,8.7-1.28-3.03,2.17-7.24,4.34-10.89,5.62l-5.4,1.89c-4.9,1.72-8.94,4.24-13.13,7.4,3.43.54,5.83-.46,8.59-1.97,4.69-2.57,10.46-3.28,14.91-6.21,3.99-2.63,7.61-5.92,13.46-6-.62.88-.17.24.37.11,2.47-.91,5.38-2.56,7.39-4.81-4.65,1.66-8.19,2.73-12.81,3.15,2.67-2.19,6.46-3.17,10.19-4.28,4.78-1.42,9.07-2.53,13.64.39l8.68,5.54c4.42,1.62,8.62,2.36,11.24,6.95l6.6.24,9.96,7.29,8.36,3.46c4.64-1.97,8.99-4.64,13.11-7.35l4.32-.51c1.7-1.11,3.72-2.21,5.47-2.59l-.54,1.58-1.3.72-7.06,3.55c3.22.32,5.56-1.7,7.06-3.55l1.3-.72c.32-.18,1.06-.27,1.12-.63l.16-1.48c7.43-5.28,11.57,2.83,16.22,4.13,2.5.7,4.74,1.19,6.1,3.17,1.56,2.27,3.47,2.67,6.12,2.61,1.72-.04,3.84,3.05,5.31,3.64l8.26,3.46-12.99.16-37.75.12-170.96.16.46,4.27c.9,8.31,2.59,16.54,4.62,24.75,1.65-4.56,2.35-7.76,5.8-11.5l.65,6.88c3.57-6.33,6.96-12.71,13.67-11.92l-1.47,2.76c-.3.56,1.05,1.61,2.08,2.7l-4.71,1.61c-2.08,1.7-3.94,4.59-5.13,7.18,4.45-3.57,10.78-4.41,11.44-2.49l.63,1.83c-3.8-.15-7.08,1.5-9.6,4.65,3.67-1.01,6.95-1.51,9.67.83l-4.7,3.35c3.93,3.7,9.82-2.2,13.22.1l10.41,7.04c1.94,1.31,5.12,2.14,6.67.16.8-1.03,1.6-2.16,2.38-2.39s2.61.49,3.66.97c2.41-3.91,6.68-5.01,10.79-2.37,1.46.94,1.71,2.97.87,4.92l4.48.09,2.44,4.31,4.84,1.82,4.47-1.96c3.16-1.38,6.51-3.03,9.55-.24l6.14,5.63,7.07,3.49c6.31-3.29,5.77,1.32,11.23,2.54l15.43,3.45-42.53,1.6-4.69.52,11.47,3.02-43.95-.4,12.95,4.2c-17.38-.1-34.47-.26-51.95-1.88l16.28-3.66c-17.64.07-34.34.45-51.82-2.31l14.86-2.88-20.58-.26c-6.78-.09-13.01.37-20.11-1.06l15.06-2.8-37.57-3.37,6.12-1.76c-10.67-1.04-19.83-1.92-30.04-4.99l22.29-5.08-6.11-4.57,3.76-.08.59-.73c-3.76-3.26-9.24-5.41-14.86-7.02,6.64-2.68,14.16-.36,19.35,4.2l.73-1.07-3.84-8.76c-1.05-2.4-2.8-2.79-5-3.18l-1.92-.34c-.23-.04.11-.79.28-.96l1.12-1.12-5.86-1.46c-.32-.08-.78-1.31-.49-1.45l2.12-1.03-7.77-2.35,1.74-1.54-8.72-4.46c5.21-.87,9.93-.2,14.23,1.72,5.05,2.26,9.07,5.77,11.85,10.66l7.36,12.96c-1.14-9.01-3.95-17.17-8.34-24.6l-1.32-2.23-1.21-2.38-.9-1.88-2.94-6.35-4.95-10.23-.43-.47-.38-.4-.5-.53.66-.33.35.28.53.41.19.12c6.86,4.37,12.9,10.2,16.07,17.76l2.92,6.96,5.16,19.91,1.51-17.11c.07-.82-.39-2.66-.59-2.97l-2.97-.02.42-3.38c-1.63-.9-2.47-2.08-2.51-3.51l-.11-4.1c0-.35-.09-1.48.17-1.56l1.39-.47.6-.37c-.77-2.35-1.15-4.29-.35-7.21l2.86,2.58-.52-6.8c3.43-.9,1.74-4.64,4.87-8.58l1.26,9.31,1.31-1.41c.19-.2,1.08,1,.7,2.16l-2.57,7.86,4.83-3.9c.11,3.67-.75,5.81-2.14,8.44l3.39-.55-.82,4.44c-.14,0-.92.09-.82.33l.51,1.15c.26.6-.15,2.65-.79,2.69l-2.56.14,1.13,1c.02.65-.53,2.19-1.28,2.31l-3.34.52.2,19.75,6.29-15.05c.96-2.31,3.12-5.02,4.89-6.64l5.13-4.73c1.13-.27,2.25-.72,3.46-1.35,3.9-2.03,7.99-2.73,12.57-3.03l-1.57,2.56,7.68-1.37c-.13-12.09.03-23.05,1.22-34.4l1.46-13.97c2.74-26.28,9.48-51.68,17.93-77.22-2.02.52-2.3,1.98-3.26,4.2l-1.33-1.72-2.26,7.83-1.83-1.81c-.08,7.42-3.47,7.69-3.35,6.94l-.28,1.81c-.08.49-.73,2.05-.74,1.9l-1.3-4.59-1.59,10.48-1.98-3.47-1.34,8.81-1.96-4.26-.46,8.05-1.68-3.46-2.39,10.44c-2.97-6.43-.52-12.83-3.75-12.62l2.16-11.63c.31-1.69.68-3.22,1.28-4.92l1.79-5.05c2.07-5.85,6.9-10.25,11.03-14.83-.77-2.36-4.44,1.59-5.08.53l-.93-1.53c-1.84,2.64-2.92,4.13-5.82,5.57l.26-4.94-3.08,4.64c-1.45,2.18-3.43,3.77-5.75,4.43l.25-5.77-3.19,5.98c-.73,1.37-2.38,2.84-3.9,3.85l-.23-8.72-3.9,8.64c-.85,1.89-2.04,3.31-3.86,4.77l-.13-6.5-5.24,8.45c-.79,1.28-3.19,3.11-4.42,4.3l-.17-6.29-7.1,10.69c-.36-5.19,1.07-9.08,2.77-13.61l-2.72,1.26c4.48-10.19,10.03-18.35,19.7-23.32-.58-.32-1.44-.77-1.22-.96l.96-.82c9.4-6.53,20.05-7.9,31.71-8.81-2.37-1.23-4.62-1.26-7.29-1.65l1.68-2.07c-3.51.88-5.1,1.43-8.7.9l4.6-6.2c-3.85,1.58-6.75,3.13-10.03,5.15l-4.86-.7,4.75-7.22c-4.61,1.69-7.14,3.64-10.52,6.25l-4.47.58,2.76-5.53c-5.69,1.34-7.6,6.13-11.6,5.76l3.43-7.27-7.83,7.07c-.6.55-2.13,1.07-2.83,1.19l2.28-5.54-10.32,5.7c2.53-5.37,6.36-8.88,11.07-12.89l-2.35-.69c4.44-3.78,9.64-4.73,15.8-6.15l-4.64-1.16c3.76-1.49,7.63-1.84,11.89-1.84,11.03-.77,21.46,2.72,30.09,9.05l.88-.77-3.87-5.05,5.02.85-8.59-5.42c-1.18-.74-2.58-3.07-3.92-4.67l6.11-.49-8.66-3.5c-.86-.35-2.27-2.04-2.61-2.61l4.59-.6-7.36-2.64,3.98-1.36-8.78-4.22,6.88-1.03-10.18-6.5c4.36-.97,7.62.41,11.73,1.77l-1.82-2.8c2.22.71,4.15,1.88,6.12,3.23l.45-1.07c3.59.84,5.81,4.2,8.05,7.05l.56-.49-.12-1.21-.55-.41.54-.64.57.4c2.96,2.06,5.09,5.48,6.44,9.03l1-2.64,3.48,6.21,2.3,1.73,3.94,9.26c-.07-2.53-.09-4.12.37-5.78l-1.04-7.1,1.53-.42-.88-6.81,2.1.61c-.63-2.95-.48-5.66.51-8.57l.74-3.61,1.31,3.59,1.19-8.86c1.95,3.65,1.87,6.02,2.36,10.1l1.59-4.7.37,7.25,1.32-1.94c.84,4.09.03,6.9-.96,11.19l2.35-3.38.04,7.05.02,5.82-.4,5.34c4.61-7.35,9.78-13.3,16.73-17.68.63-.06,2.41-.32,2.95-.65,2.26-1.59,6.38-3.58,9.4-3.97l11.52-1.48.22,2.06c4.95.33,9.22,1.67,12.71,5.17l-8.09.09,2.74,3.02-10.89-1.33,5.05,3.48c-1.49,3.52-6.58-.19-13.59.7l6.8,3.17c-1.1,1.17-2.65,1.97-3.67,1.99l-10.26.22,6.75,2.75c-.36.61-1.86,2.01-2.72,2.08l-10.13.83,7.37,2.2-5.47,3.34c-1.54,2-3.2,3.25-6,4.17-1.44.27-2.05,1.1.22,1.33l-9.03,9.03c7.14-4.42,13.14-9.01,21.06-11.41,7.19-2.19,14.92-3.28,22.23-2.05l8,1.34c1.13.19,2.88,1.74,3.93,2.27l11.33,5.79-.11,2.26c4.7,3.87,8.71,8.51,9.32,14.63l-8.95-7.56c.36,2.92.62,4.16.39,6.33l-6.68-7.79-.51.53-.25,6.14-6.11-5.92-.39,3.91c-2.6-.32-2.66-1.19-.26-1.28l-4.38-3.96-.66.56.93,4.4c-4.83.18-6.79-5.43-11.77-8.12l3.56,7.66-4.49-.16-5.08-3.54-.75,1.02.83,3.12c-2.13-.31-4.9-1.3-6.01-2.34l-.63.42,1.1,1.37c.24.3-1.45.78-1.81.6l-4.07-1.89-.46.56.76,1.52-9.4.34c8.06,1.5,16.4,2.31,22.42,7.8l6.89,6.29c8.77,8.01,13.21,19.49,11.13,31.52l-3.78-8.5-1.29,4.32-2.74-7.73-1.64,4.63-2.74-7.19-1.51,4.14-4.53-11.46-.56,7.18c-.89-.68-2.6-2.02-3.04-2.96l-3.8-8.21-.52,6.42c-1.78-.95-2.89-2.65-3.84-4.76l-1.3,1.32c-.24.25-1.26-.83-1.45-1.15l-3.42-5.92-.44,3.97-2.05-.92-.7.65c5.21,5.46,9.28,12.74,11.06,20.27l1.78,7.54c1.14,4.85.93,9.54-.24,14.27-.95,3.83-.96,7.17-3.7,10.78l-.99-11.37-3.02,4.8-.54-11.71-2.56,4.75-1.34-6.59-1.08-8.73-1.88,5.4c-2.96-3.93-.8-7.69-1.72-12.43l-1.76,5.16-3.03-6.41c.09,3.39.82,6.7.16,9.69l-1.09,4.93c-.96,4.36-2.26,8.01-4.31,12.53l-.57-8.05c-.51,0-1.39.07-1.35-.25l.24-1.71c.15-1.06-.56-2.68-1.67-3.74l.12-4.99-1.78.42.38-3.83c-2.89-2.41-.38-6.21-1.43-6.39l-1.71-.28.51-8.83-1.68,1.84-.53-7.36c-7.01,19.44-11.4,39.29-14.94,59.77l-2.08,15.99ZM96.31,76.37l-.65.54.45.46.57-.64-.37-.36ZM96.58,77.83l.61-.61-.61.61ZM104.6,83.55l.57-1.17-.57,1.17ZM106.68,112.69l.4-.97-.4.97ZM108.08,113.37l-.04-.69.04.69ZM108.79,113.41l-.34.33.33.33.33-.33-.33-.32ZM109.46,114.05l-.33.33.33.32.34-.34-.33-.32ZM109.94,115.18l.36-.32-.36.32ZM111.26,115.87l.35-.33-.35.33ZM112.1,116.03l-.34.34.33.33.34-.34-.33-.33ZM112.59,117.19l.33-.35-.33.35ZM196.26,126.66l.44-.72-.44.72ZM185,127.39l.53-.87-.53.87ZM197.24,126.55l-.69.54.63.94.55-.54-.48-.94ZM166.12,127.71l1.19-.68-1.19.68ZM167.73,127.55l-.72.81.45.4.71-.68-.45-.52ZM190.61,127.91l-.33.33.33.33.33-.33-.33-.33ZM104.84,129.23l-.33.33.33.33.33-.33-.33-.33ZM161.22,129.71l.77-.43-.77.43ZM107.69,130.29c-1.54-.14-1.43-.13.28.03.7.07.44.04-.28-.03ZM155.94,130.39l.85-.51-.85.51ZM104.45,146.72l.7.06,2.04-1.32-.35-.36-2.39,1.62ZM98.9,145.72l-.33.33.33.33.33-.33-.33-.33ZM151.68,147.7l-.33.33.33.33.33-.33-.33-.33ZM147.02,150.26l.9-.58-.9.58ZM148.46,150.24l-.75.64.5.49.62-.75-.36-.38ZM149.1,150.89l-.75.61.54.48.61-.69-.41-.4ZM117.37,153.64v.43s-.01.45-.01.45v.43s.02-.43.02-.43v-.88ZM89.66,182.02v.43s-.01.45-.01.45v.43s.02-.43.02-.43v-.88ZM204.47,259.21l-.33.33.33.33.33-.33-.33-.33ZM199.19,263.53l4.53-3.65c-3.16-.4-7.91,3.13-8.27,4.41-.18.65.3,2.3.69,3.27l3.05-4.03ZM55.35,272.41v.43s-.01.45-.01.45v.43s.02-.43.02-.43v-.88ZM277.71,272.41l-.33.33.33.33.33-.33-.33-.33ZM276.39,273.06l-.33.33.33.33.33-.33-.33-.33ZM52.51,277.74l.54-.88-.54.88ZM87.09,284.09l-5.88,3.83c1.2,2.36-2.63,2.62-4.38,2.44l2.36,1.94-4.78,3.06c-.39,3.04-3.51,4.39-6.32,4.6l-4.85,13.76c4.21-3.91,8.32-7.72,13.4-8.89.81-.19,2.88-.04,3.14-.65l1.12-2.7c.7.67,2.65,1.65,3.64,1.3l5.79-2.03c-1.45,1.98-3.46,3.25-5.64,4.28l5.98,9.11-1.12-8.39c5.87,2.89,6.06,11.49,9.52,10.43l-2.11-28.59-.12-4.41-8.01-.1c-.33,0-1.38.77-1.75,1.01ZM79.41,314.21c-1.42-.66-2.98-1.75-4.17-4.02l9.69,3.73-4.04-7.73c-6.78,3.14-11.31,7.79-14.07,14.33,4.2-1.06,7.61-1.32,12.02-1.47l-2.58-4.47,2.76.1.38-.47ZM63.27,313.97l-.33.33.33.33.33-.33-.33-.33ZM79.89,314.44l-.75.69,1.87,1.6.66-.61-1.78-1.68ZM44.85,315.78l-.83.73.75.8.69-.54-.62-.98ZM82.08,316.59l-.52.61.52-.61ZM45.33,317.9l.38-.74-.38.74ZM39.19,320.6l1.07-.57-1.07.57ZM149.17,338.19l7.05-.43c-2.58-2.08-5.38-4.92-8.31-5.53-2.62-.54-4.1-.99-6.16-1.94l-12.76-5.86c-3.77-1.73-8.06-2.14-12.19-2.31l3.12,3.43c2.8,3.08,5.75,1.3,6.13,2.88l.72,2.97c3.25.98,6.35,2.09,9.13,3.84l6.12,3.83c2.18,1.37,4.84-.74,7.15-.88ZM175.25,341.36c-3.58-3-6.97-3.95-10.46-5.88-1.99-1.65-4.81-3.15-7.29-3.57-.66.41-1.56,2.86-.93,3.39,1.56,1.32,14.22,6.06,18.68,6.05ZM193.17,338.74c-5.45-2.12-13.62-5.94-19.29-3.63l5.32,2.55c4.25,2.04,9.06,3.62,13.97,1.08Z"/>
    <path class="st3" d="M107.97,130.31c.7.07.44.04-.28-.03-1.54-.14-1.43-.13.28.03Z"/>
    <polygon class="st3" points="117.37 153.64 117.39 154.08 117.39 154.52 117.37 154.95 117.36 154.52 117.36 154.08 117.37 153.64"/>
    <polygon class="st3" points="89.66 182.02 89.67 182.45 89.67 182.89 89.66 183.32 89.65 182.89 89.65 182.45 89.66 182.02"/>
    <polygon class="st3" points="104.45 146.72 106.84 145.09 107.18 145.45 105.14 146.77 104.45 146.72"/>
    <rect class="st3" x="98.67" y="145.82" width=".47" height=".47" transform="translate(-74.31 112.71) rotate(-45)"/>
    <rect class="st3" x="151.45" y="147.8" width=".47" height=".47" transform="translate(-60.25 150.61) rotate(-45)"/>
    <rect class="st3" x="104.6" y="129.32" width=".47" height=".47" transform="translate(-60.9 112.08) rotate(-45)"/>
    <polygon class="st3" points="108.08 113.37 108.04 112.68 108.79 113.41 109.12 113.73 109.46 114.05 109.79 114.37 110.3 114.87 109.94 115.18 109.46 114.71 109.12 114.38 108.79 114.06 108.45 113.73 108.08 113.37"/>
    <polygon class="st3" points="111.26 115.87 111.61 115.54 112.1 116.03 112.43 116.36 112.91 116.84 112.59 117.19 112.09 116.69 111.76 116.36 111.26 115.87"/>
    <rect class="st3" x="190.38" y="128" width=".47" height=".47" transform="translate(-34.85 172.34) rotate(-45)"/>
  </g>
</svg>