<?xml version="1.0" encoding="UTF-8"?>
<svg id="Layer_1" xmlns="http://www.w3.org/2000/svg" version="1.1" viewBox="0 0 208.83 240.44">
  <!-- Generator: Adobe Illustrator 30.6.0, SVG Export Plug-In . SVG Version: 2.1.4 Build 109)  -->
  <defs>
    <style>
      .st0 {
        fill: #181815;
      }

      .st1 {
        fill: #3e3d3a;
      }

      .st2 {
        fill: #d99d30;
      }
    </style>
  </defs>
  <path class="st0" d="M31.63,163.97c-1.26-4.3-4.64-10.18-7.75-14.64,8.19,1.1,13.55,7.5,15.31,16.24,2.9-8.58,10.35-14.96,20.08-13.41-5.34,3.5-9.9,9.06-12.52,15.5,10.64-3.26,18.7-.97,23.69,7.6-5.51-.94-10.61-2.19-15.12-1.39l-9.49,1.69c10.01.92,16.87,9.44,16.58,19.69l-7.94-6.96-5.94-3.44-7.72-4.25c-.04,14.26,1.58,27.45,8.69,39.37l2.63-3.5,1.58.6c.5.19,1.55-1.15,1.16-1.52l-2.57-2.47c-.17.02,1.84-.21,3.02-.35.95-.11,1.21,1.68,1.76,3.51l.87-1.72c.24-.47,1.44-1.93,1.54-1.41.13.65.37,2.6.87,2.55l2.31-.23-2.04,3.24c4,.06,5.98-.56,7.99-2.39l3.25-2.61,1.64,3.74.85-2.57c.16-.49,1.07-.1,1.35.31.7,1.05,1.9,2.17,2.76,2.39,1.11.3,2.71-1.67,2.95-3.27,7.36-50.93,32.04-74.86,33.91-95.97,1.56-17.71-10.99-31.94-28.61-32.13-8.73-.09-17.94,3.29-24.11,9.48-10.54,10.58-17.04,4.9-28.26,11.81-9.87,6.08-28.11,12.73-32.99,7.86-1.27-1.27-1.76-4.79-.96-7.06,2.3-6.51,16.38-1.46,28.66-6.88,6.17-4.13,12.75-5.83,20.11-5.79l2.93-2.25c2.75-2.11-6.8-8.69-22.05-4.37-8.22,2.33-17,2.48-25.05,0-3.92-1.21-4.81-5.68-3.39-8.8,1.28-2.79,5.37-4.95,8.89-3.39,8,3.55,15.84,5.11,24.39,2.33,12.88-4.19,17.94,5.18,25.45,5.44,1.69.06,4.93-2.5,4.8-4.37-.65-9.14-13.28-13.74-24.08-12.1-9.67,1.48-17.28-1.02-25.48-5.87-2.22-1.31-4.97-3.58-5.22-5.88-.32-2.97,1.47-6.43,3.92-7.47s6.42.16,8.52,2.33c11.31,11.74,27.63,12.01,24.44,4.76-6.93-15.7-24.89-16.77-20.57-26.79,1.23-2.85,6.28-6.01,9.46-3.05,5.45,5.06,10.8,11.51,14.37,18.17,3.37,6.29,5.33,12.87,12.1,16.28l12.36,6.23c4.63-2.33,2.21-8.93-.93-11.75-5.64-5.07-9.14-10.69-11.26-17.86-4.77-16.08-16.61-20.87-9.9-27.66,2.35-2.38,7.39-3.68,10.02-.39,4.64,5.81,6.77,12.94,7.41,20.43.68,7.93,4.9,12.65,7.92,11.4,1.03-.43,2.77-2.07,3.38-3.17,9.08-16.3-3.25-30.36,2.64-35.93,2.09-1.98,6.03-2.4,8.55-1.26,6.4,2.88,5.2,26.1-1.76,36.51-4.04,6.04-8.24,12.17-5.82,19.84,1.33,4.22,1.16,8.64.44,13.18s4.86,6.41,8.16,5.55c4.28-1.12,6.45-5.61,4.59-10.11-2.77-6.7-2.26-14.54,3.14-19.99,8.12-8.2,13.33-18.37,14.11-30.05.33-4.88,4.53-7.73,8.6-7.03s8.11,4.78,6.45,9.59c-2.66,7.72-6.56,15.65-11.57,22.04s-12.25,15.03-7.61,21.17c.89,1.18,4.72,1.45,6.08.62l8.77-5.31c8.19-4.96,14.52-10.73,18.97-19.1,2.07-3.9,7.01-5.34,10.21-3.45,3.39,2,4.89,7.19,2.01,10.78-5.72,7.12-12.51,13.41-20.52,18.26l-7.99,2.88c-5.81,2.1-10.45,6.03-12.37,12.19-.72,2.31.52,5.81,2.01,7.54,1.24,1.43,5.96,2.06,7.08.39,4.1-6.13,8.37-10.13,15.72-11.46,8.61-1.55,16.28-5.33,22.71-11.28,3-2.78,7.59-2.81,9.95,0,2.13,2.54,2.59,7.65-1.16,9.92-5.8,3.51-13.19,7.34-20.01,8.18-9.16,1.13-15.56,4.49-21.16,11.55-2.76,3.47-3.53,5.97-1.14,10.31,5.4,9.83,6.04,21.89,3.31,32.84l-4.79,19.3c-5.04,20.31-3.64,41.66,5.64,60.37-12.13-.22-23.93-.27-35.25,3.43,6.04,1.12,10.23,2.13,15.78,4.16l11.89.2-.09,3.94,6.56.02c3.07,1.33,5.78,2.05,9.3,1.77,2.95-.24,4.89,1.51,7.39,2.09l17.23,4.04-55.86.74,23.4,4.06-58.33.1c4.64-2.07,8.92-1.09,13.01-3.71l-45.36-1.13,16.29-3.47-26.06-.89-33.37-.8,10.15-3.52-.29-2.32c-.06-.49,2.24.36,2.8.29l6.02-.72-3.75-4.16,4.26.82c.72.14,1.83-.84,2.52-1.13l4.09-1.12s.86.8,1.13,1.07c.24.23.51.24.64-.08l1.08-2.74,2.39,3.36,1.55-1.64c.44-.46.99.83,1.86,2.72l5.54-1.86c-3.25-13.09-3.92-24.11-4.28-37.89l-2.54,4.33-2.48,3.3-8.12,14.4c-3.2-8.37-.99-15.87,4.74-22.69-7.84,2.34-13.49,5.52-20.03,9.73,1.39-11.2,10.65-17.11,21.6-16.87-6.45-3.25-12.77-5.3-20.93-7.05,5.36-5.36,13.76-5.22,20.57-1.17l1.8-1.52ZM32.32,166.33l-1.77-.07c.61.02,2.87.11,1.77.07ZM45.58,167.58l-.65.02.65.02h.68l.65-.02-.65-.02h-.68ZM29.42,180.09l-.5.5.5.5.5-.5-.5-.5ZM100.71,228.03l-1.47-2.02-14.49.17,1.89,2,14.06-.15Z"/>
  <circle class="st2" cx="85.66" cy="115.14" r="18.62"/>
  <path class="st0" d="M166.55,213.76l-5.54-.81c-3.04,1.21-7.18,1.79-10.47-.32-1.94-.23-5.5.37-7.35.6l-6.38-6.78,14.95.55c-1.83-4.28-4.87-3.13-8.75-2.58l6.8-18.75.71,16.97,1.35.59-.49-15.98-.27-11.69,16.93,27.43-14.73,1c-.52.04-.49,3.16.03,3.13l19.67-.94-6.46,7.57Z"/>
  <path class="st0" d="M37.78,129.86c-8.26,8.77-24.41,20-28.35,10.32-1.34-3.3.51-7.62,4.79-8.79,8.4-2.31,15.83-5.49,22.46-11.67l10.85-7.84c.67-.48,3.79.25,3.87.99s-.17,2.72-.82,3.41l-12.81,13.59Z"/>
  <path class="st0" d="M141.8,105.78c-1.24.74-2.94-3.49-2.25-4.99,5.93-12.72,17.46-6.29,32.81-12.21,2.9-1.12,6.63-.17,7.82,2.5s.16,6.95-3.31,7.9c-5.07,1.38-11.1,2.19-16.16,1.33-7.28-1.23-12.65.87-18.91,5.46Z"/>
  <path class="st0" d="M179.9,151.03c-6.5-3.81-12.7,1.84-22.43.66l10.87-6.05-14.7-5.74c7.11-2.08,13.82-1.26,20.26,2.74,2.83-6.3,3.66-11.5,2.7-17.7,6.3,4.62,8.01,12.38,4.63,19.28l4.42,3.24c-.17,2.69-3.48,4.9-5.75,3.57Z"/>
  <path class="st0" d="M173.88,120.77c-4.13-.47-7.89-1.46-11.83-2.81-9.48-3.25-17.14,4.97-18.53,3-2.7-3.8,3.49-12.18,16.94-11.14l14.12,1.09c2.48.19,4.93,2.55,5.02,4.78.12,2.7-2.57,5.45-5.72,5.09Z"/>
  <path class="st1" d="M185.3,220.96c-3.85.05-8.38,2.09-11.43.85l8.75-2.44-13.37-.43-.59,2.64c-.14.61-1.65.63-3.08.51l1.96-2.85-19.71.25c-10.97.14-21.47,1.5-32.81-.21,8.57-2.47,16.55-.67,24.94-1.15l12.83-.74,10.11.26,15.21-.16,16.58,2.52c4.92-1.45,8.86-3.01,14.14.42l-7.83-.35c-5.15,2.01-9.53.79-15.69.88Z"/>
  <path class="st1" d="M166.55,213.76c12.42,1.81,19.2-3.72,22.88.52l-10.49,1.17-24.2.41-17.09-.31c-.61-.01-2.03-1.54-1.54-1.57l1.73-.09,5.35-.66c1.85-.23,5.41-.83,7.35-.6,3.28,2.11,7.43,1.53,10.47.32l5.54.81Z"/>
  <path class="st0" d="M158.8,128.21c-4.24,3.24-12.27,7.05-16.26,6.26,2.38-7.2,9.49-8.81,16.26-6.26Z"/>
  <path class="st1" d="M204.13,226.95c-2.49,1.99-6.55,2.04-10.32.94l-9.06.5c2.36-1.8,7.04-4.15,9.32-3.4,3.54,1.36,4.93,1.58,10.06,1.96Z"/>
  <path class="st1" d="M165.06,222.79l-19.22.42c6.04-2.92,12.7-3.06,19.22-.42Z"/>
  <polygon class="st1" points="100.71 228.03 86.65 228.18 84.76 226.17 99.25 226.01 100.71 228.03"/>
</svg>