<?xml version="1.0" encoding="UTF-8"?>
<svg id="Layer_1" xmlns="http://www.w3.org/2000/svg" version="1.1" viewBox="0 0 205.75 240.62">
  <!-- Generator: Adobe Illustrator 30.6.0, SVG Export Plug-In . SVG Version: 2.1.4 Build 109)  -->
  <defs>
    <style>
      .st0 {
        fill: #3e3d3a;
      }

      .st1 {
        fill: #d0942a;
      }

      .st2 {
        fill: #181815;
      }
    </style>
  </defs>
  <circle class="st1" cx="89.04" cy="114.15" r="18.52"/>
  <path class="st2" d="M24.07,145.95c-4.39,2.46-8.66,1.61-10.78-1.62-2.55-3.9-.32-8.78,4.18-10.16,9.48-2.9,17.13-7.97,24.27-14.95l9.26-7.23c.54-.42,3.47-.3,3.55.3l.44,3.3c-9.18,11.37-18.75,21.77-30.92,30.36h0Z"/>
  <path class="st2" d="M144.25,100.86c-1.92.25-3.42-3.5-2.39-5.55,2.98-5.96,8.77-9.63,15.54-10.17,7.1-.57,13.28-3.01,19.33-6.48,3.54-2.03,8.15-.74,9.14,2.93s-.83,6.77-4.8,8.05c-6.84,2.2-13.57,3.42-20.67,3.13s-11.34,2.95-16.15,8.1h0Z"/>
  <path class="st2" d="M187.12,110.46c-16.19,3.07-22.34-6.62-36.98,3.37-.61.42-2.3.85-2.98.59s-.63-2.36-.61-3.49c4.38-7.24,13.16-11.06,21.81-8.21l14.1-1.63c2.61-.3,5.64.59,6.58,2.56.79,1.66-.05,6.46-1.91,6.81h-.01Z"/>
  <path class="st2" d="M179.29,130.99c-9.16-1.71-16.45-9-28.87-1.62-.72.43-2.83.54-3.36.37-2.68-.86,4.27-13.3,20.15-10.68l14.05,2.32c2.41.4,4.28,2.9,4.19,5.04-.14,3.06-2.76,5.21-6.16,4.57Z"/>
  <path class="st2" d="M168.74,148.05c-7.57-5.04-14.2-6.9-22.73-3.19-2.84-5.98,8.6-10.49,18.04-7.58l9.31,2.87c1.66.51,2.89,4.31,2.36,5.85-.64,1.88-4.73,3.54-6.97,2.05h-.01Z"/>
  <path class="st0" d="M71.02,184.56l-1.88-1.48c2-1.44,6.28-2.51,8.41-1.72l11.89,4.38c-7.71,1.15-14.63-3.21-18.42-1.19h0Z"/>
  <g>
    <path class="st2" d="M69.14,183.09l1.88,1.48c.63.23,1.79.56,1.77,1.07l-.09,1.74c-7.58-.52-13.87,1.8-20.79,5.2-9.79,4.82-8.89,11.08-6.79,23.11l5.74-7.19-.8,5.54,3.92-1.9-1.1,3.27c-.2.6,2.65,1.41,3.33,1.38l12.79-.6-.71-2.8c-.11-.45,1.52.2,1.92.43l1.23.71,1.14-1.28-2.52-4.13,5.61,1.9,1.1-.95-.89-4.68c2.26,2.73,3.13,4.44,4.11,6.56.77-.91,2.43-2.88,2.36-2.79l1.25,3.22c.18.47,1.38.4,1.98.57,6.49,3.06,15.53-.48,26.59,1.97l-1.1-4.47c-.23-.94,1.1-2.63,2.28-2.83.33.1.72.24.95.24l3.99.15,1.99.07,1.04-1.18.02-1.75c.02-1.8,7.96,1.61,8.18-1.87l-13.85-.22-.14-6,8.17-.63-5.35-1.6c-3.32-.99-8.86-1.32-9.71,3.25-.54,2.93-1.18,5.37-2.27,8.34-1.3-.79.55.33.94.57l2.87,1.8c.8.5-.13,4.16-.69,4.15l-8.52-.68c-3.2-.25-6.3,0-9.52.6-1.01-23.45,4.58-45.67,15.59-66.21,3.79-7.07,7.3-13.86,9.66-21.43,4.26-13.64-.21-28.86-12.73-35.99-12.52-7.12-28.15-3.92-38.21,6.15-10.71,10.72-17.23,5.62-27.1,11.91C24.9,116.08-.09,126.67,1.04,112.48c.95-11.98,16.93-1.7,35.02-12.9,8.38-5.19,16.29-1.7,18.97-6.23,1.8-3.05-9.19-8.21-20.18-4.94-14.98,4.45-34.7,2.76-31.87-7.6,1.14-4.17,5.82-6.29,9.92-4.33,7.97,3.81,16.12,5.27,24.66,2.7,14.32-4.31,19.62,7.13,26.61,5.19,1.54-.43,3.83-3.46,3.17-5.29-2.87-7.99-11.61-12.09-20.03-11.32-11.23,1.02-20.51-.43-29.75-7.25-2.35-1.73-4.63-3.79-4.41-7.05.16-2.43,2.28-5.56,4.94-6.18,8.06-1.88,13.67,16.58,32.37,12.4-1.49-14.59-15.54-18.48-20.01-25.63-2.29-3.67.12-8.01,3.08-9.33,3.77-1.68,6.77.62,9.2,3.82,5.42,7.13,10.31,14.1,13.47,22.38,2.31,6.05,7.02,8.92,12.34,11.96l7.89,4.52c7.23-9.69-7.67-13.21-11.69-28.89-1.97-7.68-5.87-14.15-10.32-20.55-2.2-3.17-1.33-7.56,1.73-9.55,8.75-5.69,14.46,9.26,15.37,23.5.18,2.85,2.61,10.28,6.75,8.03,6.11-3.32,7.06-14.22,5.81-20.45l-2.36-11.73c-.78-3.88,1.92-7.25,5.21-7.69,3.69-.49,7.02,1.69,7.47,5.94,1.31,12.36.41,24.45-6.44,34.48-3.84,5.63-4.76,11.67-2.19,18.15,1.18,2.96,1.02,6.96.61,10.31-.61,5.01,4.4,7.1,8.39,6.2s6.27-5.66,4.13-9.67c-4.74-8.85-2.35-17.71,4.28-24.81,13.05-13.98,3.86-34.28,15.68-34.05,14.28.27,4.81,22.64-5.37,36.49-5.13,6.98-5.59,16.29-1.33,18.03,1.16.47,3.96-.39,4.98-1.14l10.46-7.77c6.81-5.06,12.04-11.35,14.65-19.48,1.27-3.96,5.28-6.38,8.73-4.96s6.85,6.35,4.05,10.05l-11.53,15.27c-7.07,9.36-27.11,10.57-26.34,25.78.11,2.09,1.98,4.77,3.24,5.83,1.34,1.12,6.03.69,6.63-.94,6.3-17.07,23.01-9.31,36.76-29.31,1.82-2.65,6.18-3.56,8.24-2.51,2.61,1.33,5.17,6.9,2.55,9.72-5.24,5.62-12.41,11.58-20.31,14.03-10.52,3.26-21.59,9.25-23.56,21.31,5.17,8.59,9.08,18.34,7.59,29.06l-5.13,21.83c-3.27,13.9-5.62,27.52-3.25,40.74l.72-.69,3.56-7.9,7.76-1.14.81-8.31,11.36-1.77,26,2.94-.28,7.76,9.43,1.33,2.8,14.36c.64,3.28.11,8.14-.3,11.43l2.12,1.04c.43.21-.28,2.02-.75,2.08l-6.68.78-3.53,10.13,9.99-3.47,3.35,4.82c2.94.58,6.4.74,9.47,2.96l-38.43.69-16.09.39.55.7,29.03.76.36,1.05-17.51.86,10.1,2.9c-10.49,1.93-20.06.69-30.46.72l-23.17.08,18.81,4.92-25.91,2.08,3.9-2.9c-10.19-.61-18.97-1.03-30.18.16l7.08,3.21-41.23-1.57c6.26-2.08,11.38-2.55,17.86-3.75l-17.15-1.39-27.74-.94,18.94-4.81-44.51-1.04,8.05-5.37,2.54-.13-2.06-6.57,8.7,3.87-4.88-10.78c3.92.54,6.1,2.83,9.26,6.31l-2.28-14.08c3.81,3.52,5.89,7.7,7.28,12.94l3.9-9.37.61,10.43,4.71-5.14-1.01,7.7,6.05-1.85.26-12.05c.09-4.35-4.16-9.11-6.76-11.72l2.46-4.65c.5,4.54,1.65,8.24,5.27,11.53l-.22-7.4-.24-.66-.53-3.72,1.76,2.66c.07.1.07.25.11.51l2.35-.46c-1.42,2.48-2.05,4.32-1.22,7.92l7.75-10.77-6.16-1.48c-10.46-2.51-22.85,3.62-36.57.82,4.4-2.68,8.11-4.13,12.49-5.36,1.95-3.03,5.71-4.73,9.48-3.99,6.55-6.54,14.01-4.5,21.09-1.17,3.57,1.68,9.11,1.05,11.51,5.49l5.41,2.54.03-.03ZM152.18,174.31l-8.49.82.34,3.56,8.49-.82-.34-3.56ZM173.74,175.93l-9.39-.4-8.94-1.02c-.62-.07-1.54,2.91-.92,2.97l2.85.28,20.73,1.76c.18-.46.42-3.39-.42-3.43l-3.91-.17h0ZM131.4,190.96l.5.94c-.67,0-2.91-1.23-3.19-1.42l-8.76,2.3c1.48,1.97,5.74.56,8.49.46l17.94-.64c-.96-.27-2.99-.72-3.7-.72l-.31-1.41h6.6l2.1-8.15c-2.78.08-5.02.11-6.14.48-.93.31-1.67,2.4-1.84,3.37l-1.31-.23.64-3.65-7.32.16-3.25,6.6-.22.54-.25,1.39.02-.02ZM152.02,187.13c-1.74,3.95-4.37,11.61-.84,16.7l-.4-9.91c-.03-.88,2.17-2.45,2.98-2.71l-.35-4.08c.91.03,3.12-.09,3.46.75l1.43,3.59c.26.66,3.52.66,3.5-.04l-.09-3.54-.11-4.47c-.02-.98-3.36-1.21-4.31-1.02l-4.03.77c-1.04.2-.81,2.95-1.26,3.95h.02ZM174.14,192.75l-.73-9.32-9.21-.3.06,9.24,9.88.39h0ZM188.75,193.65l-1.51-9.6-11.56-.4,1.03,9.31,4.12-1.57c1.55,1.36,3.91,2.08,7.92,2.26h0ZM128.63,200.34c.66-4.45-2.02-4.81-3.58-3l-3.25,4.21,6.83-1.21ZM142.31,200.25c-1.19-1.28-5.11-1.9-7-1.19-1.65.61-3.51,2.83-4.91,4.73,3.44-3.12,7.24-4.58,11.4-2.84l.51-.7h0ZM142.88,200.86l-.56.56,1.5,1.5.51-.51-1.45-1.56h0ZM183.27,201.09l-7.13.23,6.66.78.47-1.01ZM172.24,206.46c1.28-1.05,2.29-2.43,2.92-4.31l-2.92,4.31ZM183.86,201.89l-.54.52.5.5.5-.51-.45-.52h-.01ZM144.8,202.93l-.49.49.5,1.5.51-.51-.52-1.48h0ZM184.82,202.93l-.5.51.4.51.62-.59-.52-.42h0ZM186.24,203.87l-1.17.7,2.1,3.65-.93-4.36h0ZM145.81,204.93l-.49.49.45,1.56.56-.56-.52-1.48h0ZM146.8,206.85l-.57.62c.51.55,2.35,1.56,3.27,1.55l22.78-.3c-2.2-.62-6.04-1.65-7.84-1.67l-17.64-.2ZM178.82,206.92l-.5.5.5.5.5-.5-.5-.5ZM135.62,214.95c2.46,1.54,5.5-.08,5.68-1.65s-.07-3.9-.79-5.05c-.6-.96-4.23-.69-5.13,0-1.36,1.04-1.4,5.67.25,6.7h0ZM180.55,216.67c1.55-.44,3.32-3.24,2.79-4.34l-2.01-4.19-4.3,2.66c-.83.51-.82,3.12-.34,3.99s2.87,2.16,3.85,1.88h0ZM133.1,216.87l-2.24-5.95-8.09-.67-2.49,5.81,4.19-3.86c.88-.81,4.48-.54,4.82.61l1.05,3.61c.17.58,2.43.51,2.77.44h-.01ZM76.65,211.95l.67-1.59-.67,1.59ZM154.24,217.43l-1.78-6.39-8.18-.05-2.51,6.08,12.46.37h0ZM174.15,219.27l-1.46-7.3-8.39.33-2.87,5.67,12.73,1.3h0ZM72.19,215.09l1.16-1.18-1.16,1.18ZM90.07,227.24c-6.72-2.22-11.55-1.1-18.01-1.44l-1.87,2.14s19.88-.7,19.88-.7Z"/>
    <g>
      <polygon class="st0" points="143.1 186.16 142.37 190.47 142.67 191.88 131.9 191.9 131.4 190.96 139.55 190.37 141.79 185.93 143.1 186.16"/>
      <circle class="st2" cx="168.31" cy="191.05" r="1.2"/>
    </g>
  </g>
</svg>