<?xml version="1.0" encoding="UTF-8"?>
<svg id="Layer_1" xmlns="http://www.w3.org/2000/svg" version="1.1" viewBox="0 0 357.09 366.49">
  <!-- Generator: Adobe Illustrator 30.6.0, SVG Export Plug-In . SVG Version: 2.1.4 Build 109)  -->
  <defs>
    <style>
      .st0 {
        fill: #ddb882;
      }

      .st1 {
        fill: #ddb882;
      }

      .st2 {
        fill: #f7eee1;
      }

      .st3 {
        fill: #1b1e12;
      }

      .st4 {
        fill: #da9e31;
      }

      .st5 {
        fill: #1a2b27;
      }
    </style>
  </defs>
  <g>
    <path class="st4" d="M258.48,340.67l-15.94-.4c4.97-3.02,6.89-7.72,6.76-13.09l-.18-6.96c-10.44-.14-18.68,8.15-19.71,18.32-.08.76-2.31.9-2.98.41-.1-12.94,10.1-21.7,22.41-22.19l1.28-.05-.24-52.57-.34-6.87c-.02-.31-.2-1.15-.35-1.11l.07-9.03,6.74-5.81c2.15-1.96,11.54-3.55,12.05-11.35l-.56-4.36c-.34-2.68.79-6.22-.38-8.54-.79-1.56-2.3-2.04-1.65-4.42.28-1.05-.74-3.12-.87-4.19-.27-2.37-.34-4.44-1.08-6.59-.69-2,.2-3.69,1.22-5.48,1.75-3.08,3.21-6.51,6.1-8.62,1.79-1.31,2.2-2.87,3.48-4.62,2.3-3.14,5.42-7.11,8.78-9.1,7.57-4.5,13.1-10.14,15.73-18.57l5.17-10.95c1.12-2.38.43-5.85.52-8.84-3.18,1.91-5.53,2.51-8.67,3.17l-6.82,1.44c-1.34.28-3.17.49-4.27,1.15-1.51.91-3.35,1.32-4.7.04l-4.13-3.94,1.83-1.91c-2.43-3.24-5.39-6.15-8.44-9.05-4.6-4.37-6.62-2.51-7.86-6.48l-1.56-5c-.97-3.1-6.39-4.57-5.81-10.19.47-4.58-1.81-8.17-6.14-9.79.01-3.42-2.09-5.91-3.57-8.58l-7.07-12.75c-.86-1.56-2.17-2.72-1.52-4.8l3.28,6.05c.65,1.21,1.67,2.09,3.27,2.5l1.24-7.19-1.12-6.82c-3.12,1.86-6.64,1.2-9.66-.03s-5.69,1.62-8.33,1.58c-3.65-.05-7.27-1.9-10.95-2.35-1.63-.2-2.95-.8-4.3-1.69-2.23-.46-4.25-1.07-5.52-2.95-2.69-1.13-5.84-.69-8.28.95-3.51,2.36.49,6.24-2.77,8-3.09,1.66-5.5-2.44-11.34-3.27-2-.28-2.63-1.59-3.04-3.42-3.19-1.87-7.04-2.48-10.81-2.96-1.42-.18-2.33-1.21-3.42-1.87l-3.83-2.31,3.67-4.26-1.67-4.21c-.46-1.16,1.28-3.24,2.39-4.62l-3.57-.22c-2.31-.14-4.36.4-6.68.62l-9.73.89c-4.27.39-8.33-.42-12.38,1.22l-6.3,2.55-7.14,3.26h-5.3c-3.68.02-3.75-1.97-5.52-2.09s-1.17,6.07-7.63,8.75c-5.19,2.15-5.7,7.47-6.62,12.08s-6.89,7.15-10.81,8.27l-2.65,3.52c-2.26,1.5-3.39,3.86-3.92,6.41l-4.98,7.88c-1.45,2.28-2.72,4.48-3.55,7.2,2.53,1.74,2.88,3.87,1.98,6.35,2.35,5.71-.16,13.26-4.19,17.75l2.22,2.47-.04,6.36,4.43,3.36,4.17,4.34c2.22,2.31,2.91,4.83,3.22,8.13,2.42,2.28,5.71,4.35,8.44,6.33l6.89,5c1.89,1.37,3.97,1.29,6.05.34,5.19-2.38,10.63-2.55,16.03-.76,2.02-.45,4.62-1.14,6.33-2.04,4.89-2.59,11.81-4.94,16.74-3.67,3.87,1,2.26,8.55,8.33,7.42l5.54-1.03-.53,2.94,3.4-1.88c1.31,1.58,3.63,4.77,3.25,7.23l-1.15,7.45c-.45,2.88-5.66,6.54,3.04,15.82l-17.86.05c-7.04.02-13.59,5.15-14.28,12.36l-.25,14.22h-10.33c-.16-.21-1.28-.9-1.79-.89l-8.68.03c-.44,0-1.54.77-1.54.9l-20.29-.08c-7.47-.03-14.26,5.18-14.27,13.17l-.06,94.22-1.46,1.47c-21.45-17.67-39.2-39.36-51.67-64.23-29.01-57.92-25.36-127.11,9.62-181.56,12.73-19.81,28.96-36.87,48.37-50.25,58.57-40.39,135.21-42.63,195.6-4.53,18.3,11.55,34.22,26.16,47.2,43.52,16.19,21.66,27.49,46.5,32.94,72.98,13.11,63.62-7.41,126.02-53.09,171.3-9.92,9.83-21.33,19.26-33.58,25.98l-8.03-.33ZM279.36,268.14c1.74,1.27,3.28.9,5.53.18,1.23-.39,3.26-.76,3.76-2.04l6.34-16.43,4.47-13.26c.37-1.08.86-1.93,1.73-2.86l-1.02-5.74c-.41-2.3-.49-4.81-3.16-5.82l-2.06,4.39c-1.68,3.59-4.24,5.84-7.59,7.83-1.94,1.15-3.81,1.98-6.23,2.17-.95.62-2.66,3.01-2.48,4.24l1.22,8.51-2.35,3.67c-1.45,2.26-2.1,4.44-.95,6.9,1.44,3.08-.77,5.67,2.79,8.26Z"/>
    <polygon class="st1" points="248.84 316.76 249.12 264.09 249.88 264.14 250.12 316.71 248.84 316.76"/>
    <path class="st4" d="M167.91,202.78l2.8,7.24-.08,4.39.38,4.6h-31.93s.03-11.13.03-11.13c0-2.89,2.75-5.02,5.47-5.12l23.33.02Z"/>
    <g>
      <path class="st2" d="M249.26,247.13l-.25-16.09c-.11-6.85-6.55-11.99-13.15-12l-21.93-.03.05,28.46c2.24-.45,5.37-.17,5.6,2.23.35,3.54.36,7.5-.03,11.02-.23,2.05-3.08,2.49-5.55,1.99l.07,71.16.47,7.12h3.77s.28.45.28.45h-16.46s-.04-78.68-.04-78.68c-2.09.51-5.19-.25-5.24-2.59l-.2-9.03c-.02-.86.72-2.5,1.36-3.01.81-.65,2.44-.79,4.1-.7v-28.35s-9.6-.11-9.6-.11l-.26-13.6c-.13-6.74-6.24-12.73-13.1-12.81l-17.21-.21c-8.7-9.27-3.49-12.94-3.04-15.82l1.15-7.45c.38-2.46-1.94-5.65-3.25-7.23l-3.4,1.88.53-2.94-5.54,1.03c-6.07,1.13-4.46-6.42-8.33-7.42-4.92-1.27-11.85,1.08-16.74,3.67-1.71.91-4.31,1.59-6.33,2.04-5.4-1.79-10.85-1.62-16.03.76-2.07.95-4.16,1.03-6.05-.34l-6.89-5c-2.73-1.98-6.02-4.05-8.44-6.33-.32-3.3-1.01-5.82-3.22-8.13l-4.17-4.34-4.43-3.36.04-6.36-2.22-2.47c4.04-4.49,6.55-12.04,4.19-17.75.9-2.48.54-4.61-1.98-6.35.82-2.72,2.1-4.91,3.55-7.2l4.98-7.88c.53-2.55,1.66-4.91,3.92-6.41l2.65-3.52c3.92-1.12,9.88-3.65,10.81-8.27s1.43-9.93,6.62-12.08c6.45-2.68,5.92-8.86,7.63-8.75s1.84,2.11,5.52,2.1h5.3s7.14-3.27,7.14-3.27l6.3-2.55c4.05-1.64,8.1-.83,12.38-1.22l9.73-.89c2.32-.21,4.37-.76,6.68-.62l3.57.22c-1.11,1.39-2.86,3.46-2.39,4.62l1.67,4.21-3.67,4.26,3.83,2.31c1.09.66,2,1.68,3.42,1.87,3.77.49,7.62,1.09,10.81,2.96.41,1.82,1.04,3.13,3.04,3.42,5.84.83,8.25,4.93,11.34,3.27,3.26-1.75-.73-5.63,2.77-8,2.44-1.64,5.58-2.08,8.28-.95,1.27,1.88,3.29,2.5,5.52,2.95,1.36.89,2.67,1.49,4.3,1.69,3.68.45,7.29,2.3,10.95,2.35,2.64.04,5.32-2.81,8.33-1.58s6.54,1.9,9.66.03l1.12,6.82-1.24,7.19c-1.6-.41-2.61-1.29-3.27-2.5l-3.28-6.05c-.65,2.07.65,3.24,1.52,4.8l7.07,12.75c1.48,2.67,3.58,5.16,3.57,8.58,4.33,1.62,6.62,5.21,6.14,9.79-.58,5.62,4.85,7.09,5.81,10.19l1.56,5c1.24,3.98,3.26,2.11,7.86,6.48,3.05,2.9,6.02,5.81,8.44,9.05l-1.83,1.91,4.13,3.94c1.35,1.29,3.19.88,4.7-.04,1.09-.66,2.93-.87,4.27-1.15l6.82-1.44c3.14-.66,5.5-1.27,8.67-3.17-.09,2.99.6,6.46-.52,8.84l-5.17,10.95c-2.63,8.44-8.16,14.07-15.73,18.57-3.36,1.99-6.48,5.97-8.78,9.1-1.29,1.75-1.7,3.31-3.48,4.62-2.89,2.11-4.35,5.55-6.1,8.62-1.02,1.79-1.91,3.48-1.22,5.48.74,2.15.81,4.22,1.08,6.59.12,1.06,1.15,3.14.87,4.19-.64,2.37.87,2.86,1.65,4.42,1.18,2.33.04,5.87.38,8.54l.56,4.36c-.51,7.8-9.9,9.38-12.05,11.35l-6.74,5.81ZM242.31,185.71l3.87-7.31c-3.27-2.19-7.99-1.34-9.93,2.91-.82,1.8-.68,4,1.28,5.35l4.79-.95ZM216.75,259.83l-.03-9.55-16.89-.07.05,9.73,16.87-.11Z"/>
      <path class="st2" d="M279.36,268.14c-3.56-2.59-1.35-5.18-2.79-8.26-1.15-2.46-.5-4.64.95-6.9l2.35-3.67-1.22-8.51c-.18-1.24,1.53-3.62,2.48-4.24,2.42-.19,4.29-1.02,6.23-2.17,3.36-1.99,5.91-4.24,7.59-7.83l2.06-4.39c2.66,1,2.75,3.52,3.16,5.82l1.02,5.74c-.87.93-1.37,1.78-1.73,2.86l-4.47,13.26-6.34,16.43c-.5,1.29-2.53,1.65-3.76,2.04-2.25.72-3.79,1.09-5.53-.18Z"/>
      <path class="st1" d="M242.31,185.71l-4.79.95c-1.96-1.35-2.1-3.56-1.28-5.35,1.94-4.24,6.66-5.1,9.93-2.91l-3.87,7.31Z"/>
    </g>
    <g>
      <path class="st5" d="M161.94,192.36l17.21.21c6.85.08,12.97,6.07,13.1,12.81l.26,13.6,9.59.11v28.35c-1.65-.09-3.28.06-4.09.7-.64.51-1.38,2.15-1.36,3.01l.2,9.03c.05,2.34,3.15,3.11,5.24,2.59l.04,78.67h12.1s-.17-7.57-.17-7.57l-.07-71.16c2.47.49,5.32.05,5.55-1.99.39-3.52.38-7.49.03-11.02-.24-2.4-3.36-2.68-5.6-2.23l-.05-28.46,21.93.03c6.6.01,13.05,5.15,13.15,12l.25,16.09-.07,9.03-.07,7.93-.28,52.66c-12.31.48-22.51,9.25-22.41,22.19.67.49,2.9.35,2.98-.41,1.03-10.17,9.28-18.46,19.71-18.32l.18,6.96c.14,5.37-1.79,10.07-6.76,13.09l15.94.4,2.59.15c16.05.54,31.8.95,48.33,2.86-2.88,1.95-6.24,1.69-9.58,1.76l-64.53,1.44-87.73.11-98-1.1c-7.23-.08-13.87-.13-20.97-1.8,8.39-1.73,16.02-1.99,23.97-2.37l27.19-1.3c-6-2.71-7.17-8.31-7.17-14.08l.06-94.22c0-7.99,6.8-13.2,14.27-13.17l20.29.08.15,28.48c-2.3-.44-5.44.04-5.46,2.37l-.06,10.24c-.01,2.26,2.54,3.23,5.49,2.66l.06,78.7,11.77-.14v-78.64c2.52.64,5.44-.24,5.43-2.62l-.06-10.08c-.01-2.28-3.05-3.17-5.38-2.47l.07-28.54h10.33s.25-14.23.25-14.23c.69-7.2,7.24-12.34,14.28-12.36l17.86-.05ZM167.91,202.78l-23.33-.02c-2.72.09-5.46,2.23-5.47,5.12l-.03,11.13h31.93s11.9,0,11.9,0l-.02-11.55c0-2.36-2.53-4.66-4.81-4.66h-10.17ZM74.31,242.09c12.01-.99,21.15-10.64,20.47-22.23l-2.7.23c.03,5.22-2.01,10.12-6.31,13.25l-3.86,3.6c-2.01,1.88-5.18,2.28-7.94,2.8-.24.74-.19,1.88.35,2.34ZM235.49,237.67c3.43,2.46,7.09,4.1,11.69,4.09.12-.62.12-2.09,0-2.72-4.02-.43-6.95-1.97-10.03-4.17-4.65-3.33-7.5-8.45-7.57-14.49l-2.82-.16c-.12,7.25,3.12,13.41,8.73,17.45ZM94.85,340.53c.27-7.26-2.78-12.4-7.44-16.78-3.91-3.22-8.42-5.38-13.67-4.72l.18,2.34c10.19.84,17.89,9.14,18.32,19.29l2.6-.12Z"/>
      <path class="st2" d="M119.23,219l-.07,28.54c2.33-.7,5.37.19,5.38,2.47l.06,10.08c.01,2.38-2.91,3.26-5.44,2.62v78.64s-11.76.14-11.76.14l-.06-78.7c-2.95.57-5.5-.4-5.49-2.66l.06-10.24c.01-2.33,3.16-2.81,5.46-2.37l-.15-28.48c0-.12,1.11-.9,1.54-.9l8.68-.03c.51,0,1.63.69,1.79.91ZM121.66,259.83l-.02-9.58-16.89-.03v9.67s16.91-.07,16.91-.07Z"/>
      <path class="st0" d="M249.88,264.14l-.76-.05.07-7.93c.16-.03.34.8.35,1.11l.34,6.87Z"/>
      <path class="st2" d="M171,219l-.38-4.6.08-4.39-2.8-7.24h10.17c2.28.02,4.8,2.31,4.81,4.68l.02,11.55h-11.9Z"/>
      <path class="st4" d="M94.85,340.53l-2.6.12c-.43-10.15-8.13-18.45-18.32-19.29l-.18-2.34c5.25-.65,9.76,1.5,13.67,4.72,4.65,4.39,7.71,9.53,7.44,16.78Z"/>
      <path class="st4" d="M74.31,242.09c-.54-.46-.59-1.61-.35-2.34,2.76-.53,5.92-.93,7.94-2.8l3.86-3.6c4.3-3.13,6.35-8.03,6.31-13.25l2.7-.23c.68,11.59-8.46,21.24-20.47,22.23Z"/>
      <path class="st4" d="M237.15,234.87l-1.66,2.8c-5.61-4.03-8.85-10.2-8.73-17.45l2.82.16c.07,6.04,2.92,11.16,7.57,14.49Z"/>
      <path class="st1" d="M235.49,237.67l1.66-2.8c3.07,2.2,6,3.74,10.03,4.17.12.63.12,2.1,0,2.72-4.6,0-8.26-1.63-11.69-4.09Z"/>
      <polygon class="st5" points="216.75 259.83 199.87 259.94 199.82 250.21 216.71 250.29 216.75 259.83"/>
      <polygon class="st5" points="121.66 259.83 104.76 259.9 104.75 250.23 121.64 250.26 121.66 259.83"/>
    </g>
  </g>
  <path class="st3" d="M253.19,355.03c-40.04,2.01-81.56,4.77-123.53,2.75l-60.88-2.94c4.15-1.16,18.09-2.91,24.91-2.97l123.46-.78c13.12-.08,26.99,1.39,36.04,3.94Z"/>
  <path class="st3" d="M209.68,364.67c-21.15,1.06-43.08,2.52-65.24,1.45l-32.15-1.55c2.19-.61,9.56-1.54,13.16-1.57l65.2-.41c6.93-.04,14.25.74,19.03,2.08Z"/>
</svg>