<?xml version="1.0" encoding="UTF-8"?>
<svg id="Layer_1" xmlns="http://www.w3.org/2000/svg" version="1.1" viewBox="0 0 299.21 352.44">
  <!-- Generator: Adobe Illustrator 30.6.0, SVG Export Plug-In . SVG Version: 2.1.4 Build 109)  -->
  <defs>
    <style>
      .st0 {
        fill: #1e3a2f;
      }

      .st1 {
        fill: #da9e31;
      }
    </style>
  </defs>
  <path class="st1" d="M162.51,86.73l21.68-14.75c1.48-1.01,4.12-1.38,5.53-.7,6.47,3.1,3.13,16.17-1.81,24.4l13.92,6.57c15.01,7.08,20.73,8.44,32.77,21.85l10.91,12.15c1.48,1.65,2.77,3.83,3.24,6.06,1.69,8.15,5.06,15.2,10.24,21.66,7.69,9.57,15.56,18.31,24.49,27.54,5-14.71,7.71-30.48,7.71-46.88,0-7.33-.55-14.52-1.59-21.56-10.31-61.12-56.21-108.93-117.79-120.55C111.67-8.82,51.92,18.97,20.8,69.59,7.6,91.5,0,117.18,0,144.62c0,10.13,1.04,20.01,3,29.56l6.39-11.51c18.73-30.23,45.48-53.91,77.62-69.88,1.18-15.14,7.64-32.21,20.57-39.87,7.22-4.28,15.83-3.26,21.49,3.13,6.43,7.26,8.61,16.88,6.98,26.23l6.72,1.06,19.74,3.38Z"/>
  <g>
    <path class="st0" d="M152.68,290.05c-9.7-6.37-19.67-12.33-28.15-21.11,13.4,6.84,30.58,12.28,45.39,6.57-5.98-4.03-10.4-8.24-15.02-13.58l19.45,1.36c-5.59-6.94-13.1-10.35-21.51-11.65-20.56-3.19-31.97-25.35-25.71-44.89l4.27-13.32c3.59-11.19,3.14-22.84-.16-34.11l-4.27-14.62c-2.45-8.39-.83-17,3.35-24.55l6.74-12.17c4.12-7.45,5.84-16.08,5.72-24.63l-6.72-1.06c-.43,2.38-1.12,4.9-2.04,7.2-4.19,10.53-11.84,17.97-21.51,24.25,7.45.16,12.67-3.56,18.41-7.16-3.84,6-8.27,11.28-13.14,16.55-10.18,11.03-14.2,25.39-10.17,40.03,1.81,6.58,2.45,13.02,1.72,19.88-1.32,5.71-3.56,11.04-7.19,15.78-11.08,14.45-13.63,31.99-8.04,49.72-14.7-19.35-24.64-41.61-28.3-65.41-2.93-19.06-.46-37.95,5.19-56.14l9.21-23.86c-24.05,16.22-33.57,46.94-31.57,74.95,1.41,19.68,7.27,38.4,16.99,55.65,11.03,19.56,25.28,36.86,42,51.48,8.41,7.35,17.44,14.03,27.01,19.97l28.41,17.64c10.92,6.78,19.39,15.52,27.28,26.16.55-17.26-6.79-32.33-18.33-43.92-5.9-5.93-12.53-10.56-19.28-15Z"/>
    <path class="st0" d="M33.06,253.33c11.03,16.2,25.19,29.14,42.03,39.18,16.01,9.15,32.53,16.73,51.43,20.2-13.63-9.06-26.64-17.13-38.72-27.57-5.6-4.77-10.87-9.7-15.85-14.9-5.89-6.15-11.34-12.68-16.37-19.8-17.99-24.63-26.53-54.55-23.78-84.93,1.24-9.59,3.73-18.07,6.4-27.81-20.42,20.47-26.97,46.43-22.91,71.93,2.41,15.14,8.56,30.12,17.76,43.7Z"/>
    <path class="st0" d="M154.61,224.36c4.21,3.75,9.73,5.03,15.48,5.25-5.06-6.9-4.12-15.14,1.24-21.22,8.57-9.71,21.36-9.23,32.74-15.55l-22.71-10.8c-3.88-1.84-7-5.67-8.33-9.76l-7.11-21.9c-3.74-11.51-1.69-23.61,3.58-34.48,3.37,5.16,7.68,9.29,13.07,12.35l11.46,4.19c-5.73-6.74-10.25-12.55-12.74-20.51-1.65-7.41,3.72-13.39,1.03-16.89-5.1-6.62-31.69,13.55-32.98,43.7-.73,17,13.23,31.46,3.26,56.53l-3.39,11.45c-1.84,6.21.56,13.33,5.39,17.64Z"/>
    <path class="st0" d="M108.46,327.15c-14.78-3.72-28.76-7.89-42.76-13.89-23.36-10.08-43.29-24.75-60.19-44.38,6.32,17.3,16.63,31.69,29.39,44.12,12.8,11.72,26.78,20.91,42.83,27.54,17.07,6.81,34.58,10.61,52.97,11.67,10.16.33,19.44.47,30.77-.68-13.08-13.92-34.39-19.41-53.01-24.37Z"/>
    <path class="st0" d="M294.8,205.72c-5.37-2.1-11-1.78-16.68-.72-.16.03-.31.06-.47.09-7.87,1.53-9.98-3.07-12.45-1.9-.83.39-2,2.24-2.1,3.17-.65,6.22,2.9,10.45,6.65,14.34,3.57,3.71,7.31,7.11,7.78,11.63,1.03,10.12-5.71,19.27-14.04,24.22-9.88,5.86-20.5,7.48-31.52,5.28-.75-.15-1.51-.32-2.27-.51-7.91-1.95-15.75-3.28-23.88-2.49-14.3,1.39-24.35,12.75-24.17,26.88,0,.62.03,1.25.08,1.88.41,5.4,2.29,10.8,5.08,15.42.49-9.15,4.27-16.26,12.87-17.89,6.41,9.24,16.85,11.95,28.47,11.73l-3.13-1.61c-9.9-3.42-18.95-11.5-16.43-19.32.11-.35.24-.7.4-1.05,1.71-3.73,5.69-4.82,10.21-4.62,1.36.06,2.77.24,4.19.5,15.68,2.89,31.53-.53,44.68-9.41,9.28-6.27,14.62-16.11,14.6-27.19,9.06-3.66,14.76-11.67,16.43-21.11.59-3.35-.95-6.33-4.29-7.32Z"/>
    <path class="st0" d="M261.3,233.01l-11.6-1.28c-18.83-2.07-37.71-4.53-54.86.34,4.57-3.81,9.6-6.21,14.92-7.4l22.63-5.09c-10.94-3.93-22.51-2.01-34.06-.39l9.18-9.68c5.37-5.67,9.7-12.17,11.17-20.57-6.44,6.59-13.04,11.56-21.15,15.26-4.52,2.06-8.89,4.51-12.64,7.61-6.57,5.4-7.89,14.22-3.17,21.35,2.46,3.71,6.7,7.52,11.12,8.62,12.52-5.55,25.59-6.27,39.18-5.8l22.32.78c1.41.05,2.8-.02,4.17-.24,2.61-.41,5.16-1.34,7.7-2.99l-4.91-.54Z"/>
    <path class="st0" d="M251.21,244.84c-16.82-.63-31.87-3.65-49.8-1.73-7.13.77-13.31,4.16-17.62,10.06,18.52-4.88,35.15-4.12,54.03-3.15l8.43-.19,4.56-.1c4.68-.88,9.07-1.74,12.88-4.94-4.3.22-8.44.21-12.47.06Z"/>
    <path class="st0" d="M210.5,136.02c4.73,2.5,8.84,4.58,11,10.63,2.06-5.63-.02-10.06-1.97-14.84-3.5-5.55-7.94-10.45-13.93-13.85-2.63,6.5-1.09,14.9,4.9,18.06Z"/>
    <path class="st0" d="M264.75,267.55c-.41,13.17-8.18,22.49-19.7,28.14,7.91.54,14.48-4.46,18.15-9.56,4.64-6.44,5.46-14.15,3.4-21.87-.91.38-1.81,1.91-1.85,3.29Z"/>
    <path class="st0" d="M234.35,144.53c.23-4.35-2.03-9.11-7-11.4,2.23,7.5,2.16,13.97-.6,21.61,4.97-1.68,7.38-5.99,7.6-10.21Z"/>
    <circle class="st0" cx="249.68" cy="221.6" r="3.36" transform="translate(-44.23 63.29) rotate(-13.28)"/>
    <circle class="st0" cx="259.25" cy="222.16" r="3.28" transform="translate(-44.11 65.51) rotate(-13.28)"/>
    <circle class="st0" cx="240.95" cy="220.99" r="3.21" transform="translate(-32.29 41.45) rotate(-9.22)"/>
    <path class="st0" d="M177.52,139.03l8.2,9.76c2.37,2.83-.98,17.09,13.3,23.26,11.33,4.9,23.2-.14,29.18,16.5,3.52-5.5,4.35-12.18,1.49-18.84-2.1-4.9-7.14-9.04-13.1-11.06.42-2.66.91-5.32.55-7.48-.76-4.55-5.68-7.11-10.05-6.45-5.06.76-9.69.45-14.51-1.03l-15.06-4.65ZM202.37,152.08c-.03,3.33.93,5.84,2.95,7.74,1.86,1.74,4.4,2.49,7.23,1.61l1.94,5.45c-10.97-2.28-16.29-5.75-18.56-16.24l6.43,1.45Z"/>
  </g>
</svg>