<?xml version="1.0" encoding="UTF-8"?>
<svg id="Layer_1" xmlns="http://www.w3.org/2000/svg" version="1.1" viewBox="0 0 300 352.44">
  <!-- Generator: Adobe Illustrator 30.6.0, SVG Export Plug-In . SVG Version: 2.1.4 Build 109)  -->
  <path d="M125.32,268.93c13.4,6.84,30.58,12.28,45.39,6.57-5.98-4.03-10.4-8.24-15.02-13.58l19.45,1.36c-5.59-6.94-13.1-10.35-21.51-11.65-20.55-3.19-31.96-25.35-25.71-44.89l4.27-13.32c3.59-11.19,3.14-22.84-.16-34.11l-4.27-14.62c-2.45-8.39-.83-17,3.35-24.55l6.74-12.17c4.22-7.62,5.93-15.85,5.72-24.63l19.74,3.38,21.68-14.75c1.48-1.01,4.12-1.38,5.53-.7,6.47,3.1,3.13,16.17-1.81,24.4l13.92,6.57c15.01,7.08,20.73,8.44,32.77,21.85l10.91,12.15c1.48,1.65,2.77,3.83,3.24,6.06,1.69,8.15,5.06,15.2,10.24,21.66,7.74,9.64,15.66,18.43,24.67,27.72,6.03-19.1,9.29-39.64,7.26-58.97-6.88-65.7-54.32-117.99-119.11-130.21C103.63-10.49,35.17,27.98,9.82,93.32-.07,118.83-3.14,146.62,3.62,174.5l6.57-11.83c18.73-30.23,45.48-53.9,77.62-69.88,1.18-15.14,7.64-32.2,20.57-39.87,7.22-4.28,15.83-3.26,21.49,3.13,8.1,9.15,9.47,22.05,4.94,33.43-4.19,10.53-11.84,17.97-21.51,24.25,7.45.16,12.67-3.56,18.41-7.16-3.84,6-8.27,11.28-13.14,16.55-10.18,11.03-14.2,25.39-10.17,40.03,1.81,6.58,2.45,13.02,1.72,19.88-1.32,5.71-3.56,11.04-7.19,15.78-11.08,14.45-13.63,31.99-8.04,49.72-14.7-19.35-24.64-41.61-28.3-65.4-2.93-19.06-.46-37.95,5.19-56.14l9.21-23.86c-24.05,16.22-33.57,46.94-31.57,74.95,1.41,19.68,7.27,38.4,16.99,55.64,16.57,29.4,40.42,53.7,69.01,71.45l28.41,17.64c10.92,6.78,19.39,15.52,27.27,26.16.55-17.26-6.79-32.33-18.33-43.92-14.38-14.45-33.05-21.21-47.43-36.11Z"/>
  <path d="M127.32,312.71c-13.63-9.06-26.64-17.13-38.72-27.57-12.22-10.42-22.94-21.58-32.22-34.7-17.99-24.63-26.53-54.55-23.78-84.93,1.24-9.59,3.73-18.07,6.4-27.81-32.55,32.63-29.85,79.19-5.14,115.62,11.03,16.2,25.19,29.14,42.03,39.18,16.01,9.15,32.53,16.73,51.43,20.2Z"/>
  <path d="M172.13,208.38c8.57-9.71,21.36-9.23,32.74-15.55l-22.7-10.8c-3.88-1.84-7-5.67-8.33-9.76l-7.11-21.9c-3.74-11.51-1.69-23.61,3.58-34.48,3.37,5.16,7.68,9.29,13.07,12.35l11.46,4.19c-5.73-6.74-10.25-12.55-12.74-20.51-1.65-7.41,3.72-13.39,1.03-16.89-5.1-6.62-31.69,13.55-32.98,43.7-.73,17,13.23,31.46,3.26,56.53l-3.39,11.45c-1.84,6.21.56,13.33,5.39,17.64,4.21,3.75,9.73,5.03,15.48,5.25-5.06-6.9-4.12-15.14,1.24-21.22Z"/>
  <path d="M162.27,351.52c-13.08-13.92-34.39-19.41-53.01-24.37-14.78-3.72-28.76-7.89-42.76-13.89-23.36-10.08-43.29-24.75-60.19-44.38,6.32,17.3,16.63,31.69,29.39,44.12,12.8,11.72,26.78,20.91,42.83,27.54,17.07,6.81,34.58,10.6,52.97,11.67,10.16.33,19.44.47,30.77-.68Z"/>
  <path d="M200.46,285.13c6.41,9.24,16.85,11.95,28.47,11.73l-3.13-1.61c-10.34-3.57-19.77-12.23-16.04-20.37,2.22-4.85,8.29-5.25,14.4-4.12,15.68,2.89,31.53-.53,44.68-9.41,9.28-6.27,14.62-16.11,14.6-27.19,9.06-3.66,14.76-11.67,16.43-21.11.59-3.35-.95-6.33-4.29-7.32-5.52-2.16-11.32-1.76-17.15-.63-7.87,1.53-9.98-3.07-12.45-1.9-.83.39-2,2.24-2.1,3.17-1.27,12.13,13.48,16.7,14.43,25.97,1.03,10.12-5.71,19.27-14.04,24.22-10.55,6.26-21.96,7.69-33.79,4.77-7.91-1.95-15.75-3.28-23.88-2.49-14.93,1.45-25.24,13.76-24.09,28.77.41,5.4,2.29,10.8,5.08,15.42.49-9.15,4.27-16.26,12.87-17.89Z"/>
  <path d="M267,233.55l-16.51-1.82c-18.83-2.07-37.71-4.53-54.86.34,4.57-3.81,9.6-6.21,14.92-7.4l22.63-5.09c-10.94-3.93-22.51-2.01-34.06-.39l9.18-9.68c5.37-5.67,9.7-12.17,11.17-20.57-6.44,6.59-13.04,11.56-21.15,15.26-4.52,2.06-8.89,4.51-12.64,7.61-6.57,5.4-7.89,14.22-3.17,21.35,2.46,3.71,6.7,7.52,11.12,8.62,12.52-5.55,25.59-6.27,39.18-5.8l22.32.78c4.1.14,7.99-.71,11.87-3.23Z"/>
  <path d="M238.6,250.02l12.99-.3c4.68-.88,9.07-1.74,12.88-4.94-22.25,1.16-40.04-4.06-62.27-1.67-7.13.77-13.31,4.16-17.62,10.06,18.52-4.88,35.15-4.12,54.03-3.15Z"/>
  <path d="M222.29,146.65c2.06-5.63-.02-10.06-1.97-14.84-3.5-5.55-7.94-10.45-13.93-13.85-2.63,6.5-1.09,14.9,4.9,18.06,4.73,2.5,8.84,4.58,11,10.63Z"/>
  <path d="M265.54,267.55c-.41,13.17-8.18,22.49-19.7,28.14,7.91.54,14.48-4.46,18.15-9.56,4.64-6.44,5.46-14.15,3.4-21.87-.91.38-1.81,1.91-1.85,3.29Z"/>
  <path d="M228.14,133.13c2.23,7.5,2.16,13.97-.6,21.61,4.97-1.68,7.38-5.99,7.6-10.21.23-4.35-2.03-9.11-7-11.4Z"/>
  <circle cx="250.48" cy="221.6" r="3.36"/>
  <circle cx="260.04" cy="222.16" r="3.28"/>
  <circle cx="241.75" cy="220.98" r="3.21"/>
  <path d="M186.52,148.78l-8.2-9.76,15.06,4.65c4.81,1.49,9.44,1.8,14.51,1.03,4.38-.66,9.3,1.9,10.05,6.45.36,2.15-.13,4.82-.55,7.48,5.96,2.02,11,6.16,13.1,11.06,2.85,6.67,2.02,13.34-1.49,18.84-5.97-16.64-17.84-11.6-29.17-16.5-14.28-6.17-10.92-20.43-13.3-23.26ZM213.35,161.42c-2.83.88-5.37.13-7.23-1.61-2.03-1.9-2.98-4.41-2.95-7.74l-6.43-1.45c2.27,10.5,7.6,13.96,18.56,16.24l-1.94-5.45Z"/>
</svg>