<?xml version="1.0" encoding="UTF-8"?>
<svg id="Layer_1" xmlns="http://www.w3.org/2000/svg" version="1.1" viewBox="0 0 363.04 374.33">
  <!-- Generator: Adobe Illustrator 30.6.0, SVG Export Plug-In . SVG Version: 2.1.4 Build 109)  -->
  <defs>
    <style>
      .st0 {
        fill: #eb805b;
      }

      .st1 {
        fill: #fcfaf7;
      }

      .st2 {
        fill: #da9e31;
      }

      .st3 {
        fill: #1b1e12;
      }

      .st4 {
        fill: #12140f;
      }
    </style>
  </defs>
  <path class="st0" d="M348.82,247.87l-6.44.85c-.27-.51-1.21-2.29-1.19-2.25-4.02,3.02-9.85.05-14.8,2.67-7.1-6.32-16.77-9.28-26.03-5.88-7.55,4.04-12.63,9.16-9.87,16.31-2.72.33-5.18-.06-7.35-1.18-10.47-5.38-21.72,7.95-21.85,6.57l.27,2.96c.35,3.74.64,5.93-3.33,7.42-1.9.71-3.84-.5-6.32-1.87-4.02-1.18-8.82,1.92-11.6,5.28l-10.38.84,2.26-13.15c8.85-6.03,12.13-15.27,15.19-24.7,3.77-3.65,7.32-8.37,10.06-12.98,3.65-6.15,4.23-12.49,6.12-19.18l4.39-15.51c12.73-4.03,15.31,10.15,25.21,1.08,2.56-2.34,3.44-4.81,3.19-8.91-.14-2.2-2.41-4.49-4.2-7.09l-8.48-12.35c.3-3.73-.23-7.12-1.95-10.08,2.52-5.42,5.63-11.26,1.89-17.9l-8.37,6.38c-.63-10.51-3.79-18.93-6.79-28.4l-2.94-9.27-5.92-12.78-12.93-25.35,6.98,28.63,2.45,7.1,5.41,15.82c2.92,8.54,3.78,17.31,3.85,26.26l-5.74-1.4.61-1.19-2.39-3.93-.92-1.18-5.25-4.88-3.71-4.95c-.74-.99-2.33-2.49-3.49-2.84.01-.59-.35-1.79-.72-2.24-1.25-1.5-4.63-3.3-6.49-3.25-.34-2.45-2.29-5.75-4.27-7.95l-5.78-6.42c-2.27-2.52-6.12-4.66-8.98-5.58-.45-3.84-1.68-6.82-4.68-9.55-6.31-5.76-9.85-13.38-17.96-18.6l15.98,27.68c1.2,2.07.45,5.97,4.56,6.43,2,.22,4.47,3.42,4.57,5.21.3,5.27,3.29,6.79,7.37,9.18,2.66,1.56,4.62,7.2,6.93,9.48,6.67,6.58,14.51,11.99,17.5,21.6-7.83-5.6-13.59-9.91-21.99-12.37-.39,9.65,4.82,19.39,13.49,22.2l-10.51,15.17c-3.78,5.46-9.11,11.49-16.54,10.46-8.4-1.16-16.47-1.34-24.31,2.78-7.01,3.69-14.94,5.03-23.08,4.4l-31.94-2.45c-13.29-1.02-25.61,2.66-35.78,11.11-17.48,14.53-16.81,23.98-15.75,43.69l-3.35.79c.21-3.05-.2-6.2-2.29-8.12-5.59-5.13-10.93,2.97-15.82.11,6.47-5.71-5.07-18.45-17.5-17.86-14.68.7-20.37,14.7-18.58,15.51l3.55,1.61-6.42,3.1c-4.09-3.07-8.44-2.88-12.83,1.54C-7.43,187.79,1.09,123.45,36.21,74.69,74.96,20.91,139.64-6.86,205.11,1.45c32.32,4.1,62.86,15.83,88.27,36.45.85,2.22,2.63,3.54,5.17,3.84,14.22,12.62,27.18,26.38,37.22,42.77,29.69,48.51,35.48,107.95,15.7,161.05l-.74,1.99c-.19.5-1.38.24-1.9.31Z"/>
  <path class="st0" d="M286.06,333.26l-7.18,5.82c-2.12.82-4.18,2.54-5.23,4.03l-6.88.77c.76-3.26,2.8-6.1,6.8-7.91l-4.48.58,7.08-13.93-9.61,7.15-11.65,8.61c1.21-4.28,2.16-6.39,2.71-11.72l-8.06,12.17,5.39-19.47,3.62-12.28c-7.44,7.51-13.16,16.44-15.38,27.02l-4.62-10.56c-.34-.78-1.13-1.66-2.63-2.8l.27,16.44-2.71-3.43-.18,7.01-4.79-1.56c-.96-.31-.94-3.14-1.19-4.32-1.89-8.86-1.49-17.15.1-26.12l-.16-11.25,25.6-.24c11.18-.16,22.63-4.29,33.44-5.14,12.44,2.8,24.18,6.11,37.41,4.85l-22.44,23.46-14.91-.26,12.25,2.28-12.54,10.82Z"/>
  <path class="st0" d="M84.4,277.68l.69,6.84,3.52-6.56,4.82,1.09c-2.51,5.7-6.79,11.17-11.46,16.46.36,12.64,1.81,25.28-.55,37.43l-7.2-2.06.08-1.09c1.92-.19.84-.48-.15-.74-11.93-8.94-23.16-19.1-32.05-31.01l14.49-.32,8.92-.08,5.25-.05-5.56-2.7-1.45-5.12c-.34-.24-3.63.06-4.68.54l-8.12,3.77,8.19.26-2.44,1.63-14.02.27-2.62-.12-8.51-12.67-28.05-.84,11.2-2.7,25.56-3.65c11.08-1.58,17.99-7.36,24.1-4.36,6.82,3.35,13.27,5.1,20.06,5.77Z"/>
  <path class="st0" d="M240.69,371.76l-25.97.41-24.22,1.97-22.98.19-36.18-.73,10.8-2.63-26.65-.45-7.06-.84,4.3-1.41c.71.17,2.52.59,3.28.55l18.42-.99,6.76-1.61c-.08,1.23,1.99,2.85,3.1,2.92l12.95.85,12.43-.68-22.33-3.25,7.25-1.12,12.29-1.32,21.58,2.04,18.14,1.41,25.04,3.55,9.06,1.15Z"/>
  <path class="st0" d="M84.8,258.84l-1.13,3.97-62.87.84-2.06-4.45c7.32.51,11.18-4.8,21.63-3.68,1.81-1.96,4.67-5.18,6.92-5.74,6.83-1.68,9.15,6.47,13.9,6.38,3.79-.08,5.48.54,8.77,1.07l6.27,1.01,8.57.6ZM57.85,257.09c-4.89-3.87-8.78-1.28-12.32,1.63l12.32-1.63Z"/>
  <path class="st0" d="M79.45,365.72c1.92-.64,4.1-1.49,5.92-2.64l-29.92-1.56,8.94-.76c4.63-2.76,8.89-3.26,13.86-.28l10.7.34-2.56-1.69,25.17-1.15c6.56,1.33,13.38,1.15,20.02-.03l15.07,1.41-17.8.98-11.26,1.29-13.94,1.16-24.19,2.93Z"/>
  <path class="st0" d="M268.84,365.7l-31.37.09-1.9.97-13.06-1.82c-3.69-.51-6.97-.51-10.23-1.84l46.4-1.23.35-5.29,7.77.23c1.71.05,4.93,2.14,6.12,3.34l5.45-1.7c2.94-.92,6.03-1.48,9.26-1.63l-6.62,3.38c-4.15,6.42-8.52-.96-15.82,3.01l3.67,2.49ZM264.47,358.88l-4.73.14c-.13.09,1.59,2.19,2.08,1.83l2.65-1.97Z"/>
  <path class="st1" d="M81.41,332.94l-1.4,7.2-5.07,3.11c-2-3.11-3.08-5.73-2.13-8.42l1.4-3.96,7.2,2.06Z"/>
  <g>
    <path class="st0" d="M229.36,283.6l.33-1.84,27.93-1.51c6.04-3.25,12.49-3.49,18.52-.43,9.03-8.45,9.92,1.3,17.43-2.14,2.97-1.36,9.05-4.91,11.82-3.24l10.76,6.47c5.93-5.99,10.88-3.88,16.92-2.87l16.01,2.68,10.57,1.77-26.27.84-3.7,5.64-22.23-1.47-10.86-.61h-6.36s4.03-2.85,4.03-2.85l-15.64.13-49.28-.55Z"/>
    <path class="st0" d="M327.48,251.15c-.65,0,1.23-1.4,1.58-1.4l16.14.1c.55,0,2.97,1.16,3.09.63l1.38-1.57-5.47,14.66c-7.29-7.72-13.07,1.35-16.3-1.59-.53-.48.29-1.35,1.57-2.8l-1.99-8.03Z"/>
    <path class="st1" d="M348.82,247.87l.84,1.05-1.38,1.57c-.12.53-2.54-.63-3.09-.63l-16.14-.1c-.35,0-2.23,1.39-1.58,1.4-.13-.54-.88-1.65-1.09-2.02,4.96-2.62,10.78.36,14.8-2.67-.02-.03.92,1.74,1.19,2.25l6.44-.85Z"/>
  </g>
  <polygon class="st1" points="56.68 295.98 56.57 297.72 42.08 298.04 42.66 296.25 56.68 295.98"/>
  <path class="st1" d="M74.28,329.79l-.15-.74c.99.26,2.06.55.15.74Z"/>
  <path class="st0" d="M193.03,294.66l-19.68.43c6.79,2.32,12.95,2.04,19.19,2.38-1.75,5.81-2.3,11.57-2.59,18.12-.27,6.06-2.35,12.71-3.75,18.26-2.01-.47-3.74-.99-4.38-.37l-2.79,2.74,2.96-11.85-8.09,4.59,5.89-14.43c-7.96,3.31-11.1,10.11-13.42,17.5l-1.18-4.27c-.22-.79-2.97-1.05-3.39-.49l-.7,7.41c-.07.77,0,1.63-.39,1.7s-1.96.36-1.44.26l-2.32-5.75-.98-3.18c-.18-.57-1.65.3-2.05.74l-1.84,1.96-1.5-7.56-7.99-6.25.65,13.71-3.76-3.01c-.7-.56-2.95.03-3.9.64l3.07,6.11-6.33-2.97-1.29,6.08c-6.65-13.42-13.1-29.86-3.35-41.26,5.75-6.72,8.86-14.29,12.1-22.03l17.18-.22c7.85.99,15.18.96,23.6-.04l13.67-1.62-1.17,22.66ZM155.33,296.48c5.07,1.21,9.52,1.73,14.5.84-5.1-2.01-8.92-3.86-12.26-6.15l-11.01,5.28,8.76.04Z"/>
  <path class="st0" d="M195.59,353.37l-8.45.56c.25-3.45-.32-6.85-1.31-9.96l8.02-20.85-2.15,23.09,3.88,7.16Z"/>
  <path class="st3" d="M147.33,366.06l22.33,3.25-12.43.68-12.95-.85c-1.12-.07-3.19-1.7-3.1-2.92,1.87-.45,4.28-.43,6.14-.16Z"/>
  <path class="st2" d="M116.01,368.81c-.76.04-2.57-.37-3.28-.55l-11.3-.98,14.46-2.28c3.4-.53,7.5-.26,10.78.21l-9.26,1.6c-.41.07-1.59.24-1.64.58l.25,1.41Z"/>
  <path class="st1" d="M193.03,294.66l-.49,2.8c-6.24-.33-12.4-.06-19.19-2.38l19.68-.43Z"/>
  <path class="st3" d="M132.96,364.05c-.17-.28,1.37,0,1.58.24l.91,1.05c.2.23-1.27.73-1.43.46l-1.06-1.75Z"/>
  <path class="st1" d="M65.17,294.89l.32,2.75-8.92.08.11-1.74,2.44-1.63-8.19-.26,8.12-3.77c1.05-.49,4.34-.79,4.68-.54l1.45,5.12Z"/>
  <polygon class="st1" points="65.49 297.64 65.17 294.89 70.74 297.59 65.49 297.64"/>
  <path class="st1" d="M57.85,257.09l-12.32,1.63c3.54-2.91,7.44-5.5,12.32-1.63Z"/>
  <path class="st4" d="M264.47,358.88l-2.65,1.97c-.48.36-2.21-1.74-2.08-1.83l4.73-.14Z"/>
  <path class="st1" d="M155.33,296.48l-8.76-.04,11.01-5.28c3.33,2.29,7.16,4.15,12.26,6.15-4.98.9-9.43.38-14.5-.84Z"/>
  <g>
    <path class="st4" d="M229.93,279.59l-.24,2.17-.33,1.84-2.11,13.89.16,11.25c-1.59,8.97-1.99,17.26-.1,26.12.25,1.18.23,4.01,1.19,4.32l4.79,1.56.18-7.01,2.71,3.43-.27-16.44c1.5,1.14,2.29,2.02,2.63,2.8l4.62,10.56c2.22-10.57,7.94-19.51,15.38-27.02l-3.62,12.28-5.39,19.47,8.06-12.17c-.55,5.33-1.5,7.44-2.71,11.72l11.65-8.61,9.61-7.15-7.08,13.93,4.48-.58c-4,1.81-6.04,4.66-6.8,7.91l6.88-.77c1.05-1.5,3.11-3.21,5.23-4.03l7.18-5.82-3.98,11.47,7.6,2.18c.5-1.8,1.29-3.03,2.4-3.31l7.92-1.95,2.03,3.19c3.15-3.76,6.71-7.44,13.16-8.3l-5.69,8.27,6.48-1.49-2.36,5.36c6.27-5.14,13.4-7.71,22.15-6.76l-9.19,9.5c5.24-.79,8.41-1.46,12.18-.55l-4.4,2.61c8.55,2,15.79,3.71,23.93,7.56l-46.24.91c4.94,4.93,10.77,2.03,15.78,6.69l-32.28-2.1-26.7-.85-3.67-2.49c7.3-3.96,11.68,3.42,15.82-3.01l6.62-3.38c-3.23.15-6.32.71-9.26,1.63l-5.45,1.7c-1.19-1.2-4.41-3.29-6.12-3.34l-7.77-.23-.35,5.29-46.4,1.23c3.26,1.34,6.54,1.33,10.23,1.84l13.06,1.82,24.24,5.6-19.12-.6-9.06-1.15-25.04-3.55-18.14-1.41-21.58-2.04-12.29,1.32-7.25,1.12c-1.86-.27-4.27-.29-6.14.16l-6.76,1.61-18.42.99-.25-1.41c.05-.34,1.23-.51,1.64-.58l9.26-1.6c-3.28-.46-7.38-.74-10.78-.21l-14.46,2.28,11.3.98-4.3,1.41-22.15.69-30.07.78,23.23-5.43,24.19-2.93,13.94-1.16,11.26-1.29,17.8-.98-15.07-1.41c-6.64,1.18-13.46,1.36-20.02.03l-25.17,1.15,2.56,1.69-10.7-.34c-4.96-2.97-9.23-2.48-13.86.28l-8.94.76-32.93.09-22.51-.11,23.44-7.93c2.06-.7,3.85-1.12,5.88-1.4l14.96-2.1-3.92-3.47,6.28-.58,1.1-1.01-6.1-5.78c4.42-.21,7.9.41,11.34,1.54l1.08-.75-6.06-12.3c7.34,1.72,12.26,5.1,16.69,10.48l-.62-8.48,6.96,7.09,1.78-1.99c-.95,2.69.13,5.31,2.13,8.42l5.07-3.11,1.4-7.2c2.36-12.14.92-24.78.55-37.43,4.66-5.29,8.95-10.76,11.46-16.46,2.36-5.36,4.37-10.97,2.28-17.14-.77-.44-2.19-1.24-2.29-.72l-.49,2.73c-.89,4.91-2.12,9.95-4.32,14.04l-3.52,6.56-.69-6.84-.72-14.86,1.13-3.97c.96-3.38,1.47-7.41,1.27-11.03-1.06-19.71-1.73-29.16,15.75-43.69,10.17-8.45,22.49-12.13,35.78-11.11l31.94,2.45c8.14.62,16.07-.71,23.08-4.4,7.84-4.13,15.91-3.95,24.31-2.78,7.43,1.03,12.75-5,16.54-10.46l10.51-15.17c-8.67-2.81-13.88-12.55-13.49-22.2,8.4,2.46,14.16,6.77,21.99,12.37-2.99-9.61-10.82-15.02-17.5-21.6-2.31-2.27-4.26-7.92-6.93-9.48-4.08-2.39-7.07-3.91-7.37-9.18-.1-1.79-2.57-4.98-4.57-5.21-4.11-.46-3.36-4.35-4.56-6.43l-15.98-27.68c8.11,5.22,11.65,12.84,17.96,18.6,2.99,2.73,4.22,5.71,4.68,9.55,2.87.92,6.72,3.06,8.98,5.58l5.78,6.42-3.62.27-1.76-.28c-.46-.07-.33,1.41-.23,1.97l6.89,7.7,2.99-1.71c1.87-.05,5.25,1.75,6.49,3.25l-2.69.52-.92,6.25,4.27-.56-.11,4.42,4.15-.3-.27,3.64c-.06.79,1.68,2.08,2.37,1.68,1.09-.63,2.98-1.72,2.89-1.67-1.67-.94-3.22-1.69-2.94-2.14l1.18-1.83,5.25,4.88-1.86.27c-.4.02-.67,2.04-.28,1.94l3.06-1.03,2.39,3.93-4.82-1.19c-.26,1.39-.15,3.66.6,3.43l3.61-1.05,5.74,1.4c-.07-8.96-.93-17.72-3.85-26.26l-5.41-15.82-2.45-7.1-6.98-28.63,12.93,25.35,5.92,12.78,2.94,9.27c3,9.46,6.16,17.89,6.79,28.4l8.37-6.38c3.74,6.64.63,12.48-1.89,17.9,1.72,2.96,2.25,6.35,1.95,10.08l8.48,12.35c1.78,2.6,4.06,4.89,4.2,7.09.26,4.09-.63,6.57-3.19,8.91-9.9,9.07-12.48-5.11-25.21-1.08l-4.39,15.51c-1.89,6.69-2.47,13.03-6.12,19.18-2.74,4.62-6.29,9.33-10.06,12.98-3.07,9.42-6.34,18.67-15.19,24.7l-2.26,13.15ZM280.59,154.78c2.41-4.8,3.17-7.07,2.78-12.49l-7.99,7.48,5.21,5.01ZM253.37,158.43l-7.02-7.64c-3.01-3.27-8.22-4.99-12.87-6.52.4,9.2,5.69,16.78,13.94,17.98.6-.35,1.76-1.32,2.19-.97l1.49,1.2,2.26-4.05ZM260.21,148.28l-.65.02.65.02h.68l.65-.02-.65-.02h-.68ZM275.28,183.94l6.01,6.26c2.05,2.13,6.79,3.52,9.48,1.75s-5.85-5.04-4.85-7.87c1.67-4.74-11.72-17.99-19.43-24.4l-4.95-6.71c-4.46,2.74-3.65,8.43-1.63,11.21,2.09-.34,5.47-.85,6.54-.13s1.92,2.61,2.53,3.99l.51.08,2.06,3.08-3.27-1.55-.35-.57-6.82-.23-.98.95,4.81,3.56,10.32,10.58ZM116.13,269.1l.37-1.06,4.9-1.37c5.67-9.99,9.08-20.39,9.53-31.33.88-.07,1.8-.08,1.76-.42l-.36-2.71-.25-1.91c-.07-.52,1.83-.26,2.17.16l6.13,7.68-2.56-8.09c3.41,2.98,5.5,6.23,7.42,9.97l.98-3.76,5.19,8.28,1.57-1.4,7.34,5.45-1.19-5.66,4.75,5.52c2.56-.52,3.85-.43,6.42,1.63l10.27-5.26-2.32,5.18c7.94-2.17,9.07-8.64,14.02-15.07l-3.65,12.27c3.22-4.04,5.64-8.46,7.52-12.44l2.76,4.31.29,18.75c.07,4.74,1.61,9.16,4.97,12.18,2.41-6.14-5.79-9.69-1.04-18.13l3.15,9.39,2.68-1.54c-4.04,4.83-2.74,7.64-.71,12.58l5.5,13.36c1.82,4.41,1.59,9.12,2.67,13.57l4.57,18.69c2.34-7.63.64-14.8-.59-22.75-1.68-10.85-2.07-22.41.22-33.24l8.85-14.1.52,4.13c9.28-8.9,4.69-26.14-.15-39.54-1.78-4.93-.53-11.74-.24-16.44l2.12-.27-.5,2.05c-1.16,4.8-1.28,10.3,1.11,15.14l-.51-8.34c-.06-.99.12-3.52.8-3.69l1.37,4.6c.36,1.22.7,3.24,1.43,4.09.51,4.48.5,8.72-.36,13.65l3.88,9.93.7-10.77,2.36,5.56,1.04-8.03,2.96.98.66-10.47c.98,1.19,1.26,1.91,1.56,1.79l2.32-.95-.37-9.1,2.59,3.08-1.7-12.04,2.1,2.64.82-.75-3.14-11.69c-2.34,9.06-4.47,16.38-8.39,25.06-.99-2.28-1.84-4.93-1.61-6.47l.53-3.58-.19-9.9,1.3-11.79,2.32-.85,2.45-9.45-18.4,22.46-6.35,4.47-7.85-1.3c-5.85-.97-12.53-.84-17.97,1.75-10.65,5.07-21.4,5.57-33.21,4.84l-33.93-2.09c-12.34-.76-37.19,14.4-38.89,28.44l10.89-13.75c-2.66,6.81-4.89,11.82-5.2,18.13,1.45-.22,2.43-.55,2.67-.16s.83,1.81.96,2.34l3.06,12.83,3.37,13.15-4.65-.09,2.28,8.85-2.38.08c1.87,4.91-2.52,6.74.18,10.58l-2.55,11.37,8.61-8.12,6.36-5.64-4.84-.86,6.74-4.6ZM259.74,168.91l.65-1.27-.65,1.27ZM264.62,186.07c-4.65-2.16-7.58-5.4-7.4-11.26l-3.2-6.22c-4.19,7.47-1.45,16.51,5.77,19.87.59.28,2.79.88,3.12.35l1.7-2.75ZM254.11,195.59l-.06,2,.06-2ZM233.05,213.8l-.02.65v.68l.02.65.02-.65v-.68l-.02-.65ZM103.05,253.85q0-1.22,0,0,0,2.34,0,0ZM154.05,264.55l9.79,1.73c-7.37-3.51-13.78-5.57-19.8-9.96-2.49-1.81-5.08-3.45-7.82-3.29s-5.84,1.91-7.1,5.38c9.82-4.66,13.31,4.08,24.93,6.13ZM139.75,273.88c-3.23,7.74-6.35,15.31-12.1,22.03-9.75,11.4-3.3,27.85,3.35,41.26l1.29-6.08,6.33,2.97-3.07-6.11c.95-.61,3.2-1.2,3.9-.64l3.76,3.01-.65-13.71,7.99,6.25,1.5,7.56,1.84-1.96c.41-.43,1.88-1.3,2.05-.74l.98,3.18,2.32,5.75c-.52.09,1.05-.19,1.44-.26s.32-.93.39-1.7l.7-7.41c.42-.56,3.17-.3,3.39.49l1.18,4.27c2.32-7.39,5.45-14.19,13.42-17.5l-5.89,14.43,8.09-4.59-2.96,11.85,2.79-2.74c.64-.63,2.37-.11,4.38.37,1.41-5.55,3.49-12.2,3.75-18.26.29-6.55.84-12.32,2.59-18.12l.49-2.8,1.17-22.66-13.67,1.62c-8.43,1-15.75,1.03-23.6.04l-14.38-6.49-2.8,6.71ZM101.36,326.77c4.68.82,6.64,4.47,8.58,8.09l1.11-3.1c.13-.35,1.25.19,1.41.55s.57,1.9.85,2.16l6.44,5.92c-.38-14.43-14.97-36.34-12.13-41.02,3.98-6.56,7.92-12,7.51-19.95l-16.25,20.65c-5.96,7.57-11.93,37.55-5.2,41.72.53-1.75.15-3.87.89-3.73l3.52.67,1.26-4.41c.21-.72,2.24.06,4.12.54l-2.12-8.1ZM93.21,301.05c.64-1.41.32-6.12.34-7.06l-4.85,4.53,1.89-7.91-4.97,5.57c-.73.82,1.03,3.82,1.62,4.83-.45,3.07-1.11,7.33.89,11.18l5.07-11.13ZM207.41,326.91l-.87,8.02c2.96-.96,4.87-1.21,5.04-.19l.68,4.26,5.29.02-.34-11.06c-.18-5.77-2.76-10.99-3.85-16.59l-2.86-14.66c-.18-.91-.29-2.35-.82-2.58l-3.11-1.33-1.73,5.88c-1.05,6.75-2.52,12.04-5.31,18.07-3.06,6.62-3.99,13.93-4.72,20.94l5.02-4.77,1.48,4.29,1.11-4.64c.73-3.06,2.81-5.96,5.01-5.67ZM89.89,352.39l3.99,3.41c-.7-3.6-2.57-5.82-5.47-8.45l-.2-26.59-5.9,24.05c1.83,3.05,2.64,6.01,2.05,10.44l5.65.49-.12-3.34ZM229.1,354.55l3.43.78-5.22-8.37-5.8-25.85-.57,22.7c-.04,1.63,1.94,4.12,2.92,5.27l-.45,6.43,5.68-.96ZM195.59,353.37l-3.88-7.16,2.15-23.09-8.02,20.85c.98,3.11,1.55,6.51,1.31,9.96l8.45-.56ZM122.01,326.59l.06-1.5-.06,1.5ZM123.02,326.86l-.31.48,1.46,18.64c2.58,1.21,5.65,2.97,3.68,7.42l9.05-.05-5.01-7.58-8.87-18.91ZM53.65,341.72l.94-1.05-.94,1.05ZM47.76,346.82l.62-1.2c-.25.48-.96,1.88-.62,1.2ZM132.96,364.05l1.06,1.75c.17.27,1.64-.22,1.43-.46l-.91-1.05c-.21-.24-1.75-.52-1.58-.24Z"/>
    <path class="st4" d="M247.95,129.68l-3.56,1.14.07-3.98c1.16.35,2.75,1.85,3.49,2.84Z"/>
    <path class="st3" d="M232.97,113.4c1.98,2.2,3.93,5.5,4.27,7.95l-2.99,1.71-6.89-7.7c-.1-.56-.23-2.04.23-1.97l1.76.28,3.62-.27Z"/>
    <path class="st3" d="M243.74,124.6c.37.45.73,1.65.72,2.24l-.07,3.98-4.27.56.92-6.25,2.69-.52Z"/>
    <path class="st3" d="M251.66,134.63l-1.18,1.83c-.29.45,1.26,1.19,2.94,2.14.09-.05-1.8,1.04-2.89,1.67-.69.4-2.42-.89-2.37-1.68l.27-3.64-4.15.3.11-4.42,3.56-1.14,3.71,4.95Z"/>
    <path class="st3" d="M260.23,144.62l-.61,1.19-3.61,1.05c-.76.22-.86-2.04-.6-3.43l4.82,1.19Z"/>
    <path class="st3" d="M256.91,139.51l.92,1.18-3.06,1.03c-.39.1-.12-1.92.28-1.94l1.86-.27Z"/>
    <path class="st0" d="M241.35,198.38l-1.82-1.14c-.87-.54,1.59-6.77-1.52-9.74l-.64,8.63-1.88-4.93-1.5,14.26-1.37-4.6-1.4-3.1.5-2.05-1.61-1.03c-.29-.19-.48.93-.5,1.29-.29,4.7-1.54,11.51.24,16.44,4.84,13.4,9.43,30.64.15,39.54l-.52-4.13-8.85,14.1c-2.28,10.83-1.9,22.39-.22,33.24,1.23,7.95,2.94,15.12.59,22.75l-4.57-18.69c-1.09-4.45-.86-9.16-2.67-13.57l-5.5-13.36c-2.03-4.94-3.33-7.74.71-12.58l-2.68,1.54-3.15-9.39c-4.75,8.44,3.45,11.99,1.04,18.13-3.36-3.02-4.9-7.44-4.97-12.18l-.29-18.75-2.76-4.31c-1.88,3.98-4.31,8.4-7.52,12.44l3.65-12.27c-4.95,6.43-6.08,12.9-14.02,15.07l2.32-5.18-10.27,5.26c-2.57-2.06-3.86-2.14-6.42-1.63l-4.75-5.52,1.19,5.66-7.34-5.45-1.57,1.4-5.19-8.28-.98,3.76c-1.93-3.74-4.01-6.99-7.42-9.97l2.56,8.09-6.13-7.68c-.33-.42-2.23-.68-2.17-.16l.25,1.91.36,2.71c.04.34-.88.35-1.76.42-.45,10.95-3.85,21.35-9.53,31.33l-4.9,1.37,7.27-11.81c-3.51,1.69-5.18,5.11-7.77,7.99l-5.01,5.6,5.13-.71-6.74,4.6,4.84.86-6.36,5.64-8.61,8.12,2.55-11.37c-2.69-3.84,1.69-5.67-.18-10.58l2.38-.08-2.28-8.85,4.65.09-3.37-13.15-3.06-12.83c-.13-.53-.72-1.96-.96-2.34s-1.22-.06-2.67.16c.31-6.31,2.54-11.32,5.2-18.13l-10.89,13.75c1.7-14.03,26.55-29.2,38.89-28.44l33.93,2.09c11.81.73,22.56.23,33.21-4.84,5.43-2.59,12.12-2.72,17.97-1.75l7.85,1.3,6.35-4.47,18.4-22.46-2.45,9.45-2.32.85-1.3,11.79.19,9.9ZM188.22,203.78l7.66-7.68-16.69,6.31,9.03,1.37ZM227.94,219.18c.46-5.92.23-11.68-3.81-17.06.1,6,1.22,11.28,3.81,17.06ZM229.05,219.79l-.5.5.5.5.5-.5-.5-.5ZM220.35,248.74l-4.85,8.89c6.13-1.26,11.61-7.17,7.82-13.77l-2.32,8.38-.65-3.5Z"/>
    <path class="st0" d="M101.36,326.77l2.12,8.1c-1.88-.47-3.91-1.26-4.12-.54l-1.26,4.41-3.52-.67c-.74-.14-.36,1.98-.89,3.73-6.74-4.17-.76-34.16,5.2-41.72l16.25-20.65c.41,7.94-3.54,13.39-7.51,19.95-2.84,4.68,11.74,26.59,12.13,41.02l-6.44-5.92c-.28-.26-.69-1.81-.85-2.16s-1.29-.9-1.41-.55l-1.11,3.1c-1.94-3.62-3.91-7.28-8.58-8.09Z"/>
    <path class="st0" d="M207.41,326.91c-2.2-.29-4.27,2.61-5.01,5.67l-1.11,4.64-1.48-4.29-5.02,4.77c.73-7.01,1.65-14.32,4.72-20.94,2.79-6.03,4.26-11.32,5.31-18.07l1.73-5.88,3.11,1.33c.54.23.65,1.67.82,2.58l2.86,14.66c1.09,5.6,3.67,10.82,3.85,16.59l.34,11.06-5.29-.02-.68-4.26c-.16-1.02-2.08-.77-5.04.19l.87-8.02Z"/>
    <path class="st0" d="M235.42,209.55l4.98,5.83-2.35-16.17,2.77,2.75c-.23,1.53.62,4.19,1.61,6.47,3.92-8.67,6.06-15.99,8.39-25.06l3.14,11.69.14.52-.06,2-.91-1.76-2.1-2.64,1.7,12.04-2.59-3.08.37,9.1-2.32.95c-.29.12-.57-.6-1.56-1.79l-.66,10.47-2.96-.98-1.04,8.03-2.36-5.56-.7,10.77-3.88-9.93c.86-4.93.86-9.17.36-13.65Z"/>
    <path class="st1" d="M253.37,158.43l-2.26,4.05-1.49-1.2c-.43-.34-1.59.63-2.19.97-8.25-1.2-13.54-8.78-13.94-17.98,4.65,1.53,9.86,3.25,12.87,6.52l7.02,7.64ZM237.7,149.29l-.04-1.48.04,1.48ZM239.4,148.39l-1,1.03,2.87,6.05c.78,1.64,4.84,2.75,6.29,2.14-2.39-4.51-4.8-7.77-8.16-9.22Z"/>
    <path class="st0" d="M89.89,352.39l.12,3.34-5.65-.49c.58-4.43-.22-7.39-2.05-10.44l5.9-24.05.2,26.59c2.89,2.62,4.77,4.85,5.47,8.45l-3.99-3.41Z"/>
    <path class="st0" d="M229.1,354.55l-5.68.96.45-6.43c-.98-1.14-2.96-3.64-2.92-5.27l.57-22.7,5.8,25.85,5.22,8.37-3.43-.78Z"/>
    <path class="st0" d="M122.01,326.59l.06-1.5.95,1.76,8.87,18.91,5.01,7.58-9.05.05c1.97-4.44-1.1-6.21-3.68-7.42l-1.46-18.64-.69-.74Z"/>
    <path class="st1" d="M154.05,264.55c-11.62-2.05-15.11-10.79-24.93-6.13,1.26-3.48,4.27-5.22,7.1-5.38s5.34,1.48,7.82,3.29c6.01,4.38,12.42,6.45,19.8,9.96l-9.79-1.73Z"/>
    <path class="st3" d="M241.35,198.38l-.53,3.58-2.77-2.75,2.35,16.17-4.98-5.83c-.72-.85-1.07-2.87-1.43-4.09l1.5-14.26,1.88,4.93.64-8.63c3.12,2.96.65,9.2,1.52,9.74l1.82,1.14Z"/>
    <path class="st0" d="M264.62,186.07l-1.7,2.75c-.33.53-2.53-.07-3.12-.35-7.22-3.36-9.97-12.4-5.77-19.87l3.2,6.22c-.18,5.86,2.75,9.1,7.4,11.26Z"/>
    <path class="st0" d="M93.21,301.05l-5.07,11.13c-1.99-3.85-1.34-8.11-.89-11.18-.6-1.01-2.35-4.02-1.62-4.83l4.97-5.57-1.89,7.91,4.85-4.53c-.02.94.3,5.65-.34,7.06Z"/>
    <path class="st1" d="M93.42,279.05l-4.82-1.09c2.2-4.09,3.43-9.13,4.32-14.04l.49-2.73c.09-.52,1.51.27,2.29.72,2.1,6.18.08,11.78-2.28,17.14Z"/>
    <polygon class="st1" points="156.92 273.66 139.75 273.88 142.55 267.17 156.92 273.66"/>
    <path class="st1" d="M280.59,154.78l-5.21-5.01,7.99-7.48c.38,5.42-.37,7.69-2.78,12.49Z"/>
    <path class="st1" d="M281.29,190.2l2.4-2.33.19-2.37,2.05-1.41c-1,2.83,7.67,6.02,4.85,7.87s-7.44.38-9.48-1.75Z"/>
    <path class="st3" d="M116.5,268.03l-.37,1.06-5.13.71,5.01-5.6c2.58-2.89,4.26-6.3,7.77-7.99l-7.27,11.81Z"/>
    <path class="st3" d="M283.69,187.87l-2.4,2.33-6.01-6.26c.49-.45,1.03-3.62,1.76-3.24s2.79,1.73,3.25,2.4l3.4,4.77Z"/>
    <path class="st2" d="M232.62,200.86c-.68.17-.86,2.7-.8,3.69l.51,8.34c-2.39-4.83-2.27-10.34-1.11-15.14l1.4,3.1Z"/>
    <path class="st0" d="M103.05,253.85q0,2.34,0,0,0-1.22,0,0Z"/>
    <polygon class="st2" points="233.05 213.8 233.07 214.46 233.07 215.13 233.05 215.78 233.03 215.13 233.03 214.46 233.05 213.8"/>
    <path class="st2" d="M231.71,195.7l-2.12.27c.02-.36.21-1.48.5-1.29l1.61,1.03Z"/>
    <polygon class="st3" points="260.21 148.28 260.89 148.28 261.54 148.29 260.89 148.31 260.21 148.31 259.56 148.29 260.21 148.28"/>
    <path class="st0" d="M285.93,184.08l-2.05,1.41-.19,2.37-3.4-4.77c-.46-.66-2.52-2.02-3.25-2.4s-1.27,2.79-1.76,3.24l-10.32-10.58-4.81-3.56-.42-.88.65-1.27.74,1.2,6.82.23,1.04-1.03c-.61-1.38-1.46-3.27-2.53-3.99s-4.45-.22-6.54.13c-2.02-2.78-2.83-8.47,1.63-11.21l4.95,6.71c7.71,6.41,21.11,19.67,19.43,24.4ZM269.49,168.12l-1.2,1.52,3.27,1.55-2.06-3.08Z"/>
    <polygon class="st3" points="188.22 203.78 179.2 202.4 195.88 196.09 188.22 203.78"/>
    <path class="st3" d="M220.35,248.74l.65,3.5,2.32-8.38c3.79,6.6-1.69,12.51-7.82,13.77l4.85-8.89Z"/>
    <path class="st3" d="M227.94,219.18c-2.59-5.78-3.71-11.05-3.81-17.06,4.04,5.38,4.27,11.14,3.81,17.06Z"/>
    <rect class="st3" x="228.7" y="219.94" width=".71" height=".71" transform="translate(-88.68 226.49) rotate(-45)"/>
    <path class="st3" d="M237.7,149.29l-.04-1.48,1.75.58c3.36,1.45,5.77,4.71,8.16,9.22-1.45.61-5.52-.5-6.29-2.14l-2.87-6.05c-.03-.07-.29-.08-.7-.13Z"/>
  </g>
</svg>